<?xml version="1.0" encoding="UTF-8" standalone="no"?>
<!DOCTYPE svg PUBLIC "-//W3C//DTD SVG 1.1//EN"
 "http://www.w3.org/Graphics/SVG/1.1/DTD/svg11.dtd">
<!-- Generated by graphviz version 2.26.0 (20091210.2329)
 -->
<!-- Title: ihm_struct_assembly Pages: 1 -->
<svg width="486pt" height="893pt"
 viewBox="0.00 0.00 486.00 893.00" xmlns="http://www.w3.org/2000/svg" xmlns:xlink="http://www.w3.org/1999/xlink">
<g id="graph1" class="graph" transform="scale(1 1) rotate(0) translate(4 889)">
<title>ihm_struct_assembly</title>
<polygon fill="white" stroke="white" points="-4,5 -4,-889 483,-889 483,5 -4,5"/>
<text text-anchor="start" x="236" y="-51.8" font-family="Helvetica,sans-Serif" font-size="18.00"> </text>
<text text-anchor="start" x="8.5" y="-30.2" font-family="Helvetica,sans-Serif" font-size="18.00">Selected Relationships for Category </text>
<text text-anchor="start" x="297.5" y="-30.2" font-family="Helvetica,sans-Serif" font-size="18.00">ihm_struct_assembly</text>
<text text-anchor="start" x="465.5" y="-29.8" font-family="Helvetica,sans-Serif" font-size="14.00"> </text>
<text text-anchor="start" x="154.5" y="-11.5333" font-family="Helvetica,sans-Serif" font-size="14.00"> &#160;in dictionary ihm&#45;extension</text>
<!-- _entity_poly_seq -->
<g id="node1" class="node"><title>_entity_poly_seq</title>
<a xlink:href="/dictionaries/ihm-extension-5.dic/Categories/entity_poly_seq.html" xlink:title="&lt;TABLE&gt;" target="_top">
<polygon fill="#99c49b" stroke="#99c49b" points="226.86,-149 226.86,-170 331.86,-170 331.86,-149 226.86,-149"/>
<polygon fill="none" stroke="black" points="226.86,-149 226.86,-170 331.86,-170 331.86,-149 226.86,-149"/>
<text text-anchor="start" x="232.36" y="-157.167" font-family="Helvetica,sans-Serif" font-size="10.00">ENTITY_POLY_SEQ</text>
</a>
<a xlink:href="/dictionaries/ihm-extension-5.dic/Items/_entity_poly_seq.entity_id.html" xlink:title="&lt;TABLE&gt;" target="_top">
<polygon fill="#ffff99" stroke="#ffff99" points="226.86,-130 226.86,-149 331.86,-149 331.86,-130 226.86,-130"/>
<polygon fill="none" stroke="black" points="226.86,-130 226.86,-149 331.86,-149 331.86,-130 226.86,-130"/>
<text text-anchor="start" x="231.86" y="-137.4" font-family="Helvetica,sans-Serif" font-size="9.00">entity_id</text>
</a>
<a xlink:href="/dictionaries/ihm-extension-5.dic/Items/_entity_poly_seq.mon_id.html" xlink:title="&lt;TABLE&gt;" target="_top">
<polygon fill="#ffff99" stroke="#ffff99" points="226.86,-111 226.86,-130 331.86,-130 331.86,-111 226.86,-111"/>
<polygon fill="none" stroke="black" points="226.86,-111 226.86,-130 331.86,-130 331.86,-111 226.86,-111"/>
<text text-anchor="start" x="231.86" y="-118.4" font-family="Helvetica,sans-Serif" font-size="9.00">mon_id</text>
</a>
<a xlink:href="/dictionaries/ihm-extension-5.dic/Items/_entity_poly_seq.num.html" xlink:title="&lt;TABLE&gt;" target="_top">
<polygon fill="#ffff99" stroke="#ffff99" points="226.86,-92 226.86,-111 331.86,-111 331.86,-92 226.86,-92"/>
<polygon fill="none" stroke="black" points="226.86,-92 226.86,-111 331.86,-111 331.86,-92 226.86,-92"/>
<text text-anchor="start" x="231.86" y="-99.4" font-family="Helvetica,sans-Serif" font-size="9.00">num</text>
</a>
<a xlink:href="/dictionaries/ihm-extension-5.dic/Items/_entity_poly_seq.hetero.html" xlink:title="&lt;TABLE&gt;" target="_top">
<polygon fill="none" stroke="black" points="226.86,-73 226.86,-92 331.86,-92 331.86,-73 226.86,-73"/>
<text text-anchor="start" x="231.86" y="-80.4" font-family="Helvetica,sans-Serif" font-size="9.00">hetero</text>
</a>
</g>
<!-- _ihm_dataset_list -->
<g id="node2" class="node"><title>_ihm_dataset_list</title>
<a xlink:href="/dictionaries/ihm-extension-5.dic/Categories/ihm_dataset_list.html" xlink:title="&lt;TABLE&gt;" target="_top">
<polygon fill="#99c49b" stroke="#99c49b" points="62.8597,-329 62.8597,-350 170.86,-350 170.86,-329 62.8597,-329"/>
<polygon fill="none" stroke="black" points="62.8597,-329 62.8597,-350 170.86,-350 170.86,-329 62.8597,-329"/>
<text text-anchor="start" x="68.3597" y="-337.167" font-family="Helvetica,sans-Serif" font-size="10.00">IHM_DATASET_LIST</text>
</a>
<a xlink:href="/dictionaries/ihm-extension-5.dic/Items/_ihm_dataset_list.id.html" xlink:title="&lt;TABLE&gt;" target="_top">
<polygon fill="#ffff99" stroke="#ffff99" points="62.8597,-310 62.8597,-329 170.86,-329 170.86,-310 62.8597,-310"/>
<polygon fill="none" stroke="black" points="62.8597,-310 62.8597,-329 170.86,-329 170.86,-310 62.8597,-310"/>
<text text-anchor="start" x="67.8597" y="-317.4" font-family="Helvetica,sans-Serif" font-size="9.00">id</text>
</a>
<a xlink:href="/dictionaries/ihm-extension-5.dic/Items/_ihm_dataset_list.category_info.html" xlink:title="&lt;TABLE&gt;" target="_top">
<polygon fill="none" stroke="black" points="62.8597,-291 62.8597,-310 170.86,-310 170.86,-291 62.8597,-291"/>
<text text-anchor="start" x="67.8597" y="-298.4" font-family="Helvetica,sans-Serif" font-size="9.00">category_info</text>
</a>
<a xlink:href="/dictionaries/ihm-extension-5.dic/Items/_ihm_dataset_list.data_type.html" xlink:title="&lt;TABLE&gt;" target="_top">
<polygon fill="none" stroke="black" points="62.8597,-272 62.8597,-291 170.86,-291 170.86,-272 62.8597,-272"/>
<text text-anchor="start" x="67.8597" y="-279.4" font-family="Helvetica,sans-Serif" font-size="9.00">data_type</text>
</a>
<a xlink:href="/dictionaries/ihm-extension-5.dic/Items/_ihm_dataset_list.database_hosted.html" xlink:title="&lt;TABLE&gt;" target="_top">
<polygon fill="none" stroke="black" points="62.8597,-253 62.8597,-272 170.86,-272 170.86,-253 62.8597,-253"/>
<text text-anchor="start" x="67.8597" y="-260.4" font-family="Helvetica,sans-Serif" font-size="9.00">database_hosted</text>
</a>
<a xlink:href="/dictionaries/ihm-extension-5.dic/Items/_ihm_dataset_list.group_id.html" xlink:title="&lt;TABLE&gt;" target="_top">
<polygon fill="none" stroke="black" points="62.8597,-234 62.8597,-253 170.86,-253 170.86,-234 62.8597,-234"/>
<text text-anchor="start" x="67.8597" y="-241.4" font-family="Helvetica,sans-Serif" font-size="9.00">group_id</text>
</a>
</g>
<!-- _ihm_model_list -->
<g id="node3" class="node"><title>_ihm_model_list</title>
<a xlink:href="/dictionaries/ihm-extension-5.dic/Categories/ihm_model_list.html" xlink:title="&lt;TABLE&gt;" target="_top">
<polygon fill="#99c49b" stroke="#99c49b" points="155.86,-859 155.86,-880 252.86,-880 252.86,-859 155.86,-859"/>
<polygon fill="none" stroke="black" points="155.86,-859 155.86,-880 252.86,-880 252.86,-859 155.86,-859"/>
<text text-anchor="start" x="161.36" y="-867.167" font-family="Helvetica,sans-Serif" font-size="10.00">IHM_MODEL_LIST</text>
</a>
<a xlink:href="/dictionaries/ihm-extension-5.dic/Items/_ihm_model_list.ordinal_id.html" xlink:title="&lt;TABLE&gt;" target="_top">
<polygon fill="#ffff99" stroke="#ffff99" points="155.86,-840 155.86,-859 252.86,-859 252.86,-840 155.86,-840"/>
<polygon fill="none" stroke="black" points="155.86,-840 155.86,-859 252.86,-859 252.86,-840 155.86,-840"/>
<text text-anchor="start" x="160.86" y="-847.4" font-family="Helvetica,sans-Serif" font-size="9.00">ordinal_id</text>
</a>
<a xlink:href="/dictionaries/ihm-extension-5.dic/Items/_ihm_model_list.assembly_id.html" xlink:title="&lt;TABLE&gt;" target="_top">
<polygon fill="none" stroke="black" points="155.86,-821 155.86,-840 252.86,-840 252.86,-821 155.86,-821"/>
<text text-anchor="start" x="160.86" y="-828.4" font-family="Helvetica,sans-Serif" font-size="9.00">assembly_id</text>
</a>
<a xlink:href="/dictionaries/ihm-extension-5.dic/Items/_ihm_model_list.model_group_id.html" xlink:title="&lt;TABLE&gt;" target="_top">
<polygon fill="none" stroke="black" points="155.86,-802 155.86,-821 252.86,-821 252.86,-802 155.86,-802"/>
<text text-anchor="start" x="160.86" y="-809.4" font-family="Helvetica,sans-Serif" font-size="9.00">model_group_id</text>
</a>
<a xlink:href="/dictionaries/ihm-extension-5.dic/Items/_ihm_model_list.model_group_name.html" xlink:title="&lt;TABLE&gt;" target="_top">
<polygon fill="none" stroke="black" points="155.86,-783 155.86,-802 252.86,-802 252.86,-783 155.86,-783"/>
<text text-anchor="start" x="160.86" y="-790.4" font-family="Helvetica,sans-Serif" font-size="9.00">model_group_name</text>
</a>
<a xlink:href="/dictionaries/ihm-extension-5.dic/Items/_ihm_model_list.model_id.html" xlink:title="&lt;TABLE&gt;" target="_top">
<polygon fill="none" stroke="black" points="155.86,-764 155.86,-783 252.86,-783 252.86,-764 155.86,-764"/>
<text text-anchor="start" x="160.86" y="-771.4" font-family="Helvetica,sans-Serif" font-size="9.00">model_id</text>
</a>
<a xlink:href="/dictionaries/ihm-extension-5.dic/Items/_ihm_model_list.protocol_id.html" xlink:title="&lt;TABLE&gt;" target="_top">
<polygon fill="none" stroke="black" points="155.86,-745 155.86,-764 252.86,-764 252.86,-745 155.86,-745"/>
<text text-anchor="start" x="160.86" y="-752.4" font-family="Helvetica,sans-Serif" font-size="9.00">protocol_id</text>
</a>
</g>
<!-- _ihm_modeling_protocol -->
<g id="node4" class="node"><title>_ihm_modeling_protocol</title>
<a xlink:href="/dictionaries/ihm-extension-5.dic/Categories/ihm_modeling_protocol.html" xlink:title="&lt;TABLE&gt;" target="_top">
<polygon fill="#99c49b" stroke="#99c49b" points="62.8597,-679 62.8597,-700 212.86,-700 212.86,-679 62.8597,-679"/>
<polygon fill="none" stroke="black" points="62.8597,-679 62.8597,-700 212.86,-700 212.86,-679 62.8597,-679"/>
<text text-anchor="start" x="68.3597" y="-687.167" font-family="Helvetica,sans-Serif" font-size="10.00">IHM_MODELING_PROTOCOL</text>
</a>
<a xlink:href="/dictionaries/ihm-extension-5.dic/Items/_ihm_modeling_protocol.ordinal_id.html" xlink:title="&lt;TABLE&gt;" target="_top">
<polygon fill="#ffff99" stroke="#ffff99" points="62.8597,-660 62.8597,-679 212.86,-679 212.86,-660 62.8597,-660"/>
<polygon fill="none" stroke="black" points="62.8597,-660 62.8597,-679 212.86,-679 212.86,-660 62.8597,-660"/>
<text text-anchor="start" x="67.8597" y="-667.4" font-family="Helvetica,sans-Serif" font-size="9.00">ordinal_id</text>
</a>
<a xlink:href="/dictionaries/ihm-extension-5.dic/Items/_ihm_modeling_protocol.struct_assembly_id.html" xlink:title="&lt;TABLE&gt;" target="_top">
<polygon fill="none" stroke="black" points="62.8597,-641 62.8597,-660 212.86,-660 212.86,-641 62.8597,-641"/>
<text text-anchor="start" x="67.8597" y="-648.4" font-family="Helvetica,sans-Serif" font-size="9.00">struct_assembly_id</text>
</a>
<a xlink:href="/dictionaries/ihm-extension-5.dic/Items/_ihm_modeling_protocol.dataset_group_id.html" xlink:title="&lt;TABLE&gt;" target="_top">
<polygon fill="none" stroke="black" points="62.8597,-622 62.8597,-641 212.86,-641 212.86,-622 62.8597,-622"/>
<text text-anchor="start" x="67.8597" y="-629.4" font-family="Helvetica,sans-Serif" font-size="9.00">dataset_group_id</text>
</a>
<a xlink:href="/dictionaries/ihm-extension-5.dic/Items/_ihm_modeling_protocol.multi_scale_flag.html" xlink:title="&lt;TABLE&gt;" target="_top">
<polygon fill="none" stroke="black" points="62.8597,-603 62.8597,-622 212.86,-622 212.86,-603 62.8597,-603"/>
<text text-anchor="start" x="67.8597" y="-610.4" font-family="Helvetica,sans-Serif" font-size="9.00">multi_scale_flag</text>
</a>
<a xlink:href="/dictionaries/ihm-extension-5.dic/Items/_ihm_modeling_protocol.multi_state_flag.html" xlink:title="&lt;TABLE&gt;" target="_top">
<polygon fill="none" stroke="black" points="62.8597,-584 62.8597,-603 212.86,-603 212.86,-584 62.8597,-584"/>
<text text-anchor="start" x="67.8597" y="-591.4" font-family="Helvetica,sans-Serif" font-size="9.00">multi_state_flag</text>
</a>
<a xlink:href="/dictionaries/ihm-extension-5.dic/Items/_ihm_modeling_protocol.num_models_begin.html" xlink:title="&lt;TABLE&gt;" target="_top">
<polygon fill="none" stroke="black" points="62.8597,-565 62.8597,-584 212.86,-584 212.86,-565 62.8597,-565"/>
<text text-anchor="start" x="67.8597" y="-572.4" font-family="Helvetica,sans-Serif" font-size="9.00">num_models_begin</text>
</a>
<a xlink:href="/dictionaries/ihm-extension-5.dic/Items/_ihm_modeling_protocol.num_models_end.html" xlink:title="&lt;TABLE&gt;" target="_top">
<polygon fill="none" stroke="black" points="62.8597,-546 62.8597,-565 212.86,-565 212.86,-546 62.8597,-546"/>
<text text-anchor="start" x="67.8597" y="-553.4" font-family="Helvetica,sans-Serif" font-size="9.00">num_models_end</text>
</a>
<a xlink:href="/dictionaries/ihm-extension-5.dic/Items/_ihm_modeling_protocol.protocol_id.html" xlink:title="&lt;TABLE&gt;" target="_top">
<polygon fill="none" stroke="black" points="62.8597,-527 62.8597,-546 212.86,-546 212.86,-527 62.8597,-527"/>
<text text-anchor="start" x="67.8597" y="-534.4" font-family="Helvetica,sans-Serif" font-size="9.00">protocol_id</text>
</a>
<a xlink:href="/dictionaries/ihm-extension-5.dic/Items/_ihm_modeling_protocol.protocol_name.html" xlink:title="&lt;TABLE&gt;" target="_top">
<polygon fill="none" stroke="black" points="62.8597,-508 62.8597,-527 212.86,-527 212.86,-508 62.8597,-508"/>
<text text-anchor="start" x="67.8597" y="-515.4" font-family="Helvetica,sans-Serif" font-size="9.00">protocol_name</text>
</a>
<a xlink:href="/dictionaries/ihm-extension-5.dic/Items/_ihm_modeling_protocol.step_id.html" xlink:title="&lt;TABLE&gt;" target="_top">
<polygon fill="none" stroke="black" points="62.8597,-489 62.8597,-508 212.86,-508 212.86,-489 62.8597,-489"/>
<text text-anchor="start" x="67.8597" y="-496.4" font-family="Helvetica,sans-Serif" font-size="9.00">step_id</text>
</a>
<a xlink:href="/dictionaries/ihm-extension-5.dic/Items/_ihm_modeling_protocol.step_method.html" xlink:title="&lt;TABLE&gt;" target="_top">
<polygon fill="none" stroke="black" points="62.8597,-470 62.8597,-489 212.86,-489 212.86,-470 62.8597,-470"/>
<text text-anchor="start" x="67.8597" y="-477.4" font-family="Helvetica,sans-Serif" font-size="9.00">step_method</text>
</a>
<a xlink:href="/dictionaries/ihm-extension-5.dic/Items/_ihm_modeling_protocol.step_name.html" xlink:title="&lt;TABLE&gt;" target="_top">
<polygon fill="none" stroke="black" points="62.8597,-451 62.8597,-470 212.86,-470 212.86,-451 62.8597,-451"/>
<text text-anchor="start" x="67.8597" y="-458.4" font-family="Helvetica,sans-Serif" font-size="9.00">step_name</text>
</a>
<a xlink:href="/dictionaries/ihm-extension-5.dic/Items/_ihm_modeling_protocol.struct_assembly_description.html" xlink:title="&lt;TABLE&gt;" target="_top">
<polygon fill="none" stroke="black" points="62.8597,-432 62.8597,-451 212.86,-451 212.86,-432 62.8597,-432"/>
<text text-anchor="start" x="67.8597" y="-439.4" font-family="Helvetica,sans-Serif" font-size="9.00">struct_assembly_description</text>
</a>
<a xlink:href="/dictionaries/ihm-extension-5.dic/Items/_ihm_modeling_protocol.time_ordered_flag.html" xlink:title="&lt;TABLE&gt;" target="_top">
<polygon fill="none" stroke="black" points="62.8597,-413 62.8597,-432 212.86,-432 212.86,-413 62.8597,-413"/>
<text text-anchor="start" x="67.8597" y="-420.4" font-family="Helvetica,sans-Serif" font-size="9.00">time_ordered_flag</text>
</a>
</g>
<!-- _ihm_model_list&#45;&gt;_ihm_modeling_protocol -->
<g id="edge12" class="edge"><title>_ihm_model_list:__protocol_id:w&#45;&gt;_ihm_modeling_protocol:__protocol_id:w</title>
<path fill="none" stroke="black" d="M153.86,-754C107.819,-754 86.3847,-744.077 62.8597,-704.5 26.4628,-643.269 -8.44879,-546.074 52.6744,-536.728"/>
<polygon fill="black" stroke="black" points="53.1347,-540.204 62.8597,-536 52.6355,-533.222 53.1347,-540.204"/>
</g>
<!-- _ihm_struct_assembly -->
<g id="node5" class="node"><title>_ihm_struct_assembly</title>
<a xlink:href="/dictionaries/ihm-extension-5.dic/Categories/ihm_struct_assembly.html" xlink:title="&lt;TABLE&gt;" target="_top">
<polygon fill="#f0027f" stroke="#f0027f" points="226.86,-348 226.86,-369 362.86,-369 362.86,-348 226.86,-348"/>
<polygon fill="none" stroke="black" points="226.86,-348 226.86,-369 362.86,-369 362.86,-348 226.86,-348"/>
<text text-anchor="start" x="232.36" y="-356.167" font-family="Helvetica,sans-Serif" font-size="10.00">IHM_STRUCT_ASSEMBLY</text>
</a>
<a xlink:href="/dictionaries/ihm-extension-5.dic/Items/_ihm_struct_assembly.ordinal_id.html" xlink:title="&lt;TABLE&gt;" target="_top">
<polygon fill="#ffff99" stroke="#ffff99" points="226.86,-329 226.86,-348 362.86,-348 362.86,-329 226.86,-329"/>
<polygon fill="none" stroke="black" points="226.86,-329 226.86,-348 362.86,-348 362.86,-329 226.86,-329"/>
<text text-anchor="start" x="231.86" y="-336.4" font-family="Helvetica,sans-Serif" font-size="9.00">ordinal_id</text>
</a>
<a xlink:href="/dictionaries/ihm-extension-5.dic/Items/_ihm_struct_assembly.assembly_id.html" xlink:title="&lt;TABLE&gt;" target="_top">
<polygon fill="none" stroke="black" points="226.86,-310 226.86,-329 362.86,-329 362.86,-310 226.86,-310"/>
<text text-anchor="start" x="231.86" y="-317.4" font-family="Helvetica,sans-Serif" font-size="9.00">assembly_id</text>
</a>
<a xlink:href="/dictionaries/ihm-extension-5.dic/Items/_ihm_struct_assembly.asym_id.html" xlink:title="&lt;TABLE&gt;" target="_top">
<polygon fill="none" stroke="black" points="226.86,-291 226.86,-310 362.86,-310 362.86,-291 226.86,-291"/>
<text text-anchor="start" x="231.86" y="-298.4" font-family="Helvetica,sans-Serif" font-size="9.00">asym_id</text>
</a>
<a xlink:href="/dictionaries/ihm-extension-5.dic/Items/_ihm_struct_assembly.entity_id.html" xlink:title="&lt;TABLE&gt;" target="_top">
<polygon fill="none" stroke="black" points="226.86,-272 226.86,-291 362.86,-291 362.86,-272 226.86,-272"/>
<text text-anchor="start" x="231.86" y="-279.4" font-family="Helvetica,sans-Serif" font-size="9.00">entity_id</text>
</a>
<a xlink:href="/dictionaries/ihm-extension-5.dic/Items/_ihm_struct_assembly.seq_id_begin.html" xlink:title="&lt;TABLE&gt;" target="_top">
<polygon fill="none" stroke="black" points="226.86,-253 226.86,-272 362.86,-272 362.86,-253 226.86,-253"/>
<text text-anchor="start" x="231.86" y="-260.4" font-family="Helvetica,sans-Serif" font-size="9.00">seq_id_begin</text>
</a>
<a xlink:href="/dictionaries/ihm-extension-5.dic/Items/_ihm_struct_assembly.seq_id_end.html" xlink:title="&lt;TABLE&gt;" target="_top">
<polygon fill="none" stroke="black" points="226.86,-234 226.86,-253 362.86,-253 362.86,-234 226.86,-234"/>
<text text-anchor="start" x="231.86" y="-241.4" font-family="Helvetica,sans-Serif" font-size="9.00">seq_id_end</text>
</a>
<a xlink:href="/dictionaries/ihm-extension-5.dic/Items/_ihm_struct_assembly.entity_description.html" xlink:title="&lt;TABLE&gt;" target="_top">
<polygon fill="none" stroke="black" points="226.86,-215 226.86,-234 362.86,-234 362.86,-215 226.86,-215"/>
<text text-anchor="start" x="231.86" y="-222.4" font-family="Helvetica,sans-Serif" font-size="9.00">entity_description</text>
</a>
</g>
<!-- _ihm_model_list&#45;&gt;_ihm_struct_assembly -->
<g id="edge10" class="edge"><title>_ihm_model_list:__assembly_id:w&#45;&gt;_ihm_struct_assembly:__assembly_id:w</title>
<path fill="none" stroke="black" d="M153.86,-831C114.072,-831 134.474,-775.052 155.86,-741.5 175.57,-710.576 210.496,-736.143 229.86,-705 299.326,-593.28 235.327,-540.442 229.86,-409 228.388,-373.627 195.479,-330.322 216.883,-321.581"/>
<polygon fill="black" stroke="black" points="217.531,-325.022 226.86,-320 216.435,-318.108 217.531,-325.022"/>
</g>
<!-- _ihm_modeling_protocol&#45;&gt;_ihm_dataset_list -->
<g id="edge8" class="edge"><title>_ihm_modeling_protocol:__dataset_group_id:w&#45;&gt;_ihm_dataset_list:__group_id:w</title>
<path fill="none" stroke="black" d="M60.8597,-632C20.676,-632 19.5792,-295.78 54.3551,-248.499"/>
<polygon fill="black" stroke="black" points="56.3626,-251.369 62.8597,-243 52.5617,-245.491 56.3626,-251.369"/>
</g>
<!-- _ihm_modeling_protocol&#45;&gt;_ihm_struct_assembly -->
<g id="edge14" class="edge"><title>_ihm_modeling_protocol:__struct_assembly_id:w&#45;&gt;_ihm_struct_assembly:__assembly_id:w</title>
<path fill="none" stroke="black" d="M60.8597,-651C7.19116,-651 30.4876,-452.306 62.8597,-409.5 97.7693,-363.338 140.431,-406.167 187.86,-373 208.456,-358.597 200.856,-329.807 216.873,-321.995"/>
<polygon fill="black" stroke="black" points="217.739,-325.391 226.86,-320 216.368,-318.527 217.739,-325.391"/>
</g>
<!-- _ihm_struct_assembly&#45;&gt;_entity_poly_seq -->
<g id="edge2" class="edge"><title>_ihm_struct_assembly:__entity_id:w&#45;&gt;_entity_poly_seq:__entity_id:w</title>
<path fill="none" stroke="black" d="M224.86,-281C196.951,-281 195.484,-169.157 217.635,-144.691"/>
<polygon fill="black" stroke="black" points="219.533,-147.653 226.86,-140 216.36,-141.414 219.533,-147.653"/>
</g>
<!-- _ihm_struct_assembly&#45;&gt;_entity_poly_seq -->
<g id="edge4" class="edge"><title>_ihm_struct_assembly:__seq_id_begin:w&#45;&gt;_entity_poly_seq:__num:w</title>
<path fill="none" stroke="black" d="M224.86,-262C192.573,-262 191.049,-130.91 217.347,-105.306"/>
<polygon fill="black" stroke="black" points="219.193,-108.313 226.86,-101 216.306,-101.936 219.193,-108.313"/>
</g>
<!-- _ihm_struct_assembly&#45;&gt;_entity_poly_seq -->
<g id="edge6" class="edge"><title>_ihm_struct_assembly:__seq_id_end:w&#45;&gt;_entity_poly_seq:__num:w</title>
<path fill="none" stroke="black" d="M224.86,-243C196.629,-243 195.252,-129.374 217.865,-105.405"/>
<polygon fill="black" stroke="black" points="219.419,-108.542 226.86,-101 216.339,-102.256 219.419,-108.542"/>
</g>
<!-- _struct_asym -->
<g id="node6" class="node"><title>_struct_asym</title>
<a xlink:href="/dictionaries/ihm-extension-5.dic/Categories/struct_asym.html" xlink:title="&lt;TABLE&gt;" target="_top">
<polygon fill="#99c49b" stroke="#99c49b" points="364.86,-140 364.86,-161 451.86,-161 451.86,-140 364.86,-140"/>
<polygon fill="none" stroke="black" points="364.86,-140 364.86,-161 451.86,-161 451.86,-140 364.86,-140"/>
<text text-anchor="start" x="370.36" y="-148.167" font-family="Helvetica,sans-Serif" font-size="10.00">STRUCT_ASYM</text>
</a>
<a xlink:href="/dictionaries/ihm-extension-5.dic/Items/_struct_asym.id.html" xlink:title="&lt;TABLE&gt;" target="_top">
<polygon fill="#ffff99" stroke="#ffff99" points="364.86,-121 364.86,-140 451.86,-140 451.86,-121 364.86,-121"/>
<polygon fill="none" stroke="black" points="364.86,-121 364.86,-140 451.86,-140 451.86,-121 364.86,-121"/>
<text text-anchor="start" x="369.86" y="-128.4" font-family="Helvetica,sans-Serif" font-size="9.00">id</text>
</a>
<a xlink:href="/dictionaries/ihm-extension-5.dic/Items/_struct_asym.details.html" xlink:title="&lt;TABLE&gt;" target="_top">
<polygon fill="none" stroke="black" points="364.86,-102 364.86,-121 451.86,-121 451.86,-102 364.86,-102"/>
<text text-anchor="start" x="369.86" y="-109.4" font-family="Helvetica,sans-Serif" font-size="9.00">details</text>
</a>
<a xlink:href="/dictionaries/ihm-extension-5.dic/Items/_struct_asym.entity_id.html" xlink:title="&lt;TABLE&gt;" target="_top">
<polygon fill="none" stroke="black" points="364.86,-83 364.86,-102 451.86,-102 451.86,-83 364.86,-83"/>
<text text-anchor="start" x="369.86" y="-90.4" font-family="Helvetica,sans-Serif" font-size="9.00">entity_id</text>
</a>
</g>
<!-- _ihm_struct_assembly&#45;&gt;_struct_asym -->
<g id="edge16" class="edge"><title>_ihm_struct_assembly:__asym_id:w&#45;&gt;_struct_asym:__id:w</title>
<path fill="none" stroke="black" d="M224.86,-301C184.85,-301 202.585,-242.805 226.86,-211 260.901,-166.399 306.64,-213.066 347.86,-175 359.651,-164.11 351.063,-144.104 355.798,-135.323"/>
<polygon fill="black" stroke="black" points="357.342,-138.465 364.86,-131 354.327,-132.148 357.342,-138.465"/>
</g>
</g>
</svg>
