<?xml version="1.0" encoding="UTF-8" standalone="no"?>
<!DOCTYPE svg PUBLIC "-//W3C//DTD SVG 1.1//EN"
 "http://www.w3.org/Graphics/SVG/1.1/DTD/svg11.dtd">
<!-- Generated by graphviz version 2.26.0 (20091210.2329)
 -->
<!-- Title: entity_poly_seq Pages: 1 -->
<svg width="703pt" height="703pt"
 viewBox="0.00 0.00 703.03 703.00" xmlns="http://www.w3.org/2000/svg" xmlns:xlink="http://www.w3.org/1999/xlink">
<g id="graph1" class="graph" transform="scale(1 1) rotate(0) translate(4 699)">
<title>entity_poly_seq</title>
<polygon fill="white" stroke="white" points="-4,5 -4,-699 700.034,-699 700.034,5 -4,5"/>
<text text-anchor="start" x="344.517" y="-51.8" font-family="Helvetica,sans-Serif" font-size="18.00"> </text>
<text text-anchor="start" x="133.517" y="-30.2" font-family="Helvetica,sans-Serif" font-size="18.00">Selected Relationships for Category &#160;</text>
<text text-anchor="start" x="428.517" y="-30.2" font-family="Helvetica,sans-Serif" font-size="18.00"> entity_poly_seq</text>
<text text-anchor="start" x="557.517" y="-29.8" font-family="Helvetica,sans-Serif" font-size="14.00"> </text>
<text text-anchor="start" x="263.017" y="-11.5333" font-family="Helvetica,sans-Serif" font-size="14.00"> &#160;in dictionary ihm&#45;extension</text>
<!-- _atom_site -->
<g id="node1" class="node"><title>_atom_site</title>
<a xlink:href="/dictionaries/ihm-extension-6.dic/Categories/atom_site.html" xlink:title="&lt;TABLE&gt;" target="_top">
<polygon fill="#99c49b" stroke="#99c49b" points="577.034,-670 577.034,-691 688.034,-691 688.034,-670 577.034,-670"/>
<polygon fill="none" stroke="black" points="577.034,-670 577.034,-691 688.034,-691 688.034,-670 577.034,-670"/>
<text text-anchor="start" x="604.034" y="-678.167" font-family="Helvetica,sans-Serif" font-size="10.00">ATOM_SITE</text>
</a>
<a xlink:href="/dictionaries/ihm-extension-6.dic/Items/_atom_site.id.html" xlink:title="&lt;TABLE&gt;" target="_top">
<polygon fill="#ffff99" stroke="#ffff99" points="577.034,-651 577.034,-670 688.034,-670 688.034,-651 577.034,-651"/>
<polygon fill="none" stroke="black" points="577.034,-651 577.034,-670 688.034,-670 688.034,-651 577.034,-651"/>
<text text-anchor="start" x="582.034" y="-658.4" font-family="Helvetica,sans-Serif" font-size="9.00">id</text>
</a>
<a xlink:href="/dictionaries/ihm-extension-6.dic/Items/_atom_site.label_seq_id.html" xlink:title="&lt;TABLE&gt;" target="_top">
<polygon fill="none" stroke="black" points="577.034,-632 577.034,-651 688.034,-651 688.034,-632 577.034,-632"/>
<text text-anchor="start" x="582.034" y="-639.4" font-family="Helvetica,sans-Serif" font-size="9.00">label_seq_id</text>
</a>
<a xlink:href="/dictionaries/ihm-extension-6.dic/Items/_atom_site.B_iso_or_equiv.html" xlink:title="&lt;TABLE&gt;" target="_top">
<polygon fill="none" stroke="black" points="577.034,-613 577.034,-632 688.034,-632 688.034,-613 577.034,-613"/>
<text text-anchor="start" x="582.034" y="-620.4" font-family="Helvetica,sans-Serif" font-size="9.00">B_iso_or_equiv</text>
</a>
<a xlink:href="/dictionaries/ihm-extension-6.dic/Items/_atom_site.Cartn_x.html" xlink:title="&lt;TABLE&gt;" target="_top">
<polygon fill="none" stroke="black" points="577.034,-594 577.034,-613 688.034,-613 688.034,-594 577.034,-594"/>
<text text-anchor="start" x="582.034" y="-601.4" font-family="Helvetica,sans-Serif" font-size="9.00">Cartn_x</text>
</a>
<a xlink:href="/dictionaries/ihm-extension-6.dic/Items/_atom_site.Cartn_y.html" xlink:title="&lt;TABLE&gt;" target="_top">
<polygon fill="none" stroke="black" points="577.034,-575 577.034,-594 688.034,-594 688.034,-575 577.034,-575"/>
<text text-anchor="start" x="582.034" y="-582.4" font-family="Helvetica,sans-Serif" font-size="9.00">Cartn_y</text>
</a>
<a xlink:href="/dictionaries/ihm-extension-6.dic/Items/_atom_site.Cartn_z.html" xlink:title="&lt;TABLE&gt;" target="_top">
<polygon fill="none" stroke="black" points="577.034,-556 577.034,-575 688.034,-575 688.034,-556 577.034,-556"/>
<text text-anchor="start" x="582.034" y="-563.4" font-family="Helvetica,sans-Serif" font-size="9.00">Cartn_z</text>
</a>
<a xlink:href="/dictionaries/ihm-extension-6.dic/Items/_atom_site.U_iso_or_equiv.html" xlink:title="&lt;TABLE&gt;" target="_top">
<polygon fill="none" stroke="black" points="577.034,-537 577.034,-556 688.034,-556 688.034,-537 577.034,-537"/>
<text text-anchor="start" x="582.034" y="-544.4" font-family="Helvetica,sans-Serif" font-size="9.00">U_iso_or_equiv</text>
</a>
<a xlink:href="/dictionaries/ihm-extension-6.dic/Items/_atom_site.auth_asym_id.html" xlink:title="&lt;TABLE&gt;" target="_top">
<polygon fill="none" stroke="black" points="577.034,-518 577.034,-537 688.034,-537 688.034,-518 577.034,-518"/>
<text text-anchor="start" x="582.034" y="-525.4" font-family="Helvetica,sans-Serif" font-size="9.00">auth_asym_id</text>
</a>
<a xlink:href="/dictionaries/ihm-extension-6.dic/Items/_atom_site.auth_atom_id.html" xlink:title="&lt;TABLE&gt;" target="_top">
<polygon fill="none" stroke="black" points="577.034,-499 577.034,-518 688.034,-518 688.034,-499 577.034,-499"/>
<text text-anchor="start" x="582.034" y="-506.4" font-family="Helvetica,sans-Serif" font-size="9.00">auth_atom_id</text>
</a>
<a xlink:href="/dictionaries/ihm-extension-6.dic/Items/_atom_site.auth_comp_id.html" xlink:title="&lt;TABLE&gt;" target="_top">
<polygon fill="none" stroke="black" points="577.034,-480 577.034,-499 688.034,-499 688.034,-480 577.034,-480"/>
<text text-anchor="start" x="582.034" y="-487.4" font-family="Helvetica,sans-Serif" font-size="9.00">auth_comp_id</text>
</a>
<a xlink:href="/dictionaries/ihm-extension-6.dic/Items/_atom_site.auth_seq_id.html" xlink:title="&lt;TABLE&gt;" target="_top">
<polygon fill="none" stroke="black" points="577.034,-461 577.034,-480 688.034,-480 688.034,-461 577.034,-461"/>
<text text-anchor="start" x="582.034" y="-468.4" font-family="Helvetica,sans-Serif" font-size="9.00">auth_seq_id</text>
</a>
<a xlink:href="/dictionaries/ihm-extension-6.dic/Items/_atom_site.chemical_conn_number.html" xlink:title="&lt;TABLE&gt;" target="_top">
<polygon fill="none" stroke="black" points="577.034,-442 577.034,-461 688.034,-461 688.034,-442 577.034,-442"/>
<text text-anchor="start" x="582.034" y="-449.4" font-family="Helvetica,sans-Serif" font-size="9.00">chemical_conn_number</text>
</a>
<a xlink:href="/dictionaries/ihm-extension-6.dic/Items/_atom_site.group_PDB.html" xlink:title="&lt;TABLE&gt;" target="_top">
<polygon fill="none" stroke="black" points="577.034,-423 577.034,-442 688.034,-442 688.034,-423 577.034,-423"/>
<text text-anchor="start" x="582.034" y="-430.4" font-family="Helvetica,sans-Serif" font-size="9.00">group_PDB</text>
</a>
<a xlink:href="/dictionaries/ihm-extension-6.dic/Items/_atom_site.label_alt_id.html" xlink:title="&lt;TABLE&gt;" target="_top">
<polygon fill="none" stroke="black" points="577.034,-404 577.034,-423 688.034,-423 688.034,-404 577.034,-404"/>
<text text-anchor="start" x="582.034" y="-411.4" font-family="Helvetica,sans-Serif" font-size="9.00">label_alt_id</text>
</a>
<a xlink:href="/dictionaries/ihm-extension-6.dic/Items/_atom_site.label_asym_id.html" xlink:title="&lt;TABLE&gt;" target="_top">
<polygon fill="none" stroke="black" points="577.034,-385 577.034,-404 688.034,-404 688.034,-385 577.034,-385"/>
<text text-anchor="start" x="582.034" y="-392.4" font-family="Helvetica,sans-Serif" font-size="9.00">label_asym_id</text>
</a>
<a xlink:href="/dictionaries/ihm-extension-6.dic/Items/_atom_site.label_atom_id.html" xlink:title="&lt;TABLE&gt;" target="_top">
<polygon fill="none" stroke="black" points="577.034,-366 577.034,-385 688.034,-385 688.034,-366 577.034,-366"/>
<text text-anchor="start" x="582.034" y="-373.4" font-family="Helvetica,sans-Serif" font-size="9.00">label_atom_id</text>
</a>
<a xlink:href="/dictionaries/ihm-extension-6.dic/Items/_atom_site.label_comp_id.html" xlink:title="&lt;TABLE&gt;" target="_top">
<polygon fill="none" stroke="black" points="577.034,-347 577.034,-366 688.034,-366 688.034,-347 577.034,-347"/>
<text text-anchor="start" x="582.034" y="-354.4" font-family="Helvetica,sans-Serif" font-size="9.00">label_comp_id</text>
</a>
<a xlink:href="/dictionaries/ihm-extension-6.dic/Items/_atom_site.label_entity_id.html" xlink:title="&lt;TABLE&gt;" target="_top">
<polygon fill="none" stroke="black" points="577.034,-328 577.034,-347 688.034,-347 688.034,-328 577.034,-328"/>
<text text-anchor="start" x="582.034" y="-335.4" font-family="Helvetica,sans-Serif" font-size="9.00">label_entity_id</text>
</a>
<a xlink:href="/dictionaries/ihm-extension-6.dic/Items/_atom_site.occupancy.html" xlink:title="&lt;TABLE&gt;" target="_top">
<polygon fill="none" stroke="black" points="577.034,-309 577.034,-328 688.034,-328 688.034,-309 577.034,-309"/>
<text text-anchor="start" x="582.034" y="-316.4" font-family="Helvetica,sans-Serif" font-size="9.00">occupancy</text>
</a>
<a xlink:href="/dictionaries/ihm-extension-6.dic/Items/_atom_site.occupancy_esd.html" xlink:title="&lt;TABLE&gt;" target="_top">
<polygon fill="none" stroke="black" points="577.034,-290 577.034,-309 688.034,-309 688.034,-290 577.034,-290"/>
<text text-anchor="start" x="582.034" y="-297.4" font-family="Helvetica,sans-Serif" font-size="9.00">occupancy_esd</text>
</a>
<a xlink:href="/dictionaries/ihm-extension-6.dic/Items/_atom_site.type_symbol.html" xlink:title="&lt;TABLE&gt;" target="_top">
<polygon fill="none" stroke="black" points="577.034,-271 577.034,-290 688.034,-290 688.034,-271 577.034,-271"/>
<text text-anchor="start" x="582.034" y="-278.4" font-family="Helvetica,sans-Serif" font-size="9.00">type_symbol</text>
</a>
</g>
<!-- _entity_poly_seq -->
<g id="node2" class="node"><title>_entity_poly_seq</title>
<a xlink:href="/dictionaries/ihm-extension-6.dic/Categories/entity_poly_seq.html" xlink:title="&lt;TABLE&gt;" target="_top">
<polygon fill="#f0027f" stroke="#f0027f" points="201.034,-177 201.034,-198 306.034,-198 306.034,-177 201.034,-177"/>
<polygon fill="none" stroke="black" points="201.034,-177 201.034,-198 306.034,-198 306.034,-177 201.034,-177"/>
<text text-anchor="start" x="206.534" y="-185.167" font-family="Helvetica,sans-Serif" font-size="10.00">ENTITY_POLY_SEQ</text>
</a>
<a xlink:href="/dictionaries/ihm-extension-6.dic/Items/_entity_poly_seq.entity_id.html" xlink:title="&lt;TABLE&gt;" target="_top">
<polygon fill="#ffff99" stroke="#ffff99" points="201.034,-158 201.034,-177 306.034,-177 306.034,-158 201.034,-158"/>
<polygon fill="none" stroke="black" points="201.034,-158 201.034,-177 306.034,-177 306.034,-158 201.034,-158"/>
<text text-anchor="start" x="206.034" y="-165.4" font-family="Helvetica,sans-Serif" font-size="9.00">entity_id</text>
</a>
<a xlink:href="/dictionaries/ihm-extension-6.dic/Items/_entity_poly_seq.mon_id.html" xlink:title="&lt;TABLE&gt;" target="_top">
<polygon fill="#ffff99" stroke="#ffff99" points="201.034,-139 201.034,-158 306.034,-158 306.034,-139 201.034,-139"/>
<polygon fill="none" stroke="black" points="201.034,-139 201.034,-158 306.034,-158 306.034,-139 201.034,-139"/>
<text text-anchor="start" x="206.034" y="-146.4" font-family="Helvetica,sans-Serif" font-size="9.00">mon_id</text>
</a>
<a xlink:href="/dictionaries/ihm-extension-6.dic/Items/_entity_poly_seq.num.html" xlink:title="&lt;TABLE&gt;" target="_top">
<polygon fill="#ffff99" stroke="#ffff99" points="201.034,-120 201.034,-139 306.034,-139 306.034,-120 201.034,-120"/>
<polygon fill="none" stroke="black" points="201.034,-120 201.034,-139 306.034,-139 306.034,-120 201.034,-120"/>
<text text-anchor="start" x="206.034" y="-127.4" font-family="Helvetica,sans-Serif" font-size="9.00">num</text>
</a>
<a xlink:href="/dictionaries/ihm-extension-6.dic/Items/_entity_poly_seq.hetero.html" xlink:title="&lt;TABLE&gt;" target="_top">
<polygon fill="none" stroke="black" points="201.034,-101 201.034,-120 306.034,-120 306.034,-101 201.034,-101"/>
<text text-anchor="start" x="206.034" y="-108.4" font-family="Helvetica,sans-Serif" font-size="9.00">hetero</text>
</a>
</g>
<!-- _atom_site&#45;&gt;_entity_poly_seq -->
<g id="edge4" class="edge"><title>_atom_site:__label_seq_id:w&#45;&gt;_entity_poly_seq:__num:w</title>
<path fill="none" stroke="black" d="M575.034,-642C554.184,-642 573.849,-282.616 560.034,-267 506.326,-206.292 252.27,-265.307 201.034,-202.5 182.885,-180.253 171.404,-140.335 191.068,-130.994"/>
<polygon fill="black" stroke="black" points="191.915,-134.394 201.034,-129 190.541,-127.53 191.915,-134.394"/>
</g>
<!-- _struct_asym -->
<g id="node7" class="node"><title>_struct_asym</title>
<a xlink:href="/dictionaries/ihm-extension-6.dic/Categories/struct_asym.html" xlink:title="&lt;TABLE&gt;" target="_top">
<polygon fill="#99c49b" stroke="#99c49b" points="357.034,-168 357.034,-189 444.034,-189 444.034,-168 357.034,-168"/>
<polygon fill="none" stroke="black" points="357.034,-168 357.034,-189 444.034,-189 444.034,-168 357.034,-168"/>
<text text-anchor="start" x="362.534" y="-176.167" font-family="Helvetica,sans-Serif" font-size="10.00">STRUCT_ASYM</text>
</a>
<a xlink:href="/dictionaries/ihm-extension-6.dic/Items/_struct_asym.id.html" xlink:title="&lt;TABLE&gt;" target="_top">
<polygon fill="#ffff99" stroke="#ffff99" points="357.034,-149 357.034,-168 444.034,-168 444.034,-149 357.034,-149"/>
<polygon fill="none" stroke="black" points="357.034,-149 357.034,-168 444.034,-168 444.034,-149 357.034,-149"/>
<text text-anchor="start" x="362.034" y="-156.4" font-family="Helvetica,sans-Serif" font-size="9.00">id</text>
</a>
<a xlink:href="/dictionaries/ihm-extension-6.dic/Items/_struct_asym.details.html" xlink:title="&lt;TABLE&gt;" target="_top">
<polygon fill="none" stroke="black" points="357.034,-130 357.034,-149 444.034,-149 444.034,-130 357.034,-130"/>
<text text-anchor="start" x="362.034" y="-137.4" font-family="Helvetica,sans-Serif" font-size="9.00">details</text>
</a>
<a xlink:href="/dictionaries/ihm-extension-6.dic/Items/_struct_asym.entity_id.html" xlink:title="&lt;TABLE&gt;" target="_top">
<polygon fill="none" stroke="black" points="357.034,-111 357.034,-130 444.034,-130 444.034,-111 357.034,-111"/>
<text text-anchor="start" x="362.034" y="-118.4" font-family="Helvetica,sans-Serif" font-size="9.00">entity_id</text>
</a>
</g>
<!-- _atom_site&#45;&gt;_struct_asym -->
<g id="edge2" class="edge"><title>_atom_site:__label_asym_id:w&#45;&gt;_struct_asym:__id:w</title>
<path fill="none" stroke="black" d="M575.034,-394C546.615,-394 577.668,-289.286 560.034,-267 500.446,-191.694 412.095,-271.677 357.034,-193 351.077,-184.488 346.168,-171.61 348.593,-164.392"/>
<polygon fill="black" stroke="black" points="350.491,-167.333 357.034,-159 346.722,-161.434 350.491,-167.333"/>
</g>
<!-- _ihm_gaussian_obj_site -->
<g id="node3" class="node"><title>_ihm_gaussian_obj_site</title>
<a xlink:href="/dictionaries/ihm-extension-6.dic/Categories/ihm_gaussian_obj_site.html" xlink:title="&lt;TABLE&gt;" target="_top">
<polygon fill="#99c49b" stroke="#99c49b" points="201.034,-651 201.034,-672 342.034,-672 342.034,-651 201.034,-651"/>
<polygon fill="none" stroke="black" points="201.034,-651 201.034,-672 342.034,-672 342.034,-651 201.034,-651"/>
<text text-anchor="start" x="206.534" y="-659.167" font-family="Helvetica,sans-Serif" font-size="10.00">IHM_GAUSSIAN_OBJ_SITE</text>
</a>
<a xlink:href="/dictionaries/ihm-extension-6.dic/Items/_ihm_gaussian_obj_site.ordinal_id.html" xlink:title="&lt;TABLE&gt;" target="_top">
<polygon fill="#ffff99" stroke="#ffff99" points="201.034,-632 201.034,-651 342.034,-651 342.034,-632 201.034,-632"/>
<polygon fill="none" stroke="black" points="201.034,-632 201.034,-651 342.034,-651 342.034,-632 201.034,-632"/>
<text text-anchor="start" x="206.034" y="-639.4" font-family="Helvetica,sans-Serif" font-size="9.00">ordinal_id</text>
</a>
<a xlink:href="/dictionaries/ihm-extension-6.dic/Items/_ihm_gaussian_obj_site.entity_id.html" xlink:title="&lt;TABLE&gt;" target="_top">
<polygon fill="none" stroke="black" points="201.034,-613 201.034,-632 342.034,-632 342.034,-613 201.034,-613"/>
<text text-anchor="start" x="206.034" y="-620.4" font-family="Helvetica,sans-Serif" font-size="9.00">entity_id</text>
</a>
<a xlink:href="/dictionaries/ihm-extension-6.dic/Items/_ihm_gaussian_obj_site.seq_id_begin.html" xlink:title="&lt;TABLE&gt;" target="_top">
<polygon fill="none" stroke="black" points="201.034,-594 201.034,-613 342.034,-613 342.034,-594 201.034,-594"/>
<text text-anchor="start" x="206.034" y="-601.4" font-family="Helvetica,sans-Serif" font-size="9.00">seq_id_begin</text>
</a>
<a xlink:href="/dictionaries/ihm-extension-6.dic/Items/_ihm_gaussian_obj_site.seq_id_end.html" xlink:title="&lt;TABLE&gt;" target="_top">
<polygon fill="none" stroke="black" points="201.034,-575 201.034,-594 342.034,-594 342.034,-575 201.034,-575"/>
<text text-anchor="start" x="206.034" y="-582.4" font-family="Helvetica,sans-Serif" font-size="9.00">seq_id_end</text>
</a>
<a xlink:href="/dictionaries/ihm-extension-6.dic/Items/_ihm_gaussian_obj_site.asym_id.html" xlink:title="&lt;TABLE&gt;" target="_top">
<polygon fill="none" stroke="black" points="201.034,-556 201.034,-575 342.034,-575 342.034,-556 201.034,-556"/>
<text text-anchor="start" x="206.034" y="-563.4" font-family="Helvetica,sans-Serif" font-size="9.00">asym_id</text>
</a>
<a xlink:href="/dictionaries/ihm-extension-6.dic/Items/_ihm_gaussian_obj_site.covariance_matrix[1][1].html" xlink:title="&lt;TABLE&gt;" target="_top">
<polygon fill="none" stroke="black" points="201.034,-537 201.034,-556 342.034,-556 342.034,-537 201.034,-537"/>
<text text-anchor="start" x="206.034" y="-544.4" font-family="Helvetica,sans-Serif" font-size="9.00">covariance_matrix[1][1]</text>
</a>
<a xlink:href="/dictionaries/ihm-extension-6.dic/Items/_ihm_gaussian_obj_site.covariance_matrix[1][2].html" xlink:title="&lt;TABLE&gt;" target="_top">
<polygon fill="none" stroke="black" points="201.034,-518 201.034,-537 342.034,-537 342.034,-518 201.034,-518"/>
<text text-anchor="start" x="206.034" y="-525.4" font-family="Helvetica,sans-Serif" font-size="9.00">covariance_matrix[1][2]</text>
</a>
<a xlink:href="/dictionaries/ihm-extension-6.dic/Items/_ihm_gaussian_obj_site.covariance_matrix[1][3].html" xlink:title="&lt;TABLE&gt;" target="_top">
<polygon fill="none" stroke="black" points="201.034,-499 201.034,-518 342.034,-518 342.034,-499 201.034,-499"/>
<text text-anchor="start" x="206.034" y="-506.4" font-family="Helvetica,sans-Serif" font-size="9.00">covariance_matrix[1][3]</text>
</a>
<a xlink:href="/dictionaries/ihm-extension-6.dic/Items/_ihm_gaussian_obj_site.covariance_matrix[2][1].html" xlink:title="&lt;TABLE&gt;" target="_top">
<polygon fill="none" stroke="black" points="201.034,-480 201.034,-499 342.034,-499 342.034,-480 201.034,-480"/>
<text text-anchor="start" x="206.034" y="-487.4" font-family="Helvetica,sans-Serif" font-size="9.00">covariance_matrix[2][1]</text>
</a>
<a xlink:href="/dictionaries/ihm-extension-6.dic/Items/_ihm_gaussian_obj_site.covariance_matrix[2][2].html" xlink:title="&lt;TABLE&gt;" target="_top">
<polygon fill="none" stroke="black" points="201.034,-461 201.034,-480 342.034,-480 342.034,-461 201.034,-461"/>
<text text-anchor="start" x="206.034" y="-468.4" font-family="Helvetica,sans-Serif" font-size="9.00">covariance_matrix[2][2]</text>
</a>
<a xlink:href="/dictionaries/ihm-extension-6.dic/Items/_ihm_gaussian_obj_site.covariance_matrix[2][3].html" xlink:title="&lt;TABLE&gt;" target="_top">
<polygon fill="none" stroke="black" points="201.034,-442 201.034,-461 342.034,-461 342.034,-442 201.034,-442"/>
<text text-anchor="start" x="206.034" y="-449.4" font-family="Helvetica,sans-Serif" font-size="9.00">covariance_matrix[2][3]</text>
</a>
<a xlink:href="/dictionaries/ihm-extension-6.dic/Items/_ihm_gaussian_obj_site.covariance_matrix[3][1].html" xlink:title="&lt;TABLE&gt;" target="_top">
<polygon fill="none" stroke="black" points="201.034,-423 201.034,-442 342.034,-442 342.034,-423 201.034,-423"/>
<text text-anchor="start" x="206.034" y="-430.4" font-family="Helvetica,sans-Serif" font-size="9.00">covariance_matrix[3][1]</text>
</a>
<a xlink:href="/dictionaries/ihm-extension-6.dic/Items/_ihm_gaussian_obj_site.covariance_matrix[3][2].html" xlink:title="&lt;TABLE&gt;" target="_top">
<polygon fill="none" stroke="black" points="201.034,-404 201.034,-423 342.034,-423 342.034,-404 201.034,-404"/>
<text text-anchor="start" x="206.034" y="-411.4" font-family="Helvetica,sans-Serif" font-size="9.00">covariance_matrix[3][2]</text>
</a>
<a xlink:href="/dictionaries/ihm-extension-6.dic/Items/_ihm_gaussian_obj_site.covariance_matrix[3][3].html" xlink:title="&lt;TABLE&gt;" target="_top">
<polygon fill="none" stroke="black" points="201.034,-385 201.034,-404 342.034,-404 342.034,-385 201.034,-385"/>
<text text-anchor="start" x="206.034" y="-392.4" font-family="Helvetica,sans-Serif" font-size="9.00">covariance_matrix[3][3]</text>
</a>
<a xlink:href="/dictionaries/ihm-extension-6.dic/Items/_ihm_gaussian_obj_site.mean_Cartn_x.html" xlink:title="&lt;TABLE&gt;" target="_top">
<polygon fill="none" stroke="black" points="201.034,-366 201.034,-385 342.034,-385 342.034,-366 201.034,-366"/>
<text text-anchor="start" x="206.034" y="-373.4" font-family="Helvetica,sans-Serif" font-size="9.00">mean_Cartn_x</text>
</a>
<a xlink:href="/dictionaries/ihm-extension-6.dic/Items/_ihm_gaussian_obj_site.mean_Cartn_y.html" xlink:title="&lt;TABLE&gt;" target="_top">
<polygon fill="none" stroke="black" points="201.034,-347 201.034,-366 342.034,-366 342.034,-347 201.034,-347"/>
<text text-anchor="start" x="206.034" y="-354.4" font-family="Helvetica,sans-Serif" font-size="9.00">mean_Cartn_y</text>
</a>
<a xlink:href="/dictionaries/ihm-extension-6.dic/Items/_ihm_gaussian_obj_site.mean_Cartn_z.html" xlink:title="&lt;TABLE&gt;" target="_top">
<polygon fill="none" stroke="black" points="201.034,-328 201.034,-347 342.034,-347 342.034,-328 201.034,-328"/>
<text text-anchor="start" x="206.034" y="-335.4" font-family="Helvetica,sans-Serif" font-size="9.00">mean_Cartn_z</text>
</a>
<a xlink:href="/dictionaries/ihm-extension-6.dic/Items/_ihm_gaussian_obj_site.model_id.html" xlink:title="&lt;TABLE&gt;" target="_top">
<polygon fill="none" stroke="black" points="201.034,-309 201.034,-328 342.034,-328 342.034,-309 201.034,-309"/>
<text text-anchor="start" x="206.034" y="-316.4" font-family="Helvetica,sans-Serif" font-size="9.00">model_id</text>
</a>
<a xlink:href="/dictionaries/ihm-extension-6.dic/Items/_ihm_gaussian_obj_site.weight.html" xlink:title="&lt;TABLE&gt;" target="_top">
<polygon fill="none" stroke="black" points="201.034,-290 201.034,-309 342.034,-309 342.034,-290 201.034,-290"/>
<text text-anchor="start" x="206.034" y="-297.4" font-family="Helvetica,sans-Serif" font-size="9.00">weight</text>
</a>
</g>
<!-- _ihm_gaussian_obj_site&#45;&gt;_entity_poly_seq -->
<g id="edge10" class="edge"><title>_ihm_gaussian_obj_site:__entity_id:w&#45;&gt;_entity_poly_seq:__entity_id:w</title>
<path fill="none" stroke="black" d="M199.034,-623C187.506,-623 188.156,-244.466 197.951,-177.926"/>
<polygon fill="black" stroke="black" points="201.41,-178.588 201.034,-168 194.725,-176.512 201.41,-178.588"/>
</g>
<!-- _ihm_gaussian_obj_site&#45;&gt;_entity_poly_seq -->
<g id="edge18" class="edge"><title>_ihm_gaussian_obj_site:__seq_id_begin:w&#45;&gt;_entity_poly_seq:__num:w</title>
<path fill="none" stroke="black" d="M199.034,-604C186.973,-604 187.608,-207.133 197.883,-138.921"/>
<polygon fill="black" stroke="black" points="201.342,-139.59 201.034,-129 194.671,-137.471 201.342,-139.59"/>
</g>
<!-- _ihm_gaussian_obj_site&#45;&gt;_entity_poly_seq -->
<g id="edge20" class="edge"><title>_ihm_gaussian_obj_site:__seq_id_end:w&#45;&gt;_entity_poly_seq:__num:w</title>
<path fill="none" stroke="black" d="M199.034,-585C187.48,-585 188.129,-205.634 197.944,-138.948"/>
<polygon fill="black" stroke="black" points="201.41,-139.588 201.034,-129 194.725,-137.512 201.41,-139.588"/>
</g>
<!-- _ihm_model_list -->
<g id="node4" class="node"><title>_ihm_model_list</title>
<a xlink:href="/dictionaries/ihm-extension-6.dic/Categories/ihm_model_list.html" xlink:title="&lt;TABLE&gt;" target="_top">
<polygon fill="#99c49b" stroke="#99c49b" points="54.0338,-206 54.0338,-227 151.034,-227 151.034,-206 54.0338,-206"/>
<polygon fill="none" stroke="black" points="54.0338,-206 54.0338,-227 151.034,-227 151.034,-206 54.0338,-206"/>
<text text-anchor="start" x="59.5338" y="-214.167" font-family="Helvetica,sans-Serif" font-size="10.00">IHM_MODEL_LIST</text>
</a>
<a xlink:href="/dictionaries/ihm-extension-6.dic/Items/_ihm_model_list.ordinal_id.html" xlink:title="&lt;TABLE&gt;" target="_top">
<polygon fill="#ffff99" stroke="#ffff99" points="54.0338,-187 54.0338,-206 151.034,-206 151.034,-187 54.0338,-187"/>
<polygon fill="none" stroke="black" points="54.0338,-187 54.0338,-206 151.034,-206 151.034,-187 54.0338,-187"/>
<text text-anchor="start" x="59.0338" y="-194.4" font-family="Helvetica,sans-Serif" font-size="9.00">ordinal_id</text>
</a>
<a xlink:href="/dictionaries/ihm-extension-6.dic/Items/_ihm_model_list.assembly_id.html" xlink:title="&lt;TABLE&gt;" target="_top">
<polygon fill="none" stroke="black" points="54.0338,-168 54.0338,-187 151.034,-187 151.034,-168 54.0338,-168"/>
<text text-anchor="start" x="59.0338" y="-175.4" font-family="Helvetica,sans-Serif" font-size="9.00">assembly_id</text>
</a>
<a xlink:href="/dictionaries/ihm-extension-6.dic/Items/_ihm_model_list.model_group_id.html" xlink:title="&lt;TABLE&gt;" target="_top">
<polygon fill="none" stroke="black" points="54.0338,-149 54.0338,-168 151.034,-168 151.034,-149 54.0338,-149"/>
<text text-anchor="start" x="59.0338" y="-156.4" font-family="Helvetica,sans-Serif" font-size="9.00">model_group_id</text>
</a>
<a xlink:href="/dictionaries/ihm-extension-6.dic/Items/_ihm_model_list.model_group_name.html" xlink:title="&lt;TABLE&gt;" target="_top">
<polygon fill="none" stroke="black" points="54.0338,-130 54.0338,-149 151.034,-149 151.034,-130 54.0338,-130"/>
<text text-anchor="start" x="59.0338" y="-137.4" font-family="Helvetica,sans-Serif" font-size="9.00">model_group_name</text>
</a>
<a xlink:href="/dictionaries/ihm-extension-6.dic/Items/_ihm_model_list.model_id.html" xlink:title="&lt;TABLE&gt;" target="_top">
<polygon fill="none" stroke="black" points="54.0338,-111 54.0338,-130 151.034,-130 151.034,-111 54.0338,-111"/>
<text text-anchor="start" x="59.0338" y="-118.4" font-family="Helvetica,sans-Serif" font-size="9.00">model_id</text>
</a>
<a xlink:href="/dictionaries/ihm-extension-6.dic/Items/_ihm_model_list.model_name.html" xlink:title="&lt;TABLE&gt;" target="_top">
<polygon fill="none" stroke="black" points="54.0338,-92 54.0338,-111 151.034,-111 151.034,-92 54.0338,-92"/>
<text text-anchor="start" x="59.0338" y="-99.4" font-family="Helvetica,sans-Serif" font-size="9.00">model_name</text>
</a>
<a xlink:href="/dictionaries/ihm-extension-6.dic/Items/_ihm_model_list.protocol_id.html" xlink:title="&lt;TABLE&gt;" target="_top">
<polygon fill="none" stroke="black" points="54.0338,-73 54.0338,-92 151.034,-92 151.034,-73 54.0338,-73"/>
<text text-anchor="start" x="59.0338" y="-80.4" font-family="Helvetica,sans-Serif" font-size="9.00">protocol_id</text>
</a>
</g>
<!-- _ihm_gaussian_obj_site&#45;&gt;_ihm_model_list -->
<g id="edge24" class="edge"><title>_ihm_gaussian_obj_site:__model_id:w&#45;&gt;_ihm_model_list:__model_id:w</title>
<path fill="none" stroke="black" d="M199.034,-318C175.407,-318 200.873,-283.573 184.034,-267 141.306,-224.946 90.3314,-278.715 54.0338,-231 26.4988,-194.804 7.80535,-131.011 43.7032,-121.264"/>
<polygon fill="black" stroke="black" points="44.5328,-124.689 54.0338,-120 43.6828,-117.74 44.5328,-124.689"/>
</g>
<!-- _ihm_gaussian_obj_site&#45;&gt;_struct_asym -->
<g id="edge22" class="edge"><title>_ihm_gaussian_obj_site:__asym_id:w&#45;&gt;_struct_asym:__id:w</title>
<path fill="none" stroke="black" d="M199.034,-566C183.478,-566 192.565,-299.049 201.034,-286 233.192,-236.448 279.727,-272.227 322.034,-231 344.629,-208.981 326.697,-169.4 347.151,-160.715"/>
<polygon fill="black" stroke="black" points="347.779,-164.158 357.034,-159 346.583,-157.261 347.779,-164.158"/>
</g>
<!-- _ihm_model_representation -->
<g id="node5" class="node"><title>_ihm_model_representation</title>
<a xlink:href="/dictionaries/ihm-extension-6.dic/Categories/ihm_model_representation.html" xlink:title="&lt;TABLE&gt;" target="_top">
<polygon fill="#99c49b" stroke="#99c49b" points="375.034,-594 375.034,-615 544.034,-615 544.034,-594 375.034,-594"/>
<polygon fill="none" stroke="black" points="375.034,-594 375.034,-615 544.034,-615 544.034,-594 375.034,-594"/>
<text text-anchor="start" x="380.534" y="-602.167" font-family="Helvetica,sans-Serif" font-size="10.00">IHM_MODEL_REPRESENTATION</text>
</a>
<a xlink:href="/dictionaries/ihm-extension-6.dic/Items/_ihm_model_representation.ordinal_id.html" xlink:title="&lt;TABLE&gt;" target="_top">
<polygon fill="#ffff99" stroke="#ffff99" points="375.034,-575 375.034,-594 544.034,-594 544.034,-575 375.034,-575"/>
<polygon fill="none" stroke="black" points="375.034,-575 375.034,-594 544.034,-594 544.034,-575 375.034,-575"/>
<text text-anchor="start" x="380.034" y="-582.4" font-family="Helvetica,sans-Serif" font-size="9.00">ordinal_id</text>
</a>
<a xlink:href="/dictionaries/ihm-extension-6.dic/Items/_ihm_model_representation.entity_id.html" xlink:title="&lt;TABLE&gt;" target="_top">
<polygon fill="none" stroke="black" points="375.034,-556 375.034,-575 544.034,-575 544.034,-556 375.034,-556"/>
<text text-anchor="start" x="380.034" y="-563.4" font-family="Helvetica,sans-Serif" font-size="9.00">entity_id</text>
</a>
<a xlink:href="/dictionaries/ihm-extension-6.dic/Items/_ihm_model_representation.seq_id_begin.html" xlink:title="&lt;TABLE&gt;" target="_top">
<polygon fill="none" stroke="black" points="375.034,-537 375.034,-556 544.034,-556 544.034,-537 375.034,-537"/>
<text text-anchor="start" x="380.034" y="-544.4" font-family="Helvetica,sans-Serif" font-size="9.00">seq_id_begin</text>
</a>
<a xlink:href="/dictionaries/ihm-extension-6.dic/Items/_ihm_model_representation.entity_asym_id.html" xlink:title="&lt;TABLE&gt;" target="_top">
<polygon fill="none" stroke="black" points="375.034,-518 375.034,-537 544.034,-537 544.034,-518 375.034,-518"/>
<text text-anchor="start" x="380.034" y="-525.4" font-family="Helvetica,sans-Serif" font-size="9.00">entity_asym_id</text>
</a>
<a xlink:href="/dictionaries/ihm-extension-6.dic/Items/_ihm_model_representation.entity_description.html" xlink:title="&lt;TABLE&gt;" target="_top">
<polygon fill="none" stroke="black" points="375.034,-499 375.034,-518 544.034,-518 544.034,-499 375.034,-499"/>
<text text-anchor="start" x="380.034" y="-506.4" font-family="Helvetica,sans-Serif" font-size="9.00">entity_description</text>
</a>
<a xlink:href="/dictionaries/ihm-extension-6.dic/Items/_ihm_model_representation.model_granularity.html" xlink:title="&lt;TABLE&gt;" target="_top">
<polygon fill="none" stroke="black" points="375.034,-480 375.034,-499 544.034,-499 544.034,-480 375.034,-480"/>
<text text-anchor="start" x="380.034" y="-487.4" font-family="Helvetica,sans-Serif" font-size="9.00">model_granularity</text>
</a>
<a xlink:href="/dictionaries/ihm-extension-6.dic/Items/_ihm_model_representation.model_mode.html" xlink:title="&lt;TABLE&gt;" target="_top">
<polygon fill="none" stroke="black" points="375.034,-461 375.034,-480 544.034,-480 544.034,-461 375.034,-461"/>
<text text-anchor="start" x="380.034" y="-468.4" font-family="Helvetica,sans-Serif" font-size="9.00">model_mode</text>
</a>
<a xlink:href="/dictionaries/ihm-extension-6.dic/Items/_ihm_model_representation.model_object_count.html" xlink:title="&lt;TABLE&gt;" target="_top">
<polygon fill="none" stroke="black" points="375.034,-442 375.034,-461 544.034,-461 544.034,-442 375.034,-442"/>
<text text-anchor="start" x="380.034" y="-449.4" font-family="Helvetica,sans-Serif" font-size="9.00">model_object_count</text>
</a>
<a xlink:href="/dictionaries/ihm-extension-6.dic/Items/_ihm_model_representation.model_object_primitive.html" xlink:title="&lt;TABLE&gt;" target="_top">
<polygon fill="none" stroke="black" points="375.034,-423 375.034,-442 544.034,-442 544.034,-423 375.034,-423"/>
<text text-anchor="start" x="380.034" y="-430.4" font-family="Helvetica,sans-Serif" font-size="9.00">model_object_primitive</text>
</a>
<a xlink:href="/dictionaries/ihm-extension-6.dic/Items/_ihm_model_representation.representation_id.html" xlink:title="&lt;TABLE&gt;" target="_top">
<polygon fill="none" stroke="black" points="375.034,-404 375.034,-423 544.034,-423 544.034,-404 375.034,-404"/>
<text text-anchor="start" x="380.034" y="-411.4" font-family="Helvetica,sans-Serif" font-size="9.00">representation_id</text>
</a>
<a xlink:href="/dictionaries/ihm-extension-6.dic/Items/_ihm_model_representation.segment_id.html" xlink:title="&lt;TABLE&gt;" target="_top">
<polygon fill="none" stroke="black" points="375.034,-385 375.034,-404 544.034,-404 544.034,-385 375.034,-385"/>
<text text-anchor="start" x="380.034" y="-392.4" font-family="Helvetica,sans-Serif" font-size="9.00">segment_id</text>
</a>
<a xlink:href="/dictionaries/ihm-extension-6.dic/Items/_ihm_model_representation.seq_id_end.html" xlink:title="&lt;TABLE&gt;" target="_top">
<polygon fill="none" stroke="black" points="375.034,-366 375.034,-385 544.034,-385 544.034,-366 375.034,-366"/>
<text text-anchor="start" x="380.034" y="-373.4" font-family="Helvetica,sans-Serif" font-size="9.00">seq_id_end</text>
</a>
<a xlink:href="/dictionaries/ihm-extension-6.dic/Items/_ihm_model_representation.starting_model_id.html" xlink:title="&lt;TABLE&gt;" target="_top">
<polygon fill="none" stroke="black" points="375.034,-347 375.034,-366 544.034,-366 544.034,-347 375.034,-347"/>
<text text-anchor="start" x="380.034" y="-354.4" font-family="Helvetica,sans-Serif" font-size="9.00">starting_model_id</text>
</a>
</g>
<!-- _ihm_model_representation&#45;&gt;_entity_poly_seq -->
<g id="edge6" class="edge"><title>_ihm_model_representation:__entity_id:w&#45;&gt;_entity_poly_seq:__entity_id:w</title>
<path fill="none" stroke="black" d="M373.034,-566C339.77,-566 377.241,-294.158 358.034,-267 314.476,-205.409 243.035,-265.163 201.034,-202.5 195.164,-193.743 190.118,-180.72 192.52,-173.436"/>
<polygon fill="black" stroke="black" points="194.489,-176.332 201.034,-168 190.722,-170.432 194.489,-176.332"/>
</g>
<!-- _ihm_model_representation&#45;&gt;_entity_poly_seq -->
<g id="edge12" class="edge"><title>_ihm_model_representation:__seq_id_begin:w&#45;&gt;_entity_poly_seq:__num:w</title>
<path fill="none" stroke="black" d="M373.034,-547C341.878,-547 376.067,-292.407 358.034,-267 314.371,-205.484 243.035,-265.163 201.034,-202.5 185.048,-178.651 171.928,-139.947 191.163,-130.923"/>
<polygon fill="black" stroke="black" points="191.888,-134.348 201.034,-129 190.549,-127.477 191.888,-134.348"/>
</g>
<!-- _ihm_model_representation&#45;&gt;_struct_asym -->
<g id="edge28" class="edge"><title>_ihm_model_representation:__entity_asym_id:w&#45;&gt;_struct_asym:__id:w</title>
<path fill="none" stroke="black" d="M373.034,-528C368.415,-528 354.984,-228.85 356.098,-169.254"/>
<polygon fill="black" stroke="black" points="359.611,-169.277 357.034,-159 352.64,-168.641 359.611,-169.277"/>
</g>
<!-- _ihm_sphere_obj_site -->
<g id="node6" class="node"><title>_ihm_sphere_obj_site</title>
<a xlink:href="/dictionaries/ihm-extension-6.dic/Categories/ihm_sphere_obj_site.html" xlink:title="&lt;TABLE&gt;" target="_top">
<polygon fill="#99c49b" stroke="#99c49b" points="37.0338,-575 37.0338,-596 167.034,-596 167.034,-575 37.0338,-575"/>
<polygon fill="none" stroke="black" points="37.0338,-575 37.0338,-596 167.034,-596 167.034,-575 37.0338,-575"/>
<text text-anchor="start" x="42.5338" y="-583.167" font-family="Helvetica,sans-Serif" font-size="10.00">IHM_SPHERE_OBJ_SITE</text>
</a>
<a xlink:href="/dictionaries/ihm-extension-6.dic/Items/_ihm_sphere_obj_site.ordinal_id.html" xlink:title="&lt;TABLE&gt;" target="_top">
<polygon fill="#ffff99" stroke="#ffff99" points="37.0338,-556 37.0338,-575 167.034,-575 167.034,-556 37.0338,-556"/>
<polygon fill="none" stroke="black" points="37.0338,-556 37.0338,-575 167.034,-575 167.034,-556 37.0338,-556"/>
<text text-anchor="start" x="42.0338" y="-563.4" font-family="Helvetica,sans-Serif" font-size="9.00">ordinal_id</text>
</a>
<a xlink:href="/dictionaries/ihm-extension-6.dic/Items/_ihm_sphere_obj_site.entity_id.html" xlink:title="&lt;TABLE&gt;" target="_top">
<polygon fill="none" stroke="black" points="37.0338,-537 37.0338,-556 167.034,-556 167.034,-537 37.0338,-537"/>
<text text-anchor="start" x="42.0338" y="-544.4" font-family="Helvetica,sans-Serif" font-size="9.00">entity_id</text>
</a>
<a xlink:href="/dictionaries/ihm-extension-6.dic/Items/_ihm_sphere_obj_site.seq_id_begin.html" xlink:title="&lt;TABLE&gt;" target="_top">
<polygon fill="none" stroke="black" points="37.0338,-518 37.0338,-537 167.034,-537 167.034,-518 37.0338,-518"/>
<text text-anchor="start" x="42.0338" y="-525.4" font-family="Helvetica,sans-Serif" font-size="9.00">seq_id_begin</text>
</a>
<a xlink:href="/dictionaries/ihm-extension-6.dic/Items/_ihm_sphere_obj_site.seq_id_end.html" xlink:title="&lt;TABLE&gt;" target="_top">
<polygon fill="none" stroke="black" points="37.0338,-499 37.0338,-518 167.034,-518 167.034,-499 37.0338,-499"/>
<text text-anchor="start" x="42.0338" y="-506.4" font-family="Helvetica,sans-Serif" font-size="9.00">seq_id_end</text>
</a>
<a xlink:href="/dictionaries/ihm-extension-6.dic/Items/_ihm_sphere_obj_site.Cartn_x.html" xlink:title="&lt;TABLE&gt;" target="_top">
<polygon fill="none" stroke="black" points="37.0338,-480 37.0338,-499 167.034,-499 167.034,-480 37.0338,-480"/>
<text text-anchor="start" x="42.0338" y="-487.4" font-family="Helvetica,sans-Serif" font-size="9.00">Cartn_x</text>
</a>
<a xlink:href="/dictionaries/ihm-extension-6.dic/Items/_ihm_sphere_obj_site.Cartn_y.html" xlink:title="&lt;TABLE&gt;" target="_top">
<polygon fill="none" stroke="black" points="37.0338,-461 37.0338,-480 167.034,-480 167.034,-461 37.0338,-461"/>
<text text-anchor="start" x="42.0338" y="-468.4" font-family="Helvetica,sans-Serif" font-size="9.00">Cartn_y</text>
</a>
<a xlink:href="/dictionaries/ihm-extension-6.dic/Items/_ihm_sphere_obj_site.Cartn_z.html" xlink:title="&lt;TABLE&gt;" target="_top">
<polygon fill="none" stroke="black" points="37.0338,-442 37.0338,-461 167.034,-461 167.034,-442 37.0338,-442"/>
<text text-anchor="start" x="42.0338" y="-449.4" font-family="Helvetica,sans-Serif" font-size="9.00">Cartn_z</text>
</a>
<a xlink:href="/dictionaries/ihm-extension-6.dic/Items/_ihm_sphere_obj_site.asym_id.html" xlink:title="&lt;TABLE&gt;" target="_top">
<polygon fill="none" stroke="black" points="37.0338,-423 37.0338,-442 167.034,-442 167.034,-423 37.0338,-423"/>
<text text-anchor="start" x="42.0338" y="-430.4" font-family="Helvetica,sans-Serif" font-size="9.00">asym_id</text>
</a>
<a xlink:href="/dictionaries/ihm-extension-6.dic/Items/_ihm_sphere_obj_site.model_id.html" xlink:title="&lt;TABLE&gt;" target="_top">
<polygon fill="none" stroke="black" points="37.0338,-404 37.0338,-423 167.034,-423 167.034,-404 37.0338,-404"/>
<text text-anchor="start" x="42.0338" y="-411.4" font-family="Helvetica,sans-Serif" font-size="9.00">model_id</text>
</a>
<a xlink:href="/dictionaries/ihm-extension-6.dic/Items/_ihm_sphere_obj_site.object_radius.html" xlink:title="&lt;TABLE&gt;" target="_top">
<polygon fill="none" stroke="black" points="37.0338,-385 37.0338,-404 167.034,-404 167.034,-385 37.0338,-385"/>
<text text-anchor="start" x="42.0338" y="-392.4" font-family="Helvetica,sans-Serif" font-size="9.00">object_radius</text>
</a>
<a xlink:href="/dictionaries/ihm-extension-6.dic/Items/_ihm_sphere_obj_site.rmsf.html" xlink:title="&lt;TABLE&gt;" target="_top">
<polygon fill="none" stroke="black" points="37.0338,-366 37.0338,-385 167.034,-385 167.034,-366 37.0338,-366"/>
<text text-anchor="start" x="42.0338" y="-373.4" font-family="Helvetica,sans-Serif" font-size="9.00">rmsf</text>
</a>
</g>
<!-- _ihm_sphere_obj_site&#45;&gt;_entity_poly_seq -->
<g id="edge8" class="edge"><title>_ihm_sphere_obj_site:__entity_id:w&#45;&gt;_entity_poly_seq:__entity_id:w</title>
<path fill="none" stroke="black" d="M35.0338,-547C-6.07972,-547 21.1679,-399.929 37.0338,-362 68.6876,-286.329 118.166,-296.879 167.034,-231 183.472,-208.84 173.042,-177.737 190.73,-169.866"/>
<polygon fill="black" stroke="black" points="191.818,-173.226 201.034,-168 190.57,-166.338 191.818,-173.226"/>
</g>
<!-- _ihm_sphere_obj_site&#45;&gt;_entity_poly_seq -->
<g id="edge14" class="edge"><title>_ihm_sphere_obj_site:__seq_id_begin:w&#45;&gt;_entity_poly_seq:__num:w</title>
<path fill="none" stroke="black" d="M35.0338,-528C-1.85777,-528 22.7761,-396.025 37.0338,-362 68.7345,-286.348 124.044,-300.857 167.034,-231 190.024,-193.642 159.189,-138.919 190.94,-130.192"/>
<polygon fill="black" stroke="black" points="191.513,-133.649 201.034,-129 190.692,-126.697 191.513,-133.649"/>
</g>
<!-- _ihm_sphere_obj_site&#45;&gt;_entity_poly_seq -->
<g id="edge16" class="edge"><title>_ihm_sphere_obj_site:__seq_id_end:w&#45;&gt;_entity_poly_seq:__num:w</title>
<path fill="none" stroke="black" d="M35.0338,-509C-30.3056,-509 11.7348,-422.243 37.0338,-362 68.7933,-286.373 124.044,-300.857 167.034,-231 190.024,-193.642 159.189,-138.919 190.94,-130.192"/>
<polygon fill="black" stroke="black" points="191.513,-133.649 201.034,-129 190.692,-126.697 191.513,-133.649"/>
</g>
<!-- _ihm_sphere_obj_site&#45;&gt;_ihm_model_list -->
<g id="edge26" class="edge"><title>_ihm_sphere_obj_site:__model_id:w&#45;&gt;_ihm_model_list:__model_id:w</title>
<path fill="none" stroke="black" d="M35.0338,-413C5.21348,-413 18.5255,-168.195 45.9489,-126.12"/>
<polygon fill="black" stroke="black" points="48.1728,-128.826 54.0338,-120 43.948,-123.245 48.1728,-128.826"/>
</g>
<!-- _ihm_sphere_obj_site&#45;&gt;_struct_asym -->
<g id="edge30" class="edge"><title>_ihm_sphere_obj_site:__asym_id:w&#45;&gt;_struct_asym:__id:w</title>
<path fill="none" stroke="black" d="M35.0338,-432C3.90999,-432 21.7636,-389.12 37.0338,-362 75.1993,-294.217 112.831,-298.325 184.034,-267 242.053,-241.475 273.017,-271.189 322.034,-231 346.324,-211.085 327.274,-170.219 346.956,-160.914"/>
<polygon fill="black" stroke="black" points="347.863,-164.305 357.034,-159 346.556,-157.428 347.863,-164.305"/>
</g>
</g>
</svg>
