<?xml version="1.0" encoding="UTF-8" standalone="no"?>
<!DOCTYPE svg PUBLIC "-//W3C//DTD SVG 1.1//EN"
 "http://www.w3.org/Graphics/SVG/1.1/DTD/svg11.dtd">
<!-- Generated by graphviz version 2.26.0 (20091210.2329)
 -->
<!-- Title: entity_poly_seq Pages: 1 -->
<svg width="705pt" height="685pt"
 viewBox="0.00 0.00 705.47 685.00" xmlns="http://www.w3.org/2000/svg" xmlns:xlink="http://www.w3.org/1999/xlink">
<g id="graph1" class="graph" transform="scale(1 1) rotate(0) translate(4 681)">
<title>entity_poly_seq</title>
<polygon fill="white" stroke="white" points="-4,5 -4,-681 702.472,-681 702.472,5 -4,5"/>
<text text-anchor="start" x="345.736" y="-51.8" font-family="Helvetica,sans-Serif" font-size="18.00"> </text>
<text text-anchor="start" x="140.236" y="-30.2" font-family="Helvetica,sans-Serif" font-size="18.00">Selected Relationships for Category </text>
<text text-anchor="start" x="429.236" y="-30.2" font-family="Helvetica,sans-Serif" font-size="18.00">entity_poly_seq</text>
<text text-anchor="start" x="553.236" y="-29.8" font-family="Helvetica,sans-Serif" font-size="14.00"> </text>
<text text-anchor="start" x="264.236" y="-11.5333" font-family="Helvetica,sans-Serif" font-size="14.00"> &#160;in dictionary ihm&#45;extension</text>
<!-- _atom_site -->
<g id="node1" class="node"><title>_atom_site</title>
<a xlink:href="/dictionaries/ihm-extension-5.dic/Categories/atom_site.html" xlink:title="&lt;TABLE&gt;" target="_top">
<polygon fill="#99c49b" stroke="#99c49b" points="579.472,-652 579.472,-673 690.472,-673 690.472,-652 579.472,-652"/>
<polygon fill="none" stroke="black" points="579.472,-652 579.472,-673 690.472,-673 690.472,-652 579.472,-652"/>
<text text-anchor="start" x="606.472" y="-660.167" font-family="Helvetica,sans-Serif" font-size="10.00">ATOM_SITE</text>
</a>
<a xlink:href="/dictionaries/ihm-extension-5.dic/Items/_atom_site.id.html" xlink:title="&lt;TABLE&gt;" target="_top">
<polygon fill="#ffff99" stroke="#ffff99" points="579.472,-633 579.472,-652 690.472,-652 690.472,-633 579.472,-633"/>
<polygon fill="none" stroke="black" points="579.472,-633 579.472,-652 690.472,-652 690.472,-633 579.472,-633"/>
<text text-anchor="start" x="584.472" y="-640.4" font-family="Helvetica,sans-Serif" font-size="9.00">id</text>
</a>
<a xlink:href="/dictionaries/ihm-extension-5.dic/Items/_atom_site.label_seq_id.html" xlink:title="&lt;TABLE&gt;" target="_top">
<polygon fill="none" stroke="black" points="579.472,-614 579.472,-633 690.472,-633 690.472,-614 579.472,-614"/>
<text text-anchor="start" x="584.472" y="-621.4" font-family="Helvetica,sans-Serif" font-size="9.00">label_seq_id</text>
</a>
<a xlink:href="/dictionaries/ihm-extension-5.dic/Items/_atom_site.B_iso_or_equiv.html" xlink:title="&lt;TABLE&gt;" target="_top">
<polygon fill="none" stroke="black" points="579.472,-595 579.472,-614 690.472,-614 690.472,-595 579.472,-595"/>
<text text-anchor="start" x="584.472" y="-602.4" font-family="Helvetica,sans-Serif" font-size="9.00">B_iso_or_equiv</text>
</a>
<a xlink:href="/dictionaries/ihm-extension-5.dic/Items/_atom_site.Cartn_x.html" xlink:title="&lt;TABLE&gt;" target="_top">
<polygon fill="none" stroke="black" points="579.472,-576 579.472,-595 690.472,-595 690.472,-576 579.472,-576"/>
<text text-anchor="start" x="584.472" y="-583.4" font-family="Helvetica,sans-Serif" font-size="9.00">Cartn_x</text>
</a>
<a xlink:href="/dictionaries/ihm-extension-5.dic/Items/_atom_site.Cartn_y.html" xlink:title="&lt;TABLE&gt;" target="_top">
<polygon fill="none" stroke="black" points="579.472,-557 579.472,-576 690.472,-576 690.472,-557 579.472,-557"/>
<text text-anchor="start" x="584.472" y="-564.4" font-family="Helvetica,sans-Serif" font-size="9.00">Cartn_y</text>
</a>
<a xlink:href="/dictionaries/ihm-extension-5.dic/Items/_atom_site.Cartn_z.html" xlink:title="&lt;TABLE&gt;" target="_top">
<polygon fill="none" stroke="black" points="579.472,-538 579.472,-557 690.472,-557 690.472,-538 579.472,-538"/>
<text text-anchor="start" x="584.472" y="-545.4" font-family="Helvetica,sans-Serif" font-size="9.00">Cartn_z</text>
</a>
<a xlink:href="/dictionaries/ihm-extension-5.dic/Items/_atom_site.U_iso_or_equiv.html" xlink:title="&lt;TABLE&gt;" target="_top">
<polygon fill="none" stroke="black" points="579.472,-519 579.472,-538 690.472,-538 690.472,-519 579.472,-519"/>
<text text-anchor="start" x="584.472" y="-526.4" font-family="Helvetica,sans-Serif" font-size="9.00">U_iso_or_equiv</text>
</a>
<a xlink:href="/dictionaries/ihm-extension-5.dic/Items/_atom_site.auth_asym_id.html" xlink:title="&lt;TABLE&gt;" target="_top">
<polygon fill="none" stroke="black" points="579.472,-500 579.472,-519 690.472,-519 690.472,-500 579.472,-500"/>
<text text-anchor="start" x="584.472" y="-507.4" font-family="Helvetica,sans-Serif" font-size="9.00">auth_asym_id</text>
</a>
<a xlink:href="/dictionaries/ihm-extension-5.dic/Items/_atom_site.auth_atom_id.html" xlink:title="&lt;TABLE&gt;" target="_top">
<polygon fill="none" stroke="black" points="579.472,-481 579.472,-500 690.472,-500 690.472,-481 579.472,-481"/>
<text text-anchor="start" x="584.472" y="-488.4" font-family="Helvetica,sans-Serif" font-size="9.00">auth_atom_id</text>
</a>
<a xlink:href="/dictionaries/ihm-extension-5.dic/Items/_atom_site.auth_comp_id.html" xlink:title="&lt;TABLE&gt;" target="_top">
<polygon fill="none" stroke="black" points="579.472,-462 579.472,-481 690.472,-481 690.472,-462 579.472,-462"/>
<text text-anchor="start" x="584.472" y="-469.4" font-family="Helvetica,sans-Serif" font-size="9.00">auth_comp_id</text>
</a>
<a xlink:href="/dictionaries/ihm-extension-5.dic/Items/_atom_site.auth_seq_id.html" xlink:title="&lt;TABLE&gt;" target="_top">
<polygon fill="none" stroke="black" points="579.472,-443 579.472,-462 690.472,-462 690.472,-443 579.472,-443"/>
<text text-anchor="start" x="584.472" y="-450.4" font-family="Helvetica,sans-Serif" font-size="9.00">auth_seq_id</text>
</a>
<a xlink:href="/dictionaries/ihm-extension-5.dic/Items/_atom_site.chemical_conn_number.html" xlink:title="&lt;TABLE&gt;" target="_top">
<polygon fill="none" stroke="black" points="579.472,-424 579.472,-443 690.472,-443 690.472,-424 579.472,-424"/>
<text text-anchor="start" x="584.472" y="-431.4" font-family="Helvetica,sans-Serif" font-size="9.00">chemical_conn_number</text>
</a>
<a xlink:href="/dictionaries/ihm-extension-5.dic/Items/_atom_site.group_PDB.html" xlink:title="&lt;TABLE&gt;" target="_top">
<polygon fill="none" stroke="black" points="579.472,-405 579.472,-424 690.472,-424 690.472,-405 579.472,-405"/>
<text text-anchor="start" x="584.472" y="-412.4" font-family="Helvetica,sans-Serif" font-size="9.00">group_PDB</text>
</a>
<a xlink:href="/dictionaries/ihm-extension-5.dic/Items/_atom_site.label_alt_id.html" xlink:title="&lt;TABLE&gt;" target="_top">
<polygon fill="none" stroke="black" points="579.472,-386 579.472,-405 690.472,-405 690.472,-386 579.472,-386"/>
<text text-anchor="start" x="584.472" y="-393.4" font-family="Helvetica,sans-Serif" font-size="9.00">label_alt_id</text>
</a>
<a xlink:href="/dictionaries/ihm-extension-5.dic/Items/_atom_site.label_asym_id.html" xlink:title="&lt;TABLE&gt;" target="_top">
<polygon fill="none" stroke="black" points="579.472,-367 579.472,-386 690.472,-386 690.472,-367 579.472,-367"/>
<text text-anchor="start" x="584.472" y="-374.4" font-family="Helvetica,sans-Serif" font-size="9.00">label_asym_id</text>
</a>
<a xlink:href="/dictionaries/ihm-extension-5.dic/Items/_atom_site.label_atom_id.html" xlink:title="&lt;TABLE&gt;" target="_top">
<polygon fill="none" stroke="black" points="579.472,-348 579.472,-367 690.472,-367 690.472,-348 579.472,-348"/>
<text text-anchor="start" x="584.472" y="-355.4" font-family="Helvetica,sans-Serif" font-size="9.00">label_atom_id</text>
</a>
<a xlink:href="/dictionaries/ihm-extension-5.dic/Items/_atom_site.label_comp_id.html" xlink:title="&lt;TABLE&gt;" target="_top">
<polygon fill="none" stroke="black" points="579.472,-329 579.472,-348 690.472,-348 690.472,-329 579.472,-329"/>
<text text-anchor="start" x="584.472" y="-336.4" font-family="Helvetica,sans-Serif" font-size="9.00">label_comp_id</text>
</a>
<a xlink:href="/dictionaries/ihm-extension-5.dic/Items/_atom_site.label_entity_id.html" xlink:title="&lt;TABLE&gt;" target="_top">
<polygon fill="none" stroke="black" points="579.472,-310 579.472,-329 690.472,-329 690.472,-310 579.472,-310"/>
<text text-anchor="start" x="584.472" y="-317.4" font-family="Helvetica,sans-Serif" font-size="9.00">label_entity_id</text>
</a>
<a xlink:href="/dictionaries/ihm-extension-5.dic/Items/_atom_site.occupancy.html" xlink:title="&lt;TABLE&gt;" target="_top">
<polygon fill="none" stroke="black" points="579.472,-291 579.472,-310 690.472,-310 690.472,-291 579.472,-291"/>
<text text-anchor="start" x="584.472" y="-298.4" font-family="Helvetica,sans-Serif" font-size="9.00">occupancy</text>
</a>
<a xlink:href="/dictionaries/ihm-extension-5.dic/Items/_atom_site.occupancy_esd.html" xlink:title="&lt;TABLE&gt;" target="_top">
<polygon fill="none" stroke="black" points="579.472,-272 579.472,-291 690.472,-291 690.472,-272 579.472,-272"/>
<text text-anchor="start" x="584.472" y="-279.4" font-family="Helvetica,sans-Serif" font-size="9.00">occupancy_esd</text>
</a>
<a xlink:href="/dictionaries/ihm-extension-5.dic/Items/_atom_site.type_symbol.html" xlink:title="&lt;TABLE&gt;" target="_top">
<polygon fill="none" stroke="black" points="579.472,-253 579.472,-272 690.472,-272 690.472,-253 579.472,-253"/>
<text text-anchor="start" x="584.472" y="-260.4" font-family="Helvetica,sans-Serif" font-size="9.00">type_symbol</text>
</a>
</g>
<!-- _entity_poly_seq -->
<g id="node2" class="node"><title>_entity_poly_seq</title>
<a xlink:href="/dictionaries/ihm-extension-5.dic/Categories/entity_poly_seq.html" xlink:title="&lt;TABLE&gt;" target="_top">
<polygon fill="#f0027f" stroke="#f0027f" points="203.472,-168 203.472,-189 308.472,-189 308.472,-168 203.472,-168"/>
<polygon fill="none" stroke="black" points="203.472,-168 203.472,-189 308.472,-189 308.472,-168 203.472,-168"/>
<text text-anchor="start" x="208.972" y="-176.167" font-family="Helvetica,sans-Serif" font-size="10.00">ENTITY_POLY_SEQ</text>
</a>
<a xlink:href="/dictionaries/ihm-extension-5.dic/Items/_entity_poly_seq.entity_id.html" xlink:title="&lt;TABLE&gt;" target="_top">
<polygon fill="#ffff99" stroke="#ffff99" points="203.472,-149 203.472,-168 308.472,-168 308.472,-149 203.472,-149"/>
<polygon fill="none" stroke="black" points="203.472,-149 203.472,-168 308.472,-168 308.472,-149 203.472,-149"/>
<text text-anchor="start" x="208.472" y="-156.4" font-family="Helvetica,sans-Serif" font-size="9.00">entity_id</text>
</a>
<a xlink:href="/dictionaries/ihm-extension-5.dic/Items/_entity_poly_seq.mon_id.html" xlink:title="&lt;TABLE&gt;" target="_top">
<polygon fill="#ffff99" stroke="#ffff99" points="203.472,-130 203.472,-149 308.472,-149 308.472,-130 203.472,-130"/>
<polygon fill="none" stroke="black" points="203.472,-130 203.472,-149 308.472,-149 308.472,-130 203.472,-130"/>
<text text-anchor="start" x="208.472" y="-137.4" font-family="Helvetica,sans-Serif" font-size="9.00">mon_id</text>
</a>
<a xlink:href="/dictionaries/ihm-extension-5.dic/Items/_entity_poly_seq.num.html" xlink:title="&lt;TABLE&gt;" target="_top">
<polygon fill="#ffff99" stroke="#ffff99" points="203.472,-111 203.472,-130 308.472,-130 308.472,-111 203.472,-111"/>
<polygon fill="none" stroke="black" points="203.472,-111 203.472,-130 308.472,-130 308.472,-111 203.472,-111"/>
<text text-anchor="start" x="208.472" y="-118.4" font-family="Helvetica,sans-Serif" font-size="9.00">num</text>
</a>
<a xlink:href="/dictionaries/ihm-extension-5.dic/Items/_entity_poly_seq.hetero.html" xlink:title="&lt;TABLE&gt;" target="_top">
<polygon fill="none" stroke="black" points="203.472,-92 203.472,-111 308.472,-111 308.472,-92 203.472,-92"/>
<text text-anchor="start" x="208.472" y="-99.4" font-family="Helvetica,sans-Serif" font-size="9.00">hetero</text>
</a>
</g>
<!-- _atom_site&#45;&gt;_entity_poly_seq -->
<g id="edge4" class="edge"><title>_atom_site:__label_seq_id:w&#45;&gt;_entity_poly_seq:__num:w</title>
<path fill="none" stroke="black" d="M577.472,-624C556.622,-624 576.356,-264.555 562.472,-249 508.717,-188.775 256.012,-254.787 203.472,-193.5 184.785,-171.703 173.712,-131.444 193.483,-122.013"/>
<polygon fill="black" stroke="black" points="194.361,-125.407 203.472,-120 192.977,-118.545 194.361,-125.407"/>
</g>
<!-- _struct_asym -->
<g id="node7" class="node"><title>_struct_asym</title>
<a xlink:href="/dictionaries/ihm-extension-5.dic/Categories/struct_asym.html" xlink:title="&lt;TABLE&gt;" target="_top">
<polygon fill="#99c49b" stroke="#99c49b" points="359.472,-159 359.472,-180 446.472,-180 446.472,-159 359.472,-159"/>
<polygon fill="none" stroke="black" points="359.472,-159 359.472,-180 446.472,-180 446.472,-159 359.472,-159"/>
<text text-anchor="start" x="364.972" y="-167.167" font-family="Helvetica,sans-Serif" font-size="10.00">STRUCT_ASYM</text>
</a>
<a xlink:href="/dictionaries/ihm-extension-5.dic/Items/_struct_asym.id.html" xlink:title="&lt;TABLE&gt;" target="_top">
<polygon fill="#ffff99" stroke="#ffff99" points="359.472,-140 359.472,-159 446.472,-159 446.472,-140 359.472,-140"/>
<polygon fill="none" stroke="black" points="359.472,-140 359.472,-159 446.472,-159 446.472,-140 359.472,-140"/>
<text text-anchor="start" x="364.472" y="-147.4" font-family="Helvetica,sans-Serif" font-size="9.00">id</text>
</a>
<a xlink:href="/dictionaries/ihm-extension-5.dic/Items/_struct_asym.details.html" xlink:title="&lt;TABLE&gt;" target="_top">
<polygon fill="none" stroke="black" points="359.472,-121 359.472,-140 446.472,-140 446.472,-121 359.472,-121"/>
<text text-anchor="start" x="364.472" y="-128.4" font-family="Helvetica,sans-Serif" font-size="9.00">details</text>
</a>
<a xlink:href="/dictionaries/ihm-extension-5.dic/Items/_struct_asym.entity_id.html" xlink:title="&lt;TABLE&gt;" target="_top">
<polygon fill="none" stroke="black" points="359.472,-102 359.472,-121 446.472,-121 446.472,-102 359.472,-102"/>
<text text-anchor="start" x="364.472" y="-109.4" font-family="Helvetica,sans-Serif" font-size="9.00">entity_id</text>
</a>
</g>
<!-- _atom_site&#45;&gt;_struct_asym -->
<g id="edge2" class="edge"><title>_atom_site:__label_asym_id:w&#45;&gt;_struct_asym:__id:w</title>
<path fill="none" stroke="black" d="M577.472,-376C549.053,-376 580.545,-270.931 562.472,-249 502.225,-175.891 415.319,-260.523 359.472,-184 353.347,-175.608 348.502,-162.685 350.982,-155.427"/>
<polygon fill="black" stroke="black" points="352.931,-158.335 359.472,-150 349.161,-152.437 352.931,-158.335"/>
</g>
<!-- _ihm_gaussian_obj_site -->
<g id="node3" class="node"><title>_ihm_gaussian_obj_site</title>
<a xlink:href="/dictionaries/ihm-extension-5.dic/Categories/ihm_gaussian_obj_site.html" xlink:title="&lt;TABLE&gt;" target="_top">
<polygon fill="#99c49b" stroke="#99c49b" points="203.472,-633 203.472,-654 344.472,-654 344.472,-633 203.472,-633"/>
<polygon fill="none" stroke="black" points="203.472,-633 203.472,-654 344.472,-654 344.472,-633 203.472,-633"/>
<text text-anchor="start" x="208.972" y="-641.167" font-family="Helvetica,sans-Serif" font-size="10.00">IHM_GAUSSIAN_OBJ_SITE</text>
</a>
<a xlink:href="/dictionaries/ihm-extension-5.dic/Items/_ihm_gaussian_obj_site.ordinal_id.html" xlink:title="&lt;TABLE&gt;" target="_top">
<polygon fill="#ffff99" stroke="#ffff99" points="203.472,-614 203.472,-633 344.472,-633 344.472,-614 203.472,-614"/>
<polygon fill="none" stroke="black" points="203.472,-614 203.472,-633 344.472,-633 344.472,-614 203.472,-614"/>
<text text-anchor="start" x="208.472" y="-621.4" font-family="Helvetica,sans-Serif" font-size="9.00">ordinal_id</text>
</a>
<a xlink:href="/dictionaries/ihm-extension-5.dic/Items/_ihm_gaussian_obj_site.entity_id.html" xlink:title="&lt;TABLE&gt;" target="_top">
<polygon fill="none" stroke="black" points="203.472,-595 203.472,-614 344.472,-614 344.472,-595 203.472,-595"/>
<text text-anchor="start" x="208.472" y="-602.4" font-family="Helvetica,sans-Serif" font-size="9.00">entity_id</text>
</a>
<a xlink:href="/dictionaries/ihm-extension-5.dic/Items/_ihm_gaussian_obj_site.seq_id_begin.html" xlink:title="&lt;TABLE&gt;" target="_top">
<polygon fill="none" stroke="black" points="203.472,-576 203.472,-595 344.472,-595 344.472,-576 203.472,-576"/>
<text text-anchor="start" x="208.472" y="-583.4" font-family="Helvetica,sans-Serif" font-size="9.00">seq_id_begin</text>
</a>
<a xlink:href="/dictionaries/ihm-extension-5.dic/Items/_ihm_gaussian_obj_site.seq_id_end.html" xlink:title="&lt;TABLE&gt;" target="_top">
<polygon fill="none" stroke="black" points="203.472,-557 203.472,-576 344.472,-576 344.472,-557 203.472,-557"/>
<text text-anchor="start" x="208.472" y="-564.4" font-family="Helvetica,sans-Serif" font-size="9.00">seq_id_end</text>
</a>
<a xlink:href="/dictionaries/ihm-extension-5.dic/Items/_ihm_gaussian_obj_site.asym_id.html" xlink:title="&lt;TABLE&gt;" target="_top">
<polygon fill="none" stroke="black" points="203.472,-538 203.472,-557 344.472,-557 344.472,-538 203.472,-538"/>
<text text-anchor="start" x="208.472" y="-545.4" font-family="Helvetica,sans-Serif" font-size="9.00">asym_id</text>
</a>
<a xlink:href="/dictionaries/ihm-extension-5.dic/Items/_ihm_gaussian_obj_site.covariance_matrix[1][1].html" xlink:title="&lt;TABLE&gt;" target="_top">
<polygon fill="none" stroke="black" points="203.472,-519 203.472,-538 344.472,-538 344.472,-519 203.472,-519"/>
<text text-anchor="start" x="208.472" y="-526.4" font-family="Helvetica,sans-Serif" font-size="9.00">covariance_matrix[1][1]</text>
</a>
<a xlink:href="/dictionaries/ihm-extension-5.dic/Items/_ihm_gaussian_obj_site.covariance_matrix[1][2].html" xlink:title="&lt;TABLE&gt;" target="_top">
<polygon fill="none" stroke="black" points="203.472,-500 203.472,-519 344.472,-519 344.472,-500 203.472,-500"/>
<text text-anchor="start" x="208.472" y="-507.4" font-family="Helvetica,sans-Serif" font-size="9.00">covariance_matrix[1][2]</text>
</a>
<a xlink:href="/dictionaries/ihm-extension-5.dic/Items/_ihm_gaussian_obj_site.covariance_matrix[1][3].html" xlink:title="&lt;TABLE&gt;" target="_top">
<polygon fill="none" stroke="black" points="203.472,-481 203.472,-500 344.472,-500 344.472,-481 203.472,-481"/>
<text text-anchor="start" x="208.472" y="-488.4" font-family="Helvetica,sans-Serif" font-size="9.00">covariance_matrix[1][3]</text>
</a>
<a xlink:href="/dictionaries/ihm-extension-5.dic/Items/_ihm_gaussian_obj_site.covariance_matrix[2][1].html" xlink:title="&lt;TABLE&gt;" target="_top">
<polygon fill="none" stroke="black" points="203.472,-462 203.472,-481 344.472,-481 344.472,-462 203.472,-462"/>
<text text-anchor="start" x="208.472" y="-469.4" font-family="Helvetica,sans-Serif" font-size="9.00">covariance_matrix[2][1]</text>
</a>
<a xlink:href="/dictionaries/ihm-extension-5.dic/Items/_ihm_gaussian_obj_site.covariance_matrix[2][2].html" xlink:title="&lt;TABLE&gt;" target="_top">
<polygon fill="none" stroke="black" points="203.472,-443 203.472,-462 344.472,-462 344.472,-443 203.472,-443"/>
<text text-anchor="start" x="208.472" y="-450.4" font-family="Helvetica,sans-Serif" font-size="9.00">covariance_matrix[2][2]</text>
</a>
<a xlink:href="/dictionaries/ihm-extension-5.dic/Items/_ihm_gaussian_obj_site.covariance_matrix[2][3].html" xlink:title="&lt;TABLE&gt;" target="_top">
<polygon fill="none" stroke="black" points="203.472,-424 203.472,-443 344.472,-443 344.472,-424 203.472,-424"/>
<text text-anchor="start" x="208.472" y="-431.4" font-family="Helvetica,sans-Serif" font-size="9.00">covariance_matrix[2][3]</text>
</a>
<a xlink:href="/dictionaries/ihm-extension-5.dic/Items/_ihm_gaussian_obj_site.covariance_matrix[3][1].html" xlink:title="&lt;TABLE&gt;" target="_top">
<polygon fill="none" stroke="black" points="203.472,-405 203.472,-424 344.472,-424 344.472,-405 203.472,-405"/>
<text text-anchor="start" x="208.472" y="-412.4" font-family="Helvetica,sans-Serif" font-size="9.00">covariance_matrix[3][1]</text>
</a>
<a xlink:href="/dictionaries/ihm-extension-5.dic/Items/_ihm_gaussian_obj_site.covariance_matrix[3][2].html" xlink:title="&lt;TABLE&gt;" target="_top">
<polygon fill="none" stroke="black" points="203.472,-386 203.472,-405 344.472,-405 344.472,-386 203.472,-386"/>
<text text-anchor="start" x="208.472" y="-393.4" font-family="Helvetica,sans-Serif" font-size="9.00">covariance_matrix[3][2]</text>
</a>
<a xlink:href="/dictionaries/ihm-extension-5.dic/Items/_ihm_gaussian_obj_site.covariance_matrix[3][3].html" xlink:title="&lt;TABLE&gt;" target="_top">
<polygon fill="none" stroke="black" points="203.472,-367 203.472,-386 344.472,-386 344.472,-367 203.472,-367"/>
<text text-anchor="start" x="208.472" y="-374.4" font-family="Helvetica,sans-Serif" font-size="9.00">covariance_matrix[3][3]</text>
</a>
<a xlink:href="/dictionaries/ihm-extension-5.dic/Items/_ihm_gaussian_obj_site.mean_Cartn_x.html" xlink:title="&lt;TABLE&gt;" target="_top">
<polygon fill="none" stroke="black" points="203.472,-348 203.472,-367 344.472,-367 344.472,-348 203.472,-348"/>
<text text-anchor="start" x="208.472" y="-355.4" font-family="Helvetica,sans-Serif" font-size="9.00">mean_Cartn_x</text>
</a>
<a xlink:href="/dictionaries/ihm-extension-5.dic/Items/_ihm_gaussian_obj_site.mean_Cartn_y.html" xlink:title="&lt;TABLE&gt;" target="_top">
<polygon fill="none" stroke="black" points="203.472,-329 203.472,-348 344.472,-348 344.472,-329 203.472,-329"/>
<text text-anchor="start" x="208.472" y="-336.4" font-family="Helvetica,sans-Serif" font-size="9.00">mean_Cartn_y</text>
</a>
<a xlink:href="/dictionaries/ihm-extension-5.dic/Items/_ihm_gaussian_obj_site.mean_Cartn_z.html" xlink:title="&lt;TABLE&gt;" target="_top">
<polygon fill="none" stroke="black" points="203.472,-310 203.472,-329 344.472,-329 344.472,-310 203.472,-310"/>
<text text-anchor="start" x="208.472" y="-317.4" font-family="Helvetica,sans-Serif" font-size="9.00">mean_Cartn_z</text>
</a>
<a xlink:href="/dictionaries/ihm-extension-5.dic/Items/_ihm_gaussian_obj_site.model_id.html" xlink:title="&lt;TABLE&gt;" target="_top">
<polygon fill="none" stroke="black" points="203.472,-291 203.472,-310 344.472,-310 344.472,-291 203.472,-291"/>
<text text-anchor="start" x="208.472" y="-298.4" font-family="Helvetica,sans-Serif" font-size="9.00">model_id</text>
</a>
<a xlink:href="/dictionaries/ihm-extension-5.dic/Items/_ihm_gaussian_obj_site.weight.html" xlink:title="&lt;TABLE&gt;" target="_top">
<polygon fill="none" stroke="black" points="203.472,-272 203.472,-291 344.472,-291 344.472,-272 203.472,-272"/>
<text text-anchor="start" x="208.472" y="-279.4" font-family="Helvetica,sans-Serif" font-size="9.00">weight</text>
</a>
</g>
<!-- _ihm_gaussian_obj_site&#45;&gt;_entity_poly_seq -->
<g id="edge10" class="edge"><title>_ihm_gaussian_obj_site:__entity_id:w&#45;&gt;_entity_poly_seq:__entity_id:w</title>
<path fill="none" stroke="black" d="M201.472,-605C190.172,-605 190.842,-233.953 200.449,-168.73"/>
<polygon fill="black" stroke="black" points="203.847,-169.588 203.472,-159 197.162,-167.511 203.847,-169.588"/>
</g>
<!-- _ihm_gaussian_obj_site&#45;&gt;_entity_poly_seq -->
<g id="edge18" class="edge"><title>_ihm_gaussian_obj_site:__seq_id_begin:w&#45;&gt;_entity_poly_seq:__num:w</title>
<path fill="none" stroke="black" d="M201.472,-586C189.64,-586 190.294,-196.652 200.38,-129.733"/>
<polygon fill="black" stroke="black" points="203.78,-130.59 203.472,-120 197.108,-128.471 203.78,-130.59"/>
</g>
<!-- _ihm_gaussian_obj_site&#45;&gt;_entity_poly_seq -->
<g id="edge20" class="edge"><title>_ihm_gaussian_obj_site:__seq_id_end:w&#45;&gt;_entity_poly_seq:__num:w</title>
<path fill="none" stroke="black" d="M201.472,-567C190.146,-567 190.815,-195.121 200.442,-129.752"/>
<polygon fill="black" stroke="black" points="203.847,-130.588 203.472,-120 197.162,-128.511 203.847,-130.588"/>
</g>
<!-- _ihm_model_list -->
<g id="node4" class="node"><title>_ihm_model_list</title>
<a xlink:href="/dictionaries/ihm-extension-5.dic/Categories/ihm_model_list.html" xlink:title="&lt;TABLE&gt;" target="_top">
<polygon fill="#99c49b" stroke="#99c49b" points="56.4719,-187 56.4719,-208 153.472,-208 153.472,-187 56.4719,-187"/>
<polygon fill="none" stroke="black" points="56.4719,-187 56.4719,-208 153.472,-208 153.472,-187 56.4719,-187"/>
<text text-anchor="start" x="61.9719" y="-195.167" font-family="Helvetica,sans-Serif" font-size="10.00">IHM_MODEL_LIST</text>
</a>
<a xlink:href="/dictionaries/ihm-extension-5.dic/Items/_ihm_model_list.ordinal_id.html" xlink:title="&lt;TABLE&gt;" target="_top">
<polygon fill="#ffff99" stroke="#ffff99" points="56.4719,-168 56.4719,-187 153.472,-187 153.472,-168 56.4719,-168"/>
<polygon fill="none" stroke="black" points="56.4719,-168 56.4719,-187 153.472,-187 153.472,-168 56.4719,-168"/>
<text text-anchor="start" x="61.4719" y="-175.4" font-family="Helvetica,sans-Serif" font-size="9.00">ordinal_id</text>
</a>
<a xlink:href="/dictionaries/ihm-extension-5.dic/Items/_ihm_model_list.assembly_id.html" xlink:title="&lt;TABLE&gt;" target="_top">
<polygon fill="none" stroke="black" points="56.4719,-149 56.4719,-168 153.472,-168 153.472,-149 56.4719,-149"/>
<text text-anchor="start" x="61.4719" y="-156.4" font-family="Helvetica,sans-Serif" font-size="9.00">assembly_id</text>
</a>
<a xlink:href="/dictionaries/ihm-extension-5.dic/Items/_ihm_model_list.model_group_id.html" xlink:title="&lt;TABLE&gt;" target="_top">
<polygon fill="none" stroke="black" points="56.4719,-130 56.4719,-149 153.472,-149 153.472,-130 56.4719,-130"/>
<text text-anchor="start" x="61.4719" y="-137.4" font-family="Helvetica,sans-Serif" font-size="9.00">model_group_id</text>
</a>
<a xlink:href="/dictionaries/ihm-extension-5.dic/Items/_ihm_model_list.model_group_name.html" xlink:title="&lt;TABLE&gt;" target="_top">
<polygon fill="none" stroke="black" points="56.4719,-111 56.4719,-130 153.472,-130 153.472,-111 56.4719,-111"/>
<text text-anchor="start" x="61.4719" y="-118.4" font-family="Helvetica,sans-Serif" font-size="9.00">model_group_name</text>
</a>
<a xlink:href="/dictionaries/ihm-extension-5.dic/Items/_ihm_model_list.model_id.html" xlink:title="&lt;TABLE&gt;" target="_top">
<polygon fill="none" stroke="black" points="56.4719,-92 56.4719,-111 153.472,-111 153.472,-92 56.4719,-92"/>
<text text-anchor="start" x="61.4719" y="-99.4" font-family="Helvetica,sans-Serif" font-size="9.00">model_id</text>
</a>
<a xlink:href="/dictionaries/ihm-extension-5.dic/Items/_ihm_model_list.protocol_id.html" xlink:title="&lt;TABLE&gt;" target="_top">
<polygon fill="none" stroke="black" points="56.4719,-73 56.4719,-92 153.472,-92 153.472,-73 56.4719,-73"/>
<text text-anchor="start" x="61.4719" y="-80.4" font-family="Helvetica,sans-Serif" font-size="9.00">protocol_id</text>
</a>
</g>
<!-- _ihm_gaussian_obj_site&#45;&gt;_ihm_model_list -->
<g id="edge24" class="edge"><title>_ihm_gaussian_obj_site:__model_id:w&#45;&gt;_ihm_model_list:__model_id:w</title>
<path fill="none" stroke="black" d="M201.472,-300C177.845,-300 203.281,-265.603 186.472,-249 143.776,-206.828 92.7204,-260.328 56.4719,-212.5 28.8778,-176.091 10.0453,-112.052 46.0959,-102.269"/>
<polygon fill="black" stroke="black" points="46.9706,-105.688 56.4719,-101 46.121,-98.7396 46.9706,-105.688"/>
</g>
<!-- _ihm_gaussian_obj_site&#45;&gt;_struct_asym -->
<g id="edge22" class="edge"><title>_ihm_gaussian_obj_site:__asym_id:w&#45;&gt;_struct_asym:__id:w</title>
<path fill="none" stroke="black" d="M201.472,-548C185.916,-548 195.003,-281.049 203.472,-268 235.63,-218.448 281.055,-253.057 324.472,-213 344.887,-194.165 332.128,-160.62 349.267,-152.042"/>
<polygon fill="black" stroke="black" points="350.353,-155.394 359.472,-150 348.98,-148.53 350.353,-155.394"/>
</g>
<!-- _ihm_model_representation -->
<g id="node5" class="node"><title>_ihm_model_representation</title>
<a xlink:href="/dictionaries/ihm-extension-5.dic/Categories/ihm_model_representation.html" xlink:title="&lt;TABLE&gt;" target="_top">
<polygon fill="#99c49b" stroke="#99c49b" points="377.472,-576 377.472,-597 546.472,-597 546.472,-576 377.472,-576"/>
<polygon fill="none" stroke="black" points="377.472,-576 377.472,-597 546.472,-597 546.472,-576 377.472,-576"/>
<text text-anchor="start" x="382.972" y="-584.167" font-family="Helvetica,sans-Serif" font-size="10.00">IHM_MODEL_REPRESENTATION</text>
</a>
<a xlink:href="/dictionaries/ihm-extension-5.dic/Items/_ihm_model_representation.ordinal_id.html" xlink:title="&lt;TABLE&gt;" target="_top">
<polygon fill="#ffff99" stroke="#ffff99" points="377.472,-557 377.472,-576 546.472,-576 546.472,-557 377.472,-557"/>
<polygon fill="none" stroke="black" points="377.472,-557 377.472,-576 546.472,-576 546.472,-557 377.472,-557"/>
<text text-anchor="start" x="382.472" y="-564.4" font-family="Helvetica,sans-Serif" font-size="9.00">ordinal_id</text>
</a>
<a xlink:href="/dictionaries/ihm-extension-5.dic/Items/_ihm_model_representation.entity_id.html" xlink:title="&lt;TABLE&gt;" target="_top">
<polygon fill="none" stroke="black" points="377.472,-538 377.472,-557 546.472,-557 546.472,-538 377.472,-538"/>
<text text-anchor="start" x="382.472" y="-545.4" font-family="Helvetica,sans-Serif" font-size="9.00">entity_id</text>
</a>
<a xlink:href="/dictionaries/ihm-extension-5.dic/Items/_ihm_model_representation.seq_id_begin.html" xlink:title="&lt;TABLE&gt;" target="_top">
<polygon fill="none" stroke="black" points="377.472,-519 377.472,-538 546.472,-538 546.472,-519 377.472,-519"/>
<text text-anchor="start" x="382.472" y="-526.4" font-family="Helvetica,sans-Serif" font-size="9.00">seq_id_begin</text>
</a>
<a xlink:href="/dictionaries/ihm-extension-5.dic/Items/_ihm_model_representation.entity_asym_id.html" xlink:title="&lt;TABLE&gt;" target="_top">
<polygon fill="none" stroke="black" points="377.472,-500 377.472,-519 546.472,-519 546.472,-500 377.472,-500"/>
<text text-anchor="start" x="382.472" y="-507.4" font-family="Helvetica,sans-Serif" font-size="9.00">entity_asym_id</text>
</a>
<a xlink:href="/dictionaries/ihm-extension-5.dic/Items/_ihm_model_representation.entity_description.html" xlink:title="&lt;TABLE&gt;" target="_top">
<polygon fill="none" stroke="black" points="377.472,-481 377.472,-500 546.472,-500 546.472,-481 377.472,-481"/>
<text text-anchor="start" x="382.472" y="-488.4" font-family="Helvetica,sans-Serif" font-size="9.00">entity_description</text>
</a>
<a xlink:href="/dictionaries/ihm-extension-5.dic/Items/_ihm_model_representation.model_granularity.html" xlink:title="&lt;TABLE&gt;" target="_top">
<polygon fill="none" stroke="black" points="377.472,-462 377.472,-481 546.472,-481 546.472,-462 377.472,-462"/>
<text text-anchor="start" x="382.472" y="-469.4" font-family="Helvetica,sans-Serif" font-size="9.00">model_granularity</text>
</a>
<a xlink:href="/dictionaries/ihm-extension-5.dic/Items/_ihm_model_representation.model_mode.html" xlink:title="&lt;TABLE&gt;" target="_top">
<polygon fill="none" stroke="black" points="377.472,-443 377.472,-462 546.472,-462 546.472,-443 377.472,-443"/>
<text text-anchor="start" x="382.472" y="-450.4" font-family="Helvetica,sans-Serif" font-size="9.00">model_mode</text>
</a>
<a xlink:href="/dictionaries/ihm-extension-5.dic/Items/_ihm_model_representation.model_object_count.html" xlink:title="&lt;TABLE&gt;" target="_top">
<polygon fill="none" stroke="black" points="377.472,-424 377.472,-443 546.472,-443 546.472,-424 377.472,-424"/>
<text text-anchor="start" x="382.472" y="-431.4" font-family="Helvetica,sans-Serif" font-size="9.00">model_object_count</text>
</a>
<a xlink:href="/dictionaries/ihm-extension-5.dic/Items/_ihm_model_representation.model_object_primitive.html" xlink:title="&lt;TABLE&gt;" target="_top">
<polygon fill="none" stroke="black" points="377.472,-405 377.472,-424 546.472,-424 546.472,-405 377.472,-405"/>
<text text-anchor="start" x="382.472" y="-412.4" font-family="Helvetica,sans-Serif" font-size="9.00">model_object_primitive</text>
</a>
<a xlink:href="/dictionaries/ihm-extension-5.dic/Items/_ihm_model_representation.representation_id.html" xlink:title="&lt;TABLE&gt;" target="_top">
<polygon fill="none" stroke="black" points="377.472,-386 377.472,-405 546.472,-405 546.472,-386 377.472,-386"/>
<text text-anchor="start" x="382.472" y="-393.4" font-family="Helvetica,sans-Serif" font-size="9.00">representation_id</text>
</a>
<a xlink:href="/dictionaries/ihm-extension-5.dic/Items/_ihm_model_representation.segment_id.html" xlink:title="&lt;TABLE&gt;" target="_top">
<polygon fill="none" stroke="black" points="377.472,-367 377.472,-386 546.472,-386 546.472,-367 377.472,-367"/>
<text text-anchor="start" x="382.472" y="-374.4" font-family="Helvetica,sans-Serif" font-size="9.00">segment_id</text>
</a>
<a xlink:href="/dictionaries/ihm-extension-5.dic/Items/_ihm_model_representation.seq_id_end.html" xlink:title="&lt;TABLE&gt;" target="_top">
<polygon fill="none" stroke="black" points="377.472,-348 377.472,-367 546.472,-367 546.472,-348 377.472,-348"/>
<text text-anchor="start" x="382.472" y="-355.4" font-family="Helvetica,sans-Serif" font-size="9.00">seq_id_end</text>
</a>
<a xlink:href="/dictionaries/ihm-extension-5.dic/Items/_ihm_model_representation.starting_model_id.html" xlink:title="&lt;TABLE&gt;" target="_top">
<polygon fill="none" stroke="black" points="377.472,-329 377.472,-348 546.472,-348 546.472,-329 377.472,-329"/>
<text text-anchor="start" x="382.472" y="-336.4" font-family="Helvetica,sans-Serif" font-size="9.00">starting_model_id</text>
</a>
</g>
<!-- _ihm_model_representation&#45;&gt;_entity_poly_seq -->
<g id="edge6" class="edge"><title>_ihm_model_representation:__entity_id:w&#45;&gt;_entity_poly_seq:__entity_id:w</title>
<path fill="none" stroke="black" d="M375.472,-548C342.208,-548 380.352,-275.67 360.472,-249 316.24,-189.662 246.203,-253.927 203.472,-193.5 197.385,-184.893 192.42,-171.814 194.894,-164.48"/>
<polygon fill="black" stroke="black" points="196.929,-167.333 203.472,-159 193.161,-161.434 196.929,-167.333"/>
</g>
<!-- _ihm_model_representation&#45;&gt;_entity_poly_seq -->
<g id="edge12" class="edge"><title>_ihm_model_representation:__seq_id_begin:w&#45;&gt;_entity_poly_seq:__num:w</title>
<path fill="none" stroke="black" d="M375.472,-529C344.316,-529 379.134,-273.948 360.472,-249 316.14,-189.738 246.203,-253.927 203.472,-193.5 186.895,-170.058 174.223,-131.046 193.576,-121.941"/>
<polygon fill="black" stroke="black" points="194.333,-125.359 203.472,-120 192.985,-118.49 194.333,-125.359"/>
</g>
<!-- _ihm_model_representation&#45;&gt;_struct_asym -->
<g id="edge28" class="edge"><title>_ihm_model_representation:__entity_asym_id:w&#45;&gt;_struct_asym:__id:w</title>
<path fill="none" stroke="black" d="M375.472,-510C370.965,-510 357.545,-218.147 358.57,-160.004"/>
<polygon fill="black" stroke="black" points="362.06,-160.274 359.472,-150 355.088,-159.645 362.06,-160.274"/>
</g>
<!-- _ihm_sphere_obj_site -->
<g id="node6" class="node"><title>_ihm_sphere_obj_site</title>
<a xlink:href="/dictionaries/ihm-extension-5.dic/Categories/ihm_sphere_obj_site.html" xlink:title="&lt;TABLE&gt;" target="_top">
<polygon fill="#99c49b" stroke="#99c49b" points="39.4719,-547 39.4719,-568 169.472,-568 169.472,-547 39.4719,-547"/>
<polygon fill="none" stroke="black" points="39.4719,-547 39.4719,-568 169.472,-568 169.472,-547 39.4719,-547"/>
<text text-anchor="start" x="44.9719" y="-555.167" font-family="Helvetica,sans-Serif" font-size="10.00">IHM_SPHERE_OBJ_SITE</text>
</a>
<a xlink:href="/dictionaries/ihm-extension-5.dic/Items/_ihm_sphere_obj_site.ordinal_id.html" xlink:title="&lt;TABLE&gt;" target="_top">
<polygon fill="#ffff99" stroke="#ffff99" points="39.4719,-528 39.4719,-547 169.472,-547 169.472,-528 39.4719,-528"/>
<polygon fill="none" stroke="black" points="39.4719,-528 39.4719,-547 169.472,-547 169.472,-528 39.4719,-528"/>
<text text-anchor="start" x="44.4719" y="-535.4" font-family="Helvetica,sans-Serif" font-size="9.00">ordinal_id</text>
</a>
<a xlink:href="/dictionaries/ihm-extension-5.dic/Items/_ihm_sphere_obj_site.entity_id.html" xlink:title="&lt;TABLE&gt;" target="_top">
<polygon fill="none" stroke="black" points="39.4719,-509 39.4719,-528 169.472,-528 169.472,-509 39.4719,-509"/>
<text text-anchor="start" x="44.4719" y="-516.4" font-family="Helvetica,sans-Serif" font-size="9.00">entity_id</text>
</a>
<a xlink:href="/dictionaries/ihm-extension-5.dic/Items/_ihm_sphere_obj_site.seq_id_begin.html" xlink:title="&lt;TABLE&gt;" target="_top">
<polygon fill="none" stroke="black" points="39.4719,-490 39.4719,-509 169.472,-509 169.472,-490 39.4719,-490"/>
<text text-anchor="start" x="44.4719" y="-497.4" font-family="Helvetica,sans-Serif" font-size="9.00">seq_id_begin</text>
</a>
<a xlink:href="/dictionaries/ihm-extension-5.dic/Items/_ihm_sphere_obj_site.seq_id_end.html" xlink:title="&lt;TABLE&gt;" target="_top">
<polygon fill="none" stroke="black" points="39.4719,-471 39.4719,-490 169.472,-490 169.472,-471 39.4719,-471"/>
<text text-anchor="start" x="44.4719" y="-478.4" font-family="Helvetica,sans-Serif" font-size="9.00">seq_id_end</text>
</a>
<a xlink:href="/dictionaries/ihm-extension-5.dic/Items/_ihm_sphere_obj_site.Cartn_x.html" xlink:title="&lt;TABLE&gt;" target="_top">
<polygon fill="none" stroke="black" points="39.4719,-452 39.4719,-471 169.472,-471 169.472,-452 39.4719,-452"/>
<text text-anchor="start" x="44.4719" y="-459.4" font-family="Helvetica,sans-Serif" font-size="9.00">Cartn_x</text>
</a>
<a xlink:href="/dictionaries/ihm-extension-5.dic/Items/_ihm_sphere_obj_site.Cartn_y.html" xlink:title="&lt;TABLE&gt;" target="_top">
<polygon fill="none" stroke="black" points="39.4719,-433 39.4719,-452 169.472,-452 169.472,-433 39.4719,-433"/>
<text text-anchor="start" x="44.4719" y="-440.4" font-family="Helvetica,sans-Serif" font-size="9.00">Cartn_y</text>
</a>
<a xlink:href="/dictionaries/ihm-extension-5.dic/Items/_ihm_sphere_obj_site.Cartn_z.html" xlink:title="&lt;TABLE&gt;" target="_top">
<polygon fill="none" stroke="black" points="39.4719,-414 39.4719,-433 169.472,-433 169.472,-414 39.4719,-414"/>
<text text-anchor="start" x="44.4719" y="-421.4" font-family="Helvetica,sans-Serif" font-size="9.00">Cartn_z</text>
</a>
<a xlink:href="/dictionaries/ihm-extension-5.dic/Items/_ihm_sphere_obj_site.asym_id.html" xlink:title="&lt;TABLE&gt;" target="_top">
<polygon fill="none" stroke="black" points="39.4719,-395 39.4719,-414 169.472,-414 169.472,-395 39.4719,-395"/>
<text text-anchor="start" x="44.4719" y="-402.4" font-family="Helvetica,sans-Serif" font-size="9.00">asym_id</text>
</a>
<a xlink:href="/dictionaries/ihm-extension-5.dic/Items/_ihm_sphere_obj_site.model_id.html" xlink:title="&lt;TABLE&gt;" target="_top">
<polygon fill="none" stroke="black" points="39.4719,-376 39.4719,-395 169.472,-395 169.472,-376 39.4719,-376"/>
<text text-anchor="start" x="44.4719" y="-383.4" font-family="Helvetica,sans-Serif" font-size="9.00">model_id</text>
</a>
<a xlink:href="/dictionaries/ihm-extension-5.dic/Items/_ihm_sphere_obj_site.object_radius.html" xlink:title="&lt;TABLE&gt;" target="_top">
<polygon fill="none" stroke="black" points="39.4719,-357 39.4719,-376 169.472,-376 169.472,-357 39.4719,-357"/>
<text text-anchor="start" x="44.4719" y="-364.4" font-family="Helvetica,sans-Serif" font-size="9.00">object_radius</text>
</a>
</g>
<!-- _ihm_sphere_obj_site&#45;&gt;_entity_poly_seq -->
<g id="edge8" class="edge"><title>_ihm_sphere_obj_site:__entity_id:w&#45;&gt;_entity_poly_seq:__entity_id:w</title>
<path fill="none" stroke="black" d="M37.4719,-519C0.691424,-519 25.8517,-387.666 39.4719,-353.5 70.9756,-274.474 117.698,-280.506 169.472,-213 184.17,-193.836 177.924,-168.152 193.26,-160.949"/>
<polygon fill="black" stroke="black" points="194.306,-164.313 203.472,-159 192.993,-157.437 194.306,-164.313"/>
</g>
<!-- _ihm_sphere_obj_site&#45;&gt;_entity_poly_seq -->
<g id="edge14" class="edge"><title>_ihm_sphere_obj_site:__seq_id_begin:w&#45;&gt;_entity_poly_seq:__num:w</title>
<path fill="none" stroke="black" d="M37.4719,-500C-27.6453,-500 15.311,-413.969 39.4719,-353.5 71.0375,-274.499 125.11,-285.592 169.472,-213 190.359,-178.822 164.934,-129.819 193.378,-121.29"/>
<polygon fill="black" stroke="black" points="193.996,-124.739 203.472,-120 193.109,-117.795 193.996,-124.739"/>
</g>
<!-- _ihm_sphere_obj_site&#45;&gt;_entity_poly_seq -->
<g id="edge16" class="edge"><title>_ihm_sphere_obj_site:__seq_id_end:w&#45;&gt;_entity_poly_seq:__num:w</title>
<path fill="none" stroke="black" d="M37.4719,-481C-19.2018,-481 18.3903,-406.107 39.4719,-353.5 71.1178,-274.531 125.11,-285.592 169.472,-213 190.359,-178.822 164.934,-129.819 193.378,-121.29"/>
<polygon fill="black" stroke="black" points="193.996,-124.739 203.472,-120 193.109,-117.795 193.996,-124.739"/>
</g>
<!-- _ihm_sphere_obj_site&#45;&gt;_ihm_model_list -->
<g id="edge26" class="edge"><title>_ihm_sphere_obj_site:__model_id:w&#45;&gt;_ihm_model_list:__model_id:w</title>
<path fill="none" stroke="black" d="M37.4719,-385C8.62543,-385 21.897,-148.728 48.4514,-107.196"/>
<polygon fill="black" stroke="black" points="50.6978,-109.883 56.4719,-101 46.4185,-104.344 50.6978,-109.883"/>
</g>
<!-- _ihm_sphere_obj_site&#45;&gt;_struct_asym -->
<g id="edge30" class="edge"><title>_ihm_sphere_obj_site:__asym_id:w&#45;&gt;_struct_asym:__id:w</title>
<path fill="none" stroke="black" d="M37.4719,-404C-32.1977,-404 -13.7877,-342.445 186.472,-249 243.912,-222.197 274.376,-251.835 324.472,-213 346.425,-195.982 332.536,-161.103 349.348,-152.138"/>
<polygon fill="black" stroke="black" points="350.411,-155.491 359.472,-150 348.964,-148.642 350.411,-155.491"/>
</g>
</g>
</svg>
