<?xml version="1.0" encoding="UTF-8" standalone="no"?>
<!DOCTYPE svg PUBLIC "-//W3C//DTD SVG 1.1//EN"
 "http://www.w3.org/Graphics/SVG/1.1/DTD/svg11.dtd">
<!-- Generated by graphviz version 2.26.0 (20091210.2329)
 -->
<!-- Title: ihm_starting_model_details Pages: 1 -->
<svg width="891pt" height="825pt"
 viewBox="0.00 0.00 890.90 825.00" xmlns="http://www.w3.org/2000/svg" xmlns:xlink="http://www.w3.org/1999/xlink">
<g id="graph1" class="graph" transform="scale(1 1) rotate(0) translate(4 821)">
<title>ihm_starting_model_details</title>
<polygon fill="white" stroke="white" points="-4,5 -4,-821 887.901,-821 887.901,5 -4,5"/>
<text text-anchor="start" x="438.45" y="-51.8" font-family="Helvetica,sans-Serif" font-size="18.00"> </text>
<text text-anchor="start" x="181.45" y="-30.2" font-family="Helvetica,sans-Serif" font-size="18.00">Selected Relationships for Category &#160;</text>
<text text-anchor="start" x="476.45" y="-30.2" font-family="Helvetica,sans-Serif" font-size="18.00"> ihm_starting_model_details</text>
<text text-anchor="start" x="697.45" y="-29.8" font-family="Helvetica,sans-Serif" font-size="14.00"> </text>
<text text-anchor="start" x="356.95" y="-11.5333" font-family="Helvetica,sans-Serif" font-size="14.00"> &#160;in dictionary ihm&#45;extension</text>
<!-- _ihm_dataset_list -->
<g id="node1" class="node"><title>_ihm_dataset_list</title>
<a xlink:href="/dictionaries/ihm-extension-6.dic/Categories/ihm_dataset_list.html" xlink:title="&lt;TABLE&gt;" target="_top">
<polygon fill="#99c49b" stroke="#99c49b" points="170.901,-168 170.901,-189 278.901,-189 278.901,-168 170.901,-168"/>
<polygon fill="none" stroke="black" points="170.901,-168 170.901,-189 278.901,-189 278.901,-168 170.901,-168"/>
<text text-anchor="start" x="176.401" y="-176.167" font-family="Helvetica,sans-Serif" font-size="10.00">IHM_DATASET_LIST</text>
</a>
<a xlink:href="/dictionaries/ihm-extension-6.dic/Items/_ihm_dataset_list.ordinal_id.html" xlink:title="&lt;TABLE&gt;" target="_top">
<polygon fill="#ffff99" stroke="#ffff99" points="170.901,-149 170.901,-168 278.901,-168 278.901,-149 170.901,-149"/>
<polygon fill="none" stroke="black" points="170.901,-149 170.901,-168 278.901,-168 278.901,-149 170.901,-149"/>
<text text-anchor="start" x="175.901" y="-156.4" font-family="Helvetica,sans-Serif" font-size="9.00">ordinal_id</text>
</a>
<a xlink:href="/dictionaries/ihm-extension-6.dic/Items/_ihm_dataset_list.id.html" xlink:title="&lt;TABLE&gt;" target="_top">
<polygon fill="none" stroke="black" points="170.901,-130 170.901,-149 278.901,-149 278.901,-130 170.901,-130"/>
<text text-anchor="start" x="175.901" y="-137.4" font-family="Helvetica,sans-Serif" font-size="9.00">id</text>
</a>
<a xlink:href="/dictionaries/ihm-extension-6.dic/Items/_ihm_dataset_list.data_type.html" xlink:title="&lt;TABLE&gt;" target="_top">
<polygon fill="none" stroke="black" points="170.901,-111 170.901,-130 278.901,-130 278.901,-111 170.901,-111"/>
<text text-anchor="start" x="175.901" y="-118.4" font-family="Helvetica,sans-Serif" font-size="9.00">data_type</text>
</a>
<a xlink:href="/dictionaries/ihm-extension-6.dic/Items/_ihm_dataset_list.database_hosted.html" xlink:title="&lt;TABLE&gt;" target="_top">
<polygon fill="none" stroke="black" points="170.901,-92 170.901,-111 278.901,-111 278.901,-92 170.901,-92"/>
<text text-anchor="start" x="175.901" y="-99.4" font-family="Helvetica,sans-Serif" font-size="9.00">database_hosted</text>
</a>
<a xlink:href="/dictionaries/ihm-extension-6.dic/Items/_ihm_dataset_list.group_id.html" xlink:title="&lt;TABLE&gt;" target="_top">
<polygon fill="none" stroke="black" points="170.901,-73 170.901,-92 278.901,-92 278.901,-73 170.901,-73"/>
<text text-anchor="start" x="175.901" y="-80.4" font-family="Helvetica,sans-Serif" font-size="9.00">group_id</text>
</a>
</g>
<!-- _ihm_model_representation -->
<g id="node2" class="node"><title>_ihm_model_representation</title>
<a xlink:href="/dictionaries/ihm-extension-6.dic/Categories/ihm_model_representation.html" xlink:title="&lt;TABLE&gt;" target="_top">
<polygon fill="#99c49b" stroke="#99c49b" points="294.901,-773 294.901,-794 463.901,-794 463.901,-773 294.901,-773"/>
<polygon fill="none" stroke="black" points="294.901,-773 294.901,-794 463.901,-794 463.901,-773 294.901,-773"/>
<text text-anchor="start" x="300.401" y="-781.167" font-family="Helvetica,sans-Serif" font-size="10.00">IHM_MODEL_REPRESENTATION</text>
</a>
<a xlink:href="/dictionaries/ihm-extension-6.dic/Items/_ihm_model_representation.ordinal_id.html" xlink:title="&lt;TABLE&gt;" target="_top">
<polygon fill="#ffff99" stroke="#ffff99" points="294.901,-754 294.901,-773 463.901,-773 463.901,-754 294.901,-754"/>
<polygon fill="none" stroke="black" points="294.901,-754 294.901,-773 463.901,-773 463.901,-754 294.901,-754"/>
<text text-anchor="start" x="299.901" y="-761.4" font-family="Helvetica,sans-Serif" font-size="9.00">ordinal_id</text>
</a>
<a xlink:href="/dictionaries/ihm-extension-6.dic/Items/_ihm_model_representation.starting_model_id.html" xlink:title="&lt;TABLE&gt;" target="_top">
<polygon fill="none" stroke="black" points="294.901,-735 294.901,-754 463.901,-754 463.901,-735 294.901,-735"/>
<text text-anchor="start" x="299.901" y="-742.4" font-family="Helvetica,sans-Serif" font-size="9.00">starting_model_id</text>
</a>
<a xlink:href="/dictionaries/ihm-extension-6.dic/Items/_ihm_model_representation.entity_asym_id.html" xlink:title="&lt;TABLE&gt;" target="_top">
<polygon fill="none" stroke="black" points="294.901,-716 294.901,-735 463.901,-735 463.901,-716 294.901,-716"/>
<text text-anchor="start" x="299.901" y="-723.4" font-family="Helvetica,sans-Serif" font-size="9.00">entity_asym_id</text>
</a>
<a xlink:href="/dictionaries/ihm-extension-6.dic/Items/_ihm_model_representation.entity_description.html" xlink:title="&lt;TABLE&gt;" target="_top">
<polygon fill="none" stroke="black" points="294.901,-697 294.901,-716 463.901,-716 463.901,-697 294.901,-697"/>
<text text-anchor="start" x="299.901" y="-704.4" font-family="Helvetica,sans-Serif" font-size="9.00">entity_description</text>
</a>
<a xlink:href="/dictionaries/ihm-extension-6.dic/Items/_ihm_model_representation.entity_id.html" xlink:title="&lt;TABLE&gt;" target="_top">
<polygon fill="none" stroke="black" points="294.901,-678 294.901,-697 463.901,-697 463.901,-678 294.901,-678"/>
<text text-anchor="start" x="299.901" y="-685.4" font-family="Helvetica,sans-Serif" font-size="9.00">entity_id</text>
</a>
<a xlink:href="/dictionaries/ihm-extension-6.dic/Items/_ihm_model_representation.model_granularity.html" xlink:title="&lt;TABLE&gt;" target="_top">
<polygon fill="none" stroke="black" points="294.901,-659 294.901,-678 463.901,-678 463.901,-659 294.901,-659"/>
<text text-anchor="start" x="299.901" y="-666.4" font-family="Helvetica,sans-Serif" font-size="9.00">model_granularity</text>
</a>
<a xlink:href="/dictionaries/ihm-extension-6.dic/Items/_ihm_model_representation.model_mode.html" xlink:title="&lt;TABLE&gt;" target="_top">
<polygon fill="none" stroke="black" points="294.901,-640 294.901,-659 463.901,-659 463.901,-640 294.901,-640"/>
<text text-anchor="start" x="299.901" y="-647.4" font-family="Helvetica,sans-Serif" font-size="9.00">model_mode</text>
</a>
<a xlink:href="/dictionaries/ihm-extension-6.dic/Items/_ihm_model_representation.model_object_count.html" xlink:title="&lt;TABLE&gt;" target="_top">
<polygon fill="none" stroke="black" points="294.901,-621 294.901,-640 463.901,-640 463.901,-621 294.901,-621"/>
<text text-anchor="start" x="299.901" y="-628.4" font-family="Helvetica,sans-Serif" font-size="9.00">model_object_count</text>
</a>
<a xlink:href="/dictionaries/ihm-extension-6.dic/Items/_ihm_model_representation.model_object_primitive.html" xlink:title="&lt;TABLE&gt;" target="_top">
<polygon fill="none" stroke="black" points="294.901,-602 294.901,-621 463.901,-621 463.901,-602 294.901,-602"/>
<text text-anchor="start" x="299.901" y="-609.4" font-family="Helvetica,sans-Serif" font-size="9.00">model_object_primitive</text>
</a>
<a xlink:href="/dictionaries/ihm-extension-6.dic/Items/_ihm_model_representation.representation_id.html" xlink:title="&lt;TABLE&gt;" target="_top">
<polygon fill="none" stroke="black" points="294.901,-583 294.901,-602 463.901,-602 463.901,-583 294.901,-583"/>
<text text-anchor="start" x="299.901" y="-590.4" font-family="Helvetica,sans-Serif" font-size="9.00">representation_id</text>
</a>
<a xlink:href="/dictionaries/ihm-extension-6.dic/Items/_ihm_model_representation.segment_id.html" xlink:title="&lt;TABLE&gt;" target="_top">
<polygon fill="none" stroke="black" points="294.901,-564 294.901,-583 463.901,-583 463.901,-564 294.901,-564"/>
<text text-anchor="start" x="299.901" y="-571.4" font-family="Helvetica,sans-Serif" font-size="9.00">segment_id</text>
</a>
<a xlink:href="/dictionaries/ihm-extension-6.dic/Items/_ihm_model_representation.seq_id_begin.html" xlink:title="&lt;TABLE&gt;" target="_top">
<polygon fill="none" stroke="black" points="294.901,-545 294.901,-564 463.901,-564 463.901,-545 294.901,-545"/>
<text text-anchor="start" x="299.901" y="-552.4" font-family="Helvetica,sans-Serif" font-size="9.00">seq_id_begin</text>
</a>
<a xlink:href="/dictionaries/ihm-extension-6.dic/Items/_ihm_model_representation.seq_id_end.html" xlink:title="&lt;TABLE&gt;" target="_top">
<polygon fill="none" stroke="black" points="294.901,-526 294.901,-545 463.901,-545 463.901,-526 294.901,-526"/>
<text text-anchor="start" x="299.901" y="-533.4" font-family="Helvetica,sans-Serif" font-size="9.00">seq_id_end</text>
</a>
</g>
<!-- _ihm_starting_model_details -->
<g id="node5" class="node"><title>_ihm_starting_model_details</title>
<a xlink:href="/dictionaries/ihm-extension-6.dic/Categories/ihm_starting_model_details.html" xlink:title="&lt;TABLE&gt;" target="_top">
<polygon fill="#f0027f" stroke="#f0027f" points="241.901,-442 241.901,-463 415.901,-463 415.901,-442 241.901,-442"/>
<polygon fill="none" stroke="black" points="241.901,-442 241.901,-463 415.901,-463 415.901,-442 241.901,-442"/>
<text text-anchor="start" x="247.401" y="-450.167" font-family="Helvetica,sans-Serif" font-size="10.00">IHM_STARTING_MODEL_DETAILS</text>
</a>
<a xlink:href="/dictionaries/ihm-extension-6.dic/Items/_ihm_starting_model_details.ordinal_id.html" xlink:title="&lt;TABLE&gt;" target="_top">
<polygon fill="#ffff99" stroke="#ffff99" points="241.901,-423 241.901,-442 415.901,-442 415.901,-423 241.901,-423"/>
<polygon fill="none" stroke="black" points="241.901,-423 241.901,-442 415.901,-442 415.901,-423 241.901,-423"/>
<text text-anchor="start" x="246.901" y="-430.4" font-family="Helvetica,sans-Serif" font-size="9.00">ordinal_id</text>
</a>
<a xlink:href="/dictionaries/ihm-extension-6.dic/Items/_ihm_starting_model_details.asym_id.html" xlink:title="&lt;TABLE&gt;" target="_top">
<polygon fill="none" stroke="black" points="241.901,-404 241.901,-423 415.901,-423 415.901,-404 241.901,-404"/>
<text text-anchor="start" x="246.901" y="-411.4" font-family="Helvetica,sans-Serif" font-size="9.00">asym_id</text>
</a>
<a xlink:href="/dictionaries/ihm-extension-6.dic/Items/_ihm_starting_model_details.dataset_list_id.html" xlink:title="&lt;TABLE&gt;" target="_top">
<polygon fill="none" stroke="black" points="241.901,-385 241.901,-404 415.901,-404 415.901,-385 241.901,-385"/>
<text text-anchor="start" x="246.901" y="-392.4" font-family="Helvetica,sans-Serif" font-size="9.00">dataset_list_id</text>
</a>
<a xlink:href="/dictionaries/ihm-extension-6.dic/Items/_ihm_starting_model_details.entity_id.html" xlink:title="&lt;TABLE&gt;" target="_top">
<polygon fill="none" stroke="black" points="241.901,-366 241.901,-385 415.901,-385 415.901,-366 241.901,-366"/>
<text text-anchor="start" x="246.901" y="-373.4" font-family="Helvetica,sans-Serif" font-size="9.00">entity_id</text>
</a>
<a xlink:href="/dictionaries/ihm-extension-6.dic/Items/_ihm_starting_model_details.seq_id_begin.html" xlink:title="&lt;TABLE&gt;" target="_top">
<polygon fill="none" stroke="black" points="241.901,-347 241.901,-366 415.901,-366 415.901,-347 241.901,-347"/>
<text text-anchor="start" x="246.901" y="-354.4" font-family="Helvetica,sans-Serif" font-size="9.00">seq_id_begin</text>
</a>
<a xlink:href="/dictionaries/ihm-extension-6.dic/Items/_ihm_starting_model_details.seq_id_end.html" xlink:title="&lt;TABLE&gt;" target="_top">
<polygon fill="none" stroke="black" points="241.901,-328 241.901,-347 415.901,-347 415.901,-328 241.901,-328"/>
<text text-anchor="start" x="246.901" y="-335.4" font-family="Helvetica,sans-Serif" font-size="9.00">seq_id_end</text>
</a>
<a xlink:href="/dictionaries/ihm-extension-6.dic/Items/_ihm_starting_model_details.starting_model_id.html" xlink:title="&lt;TABLE&gt;" target="_top">
<polygon fill="none" stroke="black" points="241.901,-309 241.901,-328 415.901,-328 415.901,-309 241.901,-309"/>
<text text-anchor="start" x="246.901" y="-316.4" font-family="Helvetica,sans-Serif" font-size="9.00">starting_model_id</text>
</a>
<a xlink:href="/dictionaries/ihm-extension-6.dic/Items/_ihm_starting_model_details.entity_description.html" xlink:title="&lt;TABLE&gt;" target="_top">
<polygon fill="none" stroke="black" points="241.901,-290 241.901,-309 415.901,-309 415.901,-290 241.901,-290"/>
<text text-anchor="start" x="246.901" y="-297.4" font-family="Helvetica,sans-Serif" font-size="9.00">entity_description</text>
</a>
<a xlink:href="/dictionaries/ihm-extension-6.dic/Items/_ihm_starting_model_details.starting_model_auth_asym_id.html" xlink:title="&lt;TABLE&gt;" target="_top">
<polygon fill="none" stroke="black" points="241.901,-271 241.901,-290 415.901,-290 415.901,-271 241.901,-271"/>
<text text-anchor="start" x="246.901" y="-278.4" font-family="Helvetica,sans-Serif" font-size="9.00">starting_model_auth_asym_id</text>
</a>
<a xlink:href="/dictionaries/ihm-extension-6.dic/Items/_ihm_starting_model_details.starting_model_sequence_offset.html" xlink:title="&lt;TABLE&gt;" target="_top">
<polygon fill="none" stroke="black" points="241.901,-252 241.901,-271 415.901,-271 415.901,-252 241.901,-252"/>
<text text-anchor="start" x="246.901" y="-259.4" font-family="Helvetica,sans-Serif" font-size="9.00">starting_model_sequence_offset</text>
</a>
<a xlink:href="/dictionaries/ihm-extension-6.dic/Items/_ihm_starting_model_details.starting_model_source.html" xlink:title="&lt;TABLE&gt;" target="_top">
<polygon fill="none" stroke="black" points="241.901,-233 241.901,-252 415.901,-252 415.901,-233 241.901,-233"/>
<text text-anchor="start" x="246.901" y="-240.4" font-family="Helvetica,sans-Serif" font-size="9.00">starting_model_source</text>
</a>
</g>
<!-- _ihm_model_representation&#45;&gt;_ihm_starting_model_details -->
<g id="edge6" class="edge"><title>_ihm_model_representation:__starting_model_id:w&#45;&gt;_ihm_starting_model_details:__starting_model_id:w</title>
<path fill="none" stroke="black" d="M292.901,-745C265.96,-745 288.976,-527.559 277.901,-503 268.599,-482.373 250.56,-487.905 241.901,-467 217.994,-409.284 180.26,-327.863 231.657,-318.824"/>
<polygon fill="black" stroke="black" points="232.214,-322.291 241.901,-318 231.652,-315.314 232.214,-322.291"/>
</g>
<!-- _ihm_starting_comparative_models -->
<g id="node3" class="node"><title>_ihm_starting_comparative_models</title>
<a xlink:href="/dictionaries/ihm-extension-6.dic/Categories/ihm_starting_comparative_models.html" xlink:title="&lt;TABLE&gt;" target="_top">
<polygon fill="#99c49b" stroke="#99c49b" points="48.9009,-735 48.9009,-756 261.901,-756 261.901,-735 48.9009,-735"/>
<polygon fill="none" stroke="black" points="48.9009,-735 48.9009,-756 261.901,-756 261.901,-735 48.9009,-735"/>
<text text-anchor="start" x="54.4009" y="-743.167" font-family="Helvetica,sans-Serif" font-size="10.00">IHM_STARTING_COMPARATIVE_MODELS</text>
</a>
<a xlink:href="/dictionaries/ihm-extension-6.dic/Items/_ihm_starting_comparative_models.starting_model_ordinal_id.html" xlink:title="&lt;TABLE&gt;" target="_top">
<polygon fill="#ffff99" stroke="#ffff99" points="48.9009,-716 48.9009,-735 261.901,-735 261.901,-716 48.9009,-716"/>
<polygon fill="none" stroke="black" points="48.9009,-716 48.9009,-735 261.901,-735 261.901,-716 48.9009,-716"/>
<text text-anchor="start" x="53.9009" y="-723.4" font-family="Helvetica,sans-Serif" font-size="9.00">starting_model_ordinal_id</text>
</a>
<a xlink:href="/dictionaries/ihm-extension-6.dic/Items/_ihm_starting_comparative_models.starting_model_id.html" xlink:title="&lt;TABLE&gt;" target="_top">
<polygon fill="none" stroke="black" points="48.9009,-697 48.9009,-716 261.901,-716 261.901,-697 48.9009,-697"/>
<text text-anchor="start" x="53.9009" y="-704.4" font-family="Helvetica,sans-Serif" font-size="9.00">starting_model_id</text>
</a>
<a xlink:href="/dictionaries/ihm-extension-6.dic/Items/_ihm_starting_comparative_models.alignment_file_id.html" xlink:title="&lt;TABLE&gt;" target="_top">
<polygon fill="none" stroke="black" points="48.9009,-678 48.9009,-697 261.901,-697 261.901,-678 48.9009,-678"/>
<text text-anchor="start" x="53.9009" y="-685.4" font-family="Helvetica,sans-Serif" font-size="9.00">alignment_file_id</text>
</a>
<a xlink:href="/dictionaries/ihm-extension-6.dic/Items/_ihm_starting_comparative_models.template_auth_asym_id.html" xlink:title="&lt;TABLE&gt;" target="_top">
<polygon fill="none" stroke="black" points="48.9009,-659 48.9009,-678 261.901,-678 261.901,-659 48.9009,-659"/>
<text text-anchor="start" x="53.9009" y="-666.4" font-family="Helvetica,sans-Serif" font-size="9.00">template_auth_asym_id</text>
</a>
<a xlink:href="/dictionaries/ihm-extension-6.dic/Items/_ihm_starting_comparative_models.template_dataset_list_id.html" xlink:title="&lt;TABLE&gt;" target="_top">
<polygon fill="none" stroke="black" points="48.9009,-640 48.9009,-659 261.901,-659 261.901,-640 48.9009,-640"/>
<text text-anchor="start" x="53.9009" y="-647.4" font-family="Helvetica,sans-Serif" font-size="9.00">template_dataset_list_id</text>
</a>
<a xlink:href="/dictionaries/ihm-extension-6.dic/Items/_ihm_starting_comparative_models.template_seq_begin.html" xlink:title="&lt;TABLE&gt;" target="_top">
<polygon fill="none" stroke="black" points="48.9009,-621 48.9009,-640 261.901,-640 261.901,-621 48.9009,-621"/>
<text text-anchor="start" x="53.9009" y="-628.4" font-family="Helvetica,sans-Serif" font-size="9.00">template_seq_begin</text>
</a>
<a xlink:href="/dictionaries/ihm-extension-6.dic/Items/_ihm_starting_comparative_models.template_seq_end.html" xlink:title="&lt;TABLE&gt;" target="_top">
<polygon fill="none" stroke="black" points="48.9009,-602 48.9009,-621 261.901,-621 261.901,-602 48.9009,-602"/>
<text text-anchor="start" x="53.9009" y="-609.4" font-family="Helvetica,sans-Serif" font-size="9.00">template_seq_end</text>
</a>
<a xlink:href="/dictionaries/ihm-extension-6.dic/Items/_ihm_starting_comparative_models.template_sequence_identity.html" xlink:title="&lt;TABLE&gt;" target="_top">
<polygon fill="none" stroke="black" points="48.9009,-583 48.9009,-602 261.901,-602 261.901,-583 48.9009,-583"/>
<text text-anchor="start" x="53.9009" y="-590.4" font-family="Helvetica,sans-Serif" font-size="9.00">template_sequence_identity</text>
</a>
<a xlink:href="/dictionaries/ihm-extension-6.dic/Items/_ihm_starting_comparative_models.template_sequence_identity_denominator.html" xlink:title="&lt;TABLE&gt;" target="_top">
<polygon fill="none" stroke="black" points="48.9009,-564 48.9009,-583 261.901,-583 261.901,-564 48.9009,-564"/>
<text text-anchor="start" x="53.9009" y="-571.4" font-family="Helvetica,sans-Serif" font-size="9.00">template_sequence_identity_denominator</text>
</a>
</g>
<!-- _ihm_starting_comparative_models&#45;&gt;_ihm_dataset_list -->
<g id="edge4" class="edge"><title>_ihm_starting_comparative_models:__template_dataset_list_id:w&#45;&gt;_ihm_dataset_list:__id:w</title>
<path fill="none" stroke="black" d="M46.9009,-649C-66.1076,-649 47.4224,-169.387 160.655,-141.285"/>
<polygon fill="black" stroke="black" points="161.414,-144.717 170.901,-140 160.543,-137.772 161.414,-144.717"/>
</g>
<!-- _ihm_starting_comparative_models&#45;&gt;_ihm_starting_model_details -->
<g id="edge8" class="edge"><title>_ihm_starting_comparative_models:__starting_model_id:w&#45;&gt;_ihm_starting_model_details:__starting_model_id:w</title>
<path fill="none" stroke="black" d="M46.9009,-707C-18.4385,-707 26.9007,-621.524 48.9009,-560 54.1482,-545.326 194.27,-358.497 233.296,-323.595"/>
<polygon fill="black" stroke="black" points="235.425,-326.386 241.901,-318 231.609,-320.517 235.425,-326.386"/>
</g>
<!-- _ihm_starting_comparative_models&#45;&gt;_ihm_starting_model_details -->
<g id="edge10" class="edge"><title>_ihm_starting_comparative_models:__starting_model_ordinal_id:w&#45;&gt;_ihm_starting_model_details:__ordinal_id:w</title>
<path fill="none" stroke="black" d="M46.9009,-726C-26.8823,-726 13.5,-624.736 48.9009,-560 96.5319,-472.899 136.483,-435.51 231.874,-433.123"/>
<polygon fill="black" stroke="black" points="231.944,-436.622 241.901,-433 231.859,-429.623 231.944,-436.622"/>
</g>
<!-- _ihm_starting_model_coord -->
<g id="node4" class="node"><title>_ihm_starting_model_coord</title>
<a xlink:href="/dictionaries/ihm-extension-6.dic/Categories/ihm_starting_model_coord.html" xlink:title="&lt;TABLE&gt;" target="_top">
<polygon fill="#99c49b" stroke="#99c49b" points="496.901,-792 496.901,-813 666.901,-813 666.901,-792 496.901,-792"/>
<polygon fill="none" stroke="black" points="496.901,-792 496.901,-813 666.901,-813 666.901,-792 496.901,-792"/>
<text text-anchor="start" x="502.401" y="-800.167" font-family="Helvetica,sans-Serif" font-size="10.00">IHM_STARTING_MODEL_COORD</text>
</a>
<a xlink:href="/dictionaries/ihm-extension-6.dic/Items/_ihm_starting_model_coord.ordinal_id.html" xlink:title="&lt;TABLE&gt;" target="_top">
<polygon fill="#ffff99" stroke="#ffff99" points="496.901,-773 496.901,-792 666.901,-792 666.901,-773 496.901,-773"/>
<polygon fill="none" stroke="black" points="496.901,-773 496.901,-792 666.901,-792 666.901,-773 496.901,-773"/>
<text text-anchor="start" x="501.901" y="-780.4" font-family="Helvetica,sans-Serif" font-size="9.00">ordinal_id</text>
</a>
<a xlink:href="/dictionaries/ihm-extension-6.dic/Items/_ihm_starting_model_coord.starting_model_id.html" xlink:title="&lt;TABLE&gt;" target="_top">
<polygon fill="none" stroke="black" points="496.901,-754 496.901,-773 666.901,-773 666.901,-754 496.901,-754"/>
<text text-anchor="start" x="501.901" y="-761.4" font-family="Helvetica,sans-Serif" font-size="9.00">starting_model_id</text>
</a>
<a xlink:href="/dictionaries/ihm-extension-6.dic/Items/_ihm_starting_model_coord.B_iso_or_equiv.html" xlink:title="&lt;TABLE&gt;" target="_top">
<polygon fill="none" stroke="black" points="496.901,-735 496.901,-754 666.901,-754 666.901,-735 496.901,-735"/>
<text text-anchor="start" x="501.901" y="-742.4" font-family="Helvetica,sans-Serif" font-size="9.00">B_iso_or_equiv</text>
</a>
<a xlink:href="/dictionaries/ihm-extension-6.dic/Items/_ihm_starting_model_coord.Cartn_x.html" xlink:title="&lt;TABLE&gt;" target="_top">
<polygon fill="none" stroke="black" points="496.901,-716 496.901,-735 666.901,-735 666.901,-716 496.901,-716"/>
<text text-anchor="start" x="501.901" y="-723.4" font-family="Helvetica,sans-Serif" font-size="9.00">Cartn_x</text>
</a>
<a xlink:href="/dictionaries/ihm-extension-6.dic/Items/_ihm_starting_model_coord.Cartn_y.html" xlink:title="&lt;TABLE&gt;" target="_top">
<polygon fill="none" stroke="black" points="496.901,-697 496.901,-716 666.901,-716 666.901,-697 496.901,-697"/>
<text text-anchor="start" x="501.901" y="-704.4" font-family="Helvetica,sans-Serif" font-size="9.00">Cartn_y</text>
</a>
<a xlink:href="/dictionaries/ihm-extension-6.dic/Items/_ihm_starting_model_coord.Cartn_z.html" xlink:title="&lt;TABLE&gt;" target="_top">
<polygon fill="none" stroke="black" points="496.901,-678 496.901,-697 666.901,-697 666.901,-678 496.901,-678"/>
<text text-anchor="start" x="501.901" y="-685.4" font-family="Helvetica,sans-Serif" font-size="9.00">Cartn_z</text>
</a>
<a xlink:href="/dictionaries/ihm-extension-6.dic/Items/_ihm_starting_model_coord.asym_id.html" xlink:title="&lt;TABLE&gt;" target="_top">
<polygon fill="none" stroke="black" points="496.901,-659 496.901,-678 666.901,-678 666.901,-659 496.901,-659"/>
<text text-anchor="start" x="501.901" y="-666.4" font-family="Helvetica,sans-Serif" font-size="9.00">asym_id</text>
</a>
<a xlink:href="/dictionaries/ihm-extension-6.dic/Items/_ihm_starting_model_coord.atom_id.html" xlink:title="&lt;TABLE&gt;" target="_top">
<polygon fill="none" stroke="black" points="496.901,-640 496.901,-659 666.901,-659 666.901,-640 496.901,-640"/>
<text text-anchor="start" x="501.901" y="-647.4" font-family="Helvetica,sans-Serif" font-size="9.00">atom_id</text>
</a>
<a xlink:href="/dictionaries/ihm-extension-6.dic/Items/_ihm_starting_model_coord.comp_id.html" xlink:title="&lt;TABLE&gt;" target="_top">
<polygon fill="none" stroke="black" points="496.901,-621 496.901,-640 666.901,-640 666.901,-621 496.901,-621"/>
<text text-anchor="start" x="501.901" y="-628.4" font-family="Helvetica,sans-Serif" font-size="9.00">comp_id</text>
</a>
<a xlink:href="/dictionaries/ihm-extension-6.dic/Items/_ihm_starting_model_coord.entity_id.html" xlink:title="&lt;TABLE&gt;" target="_top">
<polygon fill="none" stroke="black" points="496.901,-602 496.901,-621 666.901,-621 666.901,-602 496.901,-602"/>
<text text-anchor="start" x="501.901" y="-609.4" font-family="Helvetica,sans-Serif" font-size="9.00">entity_id</text>
</a>
<a xlink:href="/dictionaries/ihm-extension-6.dic/Items/_ihm_starting_model_coord.formal_charge.html" xlink:title="&lt;TABLE&gt;" target="_top">
<polygon fill="none" stroke="black" points="496.901,-583 496.901,-602 666.901,-602 666.901,-583 496.901,-583"/>
<text text-anchor="start" x="501.901" y="-590.4" font-family="Helvetica,sans-Serif" font-size="9.00">formal_charge</text>
</a>
<a xlink:href="/dictionaries/ihm-extension-6.dic/Items/_ihm_starting_model_coord.group_PDB.html" xlink:title="&lt;TABLE&gt;" target="_top">
<polygon fill="none" stroke="black" points="496.901,-564 496.901,-583 666.901,-583 666.901,-564 496.901,-564"/>
<text text-anchor="start" x="501.901" y="-571.4" font-family="Helvetica,sans-Serif" font-size="9.00">group_PDB</text>
</a>
<a xlink:href="/dictionaries/ihm-extension-6.dic/Items/_ihm_starting_model_coord.id.html" xlink:title="&lt;TABLE&gt;" target="_top">
<polygon fill="none" stroke="black" points="496.901,-545 496.901,-564 666.901,-564 666.901,-545 496.901,-545"/>
<text text-anchor="start" x="501.901" y="-552.4" font-family="Helvetica,sans-Serif" font-size="9.00">id</text>
</a>
<a xlink:href="/dictionaries/ihm-extension-6.dic/Items/_ihm_starting_model_coord.seq_id.html" xlink:title="&lt;TABLE&gt;" target="_top">
<polygon fill="none" stroke="black" points="496.901,-526 496.901,-545 666.901,-545 666.901,-526 496.901,-526"/>
<text text-anchor="start" x="501.901" y="-533.4" font-family="Helvetica,sans-Serif" font-size="9.00">seq_id</text>
</a>
<a xlink:href="/dictionaries/ihm-extension-6.dic/Items/_ihm_starting_model_coord.type_symbol.html" xlink:title="&lt;TABLE&gt;" target="_top">
<polygon fill="none" stroke="black" points="496.901,-507 496.901,-526 666.901,-526 666.901,-507 496.901,-507"/>
<text text-anchor="start" x="501.901" y="-514.4" font-family="Helvetica,sans-Serif" font-size="9.00">type_symbol</text>
</a>
</g>
<!-- _ihm_starting_model_coord&#45;&gt;_ihm_starting_model_details -->
<g id="edge12" class="edge"><title>_ihm_starting_model_coord:__starting_model_id:w&#45;&gt;_ihm_starting_model_details:__starting_model_id:w</title>
<path fill="none" stroke="black" d="M494.901,-764C465.853,-764 499.467,-524.47 479.901,-503 407.841,-423.929 311.662,-548.107 241.901,-467 201.08,-419.54 178.259,-328.66 231.826,-318.862"/>
<polygon fill="black" stroke="black" points="232.236,-322.34 241.901,-318 231.639,-315.366 232.236,-322.34"/>
</g>
<!-- _ihm_starting_model_details&#45;&gt;_ihm_dataset_list -->
<g id="edge2" class="edge"><title>_ihm_starting_model_details:__dataset_list_id:w&#45;&gt;_ihm_dataset_list:__id:w</title>
<path fill="none" stroke="black" d="M239.901,-395C185.095,-395 121.315,-172.743 160.855,-143.224"/>
<polygon fill="black" stroke="black" points="162.449,-146.388 170.901,-140 160.31,-139.723 162.449,-146.388"/>
</g>
<!-- _ihm_starting_model_seq_dif -->
<g id="node6" class="node"><title>_ihm_starting_model_seq_dif</title>
<a xlink:href="/dictionaries/ihm-extension-6.dic/Categories/ihm_starting_model_seq_dif.html" xlink:title="&lt;TABLE&gt;" target="_top">
<polygon fill="#99c49b" stroke="#99c49b" points="700.901,-754 700.901,-775 875.901,-775 875.901,-754 700.901,-754"/>
<polygon fill="none" stroke="black" points="700.901,-754 700.901,-775 875.901,-775 875.901,-754 700.901,-754"/>
<text text-anchor="start" x="706.401" y="-762.167" font-family="Helvetica,sans-Serif" font-size="10.00">IHM_STARTING_MODEL_SEQ_DIF</text>
</a>
<a xlink:href="/dictionaries/ihm-extension-6.dic/Items/_ihm_starting_model_seq_dif.ordinal_id.html" xlink:title="&lt;TABLE&gt;" target="_top">
<polygon fill="#ffff99" stroke="#ffff99" points="700.901,-735 700.901,-754 875.901,-754 875.901,-735 700.901,-735"/>
<polygon fill="none" stroke="black" points="700.901,-735 700.901,-754 875.901,-754 875.901,-735 700.901,-735"/>
<text text-anchor="start" x="705.901" y="-742.4" font-family="Helvetica,sans-Serif" font-size="9.00">ordinal_id</text>
</a>
<a xlink:href="/dictionaries/ihm-extension-6.dic/Items/_ihm_starting_model_seq_dif.starting_model_ordinal_id.html" xlink:title="&lt;TABLE&gt;" target="_top">
<polygon fill="none" stroke="black" points="700.901,-716 700.901,-735 875.901,-735 875.901,-716 700.901,-716"/>
<text text-anchor="start" x="705.901" y="-723.4" font-family="Helvetica,sans-Serif" font-size="9.00">starting_model_ordinal_id</text>
</a>
<a xlink:href="/dictionaries/ihm-extension-6.dic/Items/_ihm_starting_model_seq_dif.asym_id.html" xlink:title="&lt;TABLE&gt;" target="_top">
<polygon fill="none" stroke="black" points="700.901,-697 700.901,-716 875.901,-716 875.901,-697 700.901,-697"/>
<text text-anchor="start" x="705.901" y="-704.4" font-family="Helvetica,sans-Serif" font-size="9.00">asym_id</text>
</a>
<a xlink:href="/dictionaries/ihm-extension-6.dic/Items/_ihm_starting_model_seq_dif.comp_id.html" xlink:title="&lt;TABLE&gt;" target="_top">
<polygon fill="none" stroke="black" points="700.901,-678 700.901,-697 875.901,-697 875.901,-678 700.901,-678"/>
<text text-anchor="start" x="705.901" y="-685.4" font-family="Helvetica,sans-Serif" font-size="9.00">comp_id</text>
</a>
<a xlink:href="/dictionaries/ihm-extension-6.dic/Items/_ihm_starting_model_seq_dif.db_asym_id.html" xlink:title="&lt;TABLE&gt;" target="_top">
<polygon fill="none" stroke="black" points="700.901,-659 700.901,-678 875.901,-678 875.901,-659 700.901,-659"/>
<text text-anchor="start" x="705.901" y="-666.4" font-family="Helvetica,sans-Serif" font-size="9.00">db_asym_id</text>
</a>
<a xlink:href="/dictionaries/ihm-extension-6.dic/Items/_ihm_starting_model_seq_dif.db_comp_id.html" xlink:title="&lt;TABLE&gt;" target="_top">
<polygon fill="none" stroke="black" points="700.901,-640 700.901,-659 875.901,-659 875.901,-640 700.901,-640"/>
<text text-anchor="start" x="705.901" y="-647.4" font-family="Helvetica,sans-Serif" font-size="9.00">db_comp_id</text>
</a>
<a xlink:href="/dictionaries/ihm-extension-6.dic/Items/_ihm_starting_model_seq_dif.db_entity_id.html" xlink:title="&lt;TABLE&gt;" target="_top">
<polygon fill="none" stroke="black" points="700.901,-621 700.901,-640 875.901,-640 875.901,-621 700.901,-621"/>
<text text-anchor="start" x="705.901" y="-628.4" font-family="Helvetica,sans-Serif" font-size="9.00">db_entity_id</text>
</a>
<a xlink:href="/dictionaries/ihm-extension-6.dic/Items/_ihm_starting_model_seq_dif.db_seq_id.html" xlink:title="&lt;TABLE&gt;" target="_top">
<polygon fill="none" stroke="black" points="700.901,-602 700.901,-621 875.901,-621 875.901,-602 700.901,-602"/>
<text text-anchor="start" x="705.901" y="-609.4" font-family="Helvetica,sans-Serif" font-size="9.00">db_seq_id</text>
</a>
<a xlink:href="/dictionaries/ihm-extension-6.dic/Items/_ihm_starting_model_seq_dif.details.html" xlink:title="&lt;TABLE&gt;" target="_top">
<polygon fill="none" stroke="black" points="700.901,-583 700.901,-602 875.901,-602 875.901,-583 700.901,-583"/>
<text text-anchor="start" x="705.901" y="-590.4" font-family="Helvetica,sans-Serif" font-size="9.00">details</text>
</a>
<a xlink:href="/dictionaries/ihm-extension-6.dic/Items/_ihm_starting_model_seq_dif.entity_id.html" xlink:title="&lt;TABLE&gt;" target="_top">
<polygon fill="none" stroke="black" points="700.901,-564 700.901,-583 875.901,-583 875.901,-564 700.901,-564"/>
<text text-anchor="start" x="705.901" y="-571.4" font-family="Helvetica,sans-Serif" font-size="9.00">entity_id</text>
</a>
<a xlink:href="/dictionaries/ihm-extension-6.dic/Items/_ihm_starting_model_seq_dif.seq_id.html" xlink:title="&lt;TABLE&gt;" target="_top">
<polygon fill="none" stroke="black" points="700.901,-545 700.901,-564 875.901,-564 875.901,-545 700.901,-545"/>
<text text-anchor="start" x="705.901" y="-552.4" font-family="Helvetica,sans-Serif" font-size="9.00">seq_id</text>
</a>
</g>
<!-- _ihm_starting_model_seq_dif&#45;&gt;_ihm_starting_model_details -->
<g id="edge14" class="edge"><title>_ihm_starting_model_seq_dif:__starting_model_ordinal_id:w&#45;&gt;_ihm_starting_model_details:__ordinal_id:w</title>
<path fill="none" stroke="black" d="M698.901,-726C674.067,-726 701.337,-520.684 683.901,-503 614.71,-432.827 308.696,-539.457 241.901,-467 234.859,-459.362 230.358,-446.156 233.142,-438.648"/>
<polygon fill="black" stroke="black" points="235.393,-441.361 241.901,-433 231.6,-435.478 235.393,-441.361"/>
</g>
</g>
</svg>
