<?xml version="1.0" encoding="UTF-8" standalone="no"?>
<!DOCTYPE svg PUBLIC "-//W3C//DTD SVG 1.1//EN"
 "http://www.w3.org/Graphics/SVG/1.1/DTD/svg11.dtd">
<!-- Generated by graphviz version 2.26.0 (20091210.2329)
 -->
<!-- Title: ihm_external_reference_info Pages: 1 -->
<svg width="846pt" height="873pt"
 viewBox="0.00 0.00 845.50 873.00" xmlns="http://www.w3.org/2000/svg" xmlns:xlink="http://www.w3.org/1999/xlink">
<g id="graph1" class="graph" transform="scale(1 1) rotate(0) translate(4 869)">
<title>ihm_external_reference_info</title>
<polygon fill="white" stroke="white" points="-4,5 -4,-869 842.502,-869 842.502,5 -4,5"/>
<text text-anchor="start" x="415.751" y="-51.8" font-family="Helvetica,sans-Serif" font-size="18.00"> </text>
<text text-anchor="start" x="154.251" y="-30.2" font-family="Helvetica,sans-Serif" font-size="18.00">Selected Relationships for Category &#160;</text>
<text text-anchor="start" x="449.251" y="-30.2" font-family="Helvetica,sans-Serif" font-size="18.00"> ihm_external_reference_info</text>
<text text-anchor="start" x="679.251" y="-29.8" font-family="Helvetica,sans-Serif" font-size="14.00"> </text>
<text text-anchor="start" x="334.251" y="-11.5333" font-family="Helvetica,sans-Serif" font-size="14.00"> &#160;in dictionary ihm&#45;extension</text>
<!-- _ihm_dataset_external_reference -->
<g id="node1" class="node"><title>_ihm_dataset_external_reference</title>
<a xlink:href="/dictionaries/ihm-extension-6.dic/Categories/ihm_dataset_external_reference.html" xlink:title="&lt;TABLE&gt;" target="_top">
<polygon fill="#99c49b" stroke="#99c49b" points="55.5024,-575 55.5024,-596 264.502,-596 264.502,-575 55.5024,-575"/>
<polygon fill="none" stroke="black" points="55.5024,-575 55.5024,-596 264.502,-596 264.502,-575 55.5024,-575"/>
<text text-anchor="start" x="61.0024" y="-583.167" font-family="Helvetica,sans-Serif" font-size="10.00">IHM_DATASET_EXTERNAL_REFERENCE</text>
</a>
<a xlink:href="/dictionaries/ihm-extension-6.dic/Items/_ihm_dataset_external_reference.id.html" xlink:title="&lt;TABLE&gt;" target="_top">
<polygon fill="#ffff99" stroke="#ffff99" points="55.5024,-556 55.5024,-575 264.502,-575 264.502,-556 55.5024,-556"/>
<polygon fill="none" stroke="black" points="55.5024,-556 55.5024,-575 264.502,-575 264.502,-556 55.5024,-556"/>
<text text-anchor="start" x="60.5024" y="-563.4" font-family="Helvetica,sans-Serif" font-size="9.00">id</text>
</a>
<a xlink:href="/dictionaries/ihm-extension-6.dic/Items/_ihm_dataset_external_reference.dataset_list_id.html" xlink:title="&lt;TABLE&gt;" target="_top">
<polygon fill="none" stroke="black" points="55.5024,-537 55.5024,-556 264.502,-556 264.502,-537 55.5024,-537"/>
<text text-anchor="start" x="60.5024" y="-544.4" font-family="Helvetica,sans-Serif" font-size="9.00">dataset_list_id</text>
</a>
<a xlink:href="/dictionaries/ihm-extension-6.dic/Items/_ihm_dataset_external_reference.file_id.html" xlink:title="&lt;TABLE&gt;" target="_top">
<polygon fill="none" stroke="black" points="55.5024,-518 55.5024,-537 264.502,-537 264.502,-518 55.5024,-518"/>
<text text-anchor="start" x="60.5024" y="-525.4" font-family="Helvetica,sans-Serif" font-size="9.00">file_id</text>
</a>
</g>
<!-- _ihm_dataset_list -->
<g id="node2" class="node"><title>_ihm_dataset_list</title>
<a xlink:href="/dictionaries/ihm-extension-6.dic/Categories/ihm_dataset_list.html" xlink:title="&lt;TABLE&gt;" target="_top">
<polygon fill="#99c49b" stroke="#99c49b" points="201.502,-367 201.502,-388 309.502,-388 309.502,-367 201.502,-367"/>
<polygon fill="none" stroke="black" points="201.502,-367 201.502,-388 309.502,-388 309.502,-367 201.502,-367"/>
<text text-anchor="start" x="207.002" y="-375.167" font-family="Helvetica,sans-Serif" font-size="10.00">IHM_DATASET_LIST</text>
</a>
<a xlink:href="/dictionaries/ihm-extension-6.dic/Items/_ihm_dataset_list.ordinal_id.html" xlink:title="&lt;TABLE&gt;" target="_top">
<polygon fill="#ffff99" stroke="#ffff99" points="201.502,-348 201.502,-367 309.502,-367 309.502,-348 201.502,-348"/>
<polygon fill="none" stroke="black" points="201.502,-348 201.502,-367 309.502,-367 309.502,-348 201.502,-348"/>
<text text-anchor="start" x="206.502" y="-355.4" font-family="Helvetica,sans-Serif" font-size="9.00">ordinal_id</text>
</a>
<a xlink:href="/dictionaries/ihm-extension-6.dic/Items/_ihm_dataset_list.data_type.html" xlink:title="&lt;TABLE&gt;" target="_top">
<polygon fill="none" stroke="black" points="201.502,-329 201.502,-348 309.502,-348 309.502,-329 201.502,-329"/>
<text text-anchor="start" x="206.502" y="-336.4" font-family="Helvetica,sans-Serif" font-size="9.00">data_type</text>
</a>
<a xlink:href="/dictionaries/ihm-extension-6.dic/Items/_ihm_dataset_list.database_hosted.html" xlink:title="&lt;TABLE&gt;" target="_top">
<polygon fill="none" stroke="black" points="201.502,-310 201.502,-329 309.502,-329 309.502,-310 201.502,-310"/>
<text text-anchor="start" x="206.502" y="-317.4" font-family="Helvetica,sans-Serif" font-size="9.00">database_hosted</text>
</a>
<a xlink:href="/dictionaries/ihm-extension-6.dic/Items/_ihm_dataset_list.group_id.html" xlink:title="&lt;TABLE&gt;" target="_top">
<polygon fill="none" stroke="black" points="201.502,-291 201.502,-310 309.502,-310 309.502,-291 201.502,-291"/>
<text text-anchor="start" x="206.502" y="-298.4" font-family="Helvetica,sans-Serif" font-size="9.00">group_id</text>
</a>
<a xlink:href="/dictionaries/ihm-extension-6.dic/Items/_ihm_dataset_list.id.html" xlink:title="&lt;TABLE&gt;" target="_top">
<polygon fill="none" stroke="black" points="201.502,-272 201.502,-291 309.502,-291 309.502,-272 201.502,-272"/>
<text text-anchor="start" x="206.502" y="-279.4" font-family="Helvetica,sans-Serif" font-size="9.00">id</text>
</a>
</g>
<!-- _ihm_dataset_external_reference&#45;&gt;_ihm_dataset_list -->
<g id="edge2" class="edge"><title>_ihm_dataset_external_reference:__dataset_list_id:w&#45;&gt;_ihm_dataset_list:__id:w</title>
<path fill="none" stroke="black" d="M53.5024,-546C-77.9736,-546 59.268,-294.286 191.206,-281.504"/>
<polygon fill="black" stroke="black" points="191.685,-284.985 201.502,-281 191.343,-277.993 191.685,-284.985"/>
</g>
<!-- _ihm_external_files -->
<g id="node4" class="node"><title>_ihm_external_files</title>
<a xlink:href="/dictionaries/ihm-extension-6.dic/Categories/ihm_external_files.html" xlink:title="&lt;TABLE&gt;" target="_top">
<polygon fill="#99c49b" stroke="#99c49b" points="393.502,-386 393.502,-407 515.502,-407 515.502,-386 393.502,-386"/>
<polygon fill="none" stroke="black" points="393.502,-386 393.502,-407 515.502,-407 515.502,-386 393.502,-386"/>
<text text-anchor="start" x="399.002" y="-394.167" font-family="Helvetica,sans-Serif" font-size="10.00">IHM_EXTERNAL_FILES</text>
</a>
<a xlink:href="/dictionaries/ihm-extension-6.dic/Items/_ihm_external_files.id.html" xlink:title="&lt;TABLE&gt;" target="_top">
<polygon fill="#ffff99" stroke="#ffff99" points="393.502,-367 393.502,-386 515.502,-386 515.502,-367 393.502,-367"/>
<polygon fill="none" stroke="black" points="393.502,-367 393.502,-386 515.502,-386 515.502,-367 393.502,-367"/>
<text text-anchor="start" x="398.502" y="-374.4" font-family="Helvetica,sans-Serif" font-size="9.00">id</text>
</a>
<a xlink:href="/dictionaries/ihm-extension-6.dic/Items/_ihm_external_files.reference_id.html" xlink:title="&lt;TABLE&gt;" target="_top">
<polygon fill="none" stroke="black" points="393.502,-348 393.502,-367 515.502,-367 515.502,-348 393.502,-348"/>
<text text-anchor="start" x="398.502" y="-355.4" font-family="Helvetica,sans-Serif" font-size="9.00">reference_id</text>
</a>
<a xlink:href="/dictionaries/ihm-extension-6.dic/Items/_ihm_external_files.content_type.html" xlink:title="&lt;TABLE&gt;" target="_top">
<polygon fill="none" stroke="black" points="393.502,-329 393.502,-348 515.502,-348 515.502,-329 393.502,-329"/>
<text text-anchor="start" x="398.502" y="-336.4" font-family="Helvetica,sans-Serif" font-size="9.00">content_type</text>
</a>
<a xlink:href="/dictionaries/ihm-extension-6.dic/Items/_ihm_external_files.details.html" xlink:title="&lt;TABLE&gt;" target="_top">
<polygon fill="none" stroke="black" points="393.502,-310 393.502,-329 515.502,-329 515.502,-310 393.502,-310"/>
<text text-anchor="start" x="398.502" y="-317.4" font-family="Helvetica,sans-Serif" font-size="9.00">details</text>
</a>
<a xlink:href="/dictionaries/ihm-extension-6.dic/Items/_ihm_external_files.file_format.html" xlink:title="&lt;TABLE&gt;" target="_top">
<polygon fill="none" stroke="black" points="393.502,-291 393.502,-310 515.502,-310 515.502,-291 393.502,-291"/>
<text text-anchor="start" x="398.502" y="-298.4" font-family="Helvetica,sans-Serif" font-size="9.00">file_format</text>
</a>
<a xlink:href="/dictionaries/ihm-extension-6.dic/Items/_ihm_external_files.file_path.html" xlink:title="&lt;TABLE&gt;" target="_top">
<polygon fill="none" stroke="black" points="393.502,-272 393.502,-291 515.502,-291 515.502,-272 393.502,-272"/>
<text text-anchor="start" x="398.502" y="-279.4" font-family="Helvetica,sans-Serif" font-size="9.00">file_path</text>
</a>
<a xlink:href="/dictionaries/ihm-extension-6.dic/Items/_ihm_external_files.file_size_kb.html" xlink:title="&lt;TABLE&gt;" target="_top">
<polygon fill="none" stroke="black" points="393.502,-253 393.502,-272 515.502,-272 515.502,-253 393.502,-253"/>
<text text-anchor="start" x="398.502" y="-260.4" font-family="Helvetica,sans-Serif" font-size="9.00">file_size_kb</text>
</a>
</g>
<!-- _ihm_dataset_external_reference&#45;&gt;_ihm_external_files -->
<g id="edge4" class="edge"><title>_ihm_dataset_external_reference:__file_id:w&#45;&gt;_ihm_external_files:__id:w</title>
<path fill="none" stroke="black" d="M53.5024,-527C-78.3299,-527 205.935,-464.323 326.502,-411 353.582,-399.024 359.062,-381.553 383.238,-377.749"/>
<polygon fill="black" stroke="black" points="383.784,-381.219 393.502,-377 383.274,-374.237 383.784,-381.219"/>
</g>
<!-- _ihm_ensemble_info -->
<g id="node3" class="node"><title>_ihm_ensemble_info</title>
<a xlink:href="/dictionaries/ihm-extension-6.dic/Categories/ihm_ensemble_info.html" xlink:title="&lt;TABLE&gt;" target="_top">
<polygon fill="#99c49b" stroke="#99c49b" points="543.502,-641 543.502,-662 699.502,-662 699.502,-641 543.502,-641"/>
<polygon fill="none" stroke="black" points="543.502,-641 543.502,-662 699.502,-662 699.502,-641 543.502,-641"/>
<text text-anchor="start" x="567.002" y="-649.167" font-family="Helvetica,sans-Serif" font-size="10.00">IHM_ENSEMBLE_INFO</text>
</a>
<a xlink:href="/dictionaries/ihm-extension-6.dic/Items/_ihm_ensemble_info.ensemble_id.html" xlink:title="&lt;TABLE&gt;" target="_top">
<polygon fill="#ffff99" stroke="#ffff99" points="543.502,-622 543.502,-641 699.502,-641 699.502,-622 543.502,-622"/>
<polygon fill="none" stroke="black" points="543.502,-622 543.502,-641 699.502,-641 699.502,-622 543.502,-622"/>
<text text-anchor="start" x="548.502" y="-629.4" font-family="Helvetica,sans-Serif" font-size="9.00">ensemble_id</text>
</a>
<a xlink:href="/dictionaries/ihm-extension-6.dic/Items/_ihm_ensemble_info.ensemble_clustering_feature.html" xlink:title="&lt;TABLE&gt;" target="_top">
<polygon fill="none" stroke="black" points="543.502,-603 543.502,-622 699.502,-622 699.502,-603 543.502,-603"/>
<text text-anchor="start" x="548.502" y="-610.4" font-family="Helvetica,sans-Serif" font-size="9.00">ensemble_clustering_feature</text>
</a>
<a xlink:href="/dictionaries/ihm-extension-6.dic/Items/_ihm_ensemble_info.ensemble_clustering_method.html" xlink:title="&lt;TABLE&gt;" target="_top">
<polygon fill="none" stroke="black" points="543.502,-584 543.502,-603 699.502,-603 699.502,-584 543.502,-584"/>
<text text-anchor="start" x="548.502" y="-591.4" font-family="Helvetica,sans-Serif" font-size="9.00">ensemble_clustering_method</text>
</a>
<a xlink:href="/dictionaries/ihm-extension-6.dic/Items/_ihm_ensemble_info.ensemble_file_id.html" xlink:title="&lt;TABLE&gt;" target="_top">
<polygon fill="none" stroke="black" points="543.502,-565 543.502,-584 699.502,-584 699.502,-565 543.502,-565"/>
<text text-anchor="start" x="548.502" y="-572.4" font-family="Helvetica,sans-Serif" font-size="9.00">ensemble_file_id</text>
</a>
<a xlink:href="/dictionaries/ihm-extension-6.dic/Items/_ihm_ensemble_info.ensemble_name.html" xlink:title="&lt;TABLE&gt;" target="_top">
<polygon fill="none" stroke="black" points="543.502,-546 543.502,-565 699.502,-565 699.502,-546 543.502,-546"/>
<text text-anchor="start" x="548.502" y="-553.4" font-family="Helvetica,sans-Serif" font-size="9.00">ensemble_name</text>
</a>
<a xlink:href="/dictionaries/ihm-extension-6.dic/Items/_ihm_ensemble_info.ensemble_precision_value.html" xlink:title="&lt;TABLE&gt;" target="_top">
<polygon fill="none" stroke="black" points="543.502,-527 543.502,-546 699.502,-546 699.502,-527 543.502,-527"/>
<text text-anchor="start" x="548.502" y="-534.4" font-family="Helvetica,sans-Serif" font-size="9.00">ensemble_precision_value</text>
</a>
<a xlink:href="/dictionaries/ihm-extension-6.dic/Items/_ihm_ensemble_info.model_group_id.html" xlink:title="&lt;TABLE&gt;" target="_top">
<polygon fill="none" stroke="black" points="543.502,-508 543.502,-527 699.502,-527 699.502,-508 543.502,-508"/>
<text text-anchor="start" x="548.502" y="-515.4" font-family="Helvetica,sans-Serif" font-size="9.00">model_group_id</text>
</a>
<a xlink:href="/dictionaries/ihm-extension-6.dic/Items/_ihm_ensemble_info.num_ensemble_models.html" xlink:title="&lt;TABLE&gt;" target="_top">
<polygon fill="none" stroke="black" points="543.502,-489 543.502,-508 699.502,-508 699.502,-489 543.502,-489"/>
<text text-anchor="start" x="548.502" y="-496.4" font-family="Helvetica,sans-Serif" font-size="9.00">num_ensemble_models</text>
</a>
<a xlink:href="/dictionaries/ihm-extension-6.dic/Items/_ihm_ensemble_info.num_ensemble_models_deposited.html" xlink:title="&lt;TABLE&gt;" target="_top">
<polygon fill="none" stroke="black" points="543.502,-470 543.502,-489 699.502,-489 699.502,-470 543.502,-470"/>
<text text-anchor="start" x="548.502" y="-477.4" font-family="Helvetica,sans-Serif" font-size="9.00">num_ensemble_models_deposited</text>
</a>
<a xlink:href="/dictionaries/ihm-extension-6.dic/Items/_ihm_ensemble_info.post_process_id.html" xlink:title="&lt;TABLE&gt;" target="_top">
<polygon fill="none" stroke="black" points="543.502,-451 543.502,-470 699.502,-470 699.502,-451 543.502,-451"/>
<text text-anchor="start" x="548.502" y="-458.4" font-family="Helvetica,sans-Serif" font-size="9.00">post_process_id</text>
</a>
</g>
<!-- _ihm_ensemble_info&#45;&gt;_ihm_external_files -->
<g id="edge8" class="edge"><title>_ihm_ensemble_info:__ensemble_file_id:w&#45;&gt;_ihm_external_files:__id:w</title>
<path fill="none" stroke="black" d="M541.502,-575C512.863,-575 545.204,-468.69 526.502,-447 486.513,-400.621 430.72,-459.631 393.502,-411 387.188,-402.75 382.414,-389.773 384.957,-382.469"/>
<polygon fill="black" stroke="black" points="386.966,-385.338 393.502,-377 383.193,-379.442 386.966,-385.338"/>
</g>
<!-- _ihm_external_reference_info -->
<g id="node5" class="node"><title>_ihm_external_reference_info</title>
<a xlink:href="/dictionaries/ihm-extension-6.dic/Categories/ihm_external_reference_info.html" xlink:title="&lt;TABLE&gt;" target="_top">
<polygon fill="#f0027f" stroke="#f0027f" points="393.502,-187 393.502,-208 579.502,-208 579.502,-187 393.502,-187"/>
<polygon fill="none" stroke="black" points="393.502,-187 393.502,-208 579.502,-208 579.502,-187 393.502,-187"/>
<text text-anchor="start" x="399.002" y="-195.167" font-family="Helvetica,sans-Serif" font-size="10.00">IHM_EXTERNAL_REFERENCE_INFO</text>
</a>
<a xlink:href="/dictionaries/ihm-extension-6.dic/Items/_ihm_external_reference_info.reference_id.html" xlink:title="&lt;TABLE&gt;" target="_top">
<polygon fill="#ffff99" stroke="#ffff99" points="393.502,-168 393.502,-187 579.502,-187 579.502,-168 393.502,-168"/>
<polygon fill="none" stroke="black" points="393.502,-168 393.502,-187 579.502,-187 579.502,-168 393.502,-168"/>
<text text-anchor="start" x="398.502" y="-175.4" font-family="Helvetica,sans-Serif" font-size="9.00">reference_id</text>
</a>
<a xlink:href="/dictionaries/ihm-extension-6.dic/Items/_ihm_external_reference_info.associated_url.html" xlink:title="&lt;TABLE&gt;" target="_top">
<polygon fill="none" stroke="black" points="393.502,-149 393.502,-168 579.502,-168 579.502,-149 393.502,-149"/>
<text text-anchor="start" x="398.502" y="-156.4" font-family="Helvetica,sans-Serif" font-size="9.00">associated_url</text>
</a>
<a xlink:href="/dictionaries/ihm-extension-6.dic/Items/_ihm_external_reference_info.reference.html" xlink:title="&lt;TABLE&gt;" target="_top">
<polygon fill="none" stroke="black" points="393.502,-130 393.502,-149 579.502,-149 579.502,-130 393.502,-130"/>
<text text-anchor="start" x="398.502" y="-137.4" font-family="Helvetica,sans-Serif" font-size="9.00">reference</text>
</a>
<a xlink:href="/dictionaries/ihm-extension-6.dic/Items/_ihm_external_reference_info.reference_provider.html" xlink:title="&lt;TABLE&gt;" target="_top">
<polygon fill="none" stroke="black" points="393.502,-111 393.502,-130 579.502,-130 579.502,-111 393.502,-111"/>
<text text-anchor="start" x="398.502" y="-118.4" font-family="Helvetica,sans-Serif" font-size="9.00">reference_provider</text>
</a>
<a xlink:href="/dictionaries/ihm-extension-6.dic/Items/_ihm_external_reference_info.reference_type.html" xlink:title="&lt;TABLE&gt;" target="_top">
<polygon fill="none" stroke="black" points="393.502,-92 393.502,-111 579.502,-111 579.502,-92 393.502,-92"/>
<text text-anchor="start" x="398.502" y="-99.4" font-family="Helvetica,sans-Serif" font-size="9.00">reference_type</text>
</a>
<a xlink:href="/dictionaries/ihm-extension-6.dic/Items/_ihm_external_reference_info.refers_to.html" xlink:title="&lt;TABLE&gt;" target="_top">
<polygon fill="none" stroke="black" points="393.502,-73 393.502,-92 579.502,-92 579.502,-73 393.502,-73"/>
<text text-anchor="start" x="398.502" y="-80.4" font-family="Helvetica,sans-Serif" font-size="9.00">refers_to</text>
</a>
</g>
<!-- _ihm_external_files&#45;&gt;_ihm_external_reference_info -->
<g id="edge16" class="edge"><title>_ihm_external_files:__reference_id:w&#45;&gt;_ihm_external_reference_info:__reference_id:w</title>
<path fill="none" stroke="black" d="M391.502,-358C315.091,-358 313.483,-193.809 383.193,-179.057"/>
<polygon fill="black" stroke="black" points="383.912,-182.502 393.502,-178 383.197,-175.538 383.912,-182.502"/>
</g>
<!-- _ihm_localization_density_files -->
<g id="node6" class="node"><title>_ihm_localization_density_files</title>
<a xlink:href="/dictionaries/ihm-extension-6.dic/Categories/ihm_localization_density_files.html" xlink:title="&lt;TABLE&gt;" target="_top">
<polygon fill="#99c49b" stroke="#99c49b" points="639.502,-840 639.502,-861 829.502,-861 829.502,-840 639.502,-840"/>
<polygon fill="none" stroke="black" points="639.502,-840 639.502,-861 829.502,-861 829.502,-840 639.502,-840"/>
<text text-anchor="start" x="645.002" y="-848.167" font-family="Helvetica,sans-Serif" font-size="10.00">IHM_LOCALIZATION_DENSITY_FILES</text>
</a>
<a xlink:href="/dictionaries/ihm-extension-6.dic/Items/_ihm_localization_density_files.id.html" xlink:title="&lt;TABLE&gt;" target="_top">
<polygon fill="#ffff99" stroke="#ffff99" points="639.502,-821 639.502,-840 829.502,-840 829.502,-821 639.502,-821"/>
<polygon fill="none" stroke="black" points="639.502,-821 639.502,-840 829.502,-840 829.502,-821 639.502,-821"/>
<text text-anchor="start" x="644.502" y="-828.4" font-family="Helvetica,sans-Serif" font-size="9.00">id</text>
</a>
<a xlink:href="/dictionaries/ihm-extension-6.dic/Items/_ihm_localization_density_files.asym_id.html" xlink:title="&lt;TABLE&gt;" target="_top">
<polygon fill="none" stroke="black" points="639.502,-802 639.502,-821 829.502,-821 829.502,-802 639.502,-802"/>
<text text-anchor="start" x="644.502" y="-809.4" font-family="Helvetica,sans-Serif" font-size="9.00">asym_id</text>
</a>
<a xlink:href="/dictionaries/ihm-extension-6.dic/Items/_ihm_localization_density_files.ensemble_id.html" xlink:title="&lt;TABLE&gt;" target="_top">
<polygon fill="none" stroke="black" points="639.502,-783 639.502,-802 829.502,-802 829.502,-783 639.502,-783"/>
<text text-anchor="start" x="644.502" y="-790.4" font-family="Helvetica,sans-Serif" font-size="9.00">ensemble_id</text>
</a>
<a xlink:href="/dictionaries/ihm-extension-6.dic/Items/_ihm_localization_density_files.entity_id.html" xlink:title="&lt;TABLE&gt;" target="_top">
<polygon fill="none" stroke="black" points="639.502,-764 639.502,-783 829.502,-783 829.502,-764 639.502,-764"/>
<text text-anchor="start" x="644.502" y="-771.4" font-family="Helvetica,sans-Serif" font-size="9.00">entity_id</text>
</a>
<a xlink:href="/dictionaries/ihm-extension-6.dic/Items/_ihm_localization_density_files.file_id.html" xlink:title="&lt;TABLE&gt;" target="_top">
<polygon fill="none" stroke="black" points="639.502,-745 639.502,-764 829.502,-764 829.502,-745 639.502,-745"/>
<text text-anchor="start" x="644.502" y="-752.4" font-family="Helvetica,sans-Serif" font-size="9.00">file_id</text>
</a>
<a xlink:href="/dictionaries/ihm-extension-6.dic/Items/_ihm_localization_density_files.seq_id_begin.html" xlink:title="&lt;TABLE&gt;" target="_top">
<polygon fill="none" stroke="black" points="639.502,-726 639.502,-745 829.502,-745 829.502,-726 639.502,-726"/>
<text text-anchor="start" x="644.502" y="-733.4" font-family="Helvetica,sans-Serif" font-size="9.00">seq_id_begin</text>
</a>
<a xlink:href="/dictionaries/ihm-extension-6.dic/Items/_ihm_localization_density_files.seq_id_end.html" xlink:title="&lt;TABLE&gt;" target="_top">
<polygon fill="none" stroke="black" points="639.502,-707 639.502,-726 829.502,-726 829.502,-707 639.502,-707"/>
<text text-anchor="start" x="644.502" y="-714.4" font-family="Helvetica,sans-Serif" font-size="9.00">seq_id_end</text>
</a>
</g>
<!-- _ihm_localization_density_files&#45;&gt;_ihm_ensemble_info -->
<g id="edge10" class="edge"><title>_ihm_localization_density_files:__ensemble_id:w&#45;&gt;_ihm_ensemble_info:__ensemble_id:w</title>
<path fill="none" stroke="black" d="M637.502,-793C600.442,-793 521.316,-664.17 534.693,-636.995"/>
<polygon fill="black" stroke="black" points="536.53,-639.977 543.502,-632 533.077,-633.888 536.53,-639.977"/>
</g>
<!-- _ihm_localization_density_files&#45;&gt;_ihm_external_files -->
<g id="edge14" class="edge"><title>_ihm_localization_density_files:__file_id:w&#45;&gt;_ihm_external_files:__id:w</title>
<path fill="none" stroke="black" d="M637.502,-754C614.818,-754 626.951,-721.895 639.502,-703 660.405,-671.532 696.22,-698.872 716.502,-667 768.997,-584.509 781.7,-519.868 716.502,-447 620.188,-339.354 489.817,-518.646 393.502,-411 386.575,-403.258 382.03,-390.091 384.777,-382.618"/>
<polygon fill="black" stroke="black" points="386.989,-385.356 393.502,-377 383.2,-379.47 386.989,-385.356"/>
</g>
<!-- _ihm_starting_comparative_models -->
<g id="node7" class="node"><title>_ihm_starting_comparative_models</title>
<a xlink:href="/dictionaries/ihm-extension-6.dic/Categories/ihm_starting_comparative_models.html" xlink:title="&lt;TABLE&gt;" target="_top">
<polygon fill="#99c49b" stroke="#99c49b" points="297.502,-632 297.502,-653 510.502,-653 510.502,-632 297.502,-632"/>
<polygon fill="none" stroke="black" points="297.502,-632 297.502,-653 510.502,-653 510.502,-632 297.502,-632"/>
<text text-anchor="start" x="303.002" y="-640.167" font-family="Helvetica,sans-Serif" font-size="10.00">IHM_STARTING_COMPARATIVE_MODELS</text>
</a>
<a xlink:href="/dictionaries/ihm-extension-6.dic/Items/_ihm_starting_comparative_models.starting_model_ordinal_id.html" xlink:title="&lt;TABLE&gt;" target="_top">
<polygon fill="#ffff99" stroke="#ffff99" points="297.502,-613 297.502,-632 510.502,-632 510.502,-613 297.502,-613"/>
<polygon fill="none" stroke="black" points="297.502,-613 297.502,-632 510.502,-632 510.502,-613 297.502,-613"/>
<text text-anchor="start" x="302.502" y="-620.4" font-family="Helvetica,sans-Serif" font-size="9.00">starting_model_ordinal_id</text>
</a>
<a xlink:href="/dictionaries/ihm-extension-6.dic/Items/_ihm_starting_comparative_models.alignment_file_id.html" xlink:title="&lt;TABLE&gt;" target="_top">
<polygon fill="none" stroke="black" points="297.502,-594 297.502,-613 510.502,-613 510.502,-594 297.502,-594"/>
<text text-anchor="start" x="302.502" y="-601.4" font-family="Helvetica,sans-Serif" font-size="9.00">alignment_file_id</text>
</a>
<a xlink:href="/dictionaries/ihm-extension-6.dic/Items/_ihm_starting_comparative_models.starting_model_id.html" xlink:title="&lt;TABLE&gt;" target="_top">
<polygon fill="none" stroke="black" points="297.502,-575 297.502,-594 510.502,-594 510.502,-575 297.502,-575"/>
<text text-anchor="start" x="302.502" y="-582.4" font-family="Helvetica,sans-Serif" font-size="9.00">starting_model_id</text>
</a>
<a xlink:href="/dictionaries/ihm-extension-6.dic/Items/_ihm_starting_comparative_models.template_auth_asym_id.html" xlink:title="&lt;TABLE&gt;" target="_top">
<polygon fill="none" stroke="black" points="297.502,-556 297.502,-575 510.502,-575 510.502,-556 297.502,-556"/>
<text text-anchor="start" x="302.502" y="-563.4" font-family="Helvetica,sans-Serif" font-size="9.00">template_auth_asym_id</text>
</a>
<a xlink:href="/dictionaries/ihm-extension-6.dic/Items/_ihm_starting_comparative_models.template_dataset_list_id.html" xlink:title="&lt;TABLE&gt;" target="_top">
<polygon fill="none" stroke="black" points="297.502,-537 297.502,-556 510.502,-556 510.502,-537 297.502,-537"/>
<text text-anchor="start" x="302.502" y="-544.4" font-family="Helvetica,sans-Serif" font-size="9.00">template_dataset_list_id</text>
</a>
<a xlink:href="/dictionaries/ihm-extension-6.dic/Items/_ihm_starting_comparative_models.template_seq_begin.html" xlink:title="&lt;TABLE&gt;" target="_top">
<polygon fill="none" stroke="black" points="297.502,-518 297.502,-537 510.502,-537 510.502,-518 297.502,-518"/>
<text text-anchor="start" x="302.502" y="-525.4" font-family="Helvetica,sans-Serif" font-size="9.00">template_seq_begin</text>
</a>
<a xlink:href="/dictionaries/ihm-extension-6.dic/Items/_ihm_starting_comparative_models.template_seq_end.html" xlink:title="&lt;TABLE&gt;" target="_top">
<polygon fill="none" stroke="black" points="297.502,-499 297.502,-518 510.502,-518 510.502,-499 297.502,-499"/>
<text text-anchor="start" x="302.502" y="-506.4" font-family="Helvetica,sans-Serif" font-size="9.00">template_seq_end</text>
</a>
<a xlink:href="/dictionaries/ihm-extension-6.dic/Items/_ihm_starting_comparative_models.template_sequence_identity.html" xlink:title="&lt;TABLE&gt;" target="_top">
<polygon fill="none" stroke="black" points="297.502,-480 297.502,-499 510.502,-499 510.502,-480 297.502,-480"/>
<text text-anchor="start" x="302.502" y="-487.4" font-family="Helvetica,sans-Serif" font-size="9.00">template_sequence_identity</text>
</a>
<a xlink:href="/dictionaries/ihm-extension-6.dic/Items/_ihm_starting_comparative_models.template_sequence_identity_denominator.html" xlink:title="&lt;TABLE&gt;" target="_top">
<polygon fill="none" stroke="black" points="297.502,-461 297.502,-480 510.502,-480 510.502,-461 297.502,-461"/>
<text text-anchor="start" x="302.502" y="-468.4" font-family="Helvetica,sans-Serif" font-size="9.00">template_sequence_identity_denominator</text>
</a>
</g>
<!-- _ihm_starting_comparative_models&#45;&gt;_ihm_dataset_list -->
<g id="edge6" class="edge"><title>_ihm_starting_comparative_models:__template_dataset_list_id:w&#45;&gt;_ihm_dataset_list:__id:w</title>
<path fill="none" stroke="black" d="M295.502,-546C273.251,-546 292.256,-465.894 280.502,-447 257.904,-410.673 221.308,-429.922 201.502,-392 180.448,-351.688 156.287,-291.367 191.29,-282.188"/>
<polygon fill="black" stroke="black" points="191.974,-285.633 201.502,-281 191.165,-278.68 191.974,-285.633"/>
</g>
<!-- _ihm_starting_comparative_models&#45;&gt;_ihm_external_files -->
<g id="edge12" class="edge"><title>_ihm_starting_comparative_models:__alignment_file_id:w&#45;&gt;_ihm_external_files:__id:w</title>
<path fill="none" stroke="black" d="M295.502,-604C279.168,-604 290.473,-471.745 297.502,-457 308.145,-434.674 353.951,-388.659 383.462,-378.861"/>
<polygon fill="black" stroke="black" points="384.308,-382.264 393.502,-377 383.032,-375.381 384.308,-382.264"/>
</g>
</g>
</svg>
