<?xml version="1.0" encoding="UTF-8" standalone="no"?>
<!DOCTYPE svg PUBLIC "-//W3C//DTD SVG 1.1//EN"
 "http://www.w3.org/Graphics/SVG/1.1/DTD/svg11.dtd">
<!-- Generated by graphviz version 2.26.0 (20091210.2329)
 -->
<!-- Title: ihm_model_list Pages: 1 -->
<svg width="466pt" height="1281pt"
 viewBox="0.00 0.00 466.06 1281.00" xmlns="http://www.w3.org/2000/svg" xmlns:xlink="http://www.w3.org/1999/xlink">
<g id="graph1" class="graph" transform="scale(1 1) rotate(0) translate(4 1277)">
<title>ihm_model_list</title>
<polygon fill="white" stroke="white" points="-4,5 -4,-1277 463.062,-1277 463.062,5 -4,5"/>
<text text-anchor="start" x="226.031" y="-51.8" font-family="Helvetica,sans-Serif" font-size="18.00"> </text>
<text text-anchor="start" x="17.5312" y="-30.2" font-family="Helvetica,sans-Serif" font-size="18.00">Selected Relationships for Category &#160;</text>
<text text-anchor="start" x="312.531" y="-30.2" font-family="Helvetica,sans-Serif" font-size="18.00"> ihm_model_list</text>
<text text-anchor="start" x="436.531" y="-29.8" font-family="Helvetica,sans-Serif" font-size="14.00"> </text>
<text text-anchor="start" x="144.531" y="-11.5333" font-family="Helvetica,sans-Serif" font-size="14.00"> &#160;in dictionary ihm&#45;extension</text>
<!-- _ihm_dataset_list -->
<g id="node1" class="node"><title>_ihm_dataset_list</title>
<a xlink:href="/dictionaries/ihm-extension-6.dic/Categories/ihm_dataset_list.html" xlink:title="&lt;TABLE&gt;" target="_top">
<polygon fill="#99c49b" stroke="#99c49b" points="268.062,-187 268.062,-208 376.062,-208 376.062,-187 268.062,-187"/>
<polygon fill="none" stroke="black" points="268.062,-187 268.062,-208 376.062,-208 376.062,-187 268.062,-187"/>
<text text-anchor="start" x="273.562" y="-195.167" font-family="Helvetica,sans-Serif" font-size="10.00">IHM_DATASET_LIST</text>
</a>
<a xlink:href="/dictionaries/ihm-extension-6.dic/Items/_ihm_dataset_list.ordinal_id.html" xlink:title="&lt;TABLE&gt;" target="_top">
<polygon fill="#ffff99" stroke="#ffff99" points="268.062,-168 268.062,-187 376.062,-187 376.062,-168 268.062,-168"/>
<polygon fill="none" stroke="black" points="268.062,-168 268.062,-187 376.062,-187 376.062,-168 268.062,-168"/>
<text text-anchor="start" x="273.062" y="-175.4" font-family="Helvetica,sans-Serif" font-size="9.00">ordinal_id</text>
</a>
<a xlink:href="/dictionaries/ihm-extension-6.dic/Items/_ihm_dataset_list.data_type.html" xlink:title="&lt;TABLE&gt;" target="_top">
<polygon fill="none" stroke="black" points="268.062,-149 268.062,-168 376.062,-168 376.062,-149 268.062,-149"/>
<text text-anchor="start" x="273.062" y="-156.4" font-family="Helvetica,sans-Serif" font-size="9.00">data_type</text>
</a>
<a xlink:href="/dictionaries/ihm-extension-6.dic/Items/_ihm_dataset_list.database_hosted.html" xlink:title="&lt;TABLE&gt;" target="_top">
<polygon fill="none" stroke="black" points="268.062,-130 268.062,-149 376.062,-149 376.062,-130 268.062,-130"/>
<text text-anchor="start" x="273.062" y="-137.4" font-family="Helvetica,sans-Serif" font-size="9.00">database_hosted</text>
</a>
<a xlink:href="/dictionaries/ihm-extension-6.dic/Items/_ihm_dataset_list.group_id.html" xlink:title="&lt;TABLE&gt;" target="_top">
<polygon fill="none" stroke="black" points="268.062,-111 268.062,-130 376.062,-130 376.062,-111 268.062,-111"/>
<text text-anchor="start" x="273.062" y="-118.4" font-family="Helvetica,sans-Serif" font-size="9.00">group_id</text>
</a>
<a xlink:href="/dictionaries/ihm-extension-6.dic/Items/_ihm_dataset_list.id.html" xlink:title="&lt;TABLE&gt;" target="_top">
<polygon fill="none" stroke="black" points="268.062,-92 268.062,-111 376.062,-111 376.062,-92 268.062,-92"/>
<text text-anchor="start" x="273.062" y="-99.4" font-family="Helvetica,sans-Serif" font-size="9.00">id</text>
</a>
</g>
<!-- _ihm_ensemble_info -->
<g id="node2" class="node"><title>_ihm_ensemble_info</title>
<a xlink:href="/dictionaries/ihm-extension-6.dic/Categories/ihm_ensemble_info.html" xlink:title="&lt;TABLE&gt;" target="_top">
<polygon fill="#99c49b" stroke="#99c49b" points="294.062,-1011 294.062,-1032 450.062,-1032 450.062,-1011 294.062,-1011"/>
<polygon fill="none" stroke="black" points="294.062,-1011 294.062,-1032 450.062,-1032 450.062,-1011 294.062,-1011"/>
<text text-anchor="start" x="317.562" y="-1019.17" font-family="Helvetica,sans-Serif" font-size="10.00">IHM_ENSEMBLE_INFO</text>
</a>
<a xlink:href="/dictionaries/ihm-extension-6.dic/Items/_ihm_ensemble_info.ensemble_id.html" xlink:title="&lt;TABLE&gt;" target="_top">
<polygon fill="#ffff99" stroke="#ffff99" points="294.062,-992 294.062,-1011 450.062,-1011 450.062,-992 294.062,-992"/>
<polygon fill="none" stroke="black" points="294.062,-992 294.062,-1011 450.062,-1011 450.062,-992 294.062,-992"/>
<text text-anchor="start" x="299.062" y="-999.4" font-family="Helvetica,sans-Serif" font-size="9.00">ensemble_id</text>
</a>
<a xlink:href="/dictionaries/ihm-extension-6.dic/Items/_ihm_ensemble_info.model_group_id.html" xlink:title="&lt;TABLE&gt;" target="_top">
<polygon fill="none" stroke="black" points="294.062,-973 294.062,-992 450.062,-992 450.062,-973 294.062,-973"/>
<text text-anchor="start" x="299.062" y="-980.4" font-family="Helvetica,sans-Serif" font-size="9.00">model_group_id</text>
</a>
<a xlink:href="/dictionaries/ihm-extension-6.dic/Items/_ihm_ensemble_info.ensemble_clustering_feature.html" xlink:title="&lt;TABLE&gt;" target="_top">
<polygon fill="none" stroke="black" points="294.062,-954 294.062,-973 450.062,-973 450.062,-954 294.062,-954"/>
<text text-anchor="start" x="299.062" y="-961.4" font-family="Helvetica,sans-Serif" font-size="9.00">ensemble_clustering_feature</text>
</a>
<a xlink:href="/dictionaries/ihm-extension-6.dic/Items/_ihm_ensemble_info.ensemble_clustering_method.html" xlink:title="&lt;TABLE&gt;" target="_top">
<polygon fill="none" stroke="black" points="294.062,-935 294.062,-954 450.062,-954 450.062,-935 294.062,-935"/>
<text text-anchor="start" x="299.062" y="-942.4" font-family="Helvetica,sans-Serif" font-size="9.00">ensemble_clustering_method</text>
</a>
<a xlink:href="/dictionaries/ihm-extension-6.dic/Items/_ihm_ensemble_info.ensemble_file_id.html" xlink:title="&lt;TABLE&gt;" target="_top">
<polygon fill="none" stroke="black" points="294.062,-916 294.062,-935 450.062,-935 450.062,-916 294.062,-916"/>
<text text-anchor="start" x="299.062" y="-923.4" font-family="Helvetica,sans-Serif" font-size="9.00">ensemble_file_id</text>
</a>
<a xlink:href="/dictionaries/ihm-extension-6.dic/Items/_ihm_ensemble_info.ensemble_name.html" xlink:title="&lt;TABLE&gt;" target="_top">
<polygon fill="none" stroke="black" points="294.062,-897 294.062,-916 450.062,-916 450.062,-897 294.062,-897"/>
<text text-anchor="start" x="299.062" y="-904.4" font-family="Helvetica,sans-Serif" font-size="9.00">ensemble_name</text>
</a>
<a xlink:href="/dictionaries/ihm-extension-6.dic/Items/_ihm_ensemble_info.ensemble_precision_value.html" xlink:title="&lt;TABLE&gt;" target="_top">
<polygon fill="none" stroke="black" points="294.062,-878 294.062,-897 450.062,-897 450.062,-878 294.062,-878"/>
<text text-anchor="start" x="299.062" y="-885.4" font-family="Helvetica,sans-Serif" font-size="9.00">ensemble_precision_value</text>
</a>
<a xlink:href="/dictionaries/ihm-extension-6.dic/Items/_ihm_ensemble_info.num_ensemble_models.html" xlink:title="&lt;TABLE&gt;" target="_top">
<polygon fill="none" stroke="black" points="294.062,-859 294.062,-878 450.062,-878 450.062,-859 294.062,-859"/>
<text text-anchor="start" x="299.062" y="-866.4" font-family="Helvetica,sans-Serif" font-size="9.00">num_ensemble_models</text>
</a>
<a xlink:href="/dictionaries/ihm-extension-6.dic/Items/_ihm_ensemble_info.num_ensemble_models_deposited.html" xlink:title="&lt;TABLE&gt;" target="_top">
<polygon fill="none" stroke="black" points="294.062,-840 294.062,-859 450.062,-859 450.062,-840 294.062,-840"/>
<text text-anchor="start" x="299.062" y="-847.4" font-family="Helvetica,sans-Serif" font-size="9.00">num_ensemble_models_deposited</text>
</a>
<a xlink:href="/dictionaries/ihm-extension-6.dic/Items/_ihm_ensemble_info.post_process_id.html" xlink:title="&lt;TABLE&gt;" target="_top">
<polygon fill="none" stroke="black" points="294.062,-821 294.062,-840 450.062,-840 450.062,-821 294.062,-821"/>
<text text-anchor="start" x="299.062" y="-828.4" font-family="Helvetica,sans-Serif" font-size="9.00">post_process_id</text>
</a>
</g>
<!-- _ihm_model_list -->
<g id="node3" class="node"><title>_ihm_model_list</title>
<a xlink:href="/dictionaries/ihm-extension-6.dic/Categories/ihm_model_list.html" xlink:title="&lt;TABLE&gt;" target="_top">
<polygon fill="#f0027f" stroke="#f0027f" points="98.0625,-746 98.0625,-767 195.062,-767 195.062,-746 98.0625,-746"/>
<polygon fill="none" stroke="black" points="98.0625,-746 98.0625,-767 195.062,-767 195.062,-746 98.0625,-746"/>
<text text-anchor="start" x="103.562" y="-754.167" font-family="Helvetica,sans-Serif" font-size="10.00">IHM_MODEL_LIST</text>
</a>
<a xlink:href="/dictionaries/ihm-extension-6.dic/Items/_ihm_model_list.ordinal_id.html" xlink:title="&lt;TABLE&gt;" target="_top">
<polygon fill="#ffff99" stroke="#ffff99" points="98.0625,-727 98.0625,-746 195.062,-746 195.062,-727 98.0625,-727"/>
<polygon fill="none" stroke="black" points="98.0625,-727 98.0625,-746 195.062,-746 195.062,-727 98.0625,-727"/>
<text text-anchor="start" x="103.062" y="-734.4" font-family="Helvetica,sans-Serif" font-size="9.00">ordinal_id</text>
</a>
<a xlink:href="/dictionaries/ihm-extension-6.dic/Items/_ihm_model_list.assembly_id.html" xlink:title="&lt;TABLE&gt;" target="_top">
<polygon fill="none" stroke="black" points="98.0625,-708 98.0625,-727 195.062,-727 195.062,-708 98.0625,-708"/>
<text text-anchor="start" x="103.062" y="-715.4" font-family="Helvetica,sans-Serif" font-size="9.00">assembly_id</text>
</a>
<a xlink:href="/dictionaries/ihm-extension-6.dic/Items/_ihm_model_list.model_group_id.html" xlink:title="&lt;TABLE&gt;" target="_top">
<polygon fill="none" stroke="black" points="98.0625,-689 98.0625,-708 195.062,-708 195.062,-689 98.0625,-689"/>
<text text-anchor="start" x="103.062" y="-696.4" font-family="Helvetica,sans-Serif" font-size="9.00">model_group_id</text>
</a>
<a xlink:href="/dictionaries/ihm-extension-6.dic/Items/_ihm_model_list.model_id.html" xlink:title="&lt;TABLE&gt;" target="_top">
<polygon fill="none" stroke="black" points="98.0625,-670 98.0625,-689 195.062,-689 195.062,-670 98.0625,-670"/>
<text text-anchor="start" x="103.062" y="-677.4" font-family="Helvetica,sans-Serif" font-size="9.00">model_id</text>
</a>
<a xlink:href="/dictionaries/ihm-extension-6.dic/Items/_ihm_model_list.protocol_id.html" xlink:title="&lt;TABLE&gt;" target="_top">
<polygon fill="none" stroke="black" points="98.0625,-651 98.0625,-670 195.062,-670 195.062,-651 98.0625,-651"/>
<text text-anchor="start" x="103.062" y="-658.4" font-family="Helvetica,sans-Serif" font-size="9.00">protocol_id</text>
</a>
<a xlink:href="/dictionaries/ihm-extension-6.dic/Items/_ihm_model_list.model_group_name.html" xlink:title="&lt;TABLE&gt;" target="_top">
<polygon fill="none" stroke="black" points="98.0625,-632 98.0625,-651 195.062,-651 195.062,-632 98.0625,-632"/>
<text text-anchor="start" x="103.062" y="-639.4" font-family="Helvetica,sans-Serif" font-size="9.00">model_group_name</text>
</a>
<a xlink:href="/dictionaries/ihm-extension-6.dic/Items/_ihm_model_list.model_name.html" xlink:title="&lt;TABLE&gt;" target="_top">
<polygon fill="none" stroke="black" points="98.0625,-613 98.0625,-632 195.062,-632 195.062,-613 98.0625,-613"/>
<text text-anchor="start" x="103.062" y="-620.4" font-family="Helvetica,sans-Serif" font-size="9.00">model_name</text>
</a>
</g>
<!-- _ihm_ensemble_info&#45;&gt;_ihm_model_list -->
<g id="edge4" class="edge"><title>_ihm_ensemble_info:__model_group_id:w&#45;&gt;_ihm_model_list:__model_group_id:w</title>
<path fill="none" stroke="black" d="M292.062,-983C273.543,-983 289.059,-831.108 277.062,-817 223.852,-754.424 148.4,-835.909 98.0625,-771 80.9035,-748.874 69.2727,-710.343 88.0707,-701.057"/>
<polygon fill="black" stroke="black" points="88.9734,-704.444 98.0625,-699 87.5622,-697.588 88.9734,-704.444"/>
</g>
<!-- _ihm_modeling_post_process -->
<g id="node4" class="node"><title>_ihm_modeling_post_process</title>
<a xlink:href="/dictionaries/ihm-extension-6.dic/Categories/ihm_modeling_post_process.html" xlink:title="&lt;TABLE&gt;" target="_top">
<polygon fill="#99c49b" stroke="#99c49b" points="255.062,-755 255.062,-776 431.062,-776 431.062,-755 255.062,-755"/>
<polygon fill="none" stroke="black" points="255.062,-755 255.062,-776 431.062,-776 431.062,-755 255.062,-755"/>
<text text-anchor="start" x="260.562" y="-763.167" font-family="Helvetica,sans-Serif" font-size="10.00">IHM_MODELING_POST_PROCESS</text>
</a>
<a xlink:href="/dictionaries/ihm-extension-6.dic/Items/_ihm_modeling_post_process.id.html" xlink:title="&lt;TABLE&gt;" target="_top">
<polygon fill="#ffff99" stroke="#ffff99" points="255.062,-736 255.062,-755 431.062,-755 431.062,-736 255.062,-736"/>
<polygon fill="none" stroke="black" points="255.062,-736 255.062,-755 431.062,-755 431.062,-736 255.062,-736"/>
<text text-anchor="start" x="260.062" y="-743.4" font-family="Helvetica,sans-Serif" font-size="9.00">id</text>
</a>
<a xlink:href="/dictionaries/ihm-extension-6.dic/Items/_ihm_modeling_post_process.analysis_id.html" xlink:title="&lt;TABLE&gt;" target="_top">
<polygon fill="none" stroke="black" points="255.062,-717 255.062,-736 431.062,-736 431.062,-717 255.062,-717"/>
<text text-anchor="start" x="260.062" y="-724.4" font-family="Helvetica,sans-Serif" font-size="9.00">analysis_id</text>
</a>
<a xlink:href="/dictionaries/ihm-extension-6.dic/Items/_ihm_modeling_post_process.feature.html" xlink:title="&lt;TABLE&gt;" target="_top">
<polygon fill="none" stroke="black" points="255.062,-698 255.062,-717 431.062,-717 431.062,-698 255.062,-698"/>
<text text-anchor="start" x="260.062" y="-705.4" font-family="Helvetica,sans-Serif" font-size="9.00">feature</text>
</a>
<a xlink:href="/dictionaries/ihm-extension-6.dic/Items/_ihm_modeling_post_process.num_models_begin.html" xlink:title="&lt;TABLE&gt;" target="_top">
<polygon fill="none" stroke="black" points="255.062,-679 255.062,-698 431.062,-698 431.062,-679 255.062,-679"/>
<text text-anchor="start" x="260.062" y="-686.4" font-family="Helvetica,sans-Serif" font-size="9.00">num_models_begin</text>
</a>
<a xlink:href="/dictionaries/ihm-extension-6.dic/Items/_ihm_modeling_post_process.num_models_end.html" xlink:title="&lt;TABLE&gt;" target="_top">
<polygon fill="none" stroke="black" points="255.062,-660 255.062,-679 431.062,-679 431.062,-660 255.062,-660"/>
<text text-anchor="start" x="260.062" y="-667.4" font-family="Helvetica,sans-Serif" font-size="9.00">num_models_end</text>
</a>
<a xlink:href="/dictionaries/ihm-extension-6.dic/Items/_ihm_modeling_post_process.protocol_id.html" xlink:title="&lt;TABLE&gt;" target="_top">
<polygon fill="none" stroke="black" points="255.062,-641 255.062,-660 431.062,-660 431.062,-641 255.062,-641"/>
<text text-anchor="start" x="260.062" y="-648.4" font-family="Helvetica,sans-Serif" font-size="9.00">protocol_id</text>
</a>
<a xlink:href="/dictionaries/ihm-extension-6.dic/Items/_ihm_modeling_post_process.step_id.html" xlink:title="&lt;TABLE&gt;" target="_top">
<polygon fill="none" stroke="black" points="255.062,-622 255.062,-641 431.062,-641 431.062,-622 255.062,-622"/>
<text text-anchor="start" x="260.062" y="-629.4" font-family="Helvetica,sans-Serif" font-size="9.00">step_id</text>
</a>
<a xlink:href="/dictionaries/ihm-extension-6.dic/Items/_ihm_modeling_post_process.type.html" xlink:title="&lt;TABLE&gt;" target="_top">
<polygon fill="none" stroke="black" points="255.062,-603 255.062,-622 431.062,-622 431.062,-603 255.062,-603"/>
<text text-anchor="start" x="260.062" y="-610.4" font-family="Helvetica,sans-Serif" font-size="9.00">type</text>
</a>
</g>
<!-- _ihm_ensemble_info&#45;&gt;_ihm_modeling_post_process -->
<g id="edge6" class="edge"><title>_ihm_ensemble_info:__post_process_id:w&#45;&gt;_ihm_modeling_post_process:__id:w</title>
<path fill="none" stroke="black" d="M292.062,-830C285.196,-830 257.229,-787.016 255.062,-780.5 251.926,-771.065 246.41,-759.36 247.1,-752.296"/>
<polygon fill="black" stroke="black" points="249.389,-754.948 255.062,-746 245.047,-749.457 249.389,-754.948"/>
</g>
<!-- _ihm_modeling_protocol -->
<g id="node5" class="node"><title>_ihm_modeling_protocol</title>
<a xlink:href="/dictionaries/ihm-extension-6.dic/Categories/ihm_modeling_protocol.html" xlink:title="&lt;TABLE&gt;" target="_top">
<polygon fill="#99c49b" stroke="#99c49b" points="242.062,-537 242.062,-558 392.062,-558 392.062,-537 242.062,-537"/>
<polygon fill="none" stroke="black" points="242.062,-537 242.062,-558 392.062,-558 392.062,-537 242.062,-537"/>
<text text-anchor="start" x="247.562" y="-545.167" font-family="Helvetica,sans-Serif" font-size="10.00">IHM_MODELING_PROTOCOL</text>
</a>
<a xlink:href="/dictionaries/ihm-extension-6.dic/Items/_ihm_modeling_protocol.ordinal_id.html" xlink:title="&lt;TABLE&gt;" target="_top">
<polygon fill="#ffff99" stroke="#ffff99" points="242.062,-518 242.062,-537 392.062,-537 392.062,-518 242.062,-518"/>
<polygon fill="none" stroke="black" points="242.062,-518 242.062,-537 392.062,-537 392.062,-518 242.062,-518"/>
<text text-anchor="start" x="247.062" y="-525.4" font-family="Helvetica,sans-Serif" font-size="9.00">ordinal_id</text>
</a>
<a xlink:href="/dictionaries/ihm-extension-6.dic/Items/_ihm_modeling_protocol.protocol_id.html" xlink:title="&lt;TABLE&gt;" target="_top">
<polygon fill="none" stroke="black" points="242.062,-499 242.062,-518 392.062,-518 392.062,-499 242.062,-499"/>
<text text-anchor="start" x="247.062" y="-506.4" font-family="Helvetica,sans-Serif" font-size="9.00">protocol_id</text>
</a>
<a xlink:href="/dictionaries/ihm-extension-6.dic/Items/_ihm_modeling_protocol.dataset_group_id.html" xlink:title="&lt;TABLE&gt;" target="_top">
<polygon fill="none" stroke="black" points="242.062,-480 242.062,-499 392.062,-499 392.062,-480 242.062,-480"/>
<text text-anchor="start" x="247.062" y="-487.4" font-family="Helvetica,sans-Serif" font-size="9.00">dataset_group_id</text>
</a>
<a xlink:href="/dictionaries/ihm-extension-6.dic/Items/_ihm_modeling_protocol.multi_scale_flag.html" xlink:title="&lt;TABLE&gt;" target="_top">
<polygon fill="none" stroke="black" points="242.062,-461 242.062,-480 392.062,-480 392.062,-461 242.062,-461"/>
<text text-anchor="start" x="247.062" y="-468.4" font-family="Helvetica,sans-Serif" font-size="9.00">multi_scale_flag</text>
</a>
<a xlink:href="/dictionaries/ihm-extension-6.dic/Items/_ihm_modeling_protocol.multi_state_flag.html" xlink:title="&lt;TABLE&gt;" target="_top">
<polygon fill="none" stroke="black" points="242.062,-442 242.062,-461 392.062,-461 392.062,-442 242.062,-442"/>
<text text-anchor="start" x="247.062" y="-449.4" font-family="Helvetica,sans-Serif" font-size="9.00">multi_state_flag</text>
</a>
<a xlink:href="/dictionaries/ihm-extension-6.dic/Items/_ihm_modeling_protocol.num_models_begin.html" xlink:title="&lt;TABLE&gt;" target="_top">
<polygon fill="none" stroke="black" points="242.062,-423 242.062,-442 392.062,-442 392.062,-423 242.062,-423"/>
<text text-anchor="start" x="247.062" y="-430.4" font-family="Helvetica,sans-Serif" font-size="9.00">num_models_begin</text>
</a>
<a xlink:href="/dictionaries/ihm-extension-6.dic/Items/_ihm_modeling_protocol.num_models_end.html" xlink:title="&lt;TABLE&gt;" target="_top">
<polygon fill="none" stroke="black" points="242.062,-404 242.062,-423 392.062,-423 392.062,-404 242.062,-404"/>
<text text-anchor="start" x="247.062" y="-411.4" font-family="Helvetica,sans-Serif" font-size="9.00">num_models_end</text>
</a>
<a xlink:href="/dictionaries/ihm-extension-6.dic/Items/_ihm_modeling_protocol.protocol_name.html" xlink:title="&lt;TABLE&gt;" target="_top">
<polygon fill="none" stroke="black" points="242.062,-385 242.062,-404 392.062,-404 392.062,-385 242.062,-385"/>
<text text-anchor="start" x="247.062" y="-392.4" font-family="Helvetica,sans-Serif" font-size="9.00">protocol_name</text>
</a>
<a xlink:href="/dictionaries/ihm-extension-6.dic/Items/_ihm_modeling_protocol.step_id.html" xlink:title="&lt;TABLE&gt;" target="_top">
<polygon fill="none" stroke="black" points="242.062,-366 242.062,-385 392.062,-385 392.062,-366 242.062,-366"/>
<text text-anchor="start" x="247.062" y="-373.4" font-family="Helvetica,sans-Serif" font-size="9.00">step_id</text>
</a>
<a xlink:href="/dictionaries/ihm-extension-6.dic/Items/_ihm_modeling_protocol.step_method.html" xlink:title="&lt;TABLE&gt;" target="_top">
<polygon fill="none" stroke="black" points="242.062,-347 242.062,-366 392.062,-366 392.062,-347 242.062,-347"/>
<text text-anchor="start" x="247.062" y="-354.4" font-family="Helvetica,sans-Serif" font-size="9.00">step_method</text>
</a>
<a xlink:href="/dictionaries/ihm-extension-6.dic/Items/_ihm_modeling_protocol.step_name.html" xlink:title="&lt;TABLE&gt;" target="_top">
<polygon fill="none" stroke="black" points="242.062,-328 242.062,-347 392.062,-347 392.062,-328 242.062,-328"/>
<text text-anchor="start" x="247.062" y="-335.4" font-family="Helvetica,sans-Serif" font-size="9.00">step_name</text>
</a>
<a xlink:href="/dictionaries/ihm-extension-6.dic/Items/_ihm_modeling_protocol.struct_assembly_description.html" xlink:title="&lt;TABLE&gt;" target="_top">
<polygon fill="none" stroke="black" points="242.062,-309 242.062,-328 392.062,-328 392.062,-309 242.062,-309"/>
<text text-anchor="start" x="247.062" y="-316.4" font-family="Helvetica,sans-Serif" font-size="9.00">struct_assembly_description</text>
</a>
<a xlink:href="/dictionaries/ihm-extension-6.dic/Items/_ihm_modeling_protocol.struct_assembly_id.html" xlink:title="&lt;TABLE&gt;" target="_top">
<polygon fill="none" stroke="black" points="242.062,-290 242.062,-309 392.062,-309 392.062,-290 242.062,-290"/>
<text text-anchor="start" x="247.062" y="-297.4" font-family="Helvetica,sans-Serif" font-size="9.00">struct_assembly_id</text>
</a>
<a xlink:href="/dictionaries/ihm-extension-6.dic/Items/_ihm_modeling_protocol.time_ordered_flag.html" xlink:title="&lt;TABLE&gt;" target="_top">
<polygon fill="none" stroke="black" points="242.062,-271 242.062,-290 392.062,-290 392.062,-271 242.062,-271"/>
<text text-anchor="start" x="247.062" y="-278.4" font-family="Helvetica,sans-Serif" font-size="9.00">time_ordered_flag</text>
</a>
</g>
<!-- _ihm_model_list&#45;&gt;_ihm_modeling_protocol -->
<g id="edge16" class="edge"><title>_ihm_model_list:__protocol_id:w&#45;&gt;_ihm_modeling_protocol:__protocol_id:w</title>
<path fill="none" stroke="black" d="M96.0625,-660C5.99306,-660 138.741,-519.431 232.034,-509.547"/>
<polygon fill="black" stroke="black" points="232.268,-513.039 242.062,-509 231.887,-506.05 232.268,-513.039"/>
</g>
<!-- _ihm_struct_assembly -->
<g id="node7" class="node"><title>_ihm_struct_assembly</title>
<a xlink:href="/dictionaries/ihm-extension-6.dic/Categories/ihm_struct_assembly.html" xlink:title="&lt;TABLE&gt;" target="_top">
<polygon fill="#99c49b" stroke="#99c49b" points="98.0625,-206 98.0625,-227 234.062,-227 234.062,-206 98.0625,-206"/>
<polygon fill="none" stroke="black" points="98.0625,-206 98.0625,-227 234.062,-227 234.062,-206 98.0625,-206"/>
<text text-anchor="start" x="103.562" y="-214.167" font-family="Helvetica,sans-Serif" font-size="10.00">IHM_STRUCT_ASSEMBLY</text>
</a>
<a xlink:href="/dictionaries/ihm-extension-6.dic/Items/_ihm_struct_assembly.ordinal_id.html" xlink:title="&lt;TABLE&gt;" target="_top">
<polygon fill="#ffff99" stroke="#ffff99" points="98.0625,-187 98.0625,-206 234.062,-206 234.062,-187 98.0625,-187"/>
<polygon fill="none" stroke="black" points="98.0625,-187 98.0625,-206 234.062,-206 234.062,-187 98.0625,-187"/>
<text text-anchor="start" x="103.062" y="-194.4" font-family="Helvetica,sans-Serif" font-size="9.00">ordinal_id</text>
</a>
<a xlink:href="/dictionaries/ihm-extension-6.dic/Items/_ihm_struct_assembly.assembly_id.html" xlink:title="&lt;TABLE&gt;" target="_top">
<polygon fill="none" stroke="black" points="98.0625,-168 98.0625,-187 234.062,-187 234.062,-168 98.0625,-168"/>
<text text-anchor="start" x="103.062" y="-175.4" font-family="Helvetica,sans-Serif" font-size="9.00">assembly_id</text>
</a>
<a xlink:href="/dictionaries/ihm-extension-6.dic/Items/_ihm_struct_assembly.asym_id.html" xlink:title="&lt;TABLE&gt;" target="_top">
<polygon fill="none" stroke="black" points="98.0625,-149 98.0625,-168 234.062,-168 234.062,-149 98.0625,-149"/>
<text text-anchor="start" x="103.062" y="-156.4" font-family="Helvetica,sans-Serif" font-size="9.00">asym_id</text>
</a>
<a xlink:href="/dictionaries/ihm-extension-6.dic/Items/_ihm_struct_assembly.entity_description.html" xlink:title="&lt;TABLE&gt;" target="_top">
<polygon fill="none" stroke="black" points="98.0625,-130 98.0625,-149 234.062,-149 234.062,-130 98.0625,-130"/>
<text text-anchor="start" x="103.062" y="-137.4" font-family="Helvetica,sans-Serif" font-size="9.00">entity_description</text>
</a>
<a xlink:href="/dictionaries/ihm-extension-6.dic/Items/_ihm_struct_assembly.entity_id.html" xlink:title="&lt;TABLE&gt;" target="_top">
<polygon fill="none" stroke="black" points="98.0625,-111 98.0625,-130 234.062,-130 234.062,-111 98.0625,-111"/>
<text text-anchor="start" x="103.062" y="-118.4" font-family="Helvetica,sans-Serif" font-size="9.00">entity_id</text>
</a>
<a xlink:href="/dictionaries/ihm-extension-6.dic/Items/_ihm_struct_assembly.seq_id_begin.html" xlink:title="&lt;TABLE&gt;" target="_top">
<polygon fill="none" stroke="black" points="98.0625,-92 98.0625,-111 234.062,-111 234.062,-92 98.0625,-92"/>
<text text-anchor="start" x="103.062" y="-99.4" font-family="Helvetica,sans-Serif" font-size="9.00">seq_id_begin</text>
</a>
<a xlink:href="/dictionaries/ihm-extension-6.dic/Items/_ihm_struct_assembly.seq_id_end.html" xlink:title="&lt;TABLE&gt;" target="_top">
<polygon fill="none" stroke="black" points="98.0625,-73 98.0625,-92 234.062,-92 234.062,-73 98.0625,-73"/>
<text text-anchor="start" x="103.062" y="-80.4" font-family="Helvetica,sans-Serif" font-size="9.00">seq_id_end</text>
</a>
</g>
<!-- _ihm_model_list&#45;&gt;_ihm_struct_assembly -->
<g id="edge8" class="edge"><title>_ihm_model_list:__assembly_id:w&#45;&gt;_ihm_struct_assembly:__assembly_id:w</title>
<path fill="none" stroke="black" d="M96.0625,-718C-20.4227,-718 -21.9508,-209.177 87.8195,-179.363"/>
<polygon fill="black" stroke="black" points="88.6117,-182.789 98.0625,-178 87.6881,-175.85 88.6117,-182.789"/>
</g>
<!-- _ihm_modeling_post_process&#45;&gt;_ihm_modeling_protocol -->
<g id="edge18" class="edge"><title>_ihm_modeling_post_process:__protocol_id:w&#45;&gt;_ihm_modeling_protocol:__protocol_id:w</title>
<path fill="none" stroke="black" d="M253.062,-650C225.194,-650 213.388,-539.136 232.983,-514.018"/>
<polygon fill="black" stroke="black" points="235.003,-516.901 242.062,-509 231.617,-510.774 235.003,-516.901"/>
</g>
<!-- _ihm_modeling_protocol&#45;&gt;_ihm_dataset_list -->
<g id="edge2" class="edge"><title>_ihm_modeling_protocol:__dataset_group_id:w&#45;&gt;_ihm_dataset_list:__group_id:w</title>
<path fill="none" stroke="black" d="M240.062,-490C124.848,-490 228.527,-343.99 251.062,-231 255.219,-210.16 246.528,-144.321 259.266,-125.234"/>
<polygon fill="black" stroke="black" points="261.258,-128.121 268.062,-120 257.679,-122.105 261.258,-128.121"/>
</g>
<!-- _ihm_modeling_protocol&#45;&gt;_ihm_struct_assembly -->
<g id="edge20" class="edge"><title>_ihm_modeling_protocol:__struct_assembly_id:w&#45;&gt;_ihm_struct_assembly:__assembly_id:w</title>
<path fill="none" stroke="black" d="M240.062,-299C170.088,-299 135.356,-290.208 98.0625,-231 87.8622,-214.806 78.687,-189.939 88.2396,-181.183"/>
<polygon fill="black" stroke="black" points="89.6285,-184.412 98.0625,-178 87.4705,-177.753 89.6285,-184.412"/>
</g>
<!-- _ihm_multi_state_modeling -->
<g id="node6" class="node"><title>_ihm_multi_state_modeling</title>
<a xlink:href="/dictionaries/ihm-extension-6.dic/Categories/ihm_multi_state_modeling.html" xlink:title="&lt;TABLE&gt;" target="_top">
<polygon fill="#99c49b" stroke="#99c49b" points="98.0625,-1002 98.0625,-1023 260.062,-1023 260.062,-1002 98.0625,-1002"/>
<polygon fill="none" stroke="black" points="98.0625,-1002 98.0625,-1023 260.062,-1023 260.062,-1002 98.0625,-1002"/>
<text text-anchor="start" x="103.562" y="-1010.17" font-family="Helvetica,sans-Serif" font-size="10.00">IHM_MULTI_STATE_MODELING</text>
</a>
<a xlink:href="/dictionaries/ihm-extension-6.dic/Items/_ihm_multi_state_modeling.ordinal_id.html" xlink:title="&lt;TABLE&gt;" target="_top">
<polygon fill="#ffff99" stroke="#ffff99" points="98.0625,-983 98.0625,-1002 260.062,-1002 260.062,-983 98.0625,-983"/>
<polygon fill="none" stroke="black" points="98.0625,-983 98.0625,-1002 260.062,-1002 260.062,-983 98.0625,-983"/>
<text text-anchor="start" x="103.062" y="-990.4" font-family="Helvetica,sans-Serif" font-size="9.00">ordinal_id</text>
</a>
<a xlink:href="/dictionaries/ihm-extension-6.dic/Items/_ihm_multi_state_modeling.model_group_id.html" xlink:title="&lt;TABLE&gt;" target="_top">
<polygon fill="none" stroke="black" points="98.0625,-964 98.0625,-983 260.062,-983 260.062,-964 98.0625,-964"/>
<text text-anchor="start" x="103.062" y="-971.4" font-family="Helvetica,sans-Serif" font-size="9.00">model_group_id</text>
</a>
<a xlink:href="/dictionaries/ihm-extension-6.dic/Items/_ihm_multi_state_modeling.details.html" xlink:title="&lt;TABLE&gt;" target="_top">
<polygon fill="none" stroke="black" points="98.0625,-945 98.0625,-964 260.062,-964 260.062,-945 98.0625,-945"/>
<text text-anchor="start" x="103.062" y="-952.4" font-family="Helvetica,sans-Serif" font-size="9.00">details</text>
</a>
<a xlink:href="/dictionaries/ihm-extension-6.dic/Items/_ihm_multi_state_modeling.experiment_type.html" xlink:title="&lt;TABLE&gt;" target="_top">
<polygon fill="none" stroke="black" points="98.0625,-926 98.0625,-945 260.062,-945 260.062,-926 98.0625,-926"/>
<text text-anchor="start" x="103.062" y="-933.4" font-family="Helvetica,sans-Serif" font-size="9.00">experiment_type</text>
</a>
<a xlink:href="/dictionaries/ihm-extension-6.dic/Items/_ihm_multi_state_modeling.population_fraction.html" xlink:title="&lt;TABLE&gt;" target="_top">
<polygon fill="none" stroke="black" points="98.0625,-907 98.0625,-926 260.062,-926 260.062,-907 98.0625,-907"/>
<text text-anchor="start" x="103.062" y="-914.4" font-family="Helvetica,sans-Serif" font-size="9.00">population_fraction</text>
</a>
<a xlink:href="/dictionaries/ihm-extension-6.dic/Items/_ihm_multi_state_modeling.state_group_id.html" xlink:title="&lt;TABLE&gt;" target="_top">
<polygon fill="none" stroke="black" points="98.0625,-888 98.0625,-907 260.062,-907 260.062,-888 98.0625,-888"/>
<text text-anchor="start" x="103.062" y="-895.4" font-family="Helvetica,sans-Serif" font-size="9.00">state_group_id</text>
</a>
<a xlink:href="/dictionaries/ihm-extension-6.dic/Items/_ihm_multi_state_modeling.state_id.html" xlink:title="&lt;TABLE&gt;" target="_top">
<polygon fill="none" stroke="black" points="98.0625,-869 98.0625,-888 260.062,-888 260.062,-869 98.0625,-869"/>
<text text-anchor="start" x="103.062" y="-876.4" font-family="Helvetica,sans-Serif" font-size="9.00">state_id</text>
</a>
<a xlink:href="/dictionaries/ihm-extension-6.dic/Items/_ihm_multi_state_modeling.state_name.html" xlink:title="&lt;TABLE&gt;" target="_top">
<polygon fill="none" stroke="black" points="98.0625,-850 98.0625,-869 260.062,-869 260.062,-850 98.0625,-850"/>
<text text-anchor="start" x="103.062" y="-857.4" font-family="Helvetica,sans-Serif" font-size="9.00">state_name</text>
</a>
<a xlink:href="/dictionaries/ihm-extension-6.dic/Items/_ihm_multi_state_modeling.state_type.html" xlink:title="&lt;TABLE&gt;" target="_top">
<polygon fill="none" stroke="black" points="98.0625,-831 98.0625,-850 260.062,-850 260.062,-831 98.0625,-831"/>
<text text-anchor="start" x="103.062" y="-838.4" font-family="Helvetica,sans-Serif" font-size="9.00">state_type</text>
</a>
</g>
<!-- _ihm_multi_state_modeling&#45;&gt;_ihm_model_list -->
<g id="edge10" class="edge"><title>_ihm_multi_state_modeling:__model_group_id:w&#45;&gt;_ihm_model_list:__model_group_id:w</title>
<path fill="none" stroke="black" d="M96.0625,-974C82.4554,-974 82.5535,-755.866 93.5311,-708.15"/>
<polygon fill="black" stroke="black" points="96.7609,-709.515 98.0625,-699 90.488,-706.408 96.7609,-709.515"/>
</g>
<!-- _ihm_time_ordered_ensemble -->
<g id="node8" class="node"><title>_ihm_time_ordered_ensemble</title>
<a xlink:href="/dictionaries/ihm-extension-6.dic/Categories/ihm_time_ordered_ensemble.html" xlink:title="&lt;TABLE&gt;" target="_top">
<polygon fill="#99c49b" stroke="#99c49b" points="80.0625,-1248 80.0625,-1269 256.062,-1269 256.062,-1248 80.0625,-1248"/>
<polygon fill="none" stroke="black" points="80.0625,-1248 80.0625,-1269 256.062,-1269 256.062,-1248 80.0625,-1248"/>
<text text-anchor="start" x="85.5625" y="-1256.17" font-family="Helvetica,sans-Serif" font-size="10.00">IHM_TIME_ORDERED_ENSEMBLE</text>
</a>
<a xlink:href="/dictionaries/ihm-extension-6.dic/Items/_ihm_time_ordered_ensemble.ordinal_id.html" xlink:title="&lt;TABLE&gt;" target="_top">
<polygon fill="#ffff99" stroke="#ffff99" points="80.0625,-1229 80.0625,-1248 256.062,-1248 256.062,-1229 80.0625,-1229"/>
<polygon fill="none" stroke="black" points="80.0625,-1229 80.0625,-1248 256.062,-1248 256.062,-1229 80.0625,-1229"/>
<text text-anchor="start" x="85.0625" y="-1236.4" font-family="Helvetica,sans-Serif" font-size="9.00">ordinal_id</text>
</a>
<a xlink:href="/dictionaries/ihm-extension-6.dic/Items/_ihm_time_ordered_ensemble.model_group_id_begin.html" xlink:title="&lt;TABLE&gt;" target="_top">
<polygon fill="none" stroke="black" points="80.0625,-1210 80.0625,-1229 256.062,-1229 256.062,-1210 80.0625,-1210"/>
<text text-anchor="start" x="85.0625" y="-1217.4" font-family="Helvetica,sans-Serif" font-size="9.00">model_group_id_begin</text>
</a>
<a xlink:href="/dictionaries/ihm-extension-6.dic/Items/_ihm_time_ordered_ensemble.model_group_id_end.html" xlink:title="&lt;TABLE&gt;" target="_top">
<polygon fill="none" stroke="black" points="80.0625,-1191 80.0625,-1210 256.062,-1210 256.062,-1191 80.0625,-1191"/>
<text text-anchor="start" x="85.0625" y="-1198.4" font-family="Helvetica,sans-Serif" font-size="9.00">model_group_id_end</text>
</a>
<a xlink:href="/dictionaries/ihm-extension-6.dic/Items/_ihm_time_ordered_ensemble.state_group_id_begin.html" xlink:title="&lt;TABLE&gt;" target="_top">
<polygon fill="none" stroke="black" points="80.0625,-1172 80.0625,-1191 256.062,-1191 256.062,-1172 80.0625,-1172"/>
<text text-anchor="start" x="85.0625" y="-1179.4" font-family="Helvetica,sans-Serif" font-size="9.00">state_group_id_begin</text>
</a>
<a xlink:href="/dictionaries/ihm-extension-6.dic/Items/_ihm_time_ordered_ensemble.state_group_id_end.html" xlink:title="&lt;TABLE&gt;" target="_top">
<polygon fill="none" stroke="black" points="80.0625,-1153 80.0625,-1172 256.062,-1172 256.062,-1153 80.0625,-1153"/>
<text text-anchor="start" x="85.0625" y="-1160.4" font-family="Helvetica,sans-Serif" font-size="9.00">state_group_id_end</text>
</a>
<a xlink:href="/dictionaries/ihm-extension-6.dic/Items/_ihm_time_ordered_ensemble.time_begin.html" xlink:title="&lt;TABLE&gt;" target="_top">
<polygon fill="none" stroke="black" points="80.0625,-1134 80.0625,-1153 256.062,-1153 256.062,-1134 80.0625,-1134"/>
<text text-anchor="start" x="85.0625" y="-1141.4" font-family="Helvetica,sans-Serif" font-size="9.00">time_begin</text>
</a>
<a xlink:href="/dictionaries/ihm-extension-6.dic/Items/_ihm_time_ordered_ensemble.time_end.html" xlink:title="&lt;TABLE&gt;" target="_top">
<polygon fill="none" stroke="black" points="80.0625,-1115 80.0625,-1134 256.062,-1134 256.062,-1115 80.0625,-1115"/>
<text text-anchor="start" x="85.0625" y="-1122.4" font-family="Helvetica,sans-Serif" font-size="9.00">time_end</text>
</a>
<a xlink:href="/dictionaries/ihm-extension-6.dic/Items/_ihm_time_ordered_ensemble.time_step_id.html" xlink:title="&lt;TABLE&gt;" target="_top">
<polygon fill="none" stroke="black" points="80.0625,-1096 80.0625,-1115 256.062,-1115 256.062,-1096 80.0625,-1096"/>
<text text-anchor="start" x="85.0625" y="-1103.4" font-family="Helvetica,sans-Serif" font-size="9.00">time_step_id</text>
</a>
<a xlink:href="/dictionaries/ihm-extension-6.dic/Items/_ihm_time_ordered_ensemble.time_unit.html" xlink:title="&lt;TABLE&gt;" target="_top">
<polygon fill="none" stroke="black" points="80.0625,-1077 80.0625,-1096 256.062,-1096 256.062,-1077 80.0625,-1077"/>
<text text-anchor="start" x="85.0625" y="-1084.4" font-family="Helvetica,sans-Serif" font-size="9.00">time_unit</text>
</a>
</g>
<!-- _ihm_time_ordered_ensemble&#45;&gt;_ihm_model_list -->
<g id="edge12" class="edge"><title>_ihm_time_ordered_ensemble:__model_group_id_begin:w&#45;&gt;_ihm_model_list:__model_group_id:w</title>
<path fill="none" stroke="black" d="M78.0625,-1220C-34.4061,-1220 -18.8558,-729.08 88.1271,-700.315"/>
<polygon fill="black" stroke="black" points="88.6084,-703.782 98.0625,-699 87.6896,-696.843 88.6084,-703.782"/>
</g>
<!-- _ihm_time_ordered_ensemble&#45;&gt;_ihm_model_list -->
<g id="edge14" class="edge"><title>_ihm_time_ordered_ensemble:__model_group_id_end:w&#45;&gt;_ihm_model_list:__model_group_id:w</title>
<path fill="none" stroke="black" d="M78.0625,-1201C25.4023,-1201 40.2181,-754.257 88.9292,-703.649"/>
<polygon fill="black" stroke="black" points="90.7383,-706.656 98.0625,-699 87.5629,-700.417 90.7383,-706.656"/>
</g>
<!-- _ihm_time_ordered_ensemble&#45;&gt;_ihm_multi_state_modeling -->
<g id="edge22" class="edge"><title>_ihm_time_ordered_ensemble:__state_group_id_begin:w&#45;&gt;_ihm_multi_state_modeling:__state_group_id:w</title>
<path fill="none" stroke="black" d="M78.0625,-1182C63.8643,-1182 78.3705,-953.947 92.9496,-905.842"/>
<polygon fill="black" stroke="black" points="96.0865,-907.409 98.0625,-897 90.0267,-903.905 96.0865,-907.409"/>
</g>
<!-- _ihm_time_ordered_ensemble&#45;&gt;_ihm_multi_state_modeling -->
<g id="edge24" class="edge"><title>_ihm_time_ordered_ensemble:__state_group_id_end:w&#45;&gt;_ihm_multi_state_modeling:__state_group_id:w</title>
<path fill="none" stroke="black" d="M78.0625,-1162C64.9132,-1162 79.3393,-951.799 93.0825,-905.817"/>
<polygon fill="black" stroke="black" points="96.192,-907.428 98.0625,-897 90.097,-903.986 96.192,-907.428"/>
</g>
</g>
</svg>
