<?xml version="1.0" encoding="UTF-8" standalone="no"?>
<!DOCTYPE svg PUBLIC "-//W3C//DTD SVG 1.1//EN"
 "http://www.w3.org/Graphics/SVG/1.1/DTD/svg11.dtd">
<!-- Generated by graphviz version 2.26.0 (20091210.2329)
 -->
<!-- Title: ihm_ensemble_info Pages: 1 -->
<svg width="557pt" height="921pt"
 viewBox="0.00 0.00 557.28 921.00" xmlns="http://www.w3.org/2000/svg" xmlns:xlink="http://www.w3.org/1999/xlink">
<g id="graph1" class="graph" transform="scale(1 1) rotate(0) translate(4 917)">
<title>ihm_ensemble_info</title>
<polygon fill="white" stroke="white" points="-4,5 -4,-917 554.278,-917 554.278,5 -4,5"/>
<text text-anchor="start" x="271.639" y="-51.8" font-family="Helvetica,sans-Serif" font-size="18.00"> </text>
<text text-anchor="start" x="45.639" y="-30.2" font-family="Helvetica,sans-Serif" font-size="18.00">Selected Relationships for Category &#160;</text>
<text text-anchor="start" x="340.639" y="-30.2" font-family="Helvetica,sans-Serif" font-size="18.00"> ihm_ensemble_info</text>
<text text-anchor="start" x="499.639" y="-29.8" font-family="Helvetica,sans-Serif" font-size="14.00"> </text>
<text text-anchor="start" x="190.139" y="-11.5333" font-family="Helvetica,sans-Serif" font-size="14.00"> &#160;in dictionary ihm&#45;extension</text>
<!-- _ihm_cross_link_result -->
<g id="node1" class="node"><title>_ihm_cross_link_result</title>
<a xlink:href="/dictionaries/ihm-extension-6.dic/Categories/ihm_cross_link_result.html" xlink:title="&lt;TABLE&gt;" target="_top">
<polygon fill="#99c49b" stroke="#99c49b" points="191.278,-774 191.278,-795 335.278,-795 335.278,-774 191.278,-774"/>
<polygon fill="none" stroke="black" points="191.278,-774 191.278,-795 335.278,-795 335.278,-774 191.278,-774"/>
<text text-anchor="start" x="196.778" y="-782.167" font-family="Helvetica,sans-Serif" font-size="10.00">IHM_CROSS_LINK_RESULT</text>
</a>
<a xlink:href="/dictionaries/ihm-extension-6.dic/Items/_ihm_cross_link_result.ordinal_id.html" xlink:title="&lt;TABLE&gt;" target="_top">
<polygon fill="#ffff99" stroke="#ffff99" points="191.278,-755 191.278,-774 335.278,-774 335.278,-755 191.278,-755"/>
<polygon fill="none" stroke="black" points="191.278,-755 191.278,-774 335.278,-774 335.278,-755 191.278,-755"/>
<text text-anchor="start" x="196.278" y="-762.4" font-family="Helvetica,sans-Serif" font-size="9.00">ordinal_id</text>
</a>
<a xlink:href="/dictionaries/ihm-extension-6.dic/Items/_ihm_cross_link_result.ensemble_id.html" xlink:title="&lt;TABLE&gt;" target="_top">
<polygon fill="none" stroke="black" points="191.278,-736 191.278,-755 335.278,-755 335.278,-736 191.278,-736"/>
<text text-anchor="start" x="196.278" y="-743.4" font-family="Helvetica,sans-Serif" font-size="9.00">ensemble_id</text>
</a>
<a xlink:href="/dictionaries/ihm-extension-6.dic/Items/_ihm_cross_link_result.details.html" xlink:title="&lt;TABLE&gt;" target="_top">
<polygon fill="none" stroke="black" points="191.278,-717 191.278,-736 335.278,-736 335.278,-717 191.278,-717"/>
<text text-anchor="start" x="196.278" y="-724.4" font-family="Helvetica,sans-Serif" font-size="9.00">details</text>
</a>
<a xlink:href="/dictionaries/ihm-extension-6.dic/Items/_ihm_cross_link_result.distance_threshold.html" xlink:title="&lt;TABLE&gt;" target="_top">
<polygon fill="none" stroke="black" points="191.278,-698 191.278,-717 335.278,-717 335.278,-698 191.278,-698"/>
<text text-anchor="start" x="196.278" y="-705.4" font-family="Helvetica,sans-Serif" font-size="9.00">distance_threshold</text>
</a>
<a xlink:href="/dictionaries/ihm-extension-6.dic/Items/_ihm_cross_link_result.median_distance.html" xlink:title="&lt;TABLE&gt;" target="_top">
<polygon fill="none" stroke="black" points="191.278,-679 191.278,-698 335.278,-698 335.278,-679 191.278,-679"/>
<text text-anchor="start" x="196.278" y="-686.4" font-family="Helvetica,sans-Serif" font-size="9.00">median_distance</text>
</a>
<a xlink:href="/dictionaries/ihm-extension-6.dic/Items/_ihm_cross_link_result.num_models.html" xlink:title="&lt;TABLE&gt;" target="_top">
<polygon fill="none" stroke="black" points="191.278,-660 191.278,-679 335.278,-679 335.278,-660 191.278,-660"/>
<text text-anchor="start" x="196.278" y="-667.4" font-family="Helvetica,sans-Serif" font-size="9.00">num_models</text>
</a>
<a xlink:href="/dictionaries/ihm-extension-6.dic/Items/_ihm_cross_link_result.restraint_id.html" xlink:title="&lt;TABLE&gt;" target="_top">
<polygon fill="none" stroke="black" points="191.278,-641 191.278,-660 335.278,-660 335.278,-641 191.278,-641"/>
<text text-anchor="start" x="196.278" y="-648.4" font-family="Helvetica,sans-Serif" font-size="9.00">restraint_id</text>
</a>
</g>
<!-- _ihm_ensemble_info -->
<g id="node3" class="node"><title>_ihm_ensemble_info</title>
<a xlink:href="/dictionaries/ihm-extension-6.dic/Categories/ihm_ensemble_info.html" xlink:title="&lt;TABLE&gt;" target="_top">
<polygon fill="#f0027f" stroke="#f0027f" points="280.278,-462 280.278,-483 436.278,-483 436.278,-462 280.278,-462"/>
<polygon fill="none" stroke="black" points="280.278,-462 280.278,-483 436.278,-483 436.278,-462 280.278,-462"/>
<text text-anchor="start" x="303.778" y="-470.167" font-family="Helvetica,sans-Serif" font-size="10.00">IHM_ENSEMBLE_INFO</text>
</a>
<a xlink:href="/dictionaries/ihm-extension-6.dic/Items/_ihm_ensemble_info.ensemble_id.html" xlink:title="&lt;TABLE&gt;" target="_top">
<polygon fill="#ffff99" stroke="#ffff99" points="280.278,-443 280.278,-462 436.278,-462 436.278,-443 280.278,-443"/>
<polygon fill="none" stroke="black" points="280.278,-443 280.278,-462 436.278,-462 436.278,-443 280.278,-443"/>
<text text-anchor="start" x="285.278" y="-450.4" font-family="Helvetica,sans-Serif" font-size="9.00">ensemble_id</text>
</a>
<a xlink:href="/dictionaries/ihm-extension-6.dic/Items/_ihm_ensemble_info.model_group_id.html" xlink:title="&lt;TABLE&gt;" target="_top">
<polygon fill="none" stroke="black" points="280.278,-424 280.278,-443 436.278,-443 436.278,-424 280.278,-424"/>
<text text-anchor="start" x="285.278" y="-431.4" font-family="Helvetica,sans-Serif" font-size="9.00">model_group_id</text>
</a>
<a xlink:href="/dictionaries/ihm-extension-6.dic/Items/_ihm_ensemble_info.post_process_id.html" xlink:title="&lt;TABLE&gt;" target="_top">
<polygon fill="none" stroke="black" points="280.278,-405 280.278,-424 436.278,-424 436.278,-405 280.278,-405"/>
<text text-anchor="start" x="285.278" y="-412.4" font-family="Helvetica,sans-Serif" font-size="9.00">post_process_id</text>
</a>
<a xlink:href="/dictionaries/ihm-extension-6.dic/Items/_ihm_ensemble_info.ensemble_clustering_feature.html" xlink:title="&lt;TABLE&gt;" target="_top">
<polygon fill="none" stroke="black" points="280.278,-386 280.278,-405 436.278,-405 436.278,-386 280.278,-386"/>
<text text-anchor="start" x="285.278" y="-393.4" font-family="Helvetica,sans-Serif" font-size="9.00">ensemble_clustering_feature</text>
</a>
<a xlink:href="/dictionaries/ihm-extension-6.dic/Items/_ihm_ensemble_info.ensemble_clustering_method.html" xlink:title="&lt;TABLE&gt;" target="_top">
<polygon fill="none" stroke="black" points="280.278,-367 280.278,-386 436.278,-386 436.278,-367 280.278,-367"/>
<text text-anchor="start" x="285.278" y="-374.4" font-family="Helvetica,sans-Serif" font-size="9.00">ensemble_clustering_method</text>
</a>
<a xlink:href="/dictionaries/ihm-extension-6.dic/Items/_ihm_ensemble_info.ensemble_name.html" xlink:title="&lt;TABLE&gt;" target="_top">
<polygon fill="none" stroke="black" points="280.278,-348 280.278,-367 436.278,-367 436.278,-348 280.278,-348"/>
<text text-anchor="start" x="285.278" y="-355.4" font-family="Helvetica,sans-Serif" font-size="9.00">ensemble_name</text>
</a>
<a xlink:href="/dictionaries/ihm-extension-6.dic/Items/_ihm_ensemble_info.ensemble_precision_value.html" xlink:title="&lt;TABLE&gt;" target="_top">
<polygon fill="none" stroke="black" points="280.278,-329 280.278,-348 436.278,-348 436.278,-329 280.278,-329"/>
<text text-anchor="start" x="285.278" y="-336.4" font-family="Helvetica,sans-Serif" font-size="9.00">ensemble_precision_value</text>
</a>
<a xlink:href="/dictionaries/ihm-extension-6.dic/Items/_ihm_ensemble_info.num_ensemble_models.html" xlink:title="&lt;TABLE&gt;" target="_top">
<polygon fill="none" stroke="black" points="280.278,-310 280.278,-329 436.278,-329 436.278,-310 280.278,-310"/>
<text text-anchor="start" x="285.278" y="-317.4" font-family="Helvetica,sans-Serif" font-size="9.00">num_ensemble_models</text>
</a>
<a xlink:href="/dictionaries/ihm-extension-6.dic/Items/_ihm_ensemble_info.num_ensemble_models_deposited.html" xlink:title="&lt;TABLE&gt;" target="_top">
<polygon fill="none" stroke="black" points="280.278,-291 280.278,-310 436.278,-310 436.278,-291 280.278,-291"/>
<text text-anchor="start" x="285.278" y="-298.4" font-family="Helvetica,sans-Serif" font-size="9.00">num_ensemble_models_deposited</text>
</a>
</g>
<!-- _ihm_cross_link_result&#45;&gt;_ihm_ensemble_info -->
<g id="edge2" class="edge"><title>_ihm_cross_link_result:__ensemble_id:w&#45;&gt;_ihm_ensemble_info:__ensemble_id:w</title>
<path fill="none" stroke="black" d="M189.278,-746C140.825,-746 180.023,-684.127 191.278,-637 191.421,-636.403 257.413,-499.091 275.657,-462.092"/>
<polygon fill="black" stroke="black" points="278.868,-463.501 280.278,-453 272.627,-460.329 278.868,-463.501"/>
</g>
<!-- _ihm_cross_link_result_parameters -->
<g id="node2" class="node"><title>_ihm_cross_link_result_parameters</title>
<a xlink:href="/dictionaries/ihm-extension-6.dic/Categories/ihm_cross_link_result_parameters.html" xlink:title="&lt;TABLE&gt;" target="_top">
<polygon fill="#99c49b" stroke="#99c49b" points="28.278,-433 28.278,-454 247.278,-454 247.278,-433 28.278,-433"/>
<polygon fill="none" stroke="black" points="28.278,-433 28.278,-454 247.278,-454 247.278,-433 28.278,-433"/>
<text text-anchor="start" x="33.778" y="-441.167" font-family="Helvetica,sans-Serif" font-size="10.00">IHM_CROSS_LINK_RESULT_PARAMETERS</text>
</a>
<a xlink:href="/dictionaries/ihm-extension-6.dic/Items/_ihm_cross_link_result_parameters.ordinal_id.html" xlink:title="&lt;TABLE&gt;" target="_top">
<polygon fill="#ffff99" stroke="#ffff99" points="28.278,-414 28.278,-433 247.278,-433 247.278,-414 28.278,-414"/>
<polygon fill="none" stroke="black" points="28.278,-414 28.278,-433 247.278,-433 247.278,-414 28.278,-414"/>
<text text-anchor="start" x="33.278" y="-421.4" font-family="Helvetica,sans-Serif" font-size="9.00">ordinal_id</text>
</a>
<a xlink:href="/dictionaries/ihm-extension-6.dic/Items/_ihm_cross_link_result_parameters.model_id.html" xlink:title="&lt;TABLE&gt;" target="_top">
<polygon fill="none" stroke="black" points="28.278,-395 28.278,-414 247.278,-414 247.278,-395 28.278,-395"/>
<text text-anchor="start" x="33.278" y="-402.4" font-family="Helvetica,sans-Serif" font-size="9.00">model_id</text>
</a>
<a xlink:href="/dictionaries/ihm-extension-6.dic/Items/_ihm_cross_link_result_parameters.psi.html" xlink:title="&lt;TABLE&gt;" target="_top">
<polygon fill="none" stroke="black" points="28.278,-376 28.278,-395 247.278,-395 247.278,-376 28.278,-376"/>
<text text-anchor="start" x="33.278" y="-383.4" font-family="Helvetica,sans-Serif" font-size="9.00">psi</text>
</a>
<a xlink:href="/dictionaries/ihm-extension-6.dic/Items/_ihm_cross_link_result_parameters.restraint_id.html" xlink:title="&lt;TABLE&gt;" target="_top">
<polygon fill="none" stroke="black" points="28.278,-357 28.278,-376 247.278,-376 247.278,-357 28.278,-357"/>
<text text-anchor="start" x="33.278" y="-364.4" font-family="Helvetica,sans-Serif" font-size="9.00">restraint_id</text>
</a>
<a xlink:href="/dictionaries/ihm-extension-6.dic/Items/_ihm_cross_link_result_parameters.sigma_1.html" xlink:title="&lt;TABLE&gt;" target="_top">
<polygon fill="none" stroke="black" points="28.278,-338 28.278,-357 247.278,-357 247.278,-338 28.278,-338"/>
<text text-anchor="start" x="33.278" y="-345.4" font-family="Helvetica,sans-Serif" font-size="9.00">sigma_1</text>
</a>
<a xlink:href="/dictionaries/ihm-extension-6.dic/Items/_ihm_cross_link_result_parameters.sigma_2.html" xlink:title="&lt;TABLE&gt;" target="_top">
<polygon fill="none" stroke="black" points="28.278,-319 28.278,-338 247.278,-338 247.278,-319 28.278,-319"/>
<text text-anchor="start" x="33.278" y="-326.4" font-family="Helvetica,sans-Serif" font-size="9.00">sigma_2</text>
</a>
</g>
<!-- _ihm_model_list -->
<g id="node5" class="node"><title>_ihm_model_list</title>
<a xlink:href="/dictionaries/ihm-extension-6.dic/Categories/ihm_model_list.html" xlink:title="&lt;TABLE&gt;" target="_top">
<polygon fill="#99c49b" stroke="#99c49b" points="89.278,-216 89.278,-237 186.278,-237 186.278,-216 89.278,-216"/>
<polygon fill="none" stroke="black" points="89.278,-216 89.278,-237 186.278,-237 186.278,-216 89.278,-216"/>
<text text-anchor="start" x="94.778" y="-224.167" font-family="Helvetica,sans-Serif" font-size="10.00">IHM_MODEL_LIST</text>
</a>
<a xlink:href="/dictionaries/ihm-extension-6.dic/Items/_ihm_model_list.ordinal_id.html" xlink:title="&lt;TABLE&gt;" target="_top">
<polygon fill="#ffff99" stroke="#ffff99" points="89.278,-197 89.278,-216 186.278,-216 186.278,-197 89.278,-197"/>
<polygon fill="none" stroke="black" points="89.278,-197 89.278,-216 186.278,-216 186.278,-197 89.278,-197"/>
<text text-anchor="start" x="94.278" y="-204.4" font-family="Helvetica,sans-Serif" font-size="9.00">ordinal_id</text>
</a>
<a xlink:href="/dictionaries/ihm-extension-6.dic/Items/_ihm_model_list.model_group_id.html" xlink:title="&lt;TABLE&gt;" target="_top">
<polygon fill="none" stroke="black" points="89.278,-178 89.278,-197 186.278,-197 186.278,-178 89.278,-178"/>
<text text-anchor="start" x="94.278" y="-185.4" font-family="Helvetica,sans-Serif" font-size="9.00">model_group_id</text>
</a>
<a xlink:href="/dictionaries/ihm-extension-6.dic/Items/_ihm_model_list.assembly_id.html" xlink:title="&lt;TABLE&gt;" target="_top">
<polygon fill="none" stroke="black" points="89.278,-159 89.278,-178 186.278,-178 186.278,-159 89.278,-159"/>
<text text-anchor="start" x="94.278" y="-166.4" font-family="Helvetica,sans-Serif" font-size="9.00">assembly_id</text>
</a>
<a xlink:href="/dictionaries/ihm-extension-6.dic/Items/_ihm_model_list.model_group_name.html" xlink:title="&lt;TABLE&gt;" target="_top">
<polygon fill="none" stroke="black" points="89.278,-140 89.278,-159 186.278,-159 186.278,-140 89.278,-140"/>
<text text-anchor="start" x="94.278" y="-147.4" font-family="Helvetica,sans-Serif" font-size="9.00">model_group_name</text>
</a>
<a xlink:href="/dictionaries/ihm-extension-6.dic/Items/_ihm_model_list.model_id.html" xlink:title="&lt;TABLE&gt;" target="_top">
<polygon fill="none" stroke="black" points="89.278,-121 89.278,-140 186.278,-140 186.278,-121 89.278,-121"/>
<text text-anchor="start" x="94.278" y="-128.4" font-family="Helvetica,sans-Serif" font-size="9.00">model_id</text>
</a>
<a xlink:href="/dictionaries/ihm-extension-6.dic/Items/_ihm_model_list.model_name.html" xlink:title="&lt;TABLE&gt;" target="_top">
<polygon fill="none" stroke="black" points="89.278,-102 89.278,-121 186.278,-121 186.278,-102 89.278,-102"/>
<text text-anchor="start" x="94.278" y="-109.4" font-family="Helvetica,sans-Serif" font-size="9.00">model_name</text>
</a>
<a xlink:href="/dictionaries/ihm-extension-6.dic/Items/_ihm_model_list.protocol_id.html" xlink:title="&lt;TABLE&gt;" target="_top">
<polygon fill="none" stroke="black" points="89.278,-83 89.278,-102 186.278,-102 186.278,-83 89.278,-83"/>
<text text-anchor="start" x="94.278" y="-90.4" font-family="Helvetica,sans-Serif" font-size="9.00">protocol_id</text>
</a>
</g>
<!-- _ihm_cross_link_result_parameters&#45;&gt;_ihm_model_list -->
<g id="edge4" class="edge"><title>_ihm_cross_link_result_parameters:__model_id:w&#45;&gt;_ihm_model_list:__model_id:w</title>
<path fill="none" stroke="black" d="M26.278,-405C-33.1101,-405 20.2888,-158.239 79.3755,-132.214"/>
<polygon fill="black" stroke="black" points="80.2824,-135.597 89.278,-130 78.7553,-128.766 80.2824,-135.597"/>
</g>
<!-- _ihm_ensemble_info&#45;&gt;_ihm_model_list -->
<g id="edge8" class="edge"><title>_ihm_ensemble_info:__model_group_id:w&#45;&gt;_ihm_model_list:__model_group_id:w</title>
<path fill="none" stroke="black" d="M278.278,-434C245.442,-434 284.607,-311.966 263.278,-287 211.319,-226.183 138.079,-304.379 89.278,-241 77.4893,-225.69 69.1906,-199.834 79.5915,-191.036"/>
<polygon fill="black" stroke="black" points="80.7824,-194.33 89.278,-188 78.6889,-187.651 80.7824,-194.33"/>
</g>
<!-- _ihm_modeling_post_process -->
<g id="node6" class="node"><title>_ihm_modeling_post_process</title>
<a xlink:href="/dictionaries/ihm-extension-6.dic/Categories/ihm_modeling_post_process.html" xlink:title="&lt;TABLE&gt;" target="_top">
<polygon fill="#99c49b" stroke="#99c49b" points="280.278,-225 280.278,-246 456.278,-246 456.278,-225 280.278,-225"/>
<polygon fill="none" stroke="black" points="280.278,-225 280.278,-246 456.278,-246 456.278,-225 280.278,-225"/>
<text text-anchor="start" x="285.778" y="-233.167" font-family="Helvetica,sans-Serif" font-size="10.00">IHM_MODELING_POST_PROCESS</text>
</a>
<a xlink:href="/dictionaries/ihm-extension-6.dic/Items/_ihm_modeling_post_process.id.html" xlink:title="&lt;TABLE&gt;" target="_top">
<polygon fill="#ffff99" stroke="#ffff99" points="280.278,-206 280.278,-225 456.278,-225 456.278,-206 280.278,-206"/>
<polygon fill="none" stroke="black" points="280.278,-206 280.278,-225 456.278,-225 456.278,-206 280.278,-206"/>
<text text-anchor="start" x="285.278" y="-213.4" font-family="Helvetica,sans-Serif" font-size="9.00">id</text>
</a>
<a xlink:href="/dictionaries/ihm-extension-6.dic/Items/_ihm_modeling_post_process.analysis_id.html" xlink:title="&lt;TABLE&gt;" target="_top">
<polygon fill="none" stroke="black" points="280.278,-187 280.278,-206 456.278,-206 456.278,-187 280.278,-187"/>
<text text-anchor="start" x="285.278" y="-194.4" font-family="Helvetica,sans-Serif" font-size="9.00">analysis_id</text>
</a>
<a xlink:href="/dictionaries/ihm-extension-6.dic/Items/_ihm_modeling_post_process.feature.html" xlink:title="&lt;TABLE&gt;" target="_top">
<polygon fill="none" stroke="black" points="280.278,-168 280.278,-187 456.278,-187 456.278,-168 280.278,-168"/>
<text text-anchor="start" x="285.278" y="-175.4" font-family="Helvetica,sans-Serif" font-size="9.00">feature</text>
</a>
<a xlink:href="/dictionaries/ihm-extension-6.dic/Items/_ihm_modeling_post_process.num_models_begin.html" xlink:title="&lt;TABLE&gt;" target="_top">
<polygon fill="none" stroke="black" points="280.278,-149 280.278,-168 456.278,-168 456.278,-149 280.278,-149"/>
<text text-anchor="start" x="285.278" y="-156.4" font-family="Helvetica,sans-Serif" font-size="9.00">num_models_begin</text>
</a>
<a xlink:href="/dictionaries/ihm-extension-6.dic/Items/_ihm_modeling_post_process.num_models_end.html" xlink:title="&lt;TABLE&gt;" target="_top">
<polygon fill="none" stroke="black" points="280.278,-130 280.278,-149 456.278,-149 456.278,-130 280.278,-130"/>
<text text-anchor="start" x="285.278" y="-137.4" font-family="Helvetica,sans-Serif" font-size="9.00">num_models_end</text>
</a>
<a xlink:href="/dictionaries/ihm-extension-6.dic/Items/_ihm_modeling_post_process.protocol_id.html" xlink:title="&lt;TABLE&gt;" target="_top">
<polygon fill="none" stroke="black" points="280.278,-111 280.278,-130 456.278,-130 456.278,-111 280.278,-111"/>
<text text-anchor="start" x="285.278" y="-118.4" font-family="Helvetica,sans-Serif" font-size="9.00">protocol_id</text>
</a>
<a xlink:href="/dictionaries/ihm-extension-6.dic/Items/_ihm_modeling_post_process.step_id.html" xlink:title="&lt;TABLE&gt;" target="_top">
<polygon fill="none" stroke="black" points="280.278,-92 280.278,-111 456.278,-111 456.278,-92 280.278,-92"/>
<text text-anchor="start" x="285.278" y="-99.4" font-family="Helvetica,sans-Serif" font-size="9.00">step_id</text>
</a>
<a xlink:href="/dictionaries/ihm-extension-6.dic/Items/_ihm_modeling_post_process.type.html" xlink:title="&lt;TABLE&gt;" target="_top">
<polygon fill="none" stroke="black" points="280.278,-73 280.278,-92 456.278,-92 456.278,-73 280.278,-73"/>
<text text-anchor="start" x="285.278" y="-80.4" font-family="Helvetica,sans-Serif" font-size="9.00">type</text>
</a>
</g>
<!-- _ihm_ensemble_info&#45;&gt;_ihm_modeling_post_process -->
<g id="edge10" class="edge"><title>_ihm_ensemble_info:__post_process_id:w&#45;&gt;_ihm_modeling_post_process:__id:w</title>
<path fill="none" stroke="black" d="M278.278,-415C268.669,-415 268.922,-264.674 276.412,-225.331"/>
<polygon fill="black" stroke="black" points="279.684,-226.578 280.278,-216 273.217,-223.899 279.684,-226.578"/>
</g>
<!-- _ihm_gaussian_obj_ensemble -->
<g id="node4" class="node"><title>_ihm_gaussian_obj_ensemble</title>
<a xlink:href="/dictionaries/ihm-extension-6.dic/Categories/ihm_gaussian_obj_ensemble.html" xlink:title="&lt;TABLE&gt;" target="_top">
<polygon fill="#99c49b" stroke="#99c49b" points="369.278,-888 369.278,-909 542.278,-909 542.278,-888 369.278,-888"/>
<polygon fill="none" stroke="black" points="369.278,-888 369.278,-909 542.278,-909 542.278,-888 369.278,-888"/>
<text text-anchor="start" x="374.778" y="-896.167" font-family="Helvetica,sans-Serif" font-size="10.00">IHM_GAUSSIAN_OBJ_ENSEMBLE</text>
</a>
<a xlink:href="/dictionaries/ihm-extension-6.dic/Items/_ihm_gaussian_obj_ensemble.ordinal_id.html" xlink:title="&lt;TABLE&gt;" target="_top">
<polygon fill="#ffff99" stroke="#ffff99" points="369.278,-869 369.278,-888 542.278,-888 542.278,-869 369.278,-869"/>
<polygon fill="none" stroke="black" points="369.278,-869 369.278,-888 542.278,-888 542.278,-869 369.278,-869"/>
<text text-anchor="start" x="374.278" y="-876.4" font-family="Helvetica,sans-Serif" font-size="9.00">ordinal_id</text>
</a>
<a xlink:href="/dictionaries/ihm-extension-6.dic/Items/_ihm_gaussian_obj_ensemble.ensemble_id.html" xlink:title="&lt;TABLE&gt;" target="_top">
<polygon fill="none" stroke="black" points="369.278,-850 369.278,-869 542.278,-869 542.278,-850 369.278,-850"/>
<text text-anchor="start" x="374.278" y="-857.4" font-family="Helvetica,sans-Serif" font-size="9.00">ensemble_id</text>
</a>
<a xlink:href="/dictionaries/ihm-extension-6.dic/Items/_ihm_gaussian_obj_ensemble.asym_id.html" xlink:title="&lt;TABLE&gt;" target="_top">
<polygon fill="none" stroke="black" points="369.278,-831 369.278,-850 542.278,-850 542.278,-831 369.278,-831"/>
<text text-anchor="start" x="374.278" y="-838.4" font-family="Helvetica,sans-Serif" font-size="9.00">asym_id</text>
</a>
<a xlink:href="/dictionaries/ihm-extension-6.dic/Items/_ihm_gaussian_obj_ensemble.covariance_matrix[1][1].html" xlink:title="&lt;TABLE&gt;" target="_top">
<polygon fill="none" stroke="black" points="369.278,-812 369.278,-831 542.278,-831 542.278,-812 369.278,-812"/>
<text text-anchor="start" x="374.278" y="-819.4" font-family="Helvetica,sans-Serif" font-size="9.00">covariance_matrix[1][1]</text>
</a>
<a xlink:href="/dictionaries/ihm-extension-6.dic/Items/_ihm_gaussian_obj_ensemble.covariance_matrix[1][2].html" xlink:title="&lt;TABLE&gt;" target="_top">
<polygon fill="none" stroke="black" points="369.278,-793 369.278,-812 542.278,-812 542.278,-793 369.278,-793"/>
<text text-anchor="start" x="374.278" y="-800.4" font-family="Helvetica,sans-Serif" font-size="9.00">covariance_matrix[1][2]</text>
</a>
<a xlink:href="/dictionaries/ihm-extension-6.dic/Items/_ihm_gaussian_obj_ensemble.covariance_matrix[1][3].html" xlink:title="&lt;TABLE&gt;" target="_top">
<polygon fill="none" stroke="black" points="369.278,-774 369.278,-793 542.278,-793 542.278,-774 369.278,-774"/>
<text text-anchor="start" x="374.278" y="-781.4" font-family="Helvetica,sans-Serif" font-size="9.00">covariance_matrix[1][3]</text>
</a>
<a xlink:href="/dictionaries/ihm-extension-6.dic/Items/_ihm_gaussian_obj_ensemble.covariance_matrix[2][1].html" xlink:title="&lt;TABLE&gt;" target="_top">
<polygon fill="none" stroke="black" points="369.278,-755 369.278,-774 542.278,-774 542.278,-755 369.278,-755"/>
<text text-anchor="start" x="374.278" y="-762.4" font-family="Helvetica,sans-Serif" font-size="9.00">covariance_matrix[2][1]</text>
</a>
<a xlink:href="/dictionaries/ihm-extension-6.dic/Items/_ihm_gaussian_obj_ensemble.covariance_matrix[2][2].html" xlink:title="&lt;TABLE&gt;" target="_top">
<polygon fill="none" stroke="black" points="369.278,-736 369.278,-755 542.278,-755 542.278,-736 369.278,-736"/>
<text text-anchor="start" x="374.278" y="-743.4" font-family="Helvetica,sans-Serif" font-size="9.00">covariance_matrix[2][2]</text>
</a>
<a xlink:href="/dictionaries/ihm-extension-6.dic/Items/_ihm_gaussian_obj_ensemble.covariance_matrix[2][3].html" xlink:title="&lt;TABLE&gt;" target="_top">
<polygon fill="none" stroke="black" points="369.278,-717 369.278,-736 542.278,-736 542.278,-717 369.278,-717"/>
<text text-anchor="start" x="374.278" y="-724.4" font-family="Helvetica,sans-Serif" font-size="9.00">covariance_matrix[2][3]</text>
</a>
<a xlink:href="/dictionaries/ihm-extension-6.dic/Items/_ihm_gaussian_obj_ensemble.covariance_matrix[3][1].html" xlink:title="&lt;TABLE&gt;" target="_top">
<polygon fill="none" stroke="black" points="369.278,-698 369.278,-717 542.278,-717 542.278,-698 369.278,-698"/>
<text text-anchor="start" x="374.278" y="-705.4" font-family="Helvetica,sans-Serif" font-size="9.00">covariance_matrix[3][1]</text>
</a>
<a xlink:href="/dictionaries/ihm-extension-6.dic/Items/_ihm_gaussian_obj_ensemble.covariance_matrix[3][2].html" xlink:title="&lt;TABLE&gt;" target="_top">
<polygon fill="none" stroke="black" points="369.278,-679 369.278,-698 542.278,-698 542.278,-679 369.278,-679"/>
<text text-anchor="start" x="374.278" y="-686.4" font-family="Helvetica,sans-Serif" font-size="9.00">covariance_matrix[3][2]</text>
</a>
<a xlink:href="/dictionaries/ihm-extension-6.dic/Items/_ihm_gaussian_obj_ensemble.covariance_matrix[3][3].html" xlink:title="&lt;TABLE&gt;" target="_top">
<polygon fill="none" stroke="black" points="369.278,-660 369.278,-679 542.278,-679 542.278,-660 369.278,-660"/>
<text text-anchor="start" x="374.278" y="-667.4" font-family="Helvetica,sans-Serif" font-size="9.00">covariance_matrix[3][3]</text>
</a>
<a xlink:href="/dictionaries/ihm-extension-6.dic/Items/_ihm_gaussian_obj_ensemble.entity_id.html" xlink:title="&lt;TABLE&gt;" target="_top">
<polygon fill="none" stroke="black" points="369.278,-641 369.278,-660 542.278,-660 542.278,-641 369.278,-641"/>
<text text-anchor="start" x="374.278" y="-648.4" font-family="Helvetica,sans-Serif" font-size="9.00">entity_id</text>
</a>
<a xlink:href="/dictionaries/ihm-extension-6.dic/Items/_ihm_gaussian_obj_ensemble.mean_Cartn_x.html" xlink:title="&lt;TABLE&gt;" target="_top">
<polygon fill="none" stroke="black" points="369.278,-622 369.278,-641 542.278,-641 542.278,-622 369.278,-622"/>
<text text-anchor="start" x="374.278" y="-629.4" font-family="Helvetica,sans-Serif" font-size="9.00">mean_Cartn_x</text>
</a>
<a xlink:href="/dictionaries/ihm-extension-6.dic/Items/_ihm_gaussian_obj_ensemble.mean_Cartn_y.html" xlink:title="&lt;TABLE&gt;" target="_top">
<polygon fill="none" stroke="black" points="369.278,-603 369.278,-622 542.278,-622 542.278,-603 369.278,-603"/>
<text text-anchor="start" x="374.278" y="-610.4" font-family="Helvetica,sans-Serif" font-size="9.00">mean_Cartn_y</text>
</a>
<a xlink:href="/dictionaries/ihm-extension-6.dic/Items/_ihm_gaussian_obj_ensemble.mean_Cartn_z.html" xlink:title="&lt;TABLE&gt;" target="_top">
<polygon fill="none" stroke="black" points="369.278,-584 369.278,-603 542.278,-603 542.278,-584 369.278,-584"/>
<text text-anchor="start" x="374.278" y="-591.4" font-family="Helvetica,sans-Serif" font-size="9.00">mean_Cartn_z</text>
</a>
<a xlink:href="/dictionaries/ihm-extension-6.dic/Items/_ihm_gaussian_obj_ensemble.seq_id_begin.html" xlink:title="&lt;TABLE&gt;" target="_top">
<polygon fill="none" stroke="black" points="369.278,-565 369.278,-584 542.278,-584 542.278,-565 369.278,-565"/>
<text text-anchor="start" x="374.278" y="-572.4" font-family="Helvetica,sans-Serif" font-size="9.00">seq_id_begin</text>
</a>
<a xlink:href="/dictionaries/ihm-extension-6.dic/Items/_ihm_gaussian_obj_ensemble.seq_id_end.html" xlink:title="&lt;TABLE&gt;" target="_top">
<polygon fill="none" stroke="black" points="369.278,-546 369.278,-565 542.278,-565 542.278,-546 369.278,-546"/>
<text text-anchor="start" x="374.278" y="-553.4" font-family="Helvetica,sans-Serif" font-size="9.00">seq_id_end</text>
</a>
<a xlink:href="/dictionaries/ihm-extension-6.dic/Items/_ihm_gaussian_obj_ensemble.weight.html" xlink:title="&lt;TABLE&gt;" target="_top">
<polygon fill="none" stroke="black" points="369.278,-527 369.278,-546 542.278,-546 542.278,-527 369.278,-527"/>
<text text-anchor="start" x="374.278" y="-534.4" font-family="Helvetica,sans-Serif" font-size="9.00">weight</text>
</a>
</g>
<!-- _ihm_gaussian_obj_ensemble&#45;&gt;_ihm_ensemble_info -->
<g id="edge6" class="edge"><title>_ihm_gaussian_obj_ensemble:__ensemble_id:w&#45;&gt;_ihm_ensemble_info:__ensemble_id:w</title>
<path fill="none" stroke="black" d="M367.278,-860C348.537,-860 362.483,-538.719 352.278,-523 332.797,-492.992 299.087,-517.434 280.278,-487 274.878,-478.263 269.838,-465.696 271.908,-458.541"/>
<polygon fill="black" stroke="black" points="273.872,-461.439 280.278,-453 270.008,-455.602 273.872,-461.439"/>
</g>
</g>
</svg>
