<?xml version="1.0" encoding="UTF-8" standalone="no"?>
<!DOCTYPE svg PUBLIC "-//W3C//DTD SVG 1.1//EN"
 "http://www.w3.org/Graphics/SVG/1.1/DTD/svg11.dtd">
<!-- Generated by graphviz version 2.26.0 (20091210.2329)
 -->
<!-- Title: ihm_starting_model_details Pages: 1 -->
<svg width="534pt" height="827pt"
 viewBox="0.00 0.00 534.00 827.00" xmlns="http://www.w3.org/2000/svg" xmlns:xlink="http://www.w3.org/1999/xlink">
<g id="graph1" class="graph" transform="scale(1 1) rotate(0) translate(4 823)">
<title>ihm_starting_model_details</title>
<polygon fill="white" stroke="white" points="-4,5 -4,-823 531,-823 531,5 -4,5"/>
<text text-anchor="start" x="260" y="-51.8" font-family="Helvetica,sans-Serif" font-size="18.00"> </text>
<text text-anchor="start" x="8.5" y="-30.2" font-family="Helvetica,sans-Serif" font-size="18.00">Selected Relationships for Category </text>
<text text-anchor="start" x="297.5" y="-30.2" font-family="Helvetica,sans-Serif" font-size="18.00">ihm_starting_model_details</text>
<text text-anchor="start" x="513.5" y="-29.8" font-family="Helvetica,sans-Serif" font-size="14.00"> </text>
<text text-anchor="start" x="178.5" y="-11.5333" font-family="Helvetica,sans-Serif" font-size="14.00"> &#160;in dictionary ihm&#45;extension</text>
<!-- _ihm_dataset_list -->
<g id="node1" class="node"><title>_ihm_dataset_list</title>
<a xlink:href="/dictionaries/ihm-extension-5.dic/Categories/ihm_dataset_list.html" xlink:title="&lt;TABLE&gt;" target="_top">
<polygon fill="#99c49b" stroke="#99c49b" points="194.499,-168 194.499,-189 302.499,-189 302.499,-168 194.499,-168"/>
<polygon fill="none" stroke="black" points="194.499,-168 194.499,-189 302.499,-189 302.499,-168 194.499,-168"/>
<text text-anchor="start" x="199.999" y="-176.167" font-family="Helvetica,sans-Serif" font-size="10.00">IHM_DATASET_LIST</text>
</a>
<a xlink:href="/dictionaries/ihm-extension-5.dic/Items/_ihm_dataset_list.id.html" xlink:title="&lt;TABLE&gt;" target="_top">
<polygon fill="#ffff99" stroke="#ffff99" points="194.499,-149 194.499,-168 302.499,-168 302.499,-149 194.499,-149"/>
<polygon fill="none" stroke="black" points="194.499,-149 194.499,-168 302.499,-168 302.499,-149 194.499,-149"/>
<text text-anchor="start" x="199.499" y="-156.4" font-family="Helvetica,sans-Serif" font-size="9.00">id</text>
</a>
<a xlink:href="/dictionaries/ihm-extension-5.dic/Items/_ihm_dataset_list.category_info.html" xlink:title="&lt;TABLE&gt;" target="_top">
<polygon fill="none" stroke="black" points="194.499,-130 194.499,-149 302.499,-149 302.499,-130 194.499,-130"/>
<text text-anchor="start" x="199.499" y="-137.4" font-family="Helvetica,sans-Serif" font-size="9.00">category_info</text>
</a>
<a xlink:href="/dictionaries/ihm-extension-5.dic/Items/_ihm_dataset_list.data_type.html" xlink:title="&lt;TABLE&gt;" target="_top">
<polygon fill="none" stroke="black" points="194.499,-111 194.499,-130 302.499,-130 302.499,-111 194.499,-111"/>
<text text-anchor="start" x="199.499" y="-118.4" font-family="Helvetica,sans-Serif" font-size="9.00">data_type</text>
</a>
<a xlink:href="/dictionaries/ihm-extension-5.dic/Items/_ihm_dataset_list.database_hosted.html" xlink:title="&lt;TABLE&gt;" target="_top">
<polygon fill="none" stroke="black" points="194.499,-92 194.499,-111 302.499,-111 302.499,-92 194.499,-92"/>
<text text-anchor="start" x="199.499" y="-99.4" font-family="Helvetica,sans-Serif" font-size="9.00">database_hosted</text>
</a>
<a xlink:href="/dictionaries/ihm-extension-5.dic/Items/_ihm_dataset_list.group_id.html" xlink:title="&lt;TABLE&gt;" target="_top">
<polygon fill="none" stroke="black" points="194.499,-73 194.499,-92 302.499,-92 302.499,-73 194.499,-73"/>
<text text-anchor="start" x="199.499" y="-80.4" font-family="Helvetica,sans-Serif" font-size="9.00">group_id</text>
</a>
</g>
<!-- _ihm_model_representation -->
<g id="node2" class="node"><title>_ihm_model_representation</title>
<a xlink:href="/dictionaries/ihm-extension-5.dic/Categories/ihm_model_representation.html" xlink:title="&lt;TABLE&gt;" target="_top">
<polygon fill="#99c49b" stroke="#99c49b" points="93.4993,-784 93.4993,-805 262.499,-805 262.499,-784 93.4993,-784"/>
<polygon fill="none" stroke="black" points="93.4993,-784 93.4993,-805 262.499,-805 262.499,-784 93.4993,-784"/>
<text text-anchor="start" x="98.9993" y="-792.167" font-family="Helvetica,sans-Serif" font-size="10.00">IHM_MODEL_REPRESENTATION</text>
</a>
<a xlink:href="/dictionaries/ihm-extension-5.dic/Items/_ihm_model_representation.ordinal_id.html" xlink:title="&lt;TABLE&gt;" target="_top">
<polygon fill="#ffff99" stroke="#ffff99" points="93.4993,-765 93.4993,-784 262.499,-784 262.499,-765 93.4993,-765"/>
<polygon fill="none" stroke="black" points="93.4993,-765 93.4993,-784 262.499,-784 262.499,-765 93.4993,-765"/>
<text text-anchor="start" x="98.4993" y="-772.4" font-family="Helvetica,sans-Serif" font-size="9.00">ordinal_id</text>
</a>
<a xlink:href="/dictionaries/ihm-extension-5.dic/Items/_ihm_model_representation.starting_model_id.html" xlink:title="&lt;TABLE&gt;" target="_top">
<polygon fill="none" stroke="black" points="93.4993,-746 93.4993,-765 262.499,-765 262.499,-746 93.4993,-746"/>
<text text-anchor="start" x="98.4993" y="-753.4" font-family="Helvetica,sans-Serif" font-size="9.00">starting_model_id</text>
</a>
<a xlink:href="/dictionaries/ihm-extension-5.dic/Items/_ihm_model_representation.entity_asym_id.html" xlink:title="&lt;TABLE&gt;" target="_top">
<polygon fill="none" stroke="black" points="93.4993,-727 93.4993,-746 262.499,-746 262.499,-727 93.4993,-727"/>
<text text-anchor="start" x="98.4993" y="-734.4" font-family="Helvetica,sans-Serif" font-size="9.00">entity_asym_id</text>
</a>
<a xlink:href="/dictionaries/ihm-extension-5.dic/Items/_ihm_model_representation.entity_description.html" xlink:title="&lt;TABLE&gt;" target="_top">
<polygon fill="none" stroke="black" points="93.4993,-708 93.4993,-727 262.499,-727 262.499,-708 93.4993,-708"/>
<text text-anchor="start" x="98.4993" y="-715.4" font-family="Helvetica,sans-Serif" font-size="9.00">entity_description</text>
</a>
<a xlink:href="/dictionaries/ihm-extension-5.dic/Items/_ihm_model_representation.entity_id.html" xlink:title="&lt;TABLE&gt;" target="_top">
<polygon fill="none" stroke="black" points="93.4993,-689 93.4993,-708 262.499,-708 262.499,-689 93.4993,-689"/>
<text text-anchor="start" x="98.4993" y="-696.4" font-family="Helvetica,sans-Serif" font-size="9.00">entity_id</text>
</a>
<a xlink:href="/dictionaries/ihm-extension-5.dic/Items/_ihm_model_representation.model_granularity.html" xlink:title="&lt;TABLE&gt;" target="_top">
<polygon fill="none" stroke="black" points="93.4993,-670 93.4993,-689 262.499,-689 262.499,-670 93.4993,-670"/>
<text text-anchor="start" x="98.4993" y="-677.4" font-family="Helvetica,sans-Serif" font-size="9.00">model_granularity</text>
</a>
<a xlink:href="/dictionaries/ihm-extension-5.dic/Items/_ihm_model_representation.model_mode.html" xlink:title="&lt;TABLE&gt;" target="_top">
<polygon fill="none" stroke="black" points="93.4993,-651 93.4993,-670 262.499,-670 262.499,-651 93.4993,-651"/>
<text text-anchor="start" x="98.4993" y="-658.4" font-family="Helvetica,sans-Serif" font-size="9.00">model_mode</text>
</a>
<a xlink:href="/dictionaries/ihm-extension-5.dic/Items/_ihm_model_representation.model_object_count.html" xlink:title="&lt;TABLE&gt;" target="_top">
<polygon fill="none" stroke="black" points="93.4993,-632 93.4993,-651 262.499,-651 262.499,-632 93.4993,-632"/>
<text text-anchor="start" x="98.4993" y="-639.4" font-family="Helvetica,sans-Serif" font-size="9.00">model_object_count</text>
</a>
<a xlink:href="/dictionaries/ihm-extension-5.dic/Items/_ihm_model_representation.model_object_primitive.html" xlink:title="&lt;TABLE&gt;" target="_top">
<polygon fill="none" stroke="black" points="93.4993,-613 93.4993,-632 262.499,-632 262.499,-613 93.4993,-613"/>
<text text-anchor="start" x="98.4993" y="-620.4" font-family="Helvetica,sans-Serif" font-size="9.00">model_object_primitive</text>
</a>
<a xlink:href="/dictionaries/ihm-extension-5.dic/Items/_ihm_model_representation.representation_id.html" xlink:title="&lt;TABLE&gt;" target="_top">
<polygon fill="none" stroke="black" points="93.4993,-594 93.4993,-613 262.499,-613 262.499,-594 93.4993,-594"/>
<text text-anchor="start" x="98.4993" y="-601.4" font-family="Helvetica,sans-Serif" font-size="9.00">representation_id</text>
</a>
<a xlink:href="/dictionaries/ihm-extension-5.dic/Items/_ihm_model_representation.segment_id.html" xlink:title="&lt;TABLE&gt;" target="_top">
<polygon fill="none" stroke="black" points="93.4993,-575 93.4993,-594 262.499,-594 262.499,-575 93.4993,-575"/>
<text text-anchor="start" x="98.4993" y="-582.4" font-family="Helvetica,sans-Serif" font-size="9.00">segment_id</text>
</a>
<a xlink:href="/dictionaries/ihm-extension-5.dic/Items/_ihm_model_representation.seq_id_begin.html" xlink:title="&lt;TABLE&gt;" target="_top">
<polygon fill="none" stroke="black" points="93.4993,-556 93.4993,-575 262.499,-575 262.499,-556 93.4993,-556"/>
<text text-anchor="start" x="98.4993" y="-563.4" font-family="Helvetica,sans-Serif" font-size="9.00">seq_id_begin</text>
</a>
<a xlink:href="/dictionaries/ihm-extension-5.dic/Items/_ihm_model_representation.seq_id_end.html" xlink:title="&lt;TABLE&gt;" target="_top">
<polygon fill="none" stroke="black" points="93.4993,-537 93.4993,-556 262.499,-556 262.499,-537 93.4993,-537"/>
<text text-anchor="start" x="98.4993" y="-544.4" font-family="Helvetica,sans-Serif" font-size="9.00">seq_id_end</text>
</a>
</g>
<!-- _ihm_starting_model_details -->
<g id="node4" class="node"><title>_ihm_starting_model_details</title>
<a xlink:href="/dictionaries/ihm-extension-5.dic/Categories/ihm_starting_model_details.html" xlink:title="&lt;TABLE&gt;" target="_top">
<polygon fill="#f0027f" stroke="#f0027f" points="194.499,-461 194.499,-482 368.499,-482 368.499,-461 194.499,-461"/>
<polygon fill="none" stroke="black" points="194.499,-461 194.499,-482 368.499,-482 368.499,-461 194.499,-461"/>
<text text-anchor="start" x="199.999" y="-469.167" font-family="Helvetica,sans-Serif" font-size="10.00">IHM_STARTING_MODEL_DETAILS</text>
</a>
<a xlink:href="/dictionaries/ihm-extension-5.dic/Items/_ihm_starting_model_details.ordinal_id.html" xlink:title="&lt;TABLE&gt;" target="_top">
<polygon fill="#ffff99" stroke="#ffff99" points="194.499,-442 194.499,-461 368.499,-461 368.499,-442 194.499,-442"/>
<polygon fill="none" stroke="black" points="194.499,-442 194.499,-461 368.499,-461 368.499,-442 194.499,-442"/>
<text text-anchor="start" x="199.499" y="-449.4" font-family="Helvetica,sans-Serif" font-size="9.00">ordinal_id</text>
</a>
<a xlink:href="/dictionaries/ihm-extension-5.dic/Items/_ihm_starting_model_details.dataset_list_id.html" xlink:title="&lt;TABLE&gt;" target="_top">
<polygon fill="none" stroke="black" points="194.499,-423 194.499,-442 368.499,-442 368.499,-423 194.499,-423"/>
<text text-anchor="start" x="199.499" y="-430.4" font-family="Helvetica,sans-Serif" font-size="9.00">dataset_list_id</text>
</a>
<a xlink:href="/dictionaries/ihm-extension-5.dic/Items/_ihm_starting_model_details.entity_id.html" xlink:title="&lt;TABLE&gt;" target="_top">
<polygon fill="none" stroke="black" points="194.499,-404 194.499,-423 368.499,-423 368.499,-404 194.499,-404"/>
<text text-anchor="start" x="199.499" y="-411.4" font-family="Helvetica,sans-Serif" font-size="9.00">entity_id</text>
</a>
<a xlink:href="/dictionaries/ihm-extension-5.dic/Items/_ihm_starting_model_details.seq_id_begin.html" xlink:title="&lt;TABLE&gt;" target="_top">
<polygon fill="none" stroke="black" points="194.499,-385 194.499,-404 368.499,-404 368.499,-385 194.499,-385"/>
<text text-anchor="start" x="199.499" y="-392.4" font-family="Helvetica,sans-Serif" font-size="9.00">seq_id_begin</text>
</a>
<a xlink:href="/dictionaries/ihm-extension-5.dic/Items/_ihm_starting_model_details.seq_id_end.html" xlink:title="&lt;TABLE&gt;" target="_top">
<polygon fill="none" stroke="black" points="194.499,-366 194.499,-385 368.499,-385 368.499,-366 194.499,-366"/>
<text text-anchor="start" x="199.499" y="-373.4" font-family="Helvetica,sans-Serif" font-size="9.00">seq_id_end</text>
</a>
<a xlink:href="/dictionaries/ihm-extension-5.dic/Items/_ihm_starting_model_details.starting_model_db_pdb_auth_asym_id.html" xlink:title="&lt;TABLE&gt;" target="_top">
<polygon fill="none" stroke="black" points="194.499,-347 194.499,-366 368.499,-366 368.499,-347 194.499,-347"/>
<text text-anchor="start" x="199.499" y="-354.4" font-family="Helvetica,sans-Serif" font-size="9.00">starting_model_db_pdb_auth_asym_id</text>
</a>
<a xlink:href="/dictionaries/ihm-extension-5.dic/Items/_ihm_starting_model_details.starting_model_id.html" xlink:title="&lt;TABLE&gt;" target="_top">
<polygon fill="none" stroke="black" points="194.499,-328 194.499,-347 368.499,-347 368.499,-328 194.499,-328"/>
<text text-anchor="start" x="199.499" y="-335.4" font-family="Helvetica,sans-Serif" font-size="9.00">starting_model_id</text>
</a>
<a xlink:href="/dictionaries/ihm-extension-5.dic/Items/_ihm_starting_model_details.entity_description.html" xlink:title="&lt;TABLE&gt;" target="_top">
<polygon fill="none" stroke="black" points="194.499,-309 194.499,-328 368.499,-328 368.499,-309 194.499,-309"/>
<text text-anchor="start" x="199.499" y="-316.4" font-family="Helvetica,sans-Serif" font-size="9.00">entity_description</text>
</a>
<a xlink:href="/dictionaries/ihm-extension-5.dic/Items/_ihm_starting_model_details.starting_model_db_code.html" xlink:title="&lt;TABLE&gt;" target="_top">
<polygon fill="none" stroke="black" points="194.499,-290 194.499,-309 368.499,-309 368.499,-290 194.499,-290"/>
<text text-anchor="start" x="199.499" y="-297.4" font-family="Helvetica,sans-Serif" font-size="9.00">starting_model_db_code</text>
</a>
<a xlink:href="/dictionaries/ihm-extension-5.dic/Items/_ihm_starting_model_details.starting_model_db_name.html" xlink:title="&lt;TABLE&gt;" target="_top">
<polygon fill="none" stroke="black" points="194.499,-271 194.499,-290 368.499,-290 368.499,-271 194.499,-271"/>
<text text-anchor="start" x="199.499" y="-278.4" font-family="Helvetica,sans-Serif" font-size="9.00">starting_model_db_name</text>
</a>
<a xlink:href="/dictionaries/ihm-extension-5.dic/Items/_ihm_starting_model_details.starting_model_sequence_identity.html" xlink:title="&lt;TABLE&gt;" target="_top">
<polygon fill="none" stroke="black" points="194.499,-252 194.499,-271 368.499,-271 368.499,-252 194.499,-252"/>
<text text-anchor="start" x="199.499" y="-259.4" font-family="Helvetica,sans-Serif" font-size="9.00">starting_model_sequence_identity</text>
</a>
<a xlink:href="/dictionaries/ihm-extension-5.dic/Items/_ihm_starting_model_details.starting_model_source.html" xlink:title="&lt;TABLE&gt;" target="_top">
<polygon fill="none" stroke="black" points="194.499,-233 194.499,-252 368.499,-252 368.499,-233 194.499,-233"/>
<text text-anchor="start" x="199.499" y="-240.4" font-family="Helvetica,sans-Serif" font-size="9.00">starting_model_source</text>
</a>
</g>
<!-- _ihm_model_representation&#45;&gt;_ihm_starting_model_details -->
<g id="edge4" class="edge"><title>_ihm_model_representation:__starting_model_id:w&#45;&gt;_ihm_starting_model_details:__starting_model_id:w</title>
<path fill="none" stroke="black" d="M91.4993,-756C-1.01297,-756 91.6198,-365.943 184.369,-338.517"/>
<polygon fill="black" stroke="black" points="185.128,-341.943 194.499,-337 184.091,-335.02 185.128,-341.943"/>
</g>
<!-- _ihm_starting_model_coord -->
<g id="node3" class="node"><title>_ihm_starting_model_coord</title>
<a xlink:href="/dictionaries/ihm-extension-5.dic/Categories/ihm_starting_model_coord.html" xlink:title="&lt;TABLE&gt;" target="_top">
<polygon fill="#99c49b" stroke="#99c49b" points="295.499,-793 295.499,-814 465.499,-814 465.499,-793 295.499,-793"/>
<polygon fill="none" stroke="black" points="295.499,-793 295.499,-814 465.499,-814 465.499,-793 295.499,-793"/>
<text text-anchor="start" x="300.999" y="-801.167" font-family="Helvetica,sans-Serif" font-size="10.00">IHM_STARTING_MODEL_COORD</text>
</a>
<a xlink:href="/dictionaries/ihm-extension-5.dic/Items/_ihm_starting_model_coord.ordinal_id.html" xlink:title="&lt;TABLE&gt;" target="_top">
<polygon fill="#ffff99" stroke="#ffff99" points="295.499,-774 295.499,-793 465.499,-793 465.499,-774 295.499,-774"/>
<polygon fill="none" stroke="black" points="295.499,-774 295.499,-793 465.499,-793 465.499,-774 295.499,-774"/>
<text text-anchor="start" x="300.499" y="-781.4" font-family="Helvetica,sans-Serif" font-size="9.00">ordinal_id</text>
</a>
<a xlink:href="/dictionaries/ihm-extension-5.dic/Items/_ihm_starting_model_coord.starting_model_id.html" xlink:title="&lt;TABLE&gt;" target="_top">
<polygon fill="none" stroke="black" points="295.499,-755 295.499,-774 465.499,-774 465.499,-755 295.499,-755"/>
<text text-anchor="start" x="300.499" y="-762.4" font-family="Helvetica,sans-Serif" font-size="9.00">starting_model_id</text>
</a>
<a xlink:href="/dictionaries/ihm-extension-5.dic/Items/_ihm_starting_model_coord.B_iso_or_equiv.html" xlink:title="&lt;TABLE&gt;" target="_top">
<polygon fill="none" stroke="black" points="295.499,-736 295.499,-755 465.499,-755 465.499,-736 295.499,-736"/>
<text text-anchor="start" x="300.499" y="-743.4" font-family="Helvetica,sans-Serif" font-size="9.00">B_iso_or_equiv</text>
</a>
<a xlink:href="/dictionaries/ihm-extension-5.dic/Items/_ihm_starting_model_coord.Cartn_x.html" xlink:title="&lt;TABLE&gt;" target="_top">
<polygon fill="none" stroke="black" points="295.499,-717 295.499,-736 465.499,-736 465.499,-717 295.499,-717"/>
<text text-anchor="start" x="300.499" y="-724.4" font-family="Helvetica,sans-Serif" font-size="9.00">Cartn_x</text>
</a>
<a xlink:href="/dictionaries/ihm-extension-5.dic/Items/_ihm_starting_model_coord.Cartn_y.html" xlink:title="&lt;TABLE&gt;" target="_top">
<polygon fill="none" stroke="black" points="295.499,-698 295.499,-717 465.499,-717 465.499,-698 295.499,-698"/>
<text text-anchor="start" x="300.499" y="-705.4" font-family="Helvetica,sans-Serif" font-size="9.00">Cartn_y</text>
</a>
<a xlink:href="/dictionaries/ihm-extension-5.dic/Items/_ihm_starting_model_coord.Cartn_z.html" xlink:title="&lt;TABLE&gt;" target="_top">
<polygon fill="none" stroke="black" points="295.499,-679 295.499,-698 465.499,-698 465.499,-679 295.499,-679"/>
<text text-anchor="start" x="300.499" y="-686.4" font-family="Helvetica,sans-Serif" font-size="9.00">Cartn_z</text>
</a>
<a xlink:href="/dictionaries/ihm-extension-5.dic/Items/_ihm_starting_model_coord.asym_id.html" xlink:title="&lt;TABLE&gt;" target="_top">
<polygon fill="none" stroke="black" points="295.499,-660 295.499,-679 465.499,-679 465.499,-660 295.499,-660"/>
<text text-anchor="start" x="300.499" y="-667.4" font-family="Helvetica,sans-Serif" font-size="9.00">asym_id</text>
</a>
<a xlink:href="/dictionaries/ihm-extension-5.dic/Items/_ihm_starting_model_coord.atom_id.html" xlink:title="&lt;TABLE&gt;" target="_top">
<polygon fill="none" stroke="black" points="295.499,-641 295.499,-660 465.499,-660 465.499,-641 295.499,-641"/>
<text text-anchor="start" x="300.499" y="-648.4" font-family="Helvetica,sans-Serif" font-size="9.00">atom_id</text>
</a>
<a xlink:href="/dictionaries/ihm-extension-5.dic/Items/_ihm_starting_model_coord.comp_id.html" xlink:title="&lt;TABLE&gt;" target="_top">
<polygon fill="none" stroke="black" points="295.499,-622 295.499,-641 465.499,-641 465.499,-622 295.499,-622"/>
<text text-anchor="start" x="300.499" y="-629.4" font-family="Helvetica,sans-Serif" font-size="9.00">comp_id</text>
</a>
<a xlink:href="/dictionaries/ihm-extension-5.dic/Items/_ihm_starting_model_coord.entity_id.html" xlink:title="&lt;TABLE&gt;" target="_top">
<polygon fill="none" stroke="black" points="295.499,-603 295.499,-622 465.499,-622 465.499,-603 295.499,-603"/>
<text text-anchor="start" x="300.499" y="-610.4" font-family="Helvetica,sans-Serif" font-size="9.00">entity_id</text>
</a>
<a xlink:href="/dictionaries/ihm-extension-5.dic/Items/_ihm_starting_model_coord.formal_charge.html" xlink:title="&lt;TABLE&gt;" target="_top">
<polygon fill="none" stroke="black" points="295.499,-584 295.499,-603 465.499,-603 465.499,-584 295.499,-584"/>
<text text-anchor="start" x="300.499" y="-591.4" font-family="Helvetica,sans-Serif" font-size="9.00">formal_charge</text>
</a>
<a xlink:href="/dictionaries/ihm-extension-5.dic/Items/_ihm_starting_model_coord.id.html" xlink:title="&lt;TABLE&gt;" target="_top">
<polygon fill="none" stroke="black" points="295.499,-565 295.499,-584 465.499,-584 465.499,-565 295.499,-565"/>
<text text-anchor="start" x="300.499" y="-572.4" font-family="Helvetica,sans-Serif" font-size="9.00">id</text>
</a>
<a xlink:href="/dictionaries/ihm-extension-5.dic/Items/_ihm_starting_model_coord.seq_id.html" xlink:title="&lt;TABLE&gt;" target="_top">
<polygon fill="none" stroke="black" points="295.499,-546 295.499,-565 465.499,-565 465.499,-546 295.499,-546"/>
<text text-anchor="start" x="300.499" y="-553.4" font-family="Helvetica,sans-Serif" font-size="9.00">seq_id</text>
</a>
<a xlink:href="/dictionaries/ihm-extension-5.dic/Items/_ihm_starting_model_coord.type_symbol.html" xlink:title="&lt;TABLE&gt;" target="_top">
<polygon fill="none" stroke="black" points="295.499,-527 295.499,-546 465.499,-546 465.499,-527 295.499,-527"/>
<text text-anchor="start" x="300.499" y="-534.4" font-family="Helvetica,sans-Serif" font-size="9.00">type_symbol</text>
</a>
</g>
<!-- _ihm_starting_model_coord&#45;&gt;_ihm_starting_model_details -->
<g id="edge6" class="edge"><title>_ihm_starting_model_coord:__starting_model_id:w&#45;&gt;_ihm_starting_model_details:__starting_model_id:w</title>
<path fill="none" stroke="black" d="M293.499,-765C266.559,-765 293.963,-545.06 278.499,-523 255.134,-489.668 216.822,-520.539 194.499,-486.5 160.054,-433.976 131.356,-347.16 184.449,-337.821"/>
<polygon fill="black" stroke="black" points="184.818,-341.303 194.499,-337 184.247,-334.326 184.818,-341.303"/>
</g>
<!-- _ihm_starting_model_details&#45;&gt;_ihm_dataset_list -->
<g id="edge2" class="edge"><title>_ihm_starting_model_details:__dataset_list_id:w&#45;&gt;_ihm_dataset_list:__id:w</title>
<path fill="none" stroke="black" d="M192.499,-433C74.1671,-433 72.7043,-174.3 184.441,-159.647"/>
<polygon fill="black" stroke="black" points="184.745,-163.135 194.499,-159 184.295,-156.149 184.745,-163.135"/>
</g>
</g>
</svg>
