<?xml version="1.0" encoding="UTF-8" standalone="no"?>
<!DOCTYPE svg PUBLIC "-//W3C//DTD SVG 1.1//EN"
 "http://www.w3.org/Graphics/SVG/1.1/DTD/svg11.dtd">
<!-- Generated by graphviz version 2.26.0 (20091210.2329)
 -->
<!-- Title: ihm_starting_model_details Pages: 1 -->
<svg width="689pt" height="883pt"
 viewBox="0.00 0.00 689.42 883.00" xmlns="http://www.w3.org/2000/svg" xmlns:xlink="http://www.w3.org/1999/xlink">
<g id="graph1" class="graph" transform="scale(1 1) rotate(0) translate(4 879)">
<title>ihm_starting_model_details</title>
<polygon fill="white" stroke="white" points="-4,5 -4,-879 686.418,-879 686.418,5 -4,5"/>
<text text-anchor="start" x="337.709" y="-51.8" font-family="Helvetica,sans-Serif" font-size="18.00"> </text>
<text text-anchor="start" x="80.7088" y="-30.2" font-family="Helvetica,sans-Serif" font-size="18.00">Selected Relationships for Category &#160;</text>
<text text-anchor="start" x="375.709" y="-30.2" font-family="Helvetica,sans-Serif" font-size="18.00"> ihm_starting_model_details</text>
<text text-anchor="start" x="596.709" y="-29.8" font-family="Helvetica,sans-Serif" font-size="14.00"> </text>
<text text-anchor="start" x="256.209" y="-11.5333" font-family="Helvetica,sans-Serif" font-size="14.00"> &#160;in dictionary ihm&#45;extension</text>
<!-- _ihm_dataset_list -->
<g id="node1" class="node"><title>_ihm_dataset_list</title>
<a xlink:href="/dictionaries/ihm-extension-6.dic/Categories/ihm_dataset_list.html" xlink:title="&lt;TABLE&gt;" target="_top">
<polygon fill="#99c49b" stroke="#99c49b" points="257.418,-168 257.418,-189 365.418,-189 365.418,-168 257.418,-168"/>
<polygon fill="none" stroke="black" points="257.418,-168 257.418,-189 365.418,-189 365.418,-168 257.418,-168"/>
<text text-anchor="start" x="262.918" y="-176.167" font-family="Helvetica,sans-Serif" font-size="10.00">IHM_DATASET_LIST</text>
</a>
<a xlink:href="/dictionaries/ihm-extension-6.dic/Items/_ihm_dataset_list.ordinal_id.html" xlink:title="&lt;TABLE&gt;" target="_top">
<polygon fill="#ffff99" stroke="#ffff99" points="257.418,-149 257.418,-168 365.418,-168 365.418,-149 257.418,-149"/>
<polygon fill="none" stroke="black" points="257.418,-149 257.418,-168 365.418,-168 365.418,-149 257.418,-149"/>
<text text-anchor="start" x="262.418" y="-156.4" font-family="Helvetica,sans-Serif" font-size="9.00">ordinal_id</text>
</a>
<a xlink:href="/dictionaries/ihm-extension-6.dic/Items/_ihm_dataset_list.id.html" xlink:title="&lt;TABLE&gt;" target="_top">
<polygon fill="none" stroke="black" points="257.418,-130 257.418,-149 365.418,-149 365.418,-130 257.418,-130"/>
<text text-anchor="start" x="262.418" y="-137.4" font-family="Helvetica,sans-Serif" font-size="9.00">id</text>
</a>
<a xlink:href="/dictionaries/ihm-extension-6.dic/Items/_ihm_dataset_list.data_type.html" xlink:title="&lt;TABLE&gt;" target="_top">
<polygon fill="none" stroke="black" points="257.418,-111 257.418,-130 365.418,-130 365.418,-111 257.418,-111"/>
<text text-anchor="start" x="262.418" y="-118.4" font-family="Helvetica,sans-Serif" font-size="9.00">data_type</text>
</a>
<a xlink:href="/dictionaries/ihm-extension-6.dic/Items/_ihm_dataset_list.database_hosted.html" xlink:title="&lt;TABLE&gt;" target="_top">
<polygon fill="none" stroke="black" points="257.418,-92 257.418,-111 365.418,-111 365.418,-92 257.418,-92"/>
<text text-anchor="start" x="262.418" y="-99.4" font-family="Helvetica,sans-Serif" font-size="9.00">database_hosted</text>
</a>
<a xlink:href="/dictionaries/ihm-extension-6.dic/Items/_ihm_dataset_list.group_id.html" xlink:title="&lt;TABLE&gt;" target="_top">
<polygon fill="none" stroke="black" points="257.418,-73 257.418,-92 365.418,-92 365.418,-73 257.418,-73"/>
<text text-anchor="start" x="262.418" y="-80.4" font-family="Helvetica,sans-Serif" font-size="9.00">group_id</text>
</a>
</g>
<!-- _ihm_model_representation -->
<g id="node2" class="node"><title>_ihm_model_representation</title>
<a xlink:href="/dictionaries/ihm-extension-6.dic/Categories/ihm_model_representation.html" xlink:title="&lt;TABLE&gt;" target="_top">
<polygon fill="#99c49b" stroke="#99c49b" points="55.4175,-831 55.4175,-852 224.418,-852 224.418,-831 55.4175,-831"/>
<polygon fill="none" stroke="black" points="55.4175,-831 55.4175,-852 224.418,-852 224.418,-831 55.4175,-831"/>
<text text-anchor="start" x="60.9175" y="-839.167" font-family="Helvetica,sans-Serif" font-size="10.00">IHM_MODEL_REPRESENTATION</text>
</a>
<a xlink:href="/dictionaries/ihm-extension-6.dic/Items/_ihm_model_representation.ordinal_id.html" xlink:title="&lt;TABLE&gt;" target="_top">
<polygon fill="#ffff99" stroke="#ffff99" points="55.4175,-812 55.4175,-831 224.418,-831 224.418,-812 55.4175,-812"/>
<polygon fill="none" stroke="black" points="55.4175,-812 55.4175,-831 224.418,-831 224.418,-812 55.4175,-812"/>
<text text-anchor="start" x="60.4175" y="-819.4" font-family="Helvetica,sans-Serif" font-size="9.00">ordinal_id</text>
</a>
<a xlink:href="/dictionaries/ihm-extension-6.dic/Items/_ihm_model_representation.starting_model_id.html" xlink:title="&lt;TABLE&gt;" target="_top">
<polygon fill="none" stroke="black" points="55.4175,-793 55.4175,-812 224.418,-812 224.418,-793 55.4175,-793"/>
<text text-anchor="start" x="60.4175" y="-800.4" font-family="Helvetica,sans-Serif" font-size="9.00">starting_model_id</text>
</a>
<a xlink:href="/dictionaries/ihm-extension-6.dic/Items/_ihm_model_representation.entity_asym_id.html" xlink:title="&lt;TABLE&gt;" target="_top">
<polygon fill="none" stroke="black" points="55.4175,-774 55.4175,-793 224.418,-793 224.418,-774 55.4175,-774"/>
<text text-anchor="start" x="60.4175" y="-781.4" font-family="Helvetica,sans-Serif" font-size="9.00">entity_asym_id</text>
</a>
<a xlink:href="/dictionaries/ihm-extension-6.dic/Items/_ihm_model_representation.entity_description.html" xlink:title="&lt;TABLE&gt;" target="_top">
<polygon fill="none" stroke="black" points="55.4175,-755 55.4175,-774 224.418,-774 224.418,-755 55.4175,-755"/>
<text text-anchor="start" x="60.4175" y="-762.4" font-family="Helvetica,sans-Serif" font-size="9.00">entity_description</text>
</a>
<a xlink:href="/dictionaries/ihm-extension-6.dic/Items/_ihm_model_representation.entity_id.html" xlink:title="&lt;TABLE&gt;" target="_top">
<polygon fill="none" stroke="black" points="55.4175,-736 55.4175,-755 224.418,-755 224.418,-736 55.4175,-736"/>
<text text-anchor="start" x="60.4175" y="-743.4" font-family="Helvetica,sans-Serif" font-size="9.00">entity_id</text>
</a>
<a xlink:href="/dictionaries/ihm-extension-6.dic/Items/_ihm_model_representation.model_granularity.html" xlink:title="&lt;TABLE&gt;" target="_top">
<polygon fill="none" stroke="black" points="55.4175,-717 55.4175,-736 224.418,-736 224.418,-717 55.4175,-717"/>
<text text-anchor="start" x="60.4175" y="-724.4" font-family="Helvetica,sans-Serif" font-size="9.00">model_granularity</text>
</a>
<a xlink:href="/dictionaries/ihm-extension-6.dic/Items/_ihm_model_representation.model_mode.html" xlink:title="&lt;TABLE&gt;" target="_top">
<polygon fill="none" stroke="black" points="55.4175,-698 55.4175,-717 224.418,-717 224.418,-698 55.4175,-698"/>
<text text-anchor="start" x="60.4175" y="-705.4" font-family="Helvetica,sans-Serif" font-size="9.00">model_mode</text>
</a>
<a xlink:href="/dictionaries/ihm-extension-6.dic/Items/_ihm_model_representation.model_object_count.html" xlink:title="&lt;TABLE&gt;" target="_top">
<polygon fill="none" stroke="black" points="55.4175,-679 55.4175,-698 224.418,-698 224.418,-679 55.4175,-679"/>
<text text-anchor="start" x="60.4175" y="-686.4" font-family="Helvetica,sans-Serif" font-size="9.00">model_object_count</text>
</a>
<a xlink:href="/dictionaries/ihm-extension-6.dic/Items/_ihm_model_representation.model_object_primitive.html" xlink:title="&lt;TABLE&gt;" target="_top">
<polygon fill="none" stroke="black" points="55.4175,-660 55.4175,-679 224.418,-679 224.418,-660 55.4175,-660"/>
<text text-anchor="start" x="60.4175" y="-667.4" font-family="Helvetica,sans-Serif" font-size="9.00">model_object_primitive</text>
</a>
<a xlink:href="/dictionaries/ihm-extension-6.dic/Items/_ihm_model_representation.representation_id.html" xlink:title="&lt;TABLE&gt;" target="_top">
<polygon fill="none" stroke="black" points="55.4175,-641 55.4175,-660 224.418,-660 224.418,-641 55.4175,-641"/>
<text text-anchor="start" x="60.4175" y="-648.4" font-family="Helvetica,sans-Serif" font-size="9.00">representation_id</text>
</a>
<a xlink:href="/dictionaries/ihm-extension-6.dic/Items/_ihm_model_representation.segment_id.html" xlink:title="&lt;TABLE&gt;" target="_top">
<polygon fill="none" stroke="black" points="55.4175,-622 55.4175,-641 224.418,-641 224.418,-622 55.4175,-622"/>
<text text-anchor="start" x="60.4175" y="-629.4" font-family="Helvetica,sans-Serif" font-size="9.00">segment_id</text>
</a>
<a xlink:href="/dictionaries/ihm-extension-6.dic/Items/_ihm_model_representation.seq_id_begin.html" xlink:title="&lt;TABLE&gt;" target="_top">
<polygon fill="none" stroke="black" points="55.4175,-603 55.4175,-622 224.418,-622 224.418,-603 55.4175,-603"/>
<text text-anchor="start" x="60.4175" y="-610.4" font-family="Helvetica,sans-Serif" font-size="9.00">seq_id_begin</text>
</a>
<a xlink:href="/dictionaries/ihm-extension-6.dic/Items/_ihm_model_representation.seq_id_end.html" xlink:title="&lt;TABLE&gt;" target="_top">
<polygon fill="none" stroke="black" points="55.4175,-584 55.4175,-603 224.418,-603 224.418,-584 55.4175,-584"/>
<text text-anchor="start" x="60.4175" y="-591.4" font-family="Helvetica,sans-Serif" font-size="9.00">seq_id_end</text>
</a>
</g>
<!-- _ihm_starting_model_details -->
<g id="node5" class="node"><title>_ihm_starting_model_details</title>
<a xlink:href="/dictionaries/ihm-extension-6.dic/Categories/ihm_starting_model_details.html" xlink:title="&lt;TABLE&gt;" target="_top">
<polygon fill="#f0027f" stroke="#f0027f" points="257.418,-499 257.418,-520 431.418,-520 431.418,-499 257.418,-499"/>
<polygon fill="none" stroke="black" points="257.418,-499 257.418,-520 431.418,-520 431.418,-499 257.418,-499"/>
<text text-anchor="start" x="262.918" y="-507.167" font-family="Helvetica,sans-Serif" font-size="10.00">IHM_STARTING_MODEL_DETAILS</text>
</a>
<a xlink:href="/dictionaries/ihm-extension-6.dic/Items/_ihm_starting_model_details.ordinal_id.html" xlink:title="&lt;TABLE&gt;" target="_top">
<polygon fill="#ffff99" stroke="#ffff99" points="257.418,-480 257.418,-499 431.418,-499 431.418,-480 257.418,-480"/>
<polygon fill="none" stroke="black" points="257.418,-480 257.418,-499 431.418,-499 431.418,-480 257.418,-480"/>
<text text-anchor="start" x="262.418" y="-487.4" font-family="Helvetica,sans-Serif" font-size="9.00">ordinal_id</text>
</a>
<a xlink:href="/dictionaries/ihm-extension-6.dic/Items/_ihm_starting_model_details.asym_id.html" xlink:title="&lt;TABLE&gt;" target="_top">
<polygon fill="none" stroke="black" points="257.418,-461 257.418,-480 431.418,-480 431.418,-461 257.418,-461"/>
<text text-anchor="start" x="262.418" y="-468.4" font-family="Helvetica,sans-Serif" font-size="9.00">asym_id</text>
</a>
<a xlink:href="/dictionaries/ihm-extension-6.dic/Items/_ihm_starting_model_details.dataset_list_id.html" xlink:title="&lt;TABLE&gt;" target="_top">
<polygon fill="none" stroke="black" points="257.418,-442 257.418,-461 431.418,-461 431.418,-442 257.418,-442"/>
<text text-anchor="start" x="262.418" y="-449.4" font-family="Helvetica,sans-Serif" font-size="9.00">dataset_list_id</text>
</a>
<a xlink:href="/dictionaries/ihm-extension-6.dic/Items/_ihm_starting_model_details.entity_id.html" xlink:title="&lt;TABLE&gt;" target="_top">
<polygon fill="none" stroke="black" points="257.418,-423 257.418,-442 431.418,-442 431.418,-423 257.418,-423"/>
<text text-anchor="start" x="262.418" y="-430.4" font-family="Helvetica,sans-Serif" font-size="9.00">entity_id</text>
</a>
<a xlink:href="/dictionaries/ihm-extension-6.dic/Items/_ihm_starting_model_details.seq_id_begin.html" xlink:title="&lt;TABLE&gt;" target="_top">
<polygon fill="none" stroke="black" points="257.418,-404 257.418,-423 431.418,-423 431.418,-404 257.418,-404"/>
<text text-anchor="start" x="262.418" y="-411.4" font-family="Helvetica,sans-Serif" font-size="9.00">seq_id_begin</text>
</a>
<a xlink:href="/dictionaries/ihm-extension-6.dic/Items/_ihm_starting_model_details.seq_id_end.html" xlink:title="&lt;TABLE&gt;" target="_top">
<polygon fill="none" stroke="black" points="257.418,-385 257.418,-404 431.418,-404 431.418,-385 257.418,-385"/>
<text text-anchor="start" x="262.418" y="-392.4" font-family="Helvetica,sans-Serif" font-size="9.00">seq_id_end</text>
</a>
<a xlink:href="/dictionaries/ihm-extension-6.dic/Items/_ihm_starting_model_details.starting_model_id.html" xlink:title="&lt;TABLE&gt;" target="_top">
<polygon fill="none" stroke="black" points="257.418,-366 257.418,-385 431.418,-385 431.418,-366 257.418,-366"/>
<text text-anchor="start" x="262.418" y="-373.4" font-family="Helvetica,sans-Serif" font-size="9.00">starting_model_id</text>
</a>
<a xlink:href="/dictionaries/ihm-extension-6.dic/Items/_ihm_starting_model_details.entity_description.html" xlink:title="&lt;TABLE&gt;" target="_top">
<polygon fill="none" stroke="black" points="257.418,-347 257.418,-366 431.418,-366 431.418,-347 257.418,-347"/>
<text text-anchor="start" x="262.418" y="-354.4" font-family="Helvetica,sans-Serif" font-size="9.00">entity_description</text>
</a>
<a xlink:href="/dictionaries/ihm-extension-6.dic/Items/_ihm_starting_model_details.notes.html" xlink:title="&lt;TABLE&gt;" target="_top">
<polygon fill="none" stroke="black" points="257.418,-328 257.418,-347 431.418,-347 431.418,-328 257.418,-328"/>
<text text-anchor="start" x="262.418" y="-335.4" font-family="Helvetica,sans-Serif" font-size="9.00">notes</text>
</a>
<a xlink:href="/dictionaries/ihm-extension-6.dic/Items/_ihm_starting_model_details.starting_model_auth_asym_id.html" xlink:title="&lt;TABLE&gt;" target="_top">
<polygon fill="none" stroke="black" points="257.418,-309 257.418,-328 431.418,-328 431.418,-309 257.418,-309"/>
<text text-anchor="start" x="262.418" y="-316.4" font-family="Helvetica,sans-Serif" font-size="9.00">starting_model_auth_asym_id</text>
</a>
<a xlink:href="/dictionaries/ihm-extension-6.dic/Items/_ihm_starting_model_details.starting_model_db_code.html" xlink:title="&lt;TABLE&gt;" target="_top">
<polygon fill="none" stroke="black" points="257.418,-290 257.418,-309 431.418,-309 431.418,-290 257.418,-290"/>
<text text-anchor="start" x="262.418" y="-297.4" font-family="Helvetica,sans-Serif" font-size="9.00">starting_model_db_code</text>
</a>
<a xlink:href="/dictionaries/ihm-extension-6.dic/Items/_ihm_starting_model_details.starting_model_db_name.html" xlink:title="&lt;TABLE&gt;" target="_top">
<polygon fill="none" stroke="black" points="257.418,-271 257.418,-290 431.418,-290 431.418,-271 257.418,-271"/>
<text text-anchor="start" x="262.418" y="-278.4" font-family="Helvetica,sans-Serif" font-size="9.00">starting_model_db_name</text>
</a>
<a xlink:href="/dictionaries/ihm-extension-6.dic/Items/_ihm_starting_model_details.starting_model_sequence_offset.html" xlink:title="&lt;TABLE&gt;" target="_top">
<polygon fill="none" stroke="black" points="257.418,-252 257.418,-271 431.418,-271 431.418,-252 257.418,-252"/>
<text text-anchor="start" x="262.418" y="-259.4" font-family="Helvetica,sans-Serif" font-size="9.00">starting_model_sequence_offset</text>
</a>
<a xlink:href="/dictionaries/ihm-extension-6.dic/Items/_ihm_starting_model_details.starting_model_source.html" xlink:title="&lt;TABLE&gt;" target="_top">
<polygon fill="none" stroke="black" points="257.418,-233 257.418,-252 431.418,-252 431.418,-233 257.418,-233"/>
<text text-anchor="start" x="262.418" y="-240.4" font-family="Helvetica,sans-Serif" font-size="9.00">starting_model_source</text>
</a>
</g>
<!-- _ihm_model_representation&#45;&gt;_ihm_starting_model_details -->
<g id="edge4" class="edge"><title>_ihm_model_representation:__starting_model_id:w&#45;&gt;_ihm_starting_model_details:__starting_model_id:w</title>
<path fill="none" stroke="black" d="M53.4175,-803C-45.6976,-803 17.4147,-671.54 55.4175,-580 103.12,-465.095 128.119,-379.774 247.153,-375.194"/>
<polygon fill="black" stroke="black" points="247.485,-378.688 257.418,-375 247.353,-371.689 247.485,-378.688"/>
</g>
<!-- _ihm_starting_comparative_models -->
<g id="node3" class="node"><title>_ihm_starting_comparative_models</title>
<a xlink:href="/dictionaries/ihm-extension-6.dic/Categories/ihm_starting_comparative_models.html" xlink:title="&lt;TABLE&gt;" target="_top">
<polygon fill="#99c49b" stroke="#99c49b" points="257.418,-802 257.418,-823 470.418,-823 470.418,-802 257.418,-802"/>
<polygon fill="none" stroke="black" points="257.418,-802 257.418,-823 470.418,-823 470.418,-802 257.418,-802"/>
<text text-anchor="start" x="262.918" y="-810.167" font-family="Helvetica,sans-Serif" font-size="10.00">IHM_STARTING_COMPARATIVE_MODELS</text>
</a>
<a xlink:href="/dictionaries/ihm-extension-6.dic/Items/_ihm_starting_comparative_models.starting_model_ordinal_id.html" xlink:title="&lt;TABLE&gt;" target="_top">
<polygon fill="#ffff99" stroke="#ffff99" points="257.418,-783 257.418,-802 470.418,-802 470.418,-783 257.418,-783"/>
<polygon fill="none" stroke="black" points="257.418,-783 257.418,-802 470.418,-802 470.418,-783 257.418,-783"/>
<text text-anchor="start" x="262.418" y="-790.4" font-family="Helvetica,sans-Serif" font-size="9.00">starting_model_ordinal_id</text>
</a>
<a xlink:href="/dictionaries/ihm-extension-6.dic/Items/_ihm_starting_comparative_models.starting_model_id.html" xlink:title="&lt;TABLE&gt;" target="_top">
<polygon fill="none" stroke="black" points="257.418,-764 257.418,-783 470.418,-783 470.418,-764 257.418,-764"/>
<text text-anchor="start" x="262.418" y="-771.4" font-family="Helvetica,sans-Serif" font-size="9.00">starting_model_id</text>
</a>
<a xlink:href="/dictionaries/ihm-extension-6.dic/Items/_ihm_starting_comparative_models.alignment_file_id.html" xlink:title="&lt;TABLE&gt;" target="_top">
<polygon fill="none" stroke="black" points="257.418,-745 257.418,-764 470.418,-764 470.418,-745 257.418,-745"/>
<text text-anchor="start" x="262.418" y="-752.4" font-family="Helvetica,sans-Serif" font-size="9.00">alignment_file_id</text>
</a>
<a xlink:href="/dictionaries/ihm-extension-6.dic/Items/_ihm_starting_comparative_models.template_auth_asym_id.html" xlink:title="&lt;TABLE&gt;" target="_top">
<polygon fill="none" stroke="black" points="257.418,-726 257.418,-745 470.418,-745 470.418,-726 257.418,-726"/>
<text text-anchor="start" x="262.418" y="-733.4" font-family="Helvetica,sans-Serif" font-size="9.00">template_auth_asym_id</text>
</a>
<a xlink:href="/dictionaries/ihm-extension-6.dic/Items/_ihm_starting_comparative_models.template_db_code.html" xlink:title="&lt;TABLE&gt;" target="_top">
<polygon fill="none" stroke="black" points="257.418,-707 257.418,-726 470.418,-726 470.418,-707 257.418,-707"/>
<text text-anchor="start" x="262.418" y="-714.4" font-family="Helvetica,sans-Serif" font-size="9.00">template_db_code</text>
</a>
<a xlink:href="/dictionaries/ihm-extension-6.dic/Items/_ihm_starting_comparative_models.template_db_name.html" xlink:title="&lt;TABLE&gt;" target="_top">
<polygon fill="none" stroke="black" points="257.418,-688 257.418,-707 470.418,-707 470.418,-688 257.418,-688"/>
<text text-anchor="start" x="262.418" y="-695.4" font-family="Helvetica,sans-Serif" font-size="9.00">template_db_name</text>
</a>
<a xlink:href="/dictionaries/ihm-extension-6.dic/Items/_ihm_starting_comparative_models.template_seq_begin.html" xlink:title="&lt;TABLE&gt;" target="_top">
<polygon fill="none" stroke="black" points="257.418,-669 257.418,-688 470.418,-688 470.418,-669 257.418,-669"/>
<text text-anchor="start" x="262.418" y="-676.4" font-family="Helvetica,sans-Serif" font-size="9.00">template_seq_begin</text>
</a>
<a xlink:href="/dictionaries/ihm-extension-6.dic/Items/_ihm_starting_comparative_models.template_seq_end.html" xlink:title="&lt;TABLE&gt;" target="_top">
<polygon fill="none" stroke="black" points="257.418,-650 257.418,-669 470.418,-669 470.418,-650 257.418,-650"/>
<text text-anchor="start" x="262.418" y="-657.4" font-family="Helvetica,sans-Serif" font-size="9.00">template_seq_end</text>
</a>
<a xlink:href="/dictionaries/ihm-extension-6.dic/Items/_ihm_starting_comparative_models.template_sequence_identity.html" xlink:title="&lt;TABLE&gt;" target="_top">
<polygon fill="none" stroke="black" points="257.418,-631 257.418,-650 470.418,-650 470.418,-631 257.418,-631"/>
<text text-anchor="start" x="262.418" y="-638.4" font-family="Helvetica,sans-Serif" font-size="9.00">template_sequence_identity</text>
</a>
<a xlink:href="/dictionaries/ihm-extension-6.dic/Items/_ihm_starting_comparative_models.template_sequence_identity_denominator.html" xlink:title="&lt;TABLE&gt;" target="_top">
<polygon fill="none" stroke="black" points="257.418,-612 257.418,-631 470.418,-631 470.418,-612 257.418,-612"/>
<text text-anchor="start" x="262.418" y="-619.4" font-family="Helvetica,sans-Serif" font-size="9.00">template_sequence_identity_denominator</text>
</a>
</g>
<!-- _ihm_starting_comparative_models&#45;&gt;_ihm_starting_model_details -->
<g id="edge6" class="edge"><title>_ihm_starting_comparative_models:__starting_model_id:w&#45;&gt;_ihm_starting_model_details:__starting_model_id:w</title>
<path fill="none" stroke="black" d="M255.418,-774C245.373,-774 246.074,-446.306 254.543,-384.863"/>
<polygon fill="black" stroke="black" points="257.98,-385.58 257.418,-375 251.259,-383.621 257.98,-385.58"/>
</g>
<!-- _ihm_starting_comparative_models&#45;&gt;_ihm_starting_model_details -->
<g id="edge8" class="edge"><title>_ihm_starting_comparative_models:__starting_model_ordinal_id:w&#45;&gt;_ihm_starting_model_details:__ordinal_id:w</title>
<path fill="none" stroke="black" d="M255.418,-793C240.326,-793 240.372,-549.484 252.671,-499.068"/>
<polygon fill="black" stroke="black" points="255.881,-500.483 257.418,-490 249.679,-497.237 255.881,-500.483"/>
</g>
<!-- _ihm_starting_model_coord -->
<g id="node4" class="node"><title>_ihm_starting_model_coord</title>
<a xlink:href="/dictionaries/ihm-extension-6.dic/Categories/ihm_starting_model_coord.html" xlink:title="&lt;TABLE&gt;" target="_top">
<polygon fill="#99c49b" stroke="#99c49b" points="503.418,-850 503.418,-871 673.418,-871 673.418,-850 503.418,-850"/>
<polygon fill="none" stroke="black" points="503.418,-850 503.418,-871 673.418,-871 673.418,-850 503.418,-850"/>
<text text-anchor="start" x="508.918" y="-858.167" font-family="Helvetica,sans-Serif" font-size="10.00">IHM_STARTING_MODEL_COORD</text>
</a>
<a xlink:href="/dictionaries/ihm-extension-6.dic/Items/_ihm_starting_model_coord.ordinal_id.html" xlink:title="&lt;TABLE&gt;" target="_top">
<polygon fill="#ffff99" stroke="#ffff99" points="503.418,-831 503.418,-850 673.418,-850 673.418,-831 503.418,-831"/>
<polygon fill="none" stroke="black" points="503.418,-831 503.418,-850 673.418,-850 673.418,-831 503.418,-831"/>
<text text-anchor="start" x="508.418" y="-838.4" font-family="Helvetica,sans-Serif" font-size="9.00">ordinal_id</text>
</a>
<a xlink:href="/dictionaries/ihm-extension-6.dic/Items/_ihm_starting_model_coord.starting_model_id.html" xlink:title="&lt;TABLE&gt;" target="_top">
<polygon fill="none" stroke="black" points="503.418,-812 503.418,-831 673.418,-831 673.418,-812 503.418,-812"/>
<text text-anchor="start" x="508.418" y="-819.4" font-family="Helvetica,sans-Serif" font-size="9.00">starting_model_id</text>
</a>
<a xlink:href="/dictionaries/ihm-extension-6.dic/Items/_ihm_starting_model_coord.B_iso_or_equiv.html" xlink:title="&lt;TABLE&gt;" target="_top">
<polygon fill="none" stroke="black" points="503.418,-793 503.418,-812 673.418,-812 673.418,-793 503.418,-793"/>
<text text-anchor="start" x="508.418" y="-800.4" font-family="Helvetica,sans-Serif" font-size="9.00">B_iso_or_equiv</text>
</a>
<a xlink:href="/dictionaries/ihm-extension-6.dic/Items/_ihm_starting_model_coord.Cartn_x.html" xlink:title="&lt;TABLE&gt;" target="_top">
<polygon fill="none" stroke="black" points="503.418,-774 503.418,-793 673.418,-793 673.418,-774 503.418,-774"/>
<text text-anchor="start" x="508.418" y="-781.4" font-family="Helvetica,sans-Serif" font-size="9.00">Cartn_x</text>
</a>
<a xlink:href="/dictionaries/ihm-extension-6.dic/Items/_ihm_starting_model_coord.Cartn_y.html" xlink:title="&lt;TABLE&gt;" target="_top">
<polygon fill="none" stroke="black" points="503.418,-755 503.418,-774 673.418,-774 673.418,-755 503.418,-755"/>
<text text-anchor="start" x="508.418" y="-762.4" font-family="Helvetica,sans-Serif" font-size="9.00">Cartn_y</text>
</a>
<a xlink:href="/dictionaries/ihm-extension-6.dic/Items/_ihm_starting_model_coord.Cartn_z.html" xlink:title="&lt;TABLE&gt;" target="_top">
<polygon fill="none" stroke="black" points="503.418,-736 503.418,-755 673.418,-755 673.418,-736 503.418,-736"/>
<text text-anchor="start" x="508.418" y="-743.4" font-family="Helvetica,sans-Serif" font-size="9.00">Cartn_z</text>
</a>
<a xlink:href="/dictionaries/ihm-extension-6.dic/Items/_ihm_starting_model_coord.asym_id.html" xlink:title="&lt;TABLE&gt;" target="_top">
<polygon fill="none" stroke="black" points="503.418,-717 503.418,-736 673.418,-736 673.418,-717 503.418,-717"/>
<text text-anchor="start" x="508.418" y="-724.4" font-family="Helvetica,sans-Serif" font-size="9.00">asym_id</text>
</a>
<a xlink:href="/dictionaries/ihm-extension-6.dic/Items/_ihm_starting_model_coord.atom_id.html" xlink:title="&lt;TABLE&gt;" target="_top">
<polygon fill="none" stroke="black" points="503.418,-698 503.418,-717 673.418,-717 673.418,-698 503.418,-698"/>
<text text-anchor="start" x="508.418" y="-705.4" font-family="Helvetica,sans-Serif" font-size="9.00">atom_id</text>
</a>
<a xlink:href="/dictionaries/ihm-extension-6.dic/Items/_ihm_starting_model_coord.comp_id.html" xlink:title="&lt;TABLE&gt;" target="_top">
<polygon fill="none" stroke="black" points="503.418,-679 503.418,-698 673.418,-698 673.418,-679 503.418,-679"/>
<text text-anchor="start" x="508.418" y="-686.4" font-family="Helvetica,sans-Serif" font-size="9.00">comp_id</text>
</a>
<a xlink:href="/dictionaries/ihm-extension-6.dic/Items/_ihm_starting_model_coord.entity_id.html" xlink:title="&lt;TABLE&gt;" target="_top">
<polygon fill="none" stroke="black" points="503.418,-660 503.418,-679 673.418,-679 673.418,-660 503.418,-660"/>
<text text-anchor="start" x="508.418" y="-667.4" font-family="Helvetica,sans-Serif" font-size="9.00">entity_id</text>
</a>
<a xlink:href="/dictionaries/ihm-extension-6.dic/Items/_ihm_starting_model_coord.formal_charge.html" xlink:title="&lt;TABLE&gt;" target="_top">
<polygon fill="none" stroke="black" points="503.418,-641 503.418,-660 673.418,-660 673.418,-641 503.418,-641"/>
<text text-anchor="start" x="508.418" y="-648.4" font-family="Helvetica,sans-Serif" font-size="9.00">formal_charge</text>
</a>
<a xlink:href="/dictionaries/ihm-extension-6.dic/Items/_ihm_starting_model_coord.group_PDB.html" xlink:title="&lt;TABLE&gt;" target="_top">
<polygon fill="none" stroke="black" points="503.418,-622 503.418,-641 673.418,-641 673.418,-622 503.418,-622"/>
<text text-anchor="start" x="508.418" y="-629.4" font-family="Helvetica,sans-Serif" font-size="9.00">group_PDB</text>
</a>
<a xlink:href="/dictionaries/ihm-extension-6.dic/Items/_ihm_starting_model_coord.id.html" xlink:title="&lt;TABLE&gt;" target="_top">
<polygon fill="none" stroke="black" points="503.418,-603 503.418,-622 673.418,-622 673.418,-603 503.418,-603"/>
<text text-anchor="start" x="508.418" y="-610.4" font-family="Helvetica,sans-Serif" font-size="9.00">id</text>
</a>
<a xlink:href="/dictionaries/ihm-extension-6.dic/Items/_ihm_starting_model_coord.seq_id.html" xlink:title="&lt;TABLE&gt;" target="_top">
<polygon fill="none" stroke="black" points="503.418,-584 503.418,-603 673.418,-603 673.418,-584 503.418,-584"/>
<text text-anchor="start" x="508.418" y="-591.4" font-family="Helvetica,sans-Serif" font-size="9.00">seq_id</text>
</a>
<a xlink:href="/dictionaries/ihm-extension-6.dic/Items/_ihm_starting_model_coord.type_symbol.html" xlink:title="&lt;TABLE&gt;" target="_top">
<polygon fill="none" stroke="black" points="503.418,-565 503.418,-584 673.418,-584 673.418,-565 503.418,-565"/>
<text text-anchor="start" x="508.418" y="-572.4" font-family="Helvetica,sans-Serif" font-size="9.00">type_symbol</text>
</a>
</g>
<!-- _ihm_starting_model_coord&#45;&gt;_ihm_starting_model_details -->
<g id="edge10" class="edge"><title>_ihm_starting_model_coord:__starting_model_id:w&#45;&gt;_ihm_starting_model_details:__starting_model_id:w</title>
<path fill="none" stroke="black" d="M501.418,-822C472.37,-822 505.898,-582.547 486.418,-561 417.3,-484.55 324.313,-602.902 257.418,-524.5 216.649,-476.718 193.583,-385.678 247.31,-375.864"/>
<polygon fill="black" stroke="black" points="247.752,-379.339 257.418,-375 247.156,-372.364 247.752,-379.339"/>
</g>
<!-- _ihm_starting_model_details&#45;&gt;_ihm_dataset_list -->
<g id="edge2" class="edge"><title>_ihm_starting_model_details:__dataset_list_id:w&#45;&gt;_ihm_dataset_list:__id:w</title>
<path fill="none" stroke="black" d="M255.418,-452C120.269,-452 118.737,-155.643 247.119,-140.593"/>
<polygon fill="black" stroke="black" points="247.635,-144.069 257.418,-140 247.233,-137.081 247.635,-144.069"/>
</g>
</g>
</svg>
