<?xml version="1.0" encoding="UTF-8" standalone="no"?>
<!DOCTYPE svg PUBLIC "-//W3C//DTD SVG 1.1//EN"
 "http://www.w3.org/Graphics/SVG/1.1/DTD/svg11.dtd">
<!-- Generated by graphviz version 2.26.0 (20091210.2329)
 -->
<!-- Title: ihm_model_list Pages: 1 -->
<svg width="465pt" height="1261pt"
 viewBox="0.00 0.00 464.57 1261.00" xmlns="http://www.w3.org/2000/svg" xmlns:xlink="http://www.w3.org/1999/xlink">
<g id="graph1" class="graph" transform="scale(1 1) rotate(0) translate(4 1257)">
<title>ihm_model_list</title>
<polygon fill="white" stroke="white" points="-4,5 -4,-1257 461.567,-1257 461.567,5 -4,5"/>
<text text-anchor="start" x="225.284" y="-51.8" font-family="Helvetica,sans-Serif" font-size="18.00"> </text>
<text text-anchor="start" x="22.7837" y="-30.2" font-family="Helvetica,sans-Serif" font-size="18.00">Selected Relationships for Category </text>
<text text-anchor="start" x="311.784" y="-30.2" font-family="Helvetica,sans-Serif" font-size="18.00">ihm_model_list</text>
<text text-anchor="start" x="429.784" y="-29.8" font-family="Helvetica,sans-Serif" font-size="14.00"> </text>
<text text-anchor="start" x="143.784" y="-11.5333" font-family="Helvetica,sans-Serif" font-size="14.00"> &#160;in dictionary ihm&#45;extension</text>
<!-- _ihm_dataset_list -->
<g id="node1" class="node"><title>_ihm_dataset_list</title>
<a xlink:href="/dictionaries/ihm-extension-5.dic/Categories/ihm_dataset_list.html" xlink:title="&lt;TABLE&gt;" target="_top">
<polygon fill="#99c49b" stroke="#99c49b" points="266.567,-187 266.567,-208 374.567,-208 374.567,-187 266.567,-187"/>
<polygon fill="none" stroke="black" points="266.567,-187 266.567,-208 374.567,-208 374.567,-187 266.567,-187"/>
<text text-anchor="start" x="272.067" y="-195.167" font-family="Helvetica,sans-Serif" font-size="10.00">IHM_DATASET_LIST</text>
</a>
<a xlink:href="/dictionaries/ihm-extension-5.dic/Items/_ihm_dataset_list.id.html" xlink:title="&lt;TABLE&gt;" target="_top">
<polygon fill="#ffff99" stroke="#ffff99" points="266.567,-168 266.567,-187 374.567,-187 374.567,-168 266.567,-168"/>
<polygon fill="none" stroke="black" points="266.567,-168 266.567,-187 374.567,-187 374.567,-168 266.567,-168"/>
<text text-anchor="start" x="271.567" y="-175.4" font-family="Helvetica,sans-Serif" font-size="9.00">id</text>
</a>
<a xlink:href="/dictionaries/ihm-extension-5.dic/Items/_ihm_dataset_list.category_info.html" xlink:title="&lt;TABLE&gt;" target="_top">
<polygon fill="none" stroke="black" points="266.567,-149 266.567,-168 374.567,-168 374.567,-149 266.567,-149"/>
<text text-anchor="start" x="271.567" y="-156.4" font-family="Helvetica,sans-Serif" font-size="9.00">category_info</text>
</a>
<a xlink:href="/dictionaries/ihm-extension-5.dic/Items/_ihm_dataset_list.data_type.html" xlink:title="&lt;TABLE&gt;" target="_top">
<polygon fill="none" stroke="black" points="266.567,-130 266.567,-149 374.567,-149 374.567,-130 266.567,-130"/>
<text text-anchor="start" x="271.567" y="-137.4" font-family="Helvetica,sans-Serif" font-size="9.00">data_type</text>
</a>
<a xlink:href="/dictionaries/ihm-extension-5.dic/Items/_ihm_dataset_list.database_hosted.html" xlink:title="&lt;TABLE&gt;" target="_top">
<polygon fill="none" stroke="black" points="266.567,-111 266.567,-130 374.567,-130 374.567,-111 266.567,-111"/>
<text text-anchor="start" x="271.567" y="-118.4" font-family="Helvetica,sans-Serif" font-size="9.00">database_hosted</text>
</a>
<a xlink:href="/dictionaries/ihm-extension-5.dic/Items/_ihm_dataset_list.group_id.html" xlink:title="&lt;TABLE&gt;" target="_top">
<polygon fill="none" stroke="black" points="266.567,-92 266.567,-111 374.567,-111 374.567,-92 266.567,-92"/>
<text text-anchor="start" x="271.567" y="-99.4" font-family="Helvetica,sans-Serif" font-size="9.00">group_id</text>
</a>
</g>
<!-- _ihm_ensemble_info -->
<g id="node2" class="node"><title>_ihm_ensemble_info</title>
<a xlink:href="/dictionaries/ihm-extension-5.dic/Categories/ihm_ensemble_info.html" xlink:title="&lt;TABLE&gt;" target="_top">
<polygon fill="#99c49b" stroke="#99c49b" points="292.567,-992 292.567,-1013 448.567,-1013 448.567,-992 292.567,-992"/>
<polygon fill="none" stroke="black" points="292.567,-992 292.567,-1013 448.567,-1013 448.567,-992 292.567,-992"/>
<text text-anchor="start" x="316.067" y="-1000.17" font-family="Helvetica,sans-Serif" font-size="10.00">IHM_ENSEMBLE_INFO</text>
</a>
<a xlink:href="/dictionaries/ihm-extension-5.dic/Items/_ihm_ensemble_info.ensemble_id.html" xlink:title="&lt;TABLE&gt;" target="_top">
<polygon fill="#ffff99" stroke="#ffff99" points="292.567,-973 292.567,-992 448.567,-992 448.567,-973 292.567,-973"/>
<polygon fill="none" stroke="black" points="292.567,-973 292.567,-992 448.567,-992 448.567,-973 292.567,-973"/>
<text text-anchor="start" x="297.567" y="-980.4" font-family="Helvetica,sans-Serif" font-size="9.00">ensemble_id</text>
</a>
<a xlink:href="/dictionaries/ihm-extension-5.dic/Items/_ihm_ensemble_info.model_group_id.html" xlink:title="&lt;TABLE&gt;" target="_top">
<polygon fill="none" stroke="black" points="292.567,-954 292.567,-973 448.567,-973 448.567,-954 292.567,-954"/>
<text text-anchor="start" x="297.567" y="-961.4" font-family="Helvetica,sans-Serif" font-size="9.00">model_group_id</text>
</a>
<a xlink:href="/dictionaries/ihm-extension-5.dic/Items/_ihm_ensemble_info.ensemble_clustering_feature.html" xlink:title="&lt;TABLE&gt;" target="_top">
<polygon fill="none" stroke="black" points="292.567,-935 292.567,-954 448.567,-954 448.567,-935 292.567,-935"/>
<text text-anchor="start" x="297.567" y="-942.4" font-family="Helvetica,sans-Serif" font-size="9.00">ensemble_clustering_feature</text>
</a>
<a xlink:href="/dictionaries/ihm-extension-5.dic/Items/_ihm_ensemble_info.ensemble_clustering_method.html" xlink:title="&lt;TABLE&gt;" target="_top">
<polygon fill="none" stroke="black" points="292.567,-916 292.567,-935 448.567,-935 448.567,-916 292.567,-916"/>
<text text-anchor="start" x="297.567" y="-923.4" font-family="Helvetica,sans-Serif" font-size="9.00">ensemble_clustering_method</text>
</a>
<a xlink:href="/dictionaries/ihm-extension-5.dic/Items/_ihm_ensemble_info.ensemble_name.html" xlink:title="&lt;TABLE&gt;" target="_top">
<polygon fill="none" stroke="black" points="292.567,-897 292.567,-916 448.567,-916 448.567,-897 292.567,-897"/>
<text text-anchor="start" x="297.567" y="-904.4" font-family="Helvetica,sans-Serif" font-size="9.00">ensemble_name</text>
</a>
<a xlink:href="/dictionaries/ihm-extension-5.dic/Items/_ihm_ensemble_info.ensemble_precision_value.html" xlink:title="&lt;TABLE&gt;" target="_top">
<polygon fill="none" stroke="black" points="292.567,-878 292.567,-897 448.567,-897 448.567,-878 292.567,-878"/>
<text text-anchor="start" x="297.567" y="-885.4" font-family="Helvetica,sans-Serif" font-size="9.00">ensemble_precision_value</text>
</a>
<a xlink:href="/dictionaries/ihm-extension-5.dic/Items/_ihm_ensemble_info.num_ensemble_models.html" xlink:title="&lt;TABLE&gt;" target="_top">
<polygon fill="none" stroke="black" points="292.567,-859 292.567,-878 448.567,-878 448.567,-859 292.567,-859"/>
<text text-anchor="start" x="297.567" y="-866.4" font-family="Helvetica,sans-Serif" font-size="9.00">num_ensemble_models</text>
</a>
<a xlink:href="/dictionaries/ihm-extension-5.dic/Items/_ihm_ensemble_info.num_ensemble_models_deposited.html" xlink:title="&lt;TABLE&gt;" target="_top">
<polygon fill="none" stroke="black" points="292.567,-840 292.567,-859 448.567,-859 448.567,-840 292.567,-840"/>
<text text-anchor="start" x="297.567" y="-847.4" font-family="Helvetica,sans-Serif" font-size="9.00">num_ensemble_models_deposited</text>
</a>
<a xlink:href="/dictionaries/ihm-extension-5.dic/Items/_ihm_ensemble_info.post_process_id.html" xlink:title="&lt;TABLE&gt;" target="_top">
<polygon fill="none" stroke="black" points="292.567,-821 292.567,-840 448.567,-840 448.567,-821 292.567,-821"/>
<text text-anchor="start" x="297.567" y="-828.4" font-family="Helvetica,sans-Serif" font-size="9.00">post_process_id</text>
</a>
</g>
<!-- _ihm_model_list -->
<g id="node3" class="node"><title>_ihm_model_list</title>
<a xlink:href="/dictionaries/ihm-extension-5.dic/Categories/ihm_model_list.html" xlink:title="&lt;TABLE&gt;" target="_top">
<polygon fill="#f0027f" stroke="#f0027f" points="96.5673,-736 96.5673,-757 193.567,-757 193.567,-736 96.5673,-736"/>
<polygon fill="none" stroke="black" points="96.5673,-736 96.5673,-757 193.567,-757 193.567,-736 96.5673,-736"/>
<text text-anchor="start" x="102.067" y="-744.167" font-family="Helvetica,sans-Serif" font-size="10.00">IHM_MODEL_LIST</text>
</a>
<a xlink:href="/dictionaries/ihm-extension-5.dic/Items/_ihm_model_list.ordinal_id.html" xlink:title="&lt;TABLE&gt;" target="_top">
<polygon fill="#ffff99" stroke="#ffff99" points="96.5673,-717 96.5673,-736 193.567,-736 193.567,-717 96.5673,-717"/>
<polygon fill="none" stroke="black" points="96.5673,-717 96.5673,-736 193.567,-736 193.567,-717 96.5673,-717"/>
<text text-anchor="start" x="101.567" y="-724.4" font-family="Helvetica,sans-Serif" font-size="9.00">ordinal_id</text>
</a>
<a xlink:href="/dictionaries/ihm-extension-5.dic/Items/_ihm_model_list.assembly_id.html" xlink:title="&lt;TABLE&gt;" target="_top">
<polygon fill="none" stroke="black" points="96.5673,-698 96.5673,-717 193.567,-717 193.567,-698 96.5673,-698"/>
<text text-anchor="start" x="101.567" y="-705.4" font-family="Helvetica,sans-Serif" font-size="9.00">assembly_id</text>
</a>
<a xlink:href="/dictionaries/ihm-extension-5.dic/Items/_ihm_model_list.model_group_id.html" xlink:title="&lt;TABLE&gt;" target="_top">
<polygon fill="none" stroke="black" points="96.5673,-679 96.5673,-698 193.567,-698 193.567,-679 96.5673,-679"/>
<text text-anchor="start" x="101.567" y="-686.4" font-family="Helvetica,sans-Serif" font-size="9.00">model_group_id</text>
</a>
<a xlink:href="/dictionaries/ihm-extension-5.dic/Items/_ihm_model_list.model_id.html" xlink:title="&lt;TABLE&gt;" target="_top">
<polygon fill="none" stroke="black" points="96.5673,-660 96.5673,-679 193.567,-679 193.567,-660 96.5673,-660"/>
<text text-anchor="start" x="101.567" y="-667.4" font-family="Helvetica,sans-Serif" font-size="9.00">model_id</text>
</a>
<a xlink:href="/dictionaries/ihm-extension-5.dic/Items/_ihm_model_list.protocol_id.html" xlink:title="&lt;TABLE&gt;" target="_top">
<polygon fill="none" stroke="black" points="96.5673,-641 96.5673,-660 193.567,-660 193.567,-641 96.5673,-641"/>
<text text-anchor="start" x="101.567" y="-648.4" font-family="Helvetica,sans-Serif" font-size="9.00">protocol_id</text>
</a>
<a xlink:href="/dictionaries/ihm-extension-5.dic/Items/_ihm_model_list.model_group_name.html" xlink:title="&lt;TABLE&gt;" target="_top">
<polygon fill="none" stroke="black" points="96.5673,-622 96.5673,-641 193.567,-641 193.567,-622 96.5673,-622"/>
<text text-anchor="start" x="101.567" y="-629.4" font-family="Helvetica,sans-Serif" font-size="9.00">model_group_name</text>
</a>
</g>
<!-- _ihm_ensemble_info&#45;&gt;_ihm_model_list -->
<g id="edge4" class="edge"><title>_ihm_ensemble_info:__model_group_id:w&#45;&gt;_ihm_model_list:__model_group_id:w</title>
<path fill="none" stroke="black" d="M290.567,-964C257.731,-964 296.365,-842.41 275.567,-817 222.812,-752.545 145.979,-828.552 96.5673,-761.5 79.535,-738.387 67.2081,-699.125 86.6509,-689.956"/>
<polygon fill="black" stroke="black" points="87.4335,-693.369 96.5673,-688 86.0791,-686.501 87.4335,-693.369"/>
</g>
<!-- _ihm_modeling_post_process -->
<g id="node4" class="node"><title>_ihm_modeling_post_process</title>
<a xlink:href="/dictionaries/ihm-extension-5.dic/Categories/ihm_modeling_post_process.html" xlink:title="&lt;TABLE&gt;" target="_top">
<polygon fill="#99c49b" stroke="#99c49b" points="253.567,-755 253.567,-776 429.567,-776 429.567,-755 253.567,-755"/>
<polygon fill="none" stroke="black" points="253.567,-755 253.567,-776 429.567,-776 429.567,-755 253.567,-755"/>
<text text-anchor="start" x="259.067" y="-763.167" font-family="Helvetica,sans-Serif" font-size="10.00">IHM_MODELING_POST_PROCESS</text>
</a>
<a xlink:href="/dictionaries/ihm-extension-5.dic/Items/_ihm_modeling_post_process.id.html" xlink:title="&lt;TABLE&gt;" target="_top">
<polygon fill="#ffff99" stroke="#ffff99" points="253.567,-736 253.567,-755 429.567,-755 429.567,-736 253.567,-736"/>
<polygon fill="none" stroke="black" points="253.567,-736 253.567,-755 429.567,-755 429.567,-736 253.567,-736"/>
<text text-anchor="start" x="258.567" y="-743.4" font-family="Helvetica,sans-Serif" font-size="9.00">id</text>
</a>
<a xlink:href="/dictionaries/ihm-extension-5.dic/Items/_ihm_modeling_post_process.analysis_id.html" xlink:title="&lt;TABLE&gt;" target="_top">
<polygon fill="none" stroke="black" points="253.567,-717 253.567,-736 429.567,-736 429.567,-717 253.567,-717"/>
<text text-anchor="start" x="258.567" y="-724.4" font-family="Helvetica,sans-Serif" font-size="9.00">analysis_id</text>
</a>
<a xlink:href="/dictionaries/ihm-extension-5.dic/Items/_ihm_modeling_post_process.feature.html" xlink:title="&lt;TABLE&gt;" target="_top">
<polygon fill="none" stroke="black" points="253.567,-698 253.567,-717 429.567,-717 429.567,-698 253.567,-698"/>
<text text-anchor="start" x="258.567" y="-705.4" font-family="Helvetica,sans-Serif" font-size="9.00">feature</text>
</a>
<a xlink:href="/dictionaries/ihm-extension-5.dic/Items/_ihm_modeling_post_process.num_models_begin.html" xlink:title="&lt;TABLE&gt;" target="_top">
<polygon fill="none" stroke="black" points="253.567,-679 253.567,-698 429.567,-698 429.567,-679 253.567,-679"/>
<text text-anchor="start" x="258.567" y="-686.4" font-family="Helvetica,sans-Serif" font-size="9.00">num_models_begin</text>
</a>
<a xlink:href="/dictionaries/ihm-extension-5.dic/Items/_ihm_modeling_post_process.num_models_end.html" xlink:title="&lt;TABLE&gt;" target="_top">
<polygon fill="none" stroke="black" points="253.567,-660 253.567,-679 429.567,-679 429.567,-660 253.567,-660"/>
<text text-anchor="start" x="258.567" y="-667.4" font-family="Helvetica,sans-Serif" font-size="9.00">num_models_end</text>
</a>
<a xlink:href="/dictionaries/ihm-extension-5.dic/Items/_ihm_modeling_post_process.protocol_id.html" xlink:title="&lt;TABLE&gt;" target="_top">
<polygon fill="none" stroke="black" points="253.567,-641 253.567,-660 429.567,-660 429.567,-641 253.567,-641"/>
<text text-anchor="start" x="258.567" y="-648.4" font-family="Helvetica,sans-Serif" font-size="9.00">protocol_id</text>
</a>
<a xlink:href="/dictionaries/ihm-extension-5.dic/Items/_ihm_modeling_post_process.step_id.html" xlink:title="&lt;TABLE&gt;" target="_top">
<polygon fill="none" stroke="black" points="253.567,-622 253.567,-641 429.567,-641 429.567,-622 253.567,-622"/>
<text text-anchor="start" x="258.567" y="-629.4" font-family="Helvetica,sans-Serif" font-size="9.00">step_id</text>
</a>
<a xlink:href="/dictionaries/ihm-extension-5.dic/Items/_ihm_modeling_post_process.type.html" xlink:title="&lt;TABLE&gt;" target="_top">
<polygon fill="none" stroke="black" points="253.567,-603 253.567,-622 429.567,-622 429.567,-603 253.567,-603"/>
<text text-anchor="start" x="258.567" y="-610.4" font-family="Helvetica,sans-Serif" font-size="9.00">type</text>
</a>
</g>
<!-- _ihm_ensemble_info&#45;&gt;_ihm_modeling_post_process -->
<g id="edge6" class="edge"><title>_ihm_ensemble_info:__post_process_id:w&#45;&gt;_ihm_modeling_post_process:__id:w</title>
<path fill="none" stroke="black" d="M290.567,-830C283.701,-830 255.733,-787.016 253.567,-780.5 250.431,-771.065 244.915,-759.36 245.605,-752.296"/>
<polygon fill="black" stroke="black" points="247.894,-754.948 253.567,-746 243.552,-749.457 247.894,-754.948"/>
</g>
<!-- _ihm_modeling_protocol -->
<g id="node5" class="node"><title>_ihm_modeling_protocol</title>
<a xlink:href="/dictionaries/ihm-extension-5.dic/Categories/ihm_modeling_protocol.html" xlink:title="&lt;TABLE&gt;" target="_top">
<polygon fill="#99c49b" stroke="#99c49b" points="240.567,-537 240.567,-558 390.567,-558 390.567,-537 240.567,-537"/>
<polygon fill="none" stroke="black" points="240.567,-537 240.567,-558 390.567,-558 390.567,-537 240.567,-537"/>
<text text-anchor="start" x="246.067" y="-545.167" font-family="Helvetica,sans-Serif" font-size="10.00">IHM_MODELING_PROTOCOL</text>
</a>
<a xlink:href="/dictionaries/ihm-extension-5.dic/Items/_ihm_modeling_protocol.ordinal_id.html" xlink:title="&lt;TABLE&gt;" target="_top">
<polygon fill="#ffff99" stroke="#ffff99" points="240.567,-518 240.567,-537 390.567,-537 390.567,-518 240.567,-518"/>
<polygon fill="none" stroke="black" points="240.567,-518 240.567,-537 390.567,-537 390.567,-518 240.567,-518"/>
<text text-anchor="start" x="245.567" y="-525.4" font-family="Helvetica,sans-Serif" font-size="9.00">ordinal_id</text>
</a>
<a xlink:href="/dictionaries/ihm-extension-5.dic/Items/_ihm_modeling_protocol.protocol_id.html" xlink:title="&lt;TABLE&gt;" target="_top">
<polygon fill="none" stroke="black" points="240.567,-499 240.567,-518 390.567,-518 390.567,-499 240.567,-499"/>
<text text-anchor="start" x="245.567" y="-506.4" font-family="Helvetica,sans-Serif" font-size="9.00">protocol_id</text>
</a>
<a xlink:href="/dictionaries/ihm-extension-5.dic/Items/_ihm_modeling_protocol.dataset_group_id.html" xlink:title="&lt;TABLE&gt;" target="_top">
<polygon fill="none" stroke="black" points="240.567,-480 240.567,-499 390.567,-499 390.567,-480 240.567,-480"/>
<text text-anchor="start" x="245.567" y="-487.4" font-family="Helvetica,sans-Serif" font-size="9.00">dataset_group_id</text>
</a>
<a xlink:href="/dictionaries/ihm-extension-5.dic/Items/_ihm_modeling_protocol.multi_scale_flag.html" xlink:title="&lt;TABLE&gt;" target="_top">
<polygon fill="none" stroke="black" points="240.567,-461 240.567,-480 390.567,-480 390.567,-461 240.567,-461"/>
<text text-anchor="start" x="245.567" y="-468.4" font-family="Helvetica,sans-Serif" font-size="9.00">multi_scale_flag</text>
</a>
<a xlink:href="/dictionaries/ihm-extension-5.dic/Items/_ihm_modeling_protocol.multi_state_flag.html" xlink:title="&lt;TABLE&gt;" target="_top">
<polygon fill="none" stroke="black" points="240.567,-442 240.567,-461 390.567,-461 390.567,-442 240.567,-442"/>
<text text-anchor="start" x="245.567" y="-449.4" font-family="Helvetica,sans-Serif" font-size="9.00">multi_state_flag</text>
</a>
<a xlink:href="/dictionaries/ihm-extension-5.dic/Items/_ihm_modeling_protocol.num_models_begin.html" xlink:title="&lt;TABLE&gt;" target="_top">
<polygon fill="none" stroke="black" points="240.567,-423 240.567,-442 390.567,-442 390.567,-423 240.567,-423"/>
<text text-anchor="start" x="245.567" y="-430.4" font-family="Helvetica,sans-Serif" font-size="9.00">num_models_begin</text>
</a>
<a xlink:href="/dictionaries/ihm-extension-5.dic/Items/_ihm_modeling_protocol.num_models_end.html" xlink:title="&lt;TABLE&gt;" target="_top">
<polygon fill="none" stroke="black" points="240.567,-404 240.567,-423 390.567,-423 390.567,-404 240.567,-404"/>
<text text-anchor="start" x="245.567" y="-411.4" font-family="Helvetica,sans-Serif" font-size="9.00">num_models_end</text>
</a>
<a xlink:href="/dictionaries/ihm-extension-5.dic/Items/_ihm_modeling_protocol.protocol_name.html" xlink:title="&lt;TABLE&gt;" target="_top">
<polygon fill="none" stroke="black" points="240.567,-385 240.567,-404 390.567,-404 390.567,-385 240.567,-385"/>
<text text-anchor="start" x="245.567" y="-392.4" font-family="Helvetica,sans-Serif" font-size="9.00">protocol_name</text>
</a>
<a xlink:href="/dictionaries/ihm-extension-5.dic/Items/_ihm_modeling_protocol.step_id.html" xlink:title="&lt;TABLE&gt;" target="_top">
<polygon fill="none" stroke="black" points="240.567,-366 240.567,-385 390.567,-385 390.567,-366 240.567,-366"/>
<text text-anchor="start" x="245.567" y="-373.4" font-family="Helvetica,sans-Serif" font-size="9.00">step_id</text>
</a>
<a xlink:href="/dictionaries/ihm-extension-5.dic/Items/_ihm_modeling_protocol.step_method.html" xlink:title="&lt;TABLE&gt;" target="_top">
<polygon fill="none" stroke="black" points="240.567,-347 240.567,-366 390.567,-366 390.567,-347 240.567,-347"/>
<text text-anchor="start" x="245.567" y="-354.4" font-family="Helvetica,sans-Serif" font-size="9.00">step_method</text>
</a>
<a xlink:href="/dictionaries/ihm-extension-5.dic/Items/_ihm_modeling_protocol.step_name.html" xlink:title="&lt;TABLE&gt;" target="_top">
<polygon fill="none" stroke="black" points="240.567,-328 240.567,-347 390.567,-347 390.567,-328 240.567,-328"/>
<text text-anchor="start" x="245.567" y="-335.4" font-family="Helvetica,sans-Serif" font-size="9.00">step_name</text>
</a>
<a xlink:href="/dictionaries/ihm-extension-5.dic/Items/_ihm_modeling_protocol.struct_assembly_description.html" xlink:title="&lt;TABLE&gt;" target="_top">
<polygon fill="none" stroke="black" points="240.567,-309 240.567,-328 390.567,-328 390.567,-309 240.567,-309"/>
<text text-anchor="start" x="245.567" y="-316.4" font-family="Helvetica,sans-Serif" font-size="9.00">struct_assembly_description</text>
</a>
<a xlink:href="/dictionaries/ihm-extension-5.dic/Items/_ihm_modeling_protocol.struct_assembly_id.html" xlink:title="&lt;TABLE&gt;" target="_top">
<polygon fill="none" stroke="black" points="240.567,-290 240.567,-309 390.567,-309 390.567,-290 240.567,-290"/>
<text text-anchor="start" x="245.567" y="-297.4" font-family="Helvetica,sans-Serif" font-size="9.00">struct_assembly_id</text>
</a>
<a xlink:href="/dictionaries/ihm-extension-5.dic/Items/_ihm_modeling_protocol.time_ordered_flag.html" xlink:title="&lt;TABLE&gt;" target="_top">
<polygon fill="none" stroke="black" points="240.567,-271 240.567,-290 390.567,-290 390.567,-271 240.567,-271"/>
<text text-anchor="start" x="245.567" y="-278.4" font-family="Helvetica,sans-Serif" font-size="9.00">time_ordered_flag</text>
</a>
</g>
<!-- _ihm_model_list&#45;&gt;_ihm_modeling_protocol -->
<g id="edge16" class="edge"><title>_ihm_model_list:__protocol_id:w&#45;&gt;_ihm_modeling_protocol:__protocol_id:w</title>
<path fill="none" stroke="black" d="M94.5673,-650C7.70583,-650 139.848,-519.271 230.309,-509.568"/>
<polygon fill="black" stroke="black" points="230.776,-513.048 240.567,-509 230.389,-506.058 230.776,-513.048"/>
</g>
<!-- _ihm_struct_assembly -->
<g id="node7" class="node"><title>_ihm_struct_assembly</title>
<a xlink:href="/dictionaries/ihm-extension-5.dic/Categories/ihm_struct_assembly.html" xlink:title="&lt;TABLE&gt;" target="_top">
<polygon fill="#99c49b" stroke="#99c49b" points="96.5673,-206 96.5673,-227 232.567,-227 232.567,-206 96.5673,-206"/>
<polygon fill="none" stroke="black" points="96.5673,-206 96.5673,-227 232.567,-227 232.567,-206 96.5673,-206"/>
<text text-anchor="start" x="102.067" y="-214.167" font-family="Helvetica,sans-Serif" font-size="10.00">IHM_STRUCT_ASSEMBLY</text>
</a>
<a xlink:href="/dictionaries/ihm-extension-5.dic/Items/_ihm_struct_assembly.ordinal_id.html" xlink:title="&lt;TABLE&gt;" target="_top">
<polygon fill="#ffff99" stroke="#ffff99" points="96.5673,-187 96.5673,-206 232.567,-206 232.567,-187 96.5673,-187"/>
<polygon fill="none" stroke="black" points="96.5673,-187 96.5673,-206 232.567,-206 232.567,-187 96.5673,-187"/>
<text text-anchor="start" x="101.567" y="-194.4" font-family="Helvetica,sans-Serif" font-size="9.00">ordinal_id</text>
</a>
<a xlink:href="/dictionaries/ihm-extension-5.dic/Items/_ihm_struct_assembly.assembly_id.html" xlink:title="&lt;TABLE&gt;" target="_top">
<polygon fill="none" stroke="black" points="96.5673,-168 96.5673,-187 232.567,-187 232.567,-168 96.5673,-168"/>
<text text-anchor="start" x="101.567" y="-175.4" font-family="Helvetica,sans-Serif" font-size="9.00">assembly_id</text>
</a>
<a xlink:href="/dictionaries/ihm-extension-5.dic/Items/_ihm_struct_assembly.asym_id.html" xlink:title="&lt;TABLE&gt;" target="_top">
<polygon fill="none" stroke="black" points="96.5673,-149 96.5673,-168 232.567,-168 232.567,-149 96.5673,-149"/>
<text text-anchor="start" x="101.567" y="-156.4" font-family="Helvetica,sans-Serif" font-size="9.00">asym_id</text>
</a>
<a xlink:href="/dictionaries/ihm-extension-5.dic/Items/_ihm_struct_assembly.entity_description.html" xlink:title="&lt;TABLE&gt;" target="_top">
<polygon fill="none" stroke="black" points="96.5673,-130 96.5673,-149 232.567,-149 232.567,-130 96.5673,-130"/>
<text text-anchor="start" x="101.567" y="-137.4" font-family="Helvetica,sans-Serif" font-size="9.00">entity_description</text>
</a>
<a xlink:href="/dictionaries/ihm-extension-5.dic/Items/_ihm_struct_assembly.entity_id.html" xlink:title="&lt;TABLE&gt;" target="_top">
<polygon fill="none" stroke="black" points="96.5673,-111 96.5673,-130 232.567,-130 232.567,-111 96.5673,-111"/>
<text text-anchor="start" x="101.567" y="-118.4" font-family="Helvetica,sans-Serif" font-size="9.00">entity_id</text>
</a>
<a xlink:href="/dictionaries/ihm-extension-5.dic/Items/_ihm_struct_assembly.seq_id_begin.html" xlink:title="&lt;TABLE&gt;" target="_top">
<polygon fill="none" stroke="black" points="96.5673,-92 96.5673,-111 232.567,-111 232.567,-92 96.5673,-92"/>
<text text-anchor="start" x="101.567" y="-99.4" font-family="Helvetica,sans-Serif" font-size="9.00">seq_id_begin</text>
</a>
<a xlink:href="/dictionaries/ihm-extension-5.dic/Items/_ihm_struct_assembly.seq_id_end.html" xlink:title="&lt;TABLE&gt;" target="_top">
<polygon fill="none" stroke="black" points="96.5673,-73 96.5673,-92 232.567,-92 232.567,-73 96.5673,-73"/>
<text text-anchor="start" x="101.567" y="-80.4" font-family="Helvetica,sans-Serif" font-size="9.00">seq_id_end</text>
</a>
</g>
<!-- _ihm_model_list&#45;&gt;_ihm_struct_assembly -->
<g id="edge8" class="edge"><title>_ihm_model_list:__assembly_id:w&#45;&gt;_ihm_struct_assembly:__assembly_id:w</title>
<path fill="none" stroke="black" d="M94.5673,-708C-19.7608,-708 -21.2257,-208.6 86.5139,-179.338"/>
<polygon fill="black" stroke="black" points="87.1165,-182.789 96.5673,-178 86.1929,-175.85 87.1165,-182.789"/>
</g>
<!-- _ihm_modeling_post_process&#45;&gt;_ihm_modeling_protocol -->
<g id="edge18" class="edge"><title>_ihm_modeling_post_process:__protocol_id:w&#45;&gt;_ihm_modeling_protocol:__protocol_id:w</title>
<path fill="none" stroke="black" d="M251.567,-650C223.699,-650 211.893,-539.136 231.488,-514.018"/>
<polygon fill="black" stroke="black" points="233.508,-516.901 240.567,-509 230.122,-510.774 233.508,-516.901"/>
</g>
<!-- _ihm_modeling_protocol&#45;&gt;_ihm_dataset_list -->
<g id="edge2" class="edge"><title>_ihm_modeling_protocol:__dataset_group_id:w&#45;&gt;_ihm_dataset_list:__group_id:w</title>
<path fill="none" stroke="black" d="M238.567,-490C123.352,-490 228.273,-344.23 249.567,-231 251.818,-219.032 252.006,-136.23 260.516,-109.383"/>
<polygon fill="black" stroke="black" points="263.552,-111.157 266.567,-101 257.877,-107.06 263.552,-111.157"/>
</g>
<!-- _ihm_modeling_protocol&#45;&gt;_ihm_struct_assembly -->
<g id="edge20" class="edge"><title>_ihm_modeling_protocol:__struct_assembly_id:w&#45;&gt;_ihm_struct_assembly:__assembly_id:w</title>
<path fill="none" stroke="black" d="M238.567,-299C168.593,-299 133.861,-290.208 96.5673,-231 86.367,-214.806 77.1919,-189.939 86.7444,-181.183"/>
<polygon fill="black" stroke="black" points="88.1333,-184.412 96.5673,-178 85.9754,-177.753 88.1333,-184.412"/>
</g>
<!-- _ihm_multi_state_modeling -->
<g id="node6" class="node"><title>_ihm_multi_state_modeling</title>
<a xlink:href="/dictionaries/ihm-extension-5.dic/Categories/ihm_multi_state_modeling.html" xlink:title="&lt;TABLE&gt;" target="_top">
<polygon fill="#99c49b" stroke="#99c49b" points="96.5673,-982 96.5673,-1003 258.567,-1003 258.567,-982 96.5673,-982"/>
<polygon fill="none" stroke="black" points="96.5673,-982 96.5673,-1003 258.567,-1003 258.567,-982 96.5673,-982"/>
<text text-anchor="start" x="102.067" y="-990.167" font-family="Helvetica,sans-Serif" font-size="10.00">IHM_MULTI_STATE_MODELING</text>
</a>
<a xlink:href="/dictionaries/ihm-extension-5.dic/Items/_ihm_multi_state_modeling.ordinal_id.html" xlink:title="&lt;TABLE&gt;" target="_top">
<polygon fill="#ffff99" stroke="#ffff99" points="96.5673,-963 96.5673,-982 258.567,-982 258.567,-963 96.5673,-963"/>
<polygon fill="none" stroke="black" points="96.5673,-963 96.5673,-982 258.567,-982 258.567,-963 96.5673,-963"/>
<text text-anchor="start" x="101.567" y="-970.4" font-family="Helvetica,sans-Serif" font-size="9.00">ordinal_id</text>
</a>
<a xlink:href="/dictionaries/ihm-extension-5.dic/Items/_ihm_multi_state_modeling.model_group_id.html" xlink:title="&lt;TABLE&gt;" target="_top">
<polygon fill="none" stroke="black" points="96.5673,-944 96.5673,-963 258.567,-963 258.567,-944 96.5673,-944"/>
<text text-anchor="start" x="101.567" y="-951.4" font-family="Helvetica,sans-Serif" font-size="9.00">model_group_id</text>
</a>
<a xlink:href="/dictionaries/ihm-extension-5.dic/Items/_ihm_multi_state_modeling.details.html" xlink:title="&lt;TABLE&gt;" target="_top">
<polygon fill="none" stroke="black" points="96.5673,-925 96.5673,-944 258.567,-944 258.567,-925 96.5673,-925"/>
<text text-anchor="start" x="101.567" y="-932.4" font-family="Helvetica,sans-Serif" font-size="9.00">details</text>
</a>
<a xlink:href="/dictionaries/ihm-extension-5.dic/Items/_ihm_multi_state_modeling.population_fraction.html" xlink:title="&lt;TABLE&gt;" target="_top">
<polygon fill="none" stroke="black" points="96.5673,-906 96.5673,-925 258.567,-925 258.567,-906 96.5673,-906"/>
<text text-anchor="start" x="101.567" y="-913.4" font-family="Helvetica,sans-Serif" font-size="9.00">population_fraction</text>
</a>
<a xlink:href="/dictionaries/ihm-extension-5.dic/Items/_ihm_multi_state_modeling.state_group_id.html" xlink:title="&lt;TABLE&gt;" target="_top">
<polygon fill="none" stroke="black" points="96.5673,-887 96.5673,-906 258.567,-906 258.567,-887 96.5673,-887"/>
<text text-anchor="start" x="101.567" y="-894.4" font-family="Helvetica,sans-Serif" font-size="9.00">state_group_id</text>
</a>
<a xlink:href="/dictionaries/ihm-extension-5.dic/Items/_ihm_multi_state_modeling.state_id.html" xlink:title="&lt;TABLE&gt;" target="_top">
<polygon fill="none" stroke="black" points="96.5673,-868 96.5673,-887 258.567,-887 258.567,-868 96.5673,-868"/>
<text text-anchor="start" x="101.567" y="-875.4" font-family="Helvetica,sans-Serif" font-size="9.00">state_id</text>
</a>
<a xlink:href="/dictionaries/ihm-extension-5.dic/Items/_ihm_multi_state_modeling.state_name.html" xlink:title="&lt;TABLE&gt;" target="_top">
<polygon fill="none" stroke="black" points="96.5673,-849 96.5673,-868 258.567,-868 258.567,-849 96.5673,-849"/>
<text text-anchor="start" x="101.567" y="-856.4" font-family="Helvetica,sans-Serif" font-size="9.00">state_name</text>
</a>
<a xlink:href="/dictionaries/ihm-extension-5.dic/Items/_ihm_multi_state_modeling.state_type.html" xlink:title="&lt;TABLE&gt;" target="_top">
<polygon fill="none" stroke="black" points="96.5673,-830 96.5673,-849 258.567,-849 258.567,-830 96.5673,-830"/>
<text text-anchor="start" x="101.567" y="-837.4" font-family="Helvetica,sans-Serif" font-size="9.00">state_type</text>
</a>
</g>
<!-- _ihm_multi_state_modeling&#45;&gt;_ihm_model_list -->
<g id="edge10" class="edge"><title>_ihm_multi_state_modeling:__model_group_id:w&#45;&gt;_ihm_model_list:__model_group_id:w</title>
<path fill="none" stroke="black" d="M94.5673,-954C81.4344,-954 81.5518,-743.93 92.1123,-697.156"/>
<polygon fill="black" stroke="black" points="95.3394,-698.523 96.5673,-688 89.0449,-695.461 95.3394,-698.523"/>
</g>
<!-- _ihm_time_ordered_ensemble -->
<g id="node8" class="node"><title>_ihm_time_ordered_ensemble</title>
<a xlink:href="/dictionaries/ihm-extension-5.dic/Categories/ihm_time_ordered_ensemble.html" xlink:title="&lt;TABLE&gt;" target="_top">
<polygon fill="#99c49b" stroke="#99c49b" points="78.5673,-1228 78.5673,-1249 254.567,-1249 254.567,-1228 78.5673,-1228"/>
<polygon fill="none" stroke="black" points="78.5673,-1228 78.5673,-1249 254.567,-1249 254.567,-1228 78.5673,-1228"/>
<text text-anchor="start" x="84.0673" y="-1236.17" font-family="Helvetica,sans-Serif" font-size="10.00">IHM_TIME_ORDERED_ENSEMBLE</text>
</a>
<a xlink:href="/dictionaries/ihm-extension-5.dic/Items/_ihm_time_ordered_ensemble.ordinal_id.html" xlink:title="&lt;TABLE&gt;" target="_top">
<polygon fill="#ffff99" stroke="#ffff99" points="78.5673,-1209 78.5673,-1228 254.567,-1228 254.567,-1209 78.5673,-1209"/>
<polygon fill="none" stroke="black" points="78.5673,-1209 78.5673,-1228 254.567,-1228 254.567,-1209 78.5673,-1209"/>
<text text-anchor="start" x="83.5673" y="-1216.4" font-family="Helvetica,sans-Serif" font-size="9.00">ordinal_id</text>
</a>
<a xlink:href="/dictionaries/ihm-extension-5.dic/Items/_ihm_time_ordered_ensemble.model_group_id_begin.html" xlink:title="&lt;TABLE&gt;" target="_top">
<polygon fill="none" stroke="black" points="78.5673,-1190 78.5673,-1209 254.567,-1209 254.567,-1190 78.5673,-1190"/>
<text text-anchor="start" x="83.5673" y="-1197.4" font-family="Helvetica,sans-Serif" font-size="9.00">model_group_id_begin</text>
</a>
<a xlink:href="/dictionaries/ihm-extension-5.dic/Items/_ihm_time_ordered_ensemble.model_group_id_end.html" xlink:title="&lt;TABLE&gt;" target="_top">
<polygon fill="none" stroke="black" points="78.5673,-1171 78.5673,-1190 254.567,-1190 254.567,-1171 78.5673,-1171"/>
<text text-anchor="start" x="83.5673" y="-1178.4" font-family="Helvetica,sans-Serif" font-size="9.00">model_group_id_end</text>
</a>
<a xlink:href="/dictionaries/ihm-extension-5.dic/Items/_ihm_time_ordered_ensemble.state_group_id_begin.html" xlink:title="&lt;TABLE&gt;" target="_top">
<polygon fill="none" stroke="black" points="78.5673,-1152 78.5673,-1171 254.567,-1171 254.567,-1152 78.5673,-1152"/>
<text text-anchor="start" x="83.5673" y="-1159.4" font-family="Helvetica,sans-Serif" font-size="9.00">state_group_id_begin</text>
</a>
<a xlink:href="/dictionaries/ihm-extension-5.dic/Items/_ihm_time_ordered_ensemble.state_group_id_end.html" xlink:title="&lt;TABLE&gt;" target="_top">
<polygon fill="none" stroke="black" points="78.5673,-1133 78.5673,-1152 254.567,-1152 254.567,-1133 78.5673,-1133"/>
<text text-anchor="start" x="83.5673" y="-1140.4" font-family="Helvetica,sans-Serif" font-size="9.00">state_group_id_end</text>
</a>
<a xlink:href="/dictionaries/ihm-extension-5.dic/Items/_ihm_time_ordered_ensemble.time_begin.html" xlink:title="&lt;TABLE&gt;" target="_top">
<polygon fill="none" stroke="black" points="78.5673,-1114 78.5673,-1133 254.567,-1133 254.567,-1114 78.5673,-1114"/>
<text text-anchor="start" x="83.5673" y="-1121.4" font-family="Helvetica,sans-Serif" font-size="9.00">time_begin</text>
</a>
<a xlink:href="/dictionaries/ihm-extension-5.dic/Items/_ihm_time_ordered_ensemble.time_end.html" xlink:title="&lt;TABLE&gt;" target="_top">
<polygon fill="none" stroke="black" points="78.5673,-1095 78.5673,-1114 254.567,-1114 254.567,-1095 78.5673,-1095"/>
<text text-anchor="start" x="83.5673" y="-1102.4" font-family="Helvetica,sans-Serif" font-size="9.00">time_end</text>
</a>
<a xlink:href="/dictionaries/ihm-extension-5.dic/Items/_ihm_time_ordered_ensemble.time_step_id.html" xlink:title="&lt;TABLE&gt;" target="_top">
<polygon fill="none" stroke="black" points="78.5673,-1076 78.5673,-1095 254.567,-1095 254.567,-1076 78.5673,-1076"/>
<text text-anchor="start" x="83.5673" y="-1083.4" font-family="Helvetica,sans-Serif" font-size="9.00">time_step_id</text>
</a>
<a xlink:href="/dictionaries/ihm-extension-5.dic/Items/_ihm_time_ordered_ensemble.time_unit.html" xlink:title="&lt;TABLE&gt;" target="_top">
<polygon fill="none" stroke="black" points="78.5673,-1057 78.5673,-1076 254.567,-1076 254.567,-1057 78.5673,-1057"/>
<text text-anchor="start" x="83.5673" y="-1064.4" font-family="Helvetica,sans-Serif" font-size="9.00">time_unit</text>
</a>
</g>
<!-- _ihm_time_ordered_ensemble&#45;&gt;_ihm_model_list -->
<g id="edge12" class="edge"><title>_ihm_time_ordered_ensemble:__model_group_id_begin:w&#45;&gt;_ihm_model_list:__model_group_id:w</title>
<path fill="none" stroke="black" d="M76.5673,-1200C-33.8502,-1200 -18.3855,-718.531 86.4853,-689.379"/>
<polygon fill="black" stroke="black" points="87.134,-692.823 96.5673,-688 86.1852,-685.888 87.134,-692.823"/>
</g>
<!-- _ihm_time_ordered_ensemble&#45;&gt;_ihm_model_list -->
<g id="edge14" class="edge"><title>_ihm_time_ordered_ensemble:__model_group_id_end:w&#45;&gt;_ihm_model_list:__model_group_id:w</title>
<path fill="none" stroke="black" d="M76.5673,-1181C24.8497,-1181 39.7189,-742.266 87.5941,-692.566"/>
<polygon fill="black" stroke="black" points="89.2419,-695.654 96.5673,-688 86.0675,-689.416 89.2419,-695.654"/>
</g>
<!-- _ihm_time_ordered_ensemble&#45;&gt;_ihm_multi_state_modeling -->
<g id="edge22" class="edge"><title>_ihm_time_ordered_ensemble:__state_group_id_begin:w&#45;&gt;_ihm_multi_state_modeling:__state_group_id:w</title>
<path fill="none" stroke="black" d="M76.5673,-1162C63.3687,-1162 77.7894,-951.005 91.5711,-904.85"/>
<polygon fill="black" stroke="black" points="94.6991,-906.429 96.5673,-896 88.6034,-902.988 94.6991,-906.429"/>
</g>
<!-- _ihm_time_ordered_ensemble&#45;&gt;_ihm_multi_state_modeling -->
<g id="edge24" class="edge"><title>_ihm_time_ordered_ensemble:__state_group_id_end:w&#45;&gt;_ihm_multi_state_modeling:__state_group_id:w</title>
<path fill="none" stroke="black" d="M76.5673,-1142C64.4088,-1142 78.7569,-948.578 91.7235,-904.755"/>
<polygon fill="black" stroke="black" points="94.7889,-906.445 96.5673,-896 88.6637,-903.056 94.7889,-906.445"/>
</g>
</g>
</svg>
