<?xml version="1.0" encoding="UTF-8" standalone="no"?>
<!DOCTYPE svg PUBLIC "-//W3C//DTD SVG 1.1//EN"
 "http://www.w3.org/Graphics/SVG/1.1/DTD/svg11.dtd">
<!-- Generated by graphviz version 2.26.0 (20091210.2329)
 -->
<!-- Title: ihm_external_reference_info Pages: 1 -->
<svg width="704pt" height="579pt"
 viewBox="0.00 0.00 703.70 579.00" xmlns="http://www.w3.org/2000/svg" xmlns:xlink="http://www.w3.org/1999/xlink">
<g id="graph1" class="graph" transform="scale(1 1) rotate(0) translate(4 575)">
<title>ihm_external_reference_info</title>
<polygon fill="white" stroke="white" points="-4,5 -4,-575 700.703,-575 700.703,5 -4,5"/>
<text text-anchor="start" x="344.851" y="-51.8" font-family="Helvetica,sans-Serif" font-size="18.00"> </text>
<text text-anchor="start" x="83.3514" y="-30.2" font-family="Helvetica,sans-Serif" font-size="18.00">Selected Relationships for Category &#160;</text>
<text text-anchor="start" x="378.351" y="-30.2" font-family="Helvetica,sans-Serif" font-size="18.00"> ihm_external_reference_info</text>
<text text-anchor="start" x="608.351" y="-29.8" font-family="Helvetica,sans-Serif" font-size="14.00"> </text>
<text text-anchor="start" x="263.351" y="-11.5333" font-family="Helvetica,sans-Serif" font-size="14.00"> &#160;in dictionary ihm&#45;extension</text>
<!-- _ihm_dataset_external_reference -->
<g id="node1" class="node"><title>_ihm_dataset_external_reference</title>
<a xlink:href="/dictionaries/ihm-extension-6.dic/Categories/ihm_dataset_external_reference.html" xlink:title="&lt;TABLE&gt;" target="_top">
<polygon fill="#99c49b" stroke="#99c49b" points="35.7027,-517 35.7027,-538 244.703,-538 244.703,-517 35.7027,-517"/>
<polygon fill="none" stroke="black" points="35.7027,-517 35.7027,-538 244.703,-538 244.703,-517 35.7027,-517"/>
<text text-anchor="start" x="41.2027" y="-525.167" font-family="Helvetica,sans-Serif" font-size="10.00">IHM_DATASET_EXTERNAL_REFERENCE</text>
</a>
<a xlink:href="/dictionaries/ihm-extension-6.dic/Items/_ihm_dataset_external_reference.id.html" xlink:title="&lt;TABLE&gt;" target="_top">
<polygon fill="#ffff99" stroke="#ffff99" points="35.7027,-498 35.7027,-517 244.703,-517 244.703,-498 35.7027,-498"/>
<polygon fill="none" stroke="black" points="35.7027,-498 35.7027,-517 244.703,-517 244.703,-498 35.7027,-498"/>
<text text-anchor="start" x="40.7027" y="-505.4" font-family="Helvetica,sans-Serif" font-size="9.00">id</text>
</a>
<a xlink:href="/dictionaries/ihm-extension-6.dic/Items/_ihm_dataset_external_reference.data_type.html" xlink:title="&lt;TABLE&gt;" target="_top">
<polygon fill="none" stroke="black" points="35.7027,-479 35.7027,-498 244.703,-498 244.703,-479 35.7027,-479"/>
<text text-anchor="start" x="40.7027" y="-486.4" font-family="Helvetica,sans-Serif" font-size="9.00">data_type</text>
</a>
<a xlink:href="/dictionaries/ihm-extension-6.dic/Items/_ihm_dataset_external_reference.dataset_list_id.html" xlink:title="&lt;TABLE&gt;" target="_top">
<polygon fill="none" stroke="black" points="35.7027,-460 35.7027,-479 244.703,-479 244.703,-460 35.7027,-460"/>
<text text-anchor="start" x="40.7027" y="-467.4" font-family="Helvetica,sans-Serif" font-size="9.00">dataset_list_id</text>
</a>
<a xlink:href="/dictionaries/ihm-extension-6.dic/Items/_ihm_dataset_external_reference.file_id.html" xlink:title="&lt;TABLE&gt;" target="_top">
<polygon fill="none" stroke="black" points="35.7027,-441 35.7027,-460 244.703,-460 244.703,-441 35.7027,-441"/>
<text text-anchor="start" x="40.7027" y="-448.4" font-family="Helvetica,sans-Serif" font-size="9.00">file_id</text>
</a>
</g>
<!-- _ihm_dataset_list -->
<g id="node2" class="node"><title>_ihm_dataset_list</title>
<a xlink:href="/dictionaries/ihm-extension-6.dic/Categories/ihm_dataset_list.html" xlink:title="&lt;TABLE&gt;" target="_top">
<polygon fill="#99c49b" stroke="#99c49b" points="35.7027,-348 35.7027,-369 143.703,-369 143.703,-348 35.7027,-348"/>
<polygon fill="none" stroke="black" points="35.7027,-348 35.7027,-369 143.703,-369 143.703,-348 35.7027,-348"/>
<text text-anchor="start" x="41.2027" y="-356.167" font-family="Helvetica,sans-Serif" font-size="10.00">IHM_DATASET_LIST</text>
</a>
<a xlink:href="/dictionaries/ihm-extension-6.dic/Items/_ihm_dataset_list.ordinal_id.html" xlink:title="&lt;TABLE&gt;" target="_top">
<polygon fill="#ffff99" stroke="#ffff99" points="35.7027,-329 35.7027,-348 143.703,-348 143.703,-329 35.7027,-329"/>
<polygon fill="none" stroke="black" points="35.7027,-329 35.7027,-348 143.703,-348 143.703,-329 35.7027,-329"/>
<text text-anchor="start" x="40.7027" y="-336.4" font-family="Helvetica,sans-Serif" font-size="9.00">ordinal_id</text>
</a>
<a xlink:href="/dictionaries/ihm-extension-6.dic/Items/_ihm_dataset_list.data_type.html" xlink:title="&lt;TABLE&gt;" target="_top">
<polygon fill="none" stroke="black" points="35.7027,-310 35.7027,-329 143.703,-329 143.703,-310 35.7027,-310"/>
<text text-anchor="start" x="40.7027" y="-317.4" font-family="Helvetica,sans-Serif" font-size="9.00">data_type</text>
</a>
<a xlink:href="/dictionaries/ihm-extension-6.dic/Items/_ihm_dataset_list.database_hosted.html" xlink:title="&lt;TABLE&gt;" target="_top">
<polygon fill="none" stroke="black" points="35.7027,-291 35.7027,-310 143.703,-310 143.703,-291 35.7027,-291"/>
<text text-anchor="start" x="40.7027" y="-298.4" font-family="Helvetica,sans-Serif" font-size="9.00">database_hosted</text>
</a>
<a xlink:href="/dictionaries/ihm-extension-6.dic/Items/_ihm_dataset_list.group_id.html" xlink:title="&lt;TABLE&gt;" target="_top">
<polygon fill="none" stroke="black" points="35.7027,-272 35.7027,-291 143.703,-291 143.703,-272 35.7027,-272"/>
<text text-anchor="start" x="40.7027" y="-279.4" font-family="Helvetica,sans-Serif" font-size="9.00">group_id</text>
</a>
<a xlink:href="/dictionaries/ihm-extension-6.dic/Items/_ihm_dataset_list.id.html" xlink:title="&lt;TABLE&gt;" target="_top">
<polygon fill="none" stroke="black" points="35.7027,-253 35.7027,-272 143.703,-272 143.703,-253 35.7027,-253"/>
<text text-anchor="start" x="40.7027" y="-260.4" font-family="Helvetica,sans-Serif" font-size="9.00">id</text>
</a>
</g>
<!-- _ihm_dataset_external_reference&#45;&gt;_ihm_dataset_list -->
<g id="edge2" class="edge"><title>_ihm_dataset_external_reference:__dataset_list_id:w&#45;&gt;_ihm_dataset_list:__id:w</title>
<path fill="none" stroke="black" d="M33.7027,-469C-8.88522,-469 -10.3319,-291.586 26.1888,-265.251"/>
<polygon fill="black" stroke="black" points="27.372,-268.546 35.7027,-262 25.1082,-261.922 27.372,-268.546"/>
</g>
<!-- _ihm_external_files -->
<g id="node3" class="node"><title>_ihm_external_files</title>
<a xlink:href="/dictionaries/ihm-extension-6.dic/Categories/ihm_external_files.html" xlink:title="&lt;TABLE&gt;" target="_top">
<polygon fill="#99c49b" stroke="#99c49b" points="277.703,-338 277.703,-359 399.703,-359 399.703,-338 277.703,-338"/>
<polygon fill="none" stroke="black" points="277.703,-338 277.703,-359 399.703,-359 399.703,-338 277.703,-338"/>
<text text-anchor="start" x="283.203" y="-346.167" font-family="Helvetica,sans-Serif" font-size="10.00">IHM_EXTERNAL_FILES</text>
</a>
<a xlink:href="/dictionaries/ihm-extension-6.dic/Items/_ihm_external_files.id.html" xlink:title="&lt;TABLE&gt;" target="_top">
<polygon fill="#ffff99" stroke="#ffff99" points="277.703,-319 277.703,-338 399.703,-338 399.703,-319 277.703,-319"/>
<polygon fill="none" stroke="black" points="277.703,-319 277.703,-338 399.703,-338 399.703,-319 277.703,-319"/>
<text text-anchor="start" x="282.703" y="-326.4" font-family="Helvetica,sans-Serif" font-size="9.00">id</text>
</a>
<a xlink:href="/dictionaries/ihm-extension-6.dic/Items/_ihm_external_files.reference_id.html" xlink:title="&lt;TABLE&gt;" target="_top">
<polygon fill="none" stroke="black" points="277.703,-300 277.703,-319 399.703,-319 399.703,-300 277.703,-300"/>
<text text-anchor="start" x="282.703" y="-307.4" font-family="Helvetica,sans-Serif" font-size="9.00">reference_id</text>
</a>
<a xlink:href="/dictionaries/ihm-extension-6.dic/Items/_ihm_external_files.file_format.html" xlink:title="&lt;TABLE&gt;" target="_top">
<polygon fill="none" stroke="black" points="277.703,-281 277.703,-300 399.703,-300 399.703,-281 277.703,-281"/>
<text text-anchor="start" x="282.703" y="-288.4" font-family="Helvetica,sans-Serif" font-size="9.00">file_format</text>
</a>
<a xlink:href="/dictionaries/ihm-extension-6.dic/Items/_ihm_external_files.file_path.html" xlink:title="&lt;TABLE&gt;" target="_top">
<polygon fill="none" stroke="black" points="277.703,-262 277.703,-281 399.703,-281 399.703,-262 277.703,-262"/>
<text text-anchor="start" x="282.703" y="-269.4" font-family="Helvetica,sans-Serif" font-size="9.00">file_path</text>
</a>
</g>
<!-- _ihm_dataset_external_reference&#45;&gt;_ihm_external_files -->
<g id="edge4" class="edge"><title>_ihm_dataset_external_reference:__file_id:w&#45;&gt;_ihm_external_files:__id:w</title>
<path fill="none" stroke="black" d="M33.7027,-450C28.0765,-450 32.28,-441.965 35.7027,-437.5 43.7908,-426.948 222.328,-347.096 267.947,-331.6"/>
<polygon fill="black" stroke="black" points="268.941,-334.957 277.703,-329 267.139,-328.193 268.941,-334.957"/>
</g>
<!-- _ihm_external_reference_info -->
<g id="node4" class="node"><title>_ihm_external_reference_info</title>
<a xlink:href="/dictionaries/ihm-extension-6.dic/Categories/ihm_external_reference_info.html" xlink:title="&lt;TABLE&gt;" target="_top">
<polygon fill="#f0027f" stroke="#f0027f" points="277.703,-187 277.703,-208 463.703,-208 463.703,-187 277.703,-187"/>
<polygon fill="none" stroke="black" points="277.703,-187 277.703,-208 463.703,-208 463.703,-187 277.703,-187"/>
<text text-anchor="start" x="283.203" y="-195.167" font-family="Helvetica,sans-Serif" font-size="10.00">IHM_EXTERNAL_REFERENCE_INFO</text>
</a>
<a xlink:href="/dictionaries/ihm-extension-6.dic/Items/_ihm_external_reference_info.reference_id.html" xlink:title="&lt;TABLE&gt;" target="_top">
<polygon fill="#ffff99" stroke="#ffff99" points="277.703,-168 277.703,-187 463.703,-187 463.703,-168 277.703,-168"/>
<polygon fill="none" stroke="black" points="277.703,-168 277.703,-187 463.703,-187 463.703,-168 277.703,-168"/>
<text text-anchor="start" x="282.703" y="-175.4" font-family="Helvetica,sans-Serif" font-size="9.00">reference_id</text>
</a>
<a xlink:href="/dictionaries/ihm-extension-6.dic/Items/_ihm_external_reference_info.associated_url.html" xlink:title="&lt;TABLE&gt;" target="_top">
<polygon fill="none" stroke="black" points="277.703,-149 277.703,-168 463.703,-168 463.703,-149 277.703,-149"/>
<text text-anchor="start" x="282.703" y="-156.4" font-family="Helvetica,sans-Serif" font-size="9.00">associated_url</text>
</a>
<a xlink:href="/dictionaries/ihm-extension-6.dic/Items/_ihm_external_reference_info.reference.html" xlink:title="&lt;TABLE&gt;" target="_top">
<polygon fill="none" stroke="black" points="277.703,-130 277.703,-149 463.703,-149 463.703,-130 277.703,-130"/>
<text text-anchor="start" x="282.703" y="-137.4" font-family="Helvetica,sans-Serif" font-size="9.00">reference</text>
</a>
<a xlink:href="/dictionaries/ihm-extension-6.dic/Items/_ihm_external_reference_info.reference_provider.html" xlink:title="&lt;TABLE&gt;" target="_top">
<polygon fill="none" stroke="black" points="277.703,-111 277.703,-130 463.703,-130 463.703,-111 277.703,-111"/>
<text text-anchor="start" x="282.703" y="-118.4" font-family="Helvetica,sans-Serif" font-size="9.00">reference_provider</text>
</a>
<a xlink:href="/dictionaries/ihm-extension-6.dic/Items/_ihm_external_reference_info.reference_type.html" xlink:title="&lt;TABLE&gt;" target="_top">
<polygon fill="none" stroke="black" points="277.703,-92 277.703,-111 463.703,-111 463.703,-92 277.703,-92"/>
<text text-anchor="start" x="282.703" y="-99.4" font-family="Helvetica,sans-Serif" font-size="9.00">reference_type</text>
</a>
<a xlink:href="/dictionaries/ihm-extension-6.dic/Items/_ihm_external_reference_info.refers_to.html" xlink:title="&lt;TABLE&gt;" target="_top">
<polygon fill="none" stroke="black" points="277.703,-73 277.703,-92 463.703,-92 463.703,-73 277.703,-73"/>
<text text-anchor="start" x="282.703" y="-80.4" font-family="Helvetica,sans-Serif" font-size="9.00">refers_to</text>
</a>
</g>
<!-- _ihm_external_files&#45;&gt;_ihm_external_reference_info -->
<g id="edge10" class="edge"><title>_ihm_external_files:__reference_id:w&#45;&gt;_ihm_external_reference_info:__reference_id:w</title>
<path fill="none" stroke="black" d="M275.703,-309C220.999,-309 219.452,-193.383 267.745,-179.383"/>
<polygon fill="black" stroke="black" points="268.279,-182.842 277.703,-178 267.316,-175.909 268.279,-182.842"/>
</g>
<!-- _ihm_localization_density_files -->
<g id="node5" class="node"><title>_ihm_localization_density_files</title>
<a xlink:href="/dictionaries/ihm-extension-6.dic/Categories/ihm_localization_density_files.html" xlink:title="&lt;TABLE&gt;" target="_top">
<polygon fill="#99c49b" stroke="#99c49b" points="277.703,-546 277.703,-567 467.703,-567 467.703,-546 277.703,-546"/>
<polygon fill="none" stroke="black" points="277.703,-546 277.703,-567 467.703,-567 467.703,-546 277.703,-546"/>
<text text-anchor="start" x="283.203" y="-554.167" font-family="Helvetica,sans-Serif" font-size="10.00">IHM_LOCALIZATION_DENSITY_FILES</text>
</a>
<a xlink:href="/dictionaries/ihm-extension-6.dic/Items/_ihm_localization_density_files.id.html" xlink:title="&lt;TABLE&gt;" target="_top">
<polygon fill="#ffff99" stroke="#ffff99" points="277.703,-527 277.703,-546 467.703,-546 467.703,-527 277.703,-527"/>
<polygon fill="none" stroke="black" points="277.703,-527 277.703,-546 467.703,-546 467.703,-527 277.703,-527"/>
<text text-anchor="start" x="282.703" y="-534.4" font-family="Helvetica,sans-Serif" font-size="9.00">id</text>
</a>
<a xlink:href="/dictionaries/ihm-extension-6.dic/Items/_ihm_localization_density_files.asym_id.html" xlink:title="&lt;TABLE&gt;" target="_top">
<polygon fill="none" stroke="black" points="277.703,-508 277.703,-527 467.703,-527 467.703,-508 277.703,-508"/>
<text text-anchor="start" x="282.703" y="-515.4" font-family="Helvetica,sans-Serif" font-size="9.00">asym_id</text>
</a>
<a xlink:href="/dictionaries/ihm-extension-6.dic/Items/_ihm_localization_density_files.ensemble_id.html" xlink:title="&lt;TABLE&gt;" target="_top">
<polygon fill="none" stroke="black" points="277.703,-489 277.703,-508 467.703,-508 467.703,-489 277.703,-489"/>
<text text-anchor="start" x="282.703" y="-496.4" font-family="Helvetica,sans-Serif" font-size="9.00">ensemble_id</text>
</a>
<a xlink:href="/dictionaries/ihm-extension-6.dic/Items/_ihm_localization_density_files.entity_id.html" xlink:title="&lt;TABLE&gt;" target="_top">
<polygon fill="none" stroke="black" points="277.703,-470 277.703,-489 467.703,-489 467.703,-470 277.703,-470"/>
<text text-anchor="start" x="282.703" y="-477.4" font-family="Helvetica,sans-Serif" font-size="9.00">entity_id</text>
</a>
<a xlink:href="/dictionaries/ihm-extension-6.dic/Items/_ihm_localization_density_files.file_id.html" xlink:title="&lt;TABLE&gt;" target="_top">
<polygon fill="none" stroke="black" points="277.703,-451 277.703,-470 467.703,-470 467.703,-451 277.703,-451"/>
<text text-anchor="start" x="282.703" y="-458.4" font-family="Helvetica,sans-Serif" font-size="9.00">file_id</text>
</a>
<a xlink:href="/dictionaries/ihm-extension-6.dic/Items/_ihm_localization_density_files.seq_id_begin.html" xlink:title="&lt;TABLE&gt;" target="_top">
<polygon fill="none" stroke="black" points="277.703,-432 277.703,-451 467.703,-451 467.703,-432 277.703,-432"/>
<text text-anchor="start" x="282.703" y="-439.4" font-family="Helvetica,sans-Serif" font-size="9.00">seq_id_begin</text>
</a>
<a xlink:href="/dictionaries/ihm-extension-6.dic/Items/_ihm_localization_density_files.seq_id_end.html" xlink:title="&lt;TABLE&gt;" target="_top">
<polygon fill="none" stroke="black" points="277.703,-413 277.703,-432 467.703,-432 467.703,-413 277.703,-413"/>
<text text-anchor="start" x="282.703" y="-420.4" font-family="Helvetica,sans-Serif" font-size="9.00">seq_id_end</text>
</a>
</g>
<!-- _ihm_localization_density_files&#45;&gt;_ihm_external_files -->
<g id="edge8" class="edge"><title>_ihm_localization_density_files:__file_id:w&#45;&gt;_ihm_external_files:__id:w</title>
<path fill="none" stroke="black" d="M275.703,-460C263.363,-460 262.92,-365.874 271.938,-337.195"/>
<polygon fill="black" stroke="black" points="274.812,-339.193 277.703,-329 269.086,-335.165 274.812,-339.193"/>
</g>
<!-- _ihm_modeling_workflow_files -->
<g id="node6" class="node"><title>_ihm_modeling_workflow_files</title>
<a xlink:href="/dictionaries/ihm-extension-6.dic/Categories/ihm_modeling_workflow_files.html" xlink:title="&lt;TABLE&gt;" target="_top">
<polygon fill="#99c49b" stroke="#99c49b" points="501.703,-508 501.703,-529 688.703,-529 688.703,-508 501.703,-508"/>
<polygon fill="none" stroke="black" points="501.703,-508 501.703,-529 688.703,-529 688.703,-508 501.703,-508"/>
<text text-anchor="start" x="507.203" y="-516.167" font-family="Helvetica,sans-Serif" font-size="10.00">IHM_MODELING_WORKFLOW_FILES</text>
</a>
<a xlink:href="/dictionaries/ihm-extension-6.dic/Items/_ihm_modeling_workflow_files.file_id.html" xlink:title="&lt;TABLE&gt;" target="_top">
<polygon fill="#ffff99" stroke="#ffff99" points="501.703,-489 501.703,-508 688.703,-508 688.703,-489 501.703,-489"/>
<polygon fill="none" stroke="black" points="501.703,-489 501.703,-508 688.703,-508 688.703,-489 501.703,-489"/>
<text text-anchor="start" x="506.703" y="-496.4" font-family="Helvetica,sans-Serif" font-size="9.00">file_id</text>
</a>
<a xlink:href="/dictionaries/ihm-extension-6.dic/Items/_ihm_modeling_workflow_files.description.html" xlink:title="&lt;TABLE&gt;" target="_top">
<polygon fill="none" stroke="black" points="501.703,-470 501.703,-489 688.703,-489 688.703,-470 501.703,-470"/>
<text text-anchor="start" x="506.703" y="-477.4" font-family="Helvetica,sans-Serif" font-size="9.00">description</text>
</a>
<a xlink:href="/dictionaries/ihm-extension-6.dic/Items/_ihm_modeling_workflow_files.scripting_language.html" xlink:title="&lt;TABLE&gt;" target="_top">
<polygon fill="none" stroke="black" points="501.703,-451 501.703,-470 688.703,-470 688.703,-451 501.703,-451"/>
<text text-anchor="start" x="506.703" y="-458.4" font-family="Helvetica,sans-Serif" font-size="9.00">scripting_language</text>
</a>
</g>
<!-- _ihm_modeling_workflow_files&#45;&gt;_ihm_external_files -->
<g id="edge6" class="edge"><title>_ihm_modeling_workflow_files:__file_id:w&#45;&gt;_ihm_external_files:__id:w</title>
<path fill="none" stroke="black" d="M499.703,-499C479.427,-499 498.668,-423.7 484.703,-409 419.823,-340.709 336.728,-436.909 277.703,-363.5 271.097,-355.285 266.327,-342.059 268.973,-334.595"/>
<polygon fill="black" stroke="black" points="271.172,-337.343 277.703,-329 267.395,-331.449 271.172,-337.343"/>
</g>
</g>
</svg>
