<?xml version="1.0" encoding="UTF-8" standalone="no"?>
<!DOCTYPE svg PUBLIC "-//W3C//DTD SVG 1.1//EN"
 "http://www.w3.org/Graphics/SVG/1.1/DTD/svg11.dtd">
<!-- Generated by graphviz version 2.26.0 (20091210.2329)
 -->
<!-- Title: ihm_struct_assembly Pages: 1 -->
<svg width="497pt" height="911pt"
 viewBox="0.00 0.00 497.00 911.00" xmlns="http://www.w3.org/2000/svg" xmlns:xlink="http://www.w3.org/1999/xlink">
<g id="graph1" class="graph" transform="scale(1 1) rotate(0) translate(4 907)">
<title>ihm_struct_assembly</title>
<polygon fill="white" stroke="white" points="-4,5 -4,-907 494,-907 494,5 -4,5"/>
<text text-anchor="start" x="241.5" y="-51.8" font-family="Helvetica,sans-Serif" font-size="18.00"> </text>
<text text-anchor="start" x="8.5" y="-30.2" font-family="Helvetica,sans-Serif" font-size="18.00">Selected Relationships for Category &#160;</text>
<text text-anchor="start" x="303.5" y="-30.2" font-family="Helvetica,sans-Serif" font-size="18.00"> ihm_struct_assembly</text>
<text text-anchor="start" x="476.5" y="-29.8" font-family="Helvetica,sans-Serif" font-size="14.00"> </text>
<text text-anchor="start" x="160" y="-11.5333" font-family="Helvetica,sans-Serif" font-size="14.00"> &#160;in dictionary ihm&#45;extension</text>
<!-- _entity_poly_seq -->
<g id="node1" class="node"><title>_entity_poly_seq</title>
<a xlink:href="/dictionaries/ihm-extension-6.dic/Categories/entity_poly_seq.html" xlink:title="&lt;TABLE&gt;" target="_top">
<polygon fill="#99c49b" stroke="#99c49b" points="232.36,-149 232.36,-170 337.36,-170 337.36,-149 232.36,-149"/>
<polygon fill="none" stroke="black" points="232.36,-149 232.36,-170 337.36,-170 337.36,-149 232.36,-149"/>
<text text-anchor="start" x="237.86" y="-157.167" font-family="Helvetica,sans-Serif" font-size="10.00">ENTITY_POLY_SEQ</text>
</a>
<a xlink:href="/dictionaries/ihm-extension-6.dic/Items/_entity_poly_seq.entity_id.html" xlink:title="&lt;TABLE&gt;" target="_top">
<polygon fill="#ffff99" stroke="#ffff99" points="232.36,-130 232.36,-149 337.36,-149 337.36,-130 232.36,-130"/>
<polygon fill="none" stroke="black" points="232.36,-130 232.36,-149 337.36,-149 337.36,-130 232.36,-130"/>
<text text-anchor="start" x="237.36" y="-137.4" font-family="Helvetica,sans-Serif" font-size="9.00">entity_id</text>
</a>
<a xlink:href="/dictionaries/ihm-extension-6.dic/Items/_entity_poly_seq.mon_id.html" xlink:title="&lt;TABLE&gt;" target="_top">
<polygon fill="#ffff99" stroke="#ffff99" points="232.36,-111 232.36,-130 337.36,-130 337.36,-111 232.36,-111"/>
<polygon fill="none" stroke="black" points="232.36,-111 232.36,-130 337.36,-130 337.36,-111 232.36,-111"/>
<text text-anchor="start" x="237.36" y="-118.4" font-family="Helvetica,sans-Serif" font-size="9.00">mon_id</text>
</a>
<a xlink:href="/dictionaries/ihm-extension-6.dic/Items/_entity_poly_seq.num.html" xlink:title="&lt;TABLE&gt;" target="_top">
<polygon fill="#ffff99" stroke="#ffff99" points="232.36,-92 232.36,-111 337.36,-111 337.36,-92 232.36,-92"/>
<polygon fill="none" stroke="black" points="232.36,-92 232.36,-111 337.36,-111 337.36,-92 232.36,-92"/>
<text text-anchor="start" x="237.36" y="-99.4" font-family="Helvetica,sans-Serif" font-size="9.00">num</text>
</a>
<a xlink:href="/dictionaries/ihm-extension-6.dic/Items/_entity_poly_seq.hetero.html" xlink:title="&lt;TABLE&gt;" target="_top">
<polygon fill="none" stroke="black" points="232.36,-73 232.36,-92 337.36,-92 337.36,-73 232.36,-73"/>
<text text-anchor="start" x="237.36" y="-80.4" font-family="Helvetica,sans-Serif" font-size="9.00">hetero</text>
</a>
</g>
<!-- _ihm_dataset_list -->
<g id="node2" class="node"><title>_ihm_dataset_list</title>
<a xlink:href="/dictionaries/ihm-extension-6.dic/Categories/ihm_dataset_list.html" xlink:title="&lt;TABLE&gt;" target="_top">
<polygon fill="#99c49b" stroke="#99c49b" points="68.3597,-329 68.3597,-350 176.36,-350 176.36,-329 68.3597,-329"/>
<polygon fill="none" stroke="black" points="68.3597,-329 68.3597,-350 176.36,-350 176.36,-329 68.3597,-329"/>
<text text-anchor="start" x="73.8597" y="-337.167" font-family="Helvetica,sans-Serif" font-size="10.00">IHM_DATASET_LIST</text>
</a>
<a xlink:href="/dictionaries/ihm-extension-6.dic/Items/_ihm_dataset_list.ordinal_id.html" xlink:title="&lt;TABLE&gt;" target="_top">
<polygon fill="#ffff99" stroke="#ffff99" points="68.3597,-310 68.3597,-329 176.36,-329 176.36,-310 68.3597,-310"/>
<polygon fill="none" stroke="black" points="68.3597,-310 68.3597,-329 176.36,-329 176.36,-310 68.3597,-310"/>
<text text-anchor="start" x="73.3597" y="-317.4" font-family="Helvetica,sans-Serif" font-size="9.00">ordinal_id</text>
</a>
<a xlink:href="/dictionaries/ihm-extension-6.dic/Items/_ihm_dataset_list.data_type.html" xlink:title="&lt;TABLE&gt;" target="_top">
<polygon fill="none" stroke="black" points="68.3597,-291 68.3597,-310 176.36,-310 176.36,-291 68.3597,-291"/>
<text text-anchor="start" x="73.3597" y="-298.4" font-family="Helvetica,sans-Serif" font-size="9.00">data_type</text>
</a>
<a xlink:href="/dictionaries/ihm-extension-6.dic/Items/_ihm_dataset_list.database_hosted.html" xlink:title="&lt;TABLE&gt;" target="_top">
<polygon fill="none" stroke="black" points="68.3597,-272 68.3597,-291 176.36,-291 176.36,-272 68.3597,-272"/>
<text text-anchor="start" x="73.3597" y="-279.4" font-family="Helvetica,sans-Serif" font-size="9.00">database_hosted</text>
</a>
<a xlink:href="/dictionaries/ihm-extension-6.dic/Items/_ihm_dataset_list.group_id.html" xlink:title="&lt;TABLE&gt;" target="_top">
<polygon fill="none" stroke="black" points="68.3597,-253 68.3597,-272 176.36,-272 176.36,-253 68.3597,-253"/>
<text text-anchor="start" x="73.3597" y="-260.4" font-family="Helvetica,sans-Serif" font-size="9.00">group_id</text>
</a>
<a xlink:href="/dictionaries/ihm-extension-6.dic/Items/_ihm_dataset_list.id.html" xlink:title="&lt;TABLE&gt;" target="_top">
<polygon fill="none" stroke="black" points="68.3597,-234 68.3597,-253 176.36,-253 176.36,-234 68.3597,-234"/>
<text text-anchor="start" x="73.3597" y="-241.4" font-family="Helvetica,sans-Serif" font-size="9.00">id</text>
</a>
</g>
<!-- _ihm_model_list -->
<g id="node3" class="node"><title>_ihm_model_list</title>
<a xlink:href="/dictionaries/ihm-extension-6.dic/Categories/ihm_model_list.html" xlink:title="&lt;TABLE&gt;" target="_top">
<polygon fill="#99c49b" stroke="#99c49b" points="161.36,-878 161.36,-899 258.36,-899 258.36,-878 161.36,-878"/>
<polygon fill="none" stroke="black" points="161.36,-878 161.36,-899 258.36,-899 258.36,-878 161.36,-878"/>
<text text-anchor="start" x="166.86" y="-886.167" font-family="Helvetica,sans-Serif" font-size="10.00">IHM_MODEL_LIST</text>
</a>
<a xlink:href="/dictionaries/ihm-extension-6.dic/Items/_ihm_model_list.ordinal_id.html" xlink:title="&lt;TABLE&gt;" target="_top">
<polygon fill="#ffff99" stroke="#ffff99" points="161.36,-859 161.36,-878 258.36,-878 258.36,-859 161.36,-859"/>
<polygon fill="none" stroke="black" points="161.36,-859 161.36,-878 258.36,-878 258.36,-859 161.36,-859"/>
<text text-anchor="start" x="166.36" y="-866.4" font-family="Helvetica,sans-Serif" font-size="9.00">ordinal_id</text>
</a>
<a xlink:href="/dictionaries/ihm-extension-6.dic/Items/_ihm_model_list.assembly_id.html" xlink:title="&lt;TABLE&gt;" target="_top">
<polygon fill="none" stroke="black" points="161.36,-840 161.36,-859 258.36,-859 258.36,-840 161.36,-840"/>
<text text-anchor="start" x="166.36" y="-847.4" font-family="Helvetica,sans-Serif" font-size="9.00">assembly_id</text>
</a>
<a xlink:href="/dictionaries/ihm-extension-6.dic/Items/_ihm_model_list.model_group_id.html" xlink:title="&lt;TABLE&gt;" target="_top">
<polygon fill="none" stroke="black" points="161.36,-821 161.36,-840 258.36,-840 258.36,-821 161.36,-821"/>
<text text-anchor="start" x="166.36" y="-828.4" font-family="Helvetica,sans-Serif" font-size="9.00">model_group_id</text>
</a>
<a xlink:href="/dictionaries/ihm-extension-6.dic/Items/_ihm_model_list.model_group_name.html" xlink:title="&lt;TABLE&gt;" target="_top">
<polygon fill="none" stroke="black" points="161.36,-802 161.36,-821 258.36,-821 258.36,-802 161.36,-802"/>
<text text-anchor="start" x="166.36" y="-809.4" font-family="Helvetica,sans-Serif" font-size="9.00">model_group_name</text>
</a>
<a xlink:href="/dictionaries/ihm-extension-6.dic/Items/_ihm_model_list.model_id.html" xlink:title="&lt;TABLE&gt;" target="_top">
<polygon fill="none" stroke="black" points="161.36,-783 161.36,-802 258.36,-802 258.36,-783 161.36,-783"/>
<text text-anchor="start" x="166.36" y="-790.4" font-family="Helvetica,sans-Serif" font-size="9.00">model_id</text>
</a>
<a xlink:href="/dictionaries/ihm-extension-6.dic/Items/_ihm_model_list.model_name.html" xlink:title="&lt;TABLE&gt;" target="_top">
<polygon fill="none" stroke="black" points="161.36,-764 161.36,-783 258.36,-783 258.36,-764 161.36,-764"/>
<text text-anchor="start" x="166.36" y="-771.4" font-family="Helvetica,sans-Serif" font-size="9.00">model_name</text>
</a>
<a xlink:href="/dictionaries/ihm-extension-6.dic/Items/_ihm_model_list.protocol_id.html" xlink:title="&lt;TABLE&gt;" target="_top">
<polygon fill="none" stroke="black" points="161.36,-745 161.36,-764 258.36,-764 258.36,-745 161.36,-745"/>
<text text-anchor="start" x="166.36" y="-752.4" font-family="Helvetica,sans-Serif" font-size="9.00">protocol_id</text>
</a>
</g>
<!-- _ihm_modeling_protocol -->
<g id="node4" class="node"><title>_ihm_modeling_protocol</title>
<a xlink:href="/dictionaries/ihm-extension-6.dic/Categories/ihm_modeling_protocol.html" xlink:title="&lt;TABLE&gt;" target="_top">
<polygon fill="#99c49b" stroke="#99c49b" points="68.3597,-679 68.3597,-700 218.36,-700 218.36,-679 68.3597,-679"/>
<polygon fill="none" stroke="black" points="68.3597,-679 68.3597,-700 218.36,-700 218.36,-679 68.3597,-679"/>
<text text-anchor="start" x="73.8597" y="-687.167" font-family="Helvetica,sans-Serif" font-size="10.00">IHM_MODELING_PROTOCOL</text>
</a>
<a xlink:href="/dictionaries/ihm-extension-6.dic/Items/_ihm_modeling_protocol.ordinal_id.html" xlink:title="&lt;TABLE&gt;" target="_top">
<polygon fill="#ffff99" stroke="#ffff99" points="68.3597,-660 68.3597,-679 218.36,-679 218.36,-660 68.3597,-660"/>
<polygon fill="none" stroke="black" points="68.3597,-660 68.3597,-679 218.36,-679 218.36,-660 68.3597,-660"/>
<text text-anchor="start" x="73.3597" y="-667.4" font-family="Helvetica,sans-Serif" font-size="9.00">ordinal_id</text>
</a>
<a xlink:href="/dictionaries/ihm-extension-6.dic/Items/_ihm_modeling_protocol.struct_assembly_id.html" xlink:title="&lt;TABLE&gt;" target="_top">
<polygon fill="none" stroke="black" points="68.3597,-641 68.3597,-660 218.36,-660 218.36,-641 68.3597,-641"/>
<text text-anchor="start" x="73.3597" y="-648.4" font-family="Helvetica,sans-Serif" font-size="9.00">struct_assembly_id</text>
</a>
<a xlink:href="/dictionaries/ihm-extension-6.dic/Items/_ihm_modeling_protocol.dataset_group_id.html" xlink:title="&lt;TABLE&gt;" target="_top">
<polygon fill="none" stroke="black" points="68.3597,-622 68.3597,-641 218.36,-641 218.36,-622 68.3597,-622"/>
<text text-anchor="start" x="73.3597" y="-629.4" font-family="Helvetica,sans-Serif" font-size="9.00">dataset_group_id</text>
</a>
<a xlink:href="/dictionaries/ihm-extension-6.dic/Items/_ihm_modeling_protocol.multi_scale_flag.html" xlink:title="&lt;TABLE&gt;" target="_top">
<polygon fill="none" stroke="black" points="68.3597,-603 68.3597,-622 218.36,-622 218.36,-603 68.3597,-603"/>
<text text-anchor="start" x="73.3597" y="-610.4" font-family="Helvetica,sans-Serif" font-size="9.00">multi_scale_flag</text>
</a>
<a xlink:href="/dictionaries/ihm-extension-6.dic/Items/_ihm_modeling_protocol.multi_state_flag.html" xlink:title="&lt;TABLE&gt;" target="_top">
<polygon fill="none" stroke="black" points="68.3597,-584 68.3597,-603 218.36,-603 218.36,-584 68.3597,-584"/>
<text text-anchor="start" x="73.3597" y="-591.4" font-family="Helvetica,sans-Serif" font-size="9.00">multi_state_flag</text>
</a>
<a xlink:href="/dictionaries/ihm-extension-6.dic/Items/_ihm_modeling_protocol.num_models_begin.html" xlink:title="&lt;TABLE&gt;" target="_top">
<polygon fill="none" stroke="black" points="68.3597,-565 68.3597,-584 218.36,-584 218.36,-565 68.3597,-565"/>
<text text-anchor="start" x="73.3597" y="-572.4" font-family="Helvetica,sans-Serif" font-size="9.00">num_models_begin</text>
</a>
<a xlink:href="/dictionaries/ihm-extension-6.dic/Items/_ihm_modeling_protocol.num_models_end.html" xlink:title="&lt;TABLE&gt;" target="_top">
<polygon fill="none" stroke="black" points="68.3597,-546 68.3597,-565 218.36,-565 218.36,-546 68.3597,-546"/>
<text text-anchor="start" x="73.3597" y="-553.4" font-family="Helvetica,sans-Serif" font-size="9.00">num_models_end</text>
</a>
<a xlink:href="/dictionaries/ihm-extension-6.dic/Items/_ihm_modeling_protocol.protocol_id.html" xlink:title="&lt;TABLE&gt;" target="_top">
<polygon fill="none" stroke="black" points="68.3597,-527 68.3597,-546 218.36,-546 218.36,-527 68.3597,-527"/>
<text text-anchor="start" x="73.3597" y="-534.4" font-family="Helvetica,sans-Serif" font-size="9.00">protocol_id</text>
</a>
<a xlink:href="/dictionaries/ihm-extension-6.dic/Items/_ihm_modeling_protocol.protocol_name.html" xlink:title="&lt;TABLE&gt;" target="_top">
<polygon fill="none" stroke="black" points="68.3597,-508 68.3597,-527 218.36,-527 218.36,-508 68.3597,-508"/>
<text text-anchor="start" x="73.3597" y="-515.4" font-family="Helvetica,sans-Serif" font-size="9.00">protocol_name</text>
</a>
<a xlink:href="/dictionaries/ihm-extension-6.dic/Items/_ihm_modeling_protocol.step_id.html" xlink:title="&lt;TABLE&gt;" target="_top">
<polygon fill="none" stroke="black" points="68.3597,-489 68.3597,-508 218.36,-508 218.36,-489 68.3597,-489"/>
<text text-anchor="start" x="73.3597" y="-496.4" font-family="Helvetica,sans-Serif" font-size="9.00">step_id</text>
</a>
<a xlink:href="/dictionaries/ihm-extension-6.dic/Items/_ihm_modeling_protocol.step_method.html" xlink:title="&lt;TABLE&gt;" target="_top">
<polygon fill="none" stroke="black" points="68.3597,-470 68.3597,-489 218.36,-489 218.36,-470 68.3597,-470"/>
<text text-anchor="start" x="73.3597" y="-477.4" font-family="Helvetica,sans-Serif" font-size="9.00">step_method</text>
</a>
<a xlink:href="/dictionaries/ihm-extension-6.dic/Items/_ihm_modeling_protocol.step_name.html" xlink:title="&lt;TABLE&gt;" target="_top">
<polygon fill="none" stroke="black" points="68.3597,-451 68.3597,-470 218.36,-470 218.36,-451 68.3597,-451"/>
<text text-anchor="start" x="73.3597" y="-458.4" font-family="Helvetica,sans-Serif" font-size="9.00">step_name</text>
</a>
<a xlink:href="/dictionaries/ihm-extension-6.dic/Items/_ihm_modeling_protocol.struct_assembly_description.html" xlink:title="&lt;TABLE&gt;" target="_top">
<polygon fill="none" stroke="black" points="68.3597,-432 68.3597,-451 218.36,-451 218.36,-432 68.3597,-432"/>
<text text-anchor="start" x="73.3597" y="-439.4" font-family="Helvetica,sans-Serif" font-size="9.00">struct_assembly_description</text>
</a>
<a xlink:href="/dictionaries/ihm-extension-6.dic/Items/_ihm_modeling_protocol.time_ordered_flag.html" xlink:title="&lt;TABLE&gt;" target="_top">
<polygon fill="none" stroke="black" points="68.3597,-413 68.3597,-432 218.36,-432 218.36,-413 68.3597,-413"/>
<text text-anchor="start" x="73.3597" y="-420.4" font-family="Helvetica,sans-Serif" font-size="9.00">time_ordered_flag</text>
</a>
</g>
<!-- _ihm_model_list&#45;&gt;_ihm_modeling_protocol -->
<g id="edge12" class="edge"><title>_ihm_model_list:__protocol_id:w&#45;&gt;_ihm_modeling_protocol:__protocol_id:w</title>
<path fill="none" stroke="black" d="M159.36,-754C113.319,-754 91.8847,-744.077 68.3597,-704.5 31.9628,-643.269 -2.94879,-546.074 58.1744,-536.728"/>
<polygon fill="black" stroke="black" points="58.6347,-540.204 68.3597,-536 58.1355,-533.222 58.6347,-540.204"/>
</g>
<!-- _ihm_struct_assembly -->
<g id="node5" class="node"><title>_ihm_struct_assembly</title>
<a xlink:href="/dictionaries/ihm-extension-6.dic/Categories/ihm_struct_assembly.html" xlink:title="&lt;TABLE&gt;" target="_top">
<polygon fill="#f0027f" stroke="#f0027f" points="232.36,-348 232.36,-369 368.36,-369 368.36,-348 232.36,-348"/>
<polygon fill="none" stroke="black" points="232.36,-348 232.36,-369 368.36,-369 368.36,-348 232.36,-348"/>
<text text-anchor="start" x="237.86" y="-356.167" font-family="Helvetica,sans-Serif" font-size="10.00">IHM_STRUCT_ASSEMBLY</text>
</a>
<a xlink:href="/dictionaries/ihm-extension-6.dic/Items/_ihm_struct_assembly.ordinal_id.html" xlink:title="&lt;TABLE&gt;" target="_top">
<polygon fill="#ffff99" stroke="#ffff99" points="232.36,-329 232.36,-348 368.36,-348 368.36,-329 232.36,-329"/>
<polygon fill="none" stroke="black" points="232.36,-329 232.36,-348 368.36,-348 368.36,-329 232.36,-329"/>
<text text-anchor="start" x="237.36" y="-336.4" font-family="Helvetica,sans-Serif" font-size="9.00">ordinal_id</text>
</a>
<a xlink:href="/dictionaries/ihm-extension-6.dic/Items/_ihm_struct_assembly.assembly_id.html" xlink:title="&lt;TABLE&gt;" target="_top">
<polygon fill="none" stroke="black" points="232.36,-310 232.36,-329 368.36,-329 368.36,-310 232.36,-310"/>
<text text-anchor="start" x="237.36" y="-317.4" font-family="Helvetica,sans-Serif" font-size="9.00">assembly_id</text>
</a>
<a xlink:href="/dictionaries/ihm-extension-6.dic/Items/_ihm_struct_assembly.asym_id.html" xlink:title="&lt;TABLE&gt;" target="_top">
<polygon fill="none" stroke="black" points="232.36,-291 232.36,-310 368.36,-310 368.36,-291 232.36,-291"/>
<text text-anchor="start" x="237.36" y="-298.4" font-family="Helvetica,sans-Serif" font-size="9.00">asym_id</text>
</a>
<a xlink:href="/dictionaries/ihm-extension-6.dic/Items/_ihm_struct_assembly.entity_id.html" xlink:title="&lt;TABLE&gt;" target="_top">
<polygon fill="none" stroke="black" points="232.36,-272 232.36,-291 368.36,-291 368.36,-272 232.36,-272"/>
<text text-anchor="start" x="237.36" y="-279.4" font-family="Helvetica,sans-Serif" font-size="9.00">entity_id</text>
</a>
<a xlink:href="/dictionaries/ihm-extension-6.dic/Items/_ihm_struct_assembly.seq_id_begin.html" xlink:title="&lt;TABLE&gt;" target="_top">
<polygon fill="none" stroke="black" points="232.36,-253 232.36,-272 368.36,-272 368.36,-253 232.36,-253"/>
<text text-anchor="start" x="237.36" y="-260.4" font-family="Helvetica,sans-Serif" font-size="9.00">seq_id_begin</text>
</a>
<a xlink:href="/dictionaries/ihm-extension-6.dic/Items/_ihm_struct_assembly.seq_id_end.html" xlink:title="&lt;TABLE&gt;" target="_top">
<polygon fill="none" stroke="black" points="232.36,-234 232.36,-253 368.36,-253 368.36,-234 232.36,-234"/>
<text text-anchor="start" x="237.36" y="-241.4" font-family="Helvetica,sans-Serif" font-size="9.00">seq_id_end</text>
</a>
<a xlink:href="/dictionaries/ihm-extension-6.dic/Items/_ihm_struct_assembly.entity_description.html" xlink:title="&lt;TABLE&gt;" target="_top">
<polygon fill="none" stroke="black" points="232.36,-215 232.36,-234 368.36,-234 368.36,-215 232.36,-215"/>
<text text-anchor="start" x="237.36" y="-222.4" font-family="Helvetica,sans-Serif" font-size="9.00">entity_description</text>
</a>
</g>
<!-- _ihm_model_list&#45;&gt;_ihm_struct_assembly -->
<g id="edge10" class="edge"><title>_ihm_model_list:__assembly_id:w&#45;&gt;_ihm_struct_assembly:__assembly_id:w</title>
<path fill="none" stroke="black" d="M159.36,-850C110.907,-850 135.287,-781.84 161.36,-741 181.04,-710.172 215.963,-736.007 235.36,-705 305.13,-593.47 240.827,-540.442 235.36,-409 233.888,-373.627 200.979,-330.322 222.383,-321.581"/>
<polygon fill="black" stroke="black" points="223.031,-325.022 232.36,-320 221.935,-318.108 223.031,-325.022"/>
</g>
<!-- _ihm_modeling_protocol&#45;&gt;_ihm_dataset_list -->
<g id="edge8" class="edge"><title>_ihm_modeling_protocol:__dataset_group_id:w&#45;&gt;_ihm_dataset_list:__group_id:w</title>
<path fill="none" stroke="black" d="M66.3597,-632C28.2992,-632 27.1886,-314.884 59.8539,-267.812"/>
<polygon fill="black" stroke="black" points="62.0776,-270.531 68.3597,-262 58.1284,-264.752 62.0776,-270.531"/>
</g>
<!-- _ihm_modeling_protocol&#45;&gt;_ihm_struct_assembly -->
<g id="edge14" class="edge"><title>_ihm_modeling_protocol:__struct_assembly_id:w&#45;&gt;_ihm_struct_assembly:__assembly_id:w</title>
<path fill="none" stroke="black" d="M66.3597,-651C12.6912,-651 35.9876,-452.306 68.3597,-409.5 103.269,-363.338 145.931,-406.167 193.36,-373 213.956,-358.597 206.356,-329.807 222.373,-321.995"/>
<polygon fill="black" stroke="black" points="223.239,-325.391 232.36,-320 221.868,-318.527 223.239,-325.391"/>
</g>
<!-- _ihm_struct_assembly&#45;&gt;_entity_poly_seq -->
<g id="edge2" class="edge"><title>_ihm_struct_assembly:__entity_id:w&#45;&gt;_entity_poly_seq:__entity_id:w</title>
<path fill="none" stroke="black" d="M230.36,-281C202.451,-281 200.984,-169.157 223.135,-144.691"/>
<polygon fill="black" stroke="black" points="225.033,-147.653 232.36,-140 221.86,-141.414 225.033,-147.653"/>
</g>
<!-- _ihm_struct_assembly&#45;&gt;_entity_poly_seq -->
<g id="edge4" class="edge"><title>_ihm_struct_assembly:__seq_id_begin:w&#45;&gt;_entity_poly_seq:__num:w</title>
<path fill="none" stroke="black" d="M230.36,-262C198.073,-262 196.549,-130.91 222.847,-105.306"/>
<polygon fill="black" stroke="black" points="224.693,-108.313 232.36,-101 221.806,-101.936 224.693,-108.313"/>
</g>
<!-- _ihm_struct_assembly&#45;&gt;_entity_poly_seq -->
<g id="edge6" class="edge"><title>_ihm_struct_assembly:__seq_id_end:w&#45;&gt;_entity_poly_seq:__num:w</title>
<path fill="none" stroke="black" d="M230.36,-243C202.129,-243 200.752,-129.374 223.365,-105.405"/>
<polygon fill="black" stroke="black" points="224.919,-108.542 232.36,-101 221.839,-102.256 224.919,-108.542"/>
</g>
<!-- _struct_asym -->
<g id="node6" class="node"><title>_struct_asym</title>
<a xlink:href="/dictionaries/ihm-extension-6.dic/Categories/struct_asym.html" xlink:title="&lt;TABLE&gt;" target="_top">
<polygon fill="#99c49b" stroke="#99c49b" points="370.36,-140 370.36,-161 457.36,-161 457.36,-140 370.36,-140"/>
<polygon fill="none" stroke="black" points="370.36,-140 370.36,-161 457.36,-161 457.36,-140 370.36,-140"/>
<text text-anchor="start" x="375.86" y="-148.167" font-family="Helvetica,sans-Serif" font-size="10.00">STRUCT_ASYM</text>
</a>
<a xlink:href="/dictionaries/ihm-extension-6.dic/Items/_struct_asym.id.html" xlink:title="&lt;TABLE&gt;" target="_top">
<polygon fill="#ffff99" stroke="#ffff99" points="370.36,-121 370.36,-140 457.36,-140 457.36,-121 370.36,-121"/>
<polygon fill="none" stroke="black" points="370.36,-121 370.36,-140 457.36,-140 457.36,-121 370.36,-121"/>
<text text-anchor="start" x="375.36" y="-128.4" font-family="Helvetica,sans-Serif" font-size="9.00">id</text>
</a>
<a xlink:href="/dictionaries/ihm-extension-6.dic/Items/_struct_asym.details.html" xlink:title="&lt;TABLE&gt;" target="_top">
<polygon fill="none" stroke="black" points="370.36,-102 370.36,-121 457.36,-121 457.36,-102 370.36,-102"/>
<text text-anchor="start" x="375.36" y="-109.4" font-family="Helvetica,sans-Serif" font-size="9.00">details</text>
</a>
<a xlink:href="/dictionaries/ihm-extension-6.dic/Items/_struct_asym.entity_id.html" xlink:title="&lt;TABLE&gt;" target="_top">
<polygon fill="none" stroke="black" points="370.36,-83 370.36,-102 457.36,-102 457.36,-83 370.36,-83"/>
<text text-anchor="start" x="375.36" y="-90.4" font-family="Helvetica,sans-Serif" font-size="9.00">entity_id</text>
</a>
</g>
<!-- _ihm_struct_assembly&#45;&gt;_struct_asym -->
<g id="edge16" class="edge"><title>_ihm_struct_assembly:__asym_id:w&#45;&gt;_struct_asym:__id:w</title>
<path fill="none" stroke="black" d="M230.36,-301C190.35,-301 208.085,-242.805 232.36,-211 266.401,-166.399 312.14,-213.066 353.36,-175 365.151,-164.11 356.563,-144.104 361.298,-135.323"/>
<polygon fill="black" stroke="black" points="362.842,-138.465 370.36,-131 359.827,-132.148 362.842,-138.465"/>
</g>
</g>
</svg>
