<?xml version="1.0" encoding="UTF-8" standalone="no"?>
<!DOCTYPE svg PUBLIC "-//W3C//DTD SVG 1.1//EN"
 "http://www.w3.org/Graphics/SVG/1.1/DTD/svg11.dtd">
<!-- Generated by graphviz version 2.26.0 (20091210.2329)
 -->
<!-- Title: ihm_model_list Pages: 1 -->
<svg width="463pt" height="1261pt"
 viewBox="0.00 0.00 462.74 1261.00" xmlns="http://www.w3.org/2000/svg" xmlns:xlink="http://www.w3.org/1999/xlink">
<g id="graph1" class="graph" transform="scale(1 1) rotate(0) translate(4 1257)">
<title>ihm_model_list</title>
<polygon fill="white" stroke="white" points="-4,5 -4,-1257 459.742,-1257 459.742,5 -4,5"/>
<text text-anchor="start" x="224.371" y="-51.8" font-family="Helvetica,sans-Serif" font-size="18.00"> </text>
<text text-anchor="start" x="15.8708" y="-30.2" font-family="Helvetica,sans-Serif" font-size="18.00">Selected Relationships for Category &#160;</text>
<text text-anchor="start" x="310.871" y="-30.2" font-family="Helvetica,sans-Serif" font-size="18.00"> ihm_model_list</text>
<text text-anchor="start" x="434.871" y="-29.8" font-family="Helvetica,sans-Serif" font-size="14.00"> </text>
<text text-anchor="start" x="142.871" y="-11.5333" font-family="Helvetica,sans-Serif" font-size="14.00"> &#160;in dictionary ihm&#45;extension</text>
<!-- _ihm_dataset_list -->
<g id="node1" class="node"><title>_ihm_dataset_list</title>
<a xlink:href="/dictionaries/ihm-extension-6.dic/Categories/ihm_dataset_list.html" xlink:title="&lt;TABLE&gt;" target="_top">
<polygon fill="#99c49b" stroke="#99c49b" points="264.742,-187 264.742,-208 372.742,-208 372.742,-187 264.742,-187"/>
<polygon fill="none" stroke="black" points="264.742,-187 264.742,-208 372.742,-208 372.742,-187 264.742,-187"/>
<text text-anchor="start" x="270.242" y="-195.167" font-family="Helvetica,sans-Serif" font-size="10.00">IHM_DATASET_LIST</text>
</a>
<a xlink:href="/dictionaries/ihm-extension-6.dic/Items/_ihm_dataset_list.ordinal_id.html" xlink:title="&lt;TABLE&gt;" target="_top">
<polygon fill="#ffff99" stroke="#ffff99" points="264.742,-168 264.742,-187 372.742,-187 372.742,-168 264.742,-168"/>
<polygon fill="none" stroke="black" points="264.742,-168 264.742,-187 372.742,-187 372.742,-168 264.742,-168"/>
<text text-anchor="start" x="269.742" y="-175.4" font-family="Helvetica,sans-Serif" font-size="9.00">ordinal_id</text>
</a>
<a xlink:href="/dictionaries/ihm-extension-6.dic/Items/_ihm_dataset_list.data_type.html" xlink:title="&lt;TABLE&gt;" target="_top">
<polygon fill="none" stroke="black" points="264.742,-149 264.742,-168 372.742,-168 372.742,-149 264.742,-149"/>
<text text-anchor="start" x="269.742" y="-156.4" font-family="Helvetica,sans-Serif" font-size="9.00">data_type</text>
</a>
<a xlink:href="/dictionaries/ihm-extension-6.dic/Items/_ihm_dataset_list.database_hosted.html" xlink:title="&lt;TABLE&gt;" target="_top">
<polygon fill="none" stroke="black" points="264.742,-130 264.742,-149 372.742,-149 372.742,-130 264.742,-130"/>
<text text-anchor="start" x="269.742" y="-137.4" font-family="Helvetica,sans-Serif" font-size="9.00">database_hosted</text>
</a>
<a xlink:href="/dictionaries/ihm-extension-6.dic/Items/_ihm_dataset_list.group_id.html" xlink:title="&lt;TABLE&gt;" target="_top">
<polygon fill="none" stroke="black" points="264.742,-111 264.742,-130 372.742,-130 372.742,-111 264.742,-111"/>
<text text-anchor="start" x="269.742" y="-118.4" font-family="Helvetica,sans-Serif" font-size="9.00">group_id</text>
</a>
<a xlink:href="/dictionaries/ihm-extension-6.dic/Items/_ihm_dataset_list.id.html" xlink:title="&lt;TABLE&gt;" target="_top">
<polygon fill="none" stroke="black" points="264.742,-92 264.742,-111 372.742,-111 372.742,-92 264.742,-92"/>
<text text-anchor="start" x="269.742" y="-99.4" font-family="Helvetica,sans-Serif" font-size="9.00">id</text>
</a>
</g>
<!-- _ihm_ensemble_info -->
<g id="node2" class="node"><title>_ihm_ensemble_info</title>
<a xlink:href="/dictionaries/ihm-extension-6.dic/Categories/ihm_ensemble_info.html" xlink:title="&lt;TABLE&gt;" target="_top">
<polygon fill="#99c49b" stroke="#99c49b" points="290.742,-992 290.742,-1013 446.742,-1013 446.742,-992 290.742,-992"/>
<polygon fill="none" stroke="black" points="290.742,-992 290.742,-1013 446.742,-1013 446.742,-992 290.742,-992"/>
<text text-anchor="start" x="314.242" y="-1000.17" font-family="Helvetica,sans-Serif" font-size="10.00">IHM_ENSEMBLE_INFO</text>
</a>
<a xlink:href="/dictionaries/ihm-extension-6.dic/Items/_ihm_ensemble_info.ensemble_id.html" xlink:title="&lt;TABLE&gt;" target="_top">
<polygon fill="#ffff99" stroke="#ffff99" points="290.742,-973 290.742,-992 446.742,-992 446.742,-973 290.742,-973"/>
<polygon fill="none" stroke="black" points="290.742,-973 290.742,-992 446.742,-992 446.742,-973 290.742,-973"/>
<text text-anchor="start" x="295.742" y="-980.4" font-family="Helvetica,sans-Serif" font-size="9.00">ensemble_id</text>
</a>
<a xlink:href="/dictionaries/ihm-extension-6.dic/Items/_ihm_ensemble_info.model_group_id.html" xlink:title="&lt;TABLE&gt;" target="_top">
<polygon fill="none" stroke="black" points="290.742,-954 290.742,-973 446.742,-973 446.742,-954 290.742,-954"/>
<text text-anchor="start" x="295.742" y="-961.4" font-family="Helvetica,sans-Serif" font-size="9.00">model_group_id</text>
</a>
<a xlink:href="/dictionaries/ihm-extension-6.dic/Items/_ihm_ensemble_info.ensemble_clustering_feature.html" xlink:title="&lt;TABLE&gt;" target="_top">
<polygon fill="none" stroke="black" points="290.742,-935 290.742,-954 446.742,-954 446.742,-935 290.742,-935"/>
<text text-anchor="start" x="295.742" y="-942.4" font-family="Helvetica,sans-Serif" font-size="9.00">ensemble_clustering_feature</text>
</a>
<a xlink:href="/dictionaries/ihm-extension-6.dic/Items/_ihm_ensemble_info.ensemble_clustering_method.html" xlink:title="&lt;TABLE&gt;" target="_top">
<polygon fill="none" stroke="black" points="290.742,-916 290.742,-935 446.742,-935 446.742,-916 290.742,-916"/>
<text text-anchor="start" x="295.742" y="-923.4" font-family="Helvetica,sans-Serif" font-size="9.00">ensemble_clustering_method</text>
</a>
<a xlink:href="/dictionaries/ihm-extension-6.dic/Items/_ihm_ensemble_info.ensemble_name.html" xlink:title="&lt;TABLE&gt;" target="_top">
<polygon fill="none" stroke="black" points="290.742,-897 290.742,-916 446.742,-916 446.742,-897 290.742,-897"/>
<text text-anchor="start" x="295.742" y="-904.4" font-family="Helvetica,sans-Serif" font-size="9.00">ensemble_name</text>
</a>
<a xlink:href="/dictionaries/ihm-extension-6.dic/Items/_ihm_ensemble_info.ensemble_precision_value.html" xlink:title="&lt;TABLE&gt;" target="_top">
<polygon fill="none" stroke="black" points="290.742,-878 290.742,-897 446.742,-897 446.742,-878 290.742,-878"/>
<text text-anchor="start" x="295.742" y="-885.4" font-family="Helvetica,sans-Serif" font-size="9.00">ensemble_precision_value</text>
</a>
<a xlink:href="/dictionaries/ihm-extension-6.dic/Items/_ihm_ensemble_info.num_ensemble_models.html" xlink:title="&lt;TABLE&gt;" target="_top">
<polygon fill="none" stroke="black" points="290.742,-859 290.742,-878 446.742,-878 446.742,-859 290.742,-859"/>
<text text-anchor="start" x="295.742" y="-866.4" font-family="Helvetica,sans-Serif" font-size="9.00">num_ensemble_models</text>
</a>
<a xlink:href="/dictionaries/ihm-extension-6.dic/Items/_ihm_ensemble_info.num_ensemble_models_deposited.html" xlink:title="&lt;TABLE&gt;" target="_top">
<polygon fill="none" stroke="black" points="290.742,-840 290.742,-859 446.742,-859 446.742,-840 290.742,-840"/>
<text text-anchor="start" x="295.742" y="-847.4" font-family="Helvetica,sans-Serif" font-size="9.00">num_ensemble_models_deposited</text>
</a>
<a xlink:href="/dictionaries/ihm-extension-6.dic/Items/_ihm_ensemble_info.post_process_id.html" xlink:title="&lt;TABLE&gt;" target="_top">
<polygon fill="none" stroke="black" points="290.742,-821 290.742,-840 446.742,-840 446.742,-821 290.742,-821"/>
<text text-anchor="start" x="295.742" y="-828.4" font-family="Helvetica,sans-Serif" font-size="9.00">post_process_id</text>
</a>
</g>
<!-- _ihm_model_list -->
<g id="node3" class="node"><title>_ihm_model_list</title>
<a xlink:href="/dictionaries/ihm-extension-6.dic/Categories/ihm_model_list.html" xlink:title="&lt;TABLE&gt;" target="_top">
<polygon fill="#f0027f" stroke="#f0027f" points="94.7416,-746 94.7416,-767 191.742,-767 191.742,-746 94.7416,-746"/>
<polygon fill="none" stroke="black" points="94.7416,-746 94.7416,-767 191.742,-767 191.742,-746 94.7416,-746"/>
<text text-anchor="start" x="100.242" y="-754.167" font-family="Helvetica,sans-Serif" font-size="10.00">IHM_MODEL_LIST</text>
</a>
<a xlink:href="/dictionaries/ihm-extension-6.dic/Items/_ihm_model_list.ordinal_id.html" xlink:title="&lt;TABLE&gt;" target="_top">
<polygon fill="#ffff99" stroke="#ffff99" points="94.7416,-727 94.7416,-746 191.742,-746 191.742,-727 94.7416,-727"/>
<polygon fill="none" stroke="black" points="94.7416,-727 94.7416,-746 191.742,-746 191.742,-727 94.7416,-727"/>
<text text-anchor="start" x="99.7416" y="-734.4" font-family="Helvetica,sans-Serif" font-size="9.00">ordinal_id</text>
</a>
<a xlink:href="/dictionaries/ihm-extension-6.dic/Items/_ihm_model_list.assembly_id.html" xlink:title="&lt;TABLE&gt;" target="_top">
<polygon fill="none" stroke="black" points="94.7416,-708 94.7416,-727 191.742,-727 191.742,-708 94.7416,-708"/>
<text text-anchor="start" x="99.7416" y="-715.4" font-family="Helvetica,sans-Serif" font-size="9.00">assembly_id</text>
</a>
<a xlink:href="/dictionaries/ihm-extension-6.dic/Items/_ihm_model_list.model_group_id.html" xlink:title="&lt;TABLE&gt;" target="_top">
<polygon fill="none" stroke="black" points="94.7416,-689 94.7416,-708 191.742,-708 191.742,-689 94.7416,-689"/>
<text text-anchor="start" x="99.7416" y="-696.4" font-family="Helvetica,sans-Serif" font-size="9.00">model_group_id</text>
</a>
<a xlink:href="/dictionaries/ihm-extension-6.dic/Items/_ihm_model_list.model_id.html" xlink:title="&lt;TABLE&gt;" target="_top">
<polygon fill="none" stroke="black" points="94.7416,-670 94.7416,-689 191.742,-689 191.742,-670 94.7416,-670"/>
<text text-anchor="start" x="99.7416" y="-677.4" font-family="Helvetica,sans-Serif" font-size="9.00">model_id</text>
</a>
<a xlink:href="/dictionaries/ihm-extension-6.dic/Items/_ihm_model_list.protocol_id.html" xlink:title="&lt;TABLE&gt;" target="_top">
<polygon fill="none" stroke="black" points="94.7416,-651 94.7416,-670 191.742,-670 191.742,-651 94.7416,-651"/>
<text text-anchor="start" x="99.7416" y="-658.4" font-family="Helvetica,sans-Serif" font-size="9.00">protocol_id</text>
</a>
<a xlink:href="/dictionaries/ihm-extension-6.dic/Items/_ihm_model_list.model_group_name.html" xlink:title="&lt;TABLE&gt;" target="_top">
<polygon fill="none" stroke="black" points="94.7416,-632 94.7416,-651 191.742,-651 191.742,-632 94.7416,-632"/>
<text text-anchor="start" x="99.7416" y="-639.4" font-family="Helvetica,sans-Serif" font-size="9.00">model_group_name</text>
</a>
<a xlink:href="/dictionaries/ihm-extension-6.dic/Items/_ihm_model_list.model_name.html" xlink:title="&lt;TABLE&gt;" target="_top">
<polygon fill="none" stroke="black" points="94.7416,-613 94.7416,-632 191.742,-632 191.742,-613 94.7416,-613"/>
<text text-anchor="start" x="99.7416" y="-620.4" font-family="Helvetica,sans-Serif" font-size="9.00">model_name</text>
</a>
</g>
<!-- _ihm_ensemble_info&#45;&gt;_ihm_model_list -->
<g id="edge4" class="edge"><title>_ihm_ensemble_info:__model_group_id:w&#45;&gt;_ihm_model_list:__model_group_id:w</title>
<path fill="none" stroke="black" d="M288.742,-964C255.905,-964 295.157,-841.892 273.742,-817 220.17,-754.733 145.079,-835.909 94.7416,-771 77.5826,-748.874 65.9518,-710.343 84.7498,-701.057"/>
<polygon fill="black" stroke="black" points="85.6526,-704.444 94.7416,-699 84.2413,-697.588 85.6526,-704.444"/>
</g>
<!-- _ihm_modeling_post_process -->
<g id="node4" class="node"><title>_ihm_modeling_post_process</title>
<a xlink:href="/dictionaries/ihm-extension-6.dic/Categories/ihm_modeling_post_process.html" xlink:title="&lt;TABLE&gt;" target="_top">
<polygon fill="#99c49b" stroke="#99c49b" points="251.742,-755 251.742,-776 427.742,-776 427.742,-755 251.742,-755"/>
<polygon fill="none" stroke="black" points="251.742,-755 251.742,-776 427.742,-776 427.742,-755 251.742,-755"/>
<text text-anchor="start" x="257.242" y="-763.167" font-family="Helvetica,sans-Serif" font-size="10.00">IHM_MODELING_POST_PROCESS</text>
</a>
<a xlink:href="/dictionaries/ihm-extension-6.dic/Items/_ihm_modeling_post_process.id.html" xlink:title="&lt;TABLE&gt;" target="_top">
<polygon fill="#ffff99" stroke="#ffff99" points="251.742,-736 251.742,-755 427.742,-755 427.742,-736 251.742,-736"/>
<polygon fill="none" stroke="black" points="251.742,-736 251.742,-755 427.742,-755 427.742,-736 251.742,-736"/>
<text text-anchor="start" x="256.742" y="-743.4" font-family="Helvetica,sans-Serif" font-size="9.00">id</text>
</a>
<a xlink:href="/dictionaries/ihm-extension-6.dic/Items/_ihm_modeling_post_process.analysis_id.html" xlink:title="&lt;TABLE&gt;" target="_top">
<polygon fill="none" stroke="black" points="251.742,-717 251.742,-736 427.742,-736 427.742,-717 251.742,-717"/>
<text text-anchor="start" x="256.742" y="-724.4" font-family="Helvetica,sans-Serif" font-size="9.00">analysis_id</text>
</a>
<a xlink:href="/dictionaries/ihm-extension-6.dic/Items/_ihm_modeling_post_process.feature.html" xlink:title="&lt;TABLE&gt;" target="_top">
<polygon fill="none" stroke="black" points="251.742,-698 251.742,-717 427.742,-717 427.742,-698 251.742,-698"/>
<text text-anchor="start" x="256.742" y="-705.4" font-family="Helvetica,sans-Serif" font-size="9.00">feature</text>
</a>
<a xlink:href="/dictionaries/ihm-extension-6.dic/Items/_ihm_modeling_post_process.num_models_begin.html" xlink:title="&lt;TABLE&gt;" target="_top">
<polygon fill="none" stroke="black" points="251.742,-679 251.742,-698 427.742,-698 427.742,-679 251.742,-679"/>
<text text-anchor="start" x="256.742" y="-686.4" font-family="Helvetica,sans-Serif" font-size="9.00">num_models_begin</text>
</a>
<a xlink:href="/dictionaries/ihm-extension-6.dic/Items/_ihm_modeling_post_process.num_models_end.html" xlink:title="&lt;TABLE&gt;" target="_top">
<polygon fill="none" stroke="black" points="251.742,-660 251.742,-679 427.742,-679 427.742,-660 251.742,-660"/>
<text text-anchor="start" x="256.742" y="-667.4" font-family="Helvetica,sans-Serif" font-size="9.00">num_models_end</text>
</a>
<a xlink:href="/dictionaries/ihm-extension-6.dic/Items/_ihm_modeling_post_process.protocol_id.html" xlink:title="&lt;TABLE&gt;" target="_top">
<polygon fill="none" stroke="black" points="251.742,-641 251.742,-660 427.742,-660 427.742,-641 251.742,-641"/>
<text text-anchor="start" x="256.742" y="-648.4" font-family="Helvetica,sans-Serif" font-size="9.00">protocol_id</text>
</a>
<a xlink:href="/dictionaries/ihm-extension-6.dic/Items/_ihm_modeling_post_process.step_id.html" xlink:title="&lt;TABLE&gt;" target="_top">
<polygon fill="none" stroke="black" points="251.742,-622 251.742,-641 427.742,-641 427.742,-622 251.742,-622"/>
<text text-anchor="start" x="256.742" y="-629.4" font-family="Helvetica,sans-Serif" font-size="9.00">step_id</text>
</a>
<a xlink:href="/dictionaries/ihm-extension-6.dic/Items/_ihm_modeling_post_process.type.html" xlink:title="&lt;TABLE&gt;" target="_top">
<polygon fill="none" stroke="black" points="251.742,-603 251.742,-622 427.742,-622 427.742,-603 251.742,-603"/>
<text text-anchor="start" x="256.742" y="-610.4" font-family="Helvetica,sans-Serif" font-size="9.00">type</text>
</a>
</g>
<!-- _ihm_ensemble_info&#45;&gt;_ihm_modeling_post_process -->
<g id="edge6" class="edge"><title>_ihm_ensemble_info:__post_process_id:w&#45;&gt;_ihm_modeling_post_process:__id:w</title>
<path fill="none" stroke="black" d="M288.742,-830C281.875,-830 253.908,-787.016 251.742,-780.5 248.605,-771.065 243.089,-759.36 243.779,-752.296"/>
<polygon fill="black" stroke="black" points="246.068,-754.948 251.742,-746 241.726,-749.457 246.068,-754.948"/>
</g>
<!-- _ihm_modeling_protocol -->
<g id="node5" class="node"><title>_ihm_modeling_protocol</title>
<a xlink:href="/dictionaries/ihm-extension-6.dic/Categories/ihm_modeling_protocol.html" xlink:title="&lt;TABLE&gt;" target="_top">
<polygon fill="#99c49b" stroke="#99c49b" points="238.742,-537 238.742,-558 388.742,-558 388.742,-537 238.742,-537"/>
<polygon fill="none" stroke="black" points="238.742,-537 238.742,-558 388.742,-558 388.742,-537 238.742,-537"/>
<text text-anchor="start" x="244.242" y="-545.167" font-family="Helvetica,sans-Serif" font-size="10.00">IHM_MODELING_PROTOCOL</text>
</a>
<a xlink:href="/dictionaries/ihm-extension-6.dic/Items/_ihm_modeling_protocol.ordinal_id.html" xlink:title="&lt;TABLE&gt;" target="_top">
<polygon fill="#ffff99" stroke="#ffff99" points="238.742,-518 238.742,-537 388.742,-537 388.742,-518 238.742,-518"/>
<polygon fill="none" stroke="black" points="238.742,-518 238.742,-537 388.742,-537 388.742,-518 238.742,-518"/>
<text text-anchor="start" x="243.742" y="-525.4" font-family="Helvetica,sans-Serif" font-size="9.00">ordinal_id</text>
</a>
<a xlink:href="/dictionaries/ihm-extension-6.dic/Items/_ihm_modeling_protocol.protocol_id.html" xlink:title="&lt;TABLE&gt;" target="_top">
<polygon fill="none" stroke="black" points="238.742,-499 238.742,-518 388.742,-518 388.742,-499 238.742,-499"/>
<text text-anchor="start" x="243.742" y="-506.4" font-family="Helvetica,sans-Serif" font-size="9.00">protocol_id</text>
</a>
<a xlink:href="/dictionaries/ihm-extension-6.dic/Items/_ihm_modeling_protocol.dataset_group_id.html" xlink:title="&lt;TABLE&gt;" target="_top">
<polygon fill="none" stroke="black" points="238.742,-480 238.742,-499 388.742,-499 388.742,-480 238.742,-480"/>
<text text-anchor="start" x="243.742" y="-487.4" font-family="Helvetica,sans-Serif" font-size="9.00">dataset_group_id</text>
</a>
<a xlink:href="/dictionaries/ihm-extension-6.dic/Items/_ihm_modeling_protocol.multi_scale_flag.html" xlink:title="&lt;TABLE&gt;" target="_top">
<polygon fill="none" stroke="black" points="238.742,-461 238.742,-480 388.742,-480 388.742,-461 238.742,-461"/>
<text text-anchor="start" x="243.742" y="-468.4" font-family="Helvetica,sans-Serif" font-size="9.00">multi_scale_flag</text>
</a>
<a xlink:href="/dictionaries/ihm-extension-6.dic/Items/_ihm_modeling_protocol.multi_state_flag.html" xlink:title="&lt;TABLE&gt;" target="_top">
<polygon fill="none" stroke="black" points="238.742,-442 238.742,-461 388.742,-461 388.742,-442 238.742,-442"/>
<text text-anchor="start" x="243.742" y="-449.4" font-family="Helvetica,sans-Serif" font-size="9.00">multi_state_flag</text>
</a>
<a xlink:href="/dictionaries/ihm-extension-6.dic/Items/_ihm_modeling_protocol.num_models_begin.html" xlink:title="&lt;TABLE&gt;" target="_top">
<polygon fill="none" stroke="black" points="238.742,-423 238.742,-442 388.742,-442 388.742,-423 238.742,-423"/>
<text text-anchor="start" x="243.742" y="-430.4" font-family="Helvetica,sans-Serif" font-size="9.00">num_models_begin</text>
</a>
<a xlink:href="/dictionaries/ihm-extension-6.dic/Items/_ihm_modeling_protocol.num_models_end.html" xlink:title="&lt;TABLE&gt;" target="_top">
<polygon fill="none" stroke="black" points="238.742,-404 238.742,-423 388.742,-423 388.742,-404 238.742,-404"/>
<text text-anchor="start" x="243.742" y="-411.4" font-family="Helvetica,sans-Serif" font-size="9.00">num_models_end</text>
</a>
<a xlink:href="/dictionaries/ihm-extension-6.dic/Items/_ihm_modeling_protocol.protocol_name.html" xlink:title="&lt;TABLE&gt;" target="_top">
<polygon fill="none" stroke="black" points="238.742,-385 238.742,-404 388.742,-404 388.742,-385 238.742,-385"/>
<text text-anchor="start" x="243.742" y="-392.4" font-family="Helvetica,sans-Serif" font-size="9.00">protocol_name</text>
</a>
<a xlink:href="/dictionaries/ihm-extension-6.dic/Items/_ihm_modeling_protocol.step_id.html" xlink:title="&lt;TABLE&gt;" target="_top">
<polygon fill="none" stroke="black" points="238.742,-366 238.742,-385 388.742,-385 388.742,-366 238.742,-366"/>
<text text-anchor="start" x="243.742" y="-373.4" font-family="Helvetica,sans-Serif" font-size="9.00">step_id</text>
</a>
<a xlink:href="/dictionaries/ihm-extension-6.dic/Items/_ihm_modeling_protocol.step_method.html" xlink:title="&lt;TABLE&gt;" target="_top">
<polygon fill="none" stroke="black" points="238.742,-347 238.742,-366 388.742,-366 388.742,-347 238.742,-347"/>
<text text-anchor="start" x="243.742" y="-354.4" font-family="Helvetica,sans-Serif" font-size="9.00">step_method</text>
</a>
<a xlink:href="/dictionaries/ihm-extension-6.dic/Items/_ihm_modeling_protocol.step_name.html" xlink:title="&lt;TABLE&gt;" target="_top">
<polygon fill="none" stroke="black" points="238.742,-328 238.742,-347 388.742,-347 388.742,-328 238.742,-328"/>
<text text-anchor="start" x="243.742" y="-335.4" font-family="Helvetica,sans-Serif" font-size="9.00">step_name</text>
</a>
<a xlink:href="/dictionaries/ihm-extension-6.dic/Items/_ihm_modeling_protocol.struct_assembly_description.html" xlink:title="&lt;TABLE&gt;" target="_top">
<polygon fill="none" stroke="black" points="238.742,-309 238.742,-328 388.742,-328 388.742,-309 238.742,-309"/>
<text text-anchor="start" x="243.742" y="-316.4" font-family="Helvetica,sans-Serif" font-size="9.00">struct_assembly_description</text>
</a>
<a xlink:href="/dictionaries/ihm-extension-6.dic/Items/_ihm_modeling_protocol.struct_assembly_id.html" xlink:title="&lt;TABLE&gt;" target="_top">
<polygon fill="none" stroke="black" points="238.742,-290 238.742,-309 388.742,-309 388.742,-290 238.742,-290"/>
<text text-anchor="start" x="243.742" y="-297.4" font-family="Helvetica,sans-Serif" font-size="9.00">struct_assembly_id</text>
</a>
<a xlink:href="/dictionaries/ihm-extension-6.dic/Items/_ihm_modeling_protocol.time_ordered_flag.html" xlink:title="&lt;TABLE&gt;" target="_top">
<polygon fill="none" stroke="black" points="238.742,-271 238.742,-290 388.742,-290 388.742,-271 238.742,-271"/>
<text text-anchor="start" x="243.742" y="-278.4" font-family="Helvetica,sans-Serif" font-size="9.00">time_ordered_flag</text>
</a>
</g>
<!-- _ihm_model_list&#45;&gt;_ihm_modeling_protocol -->
<g id="edge16" class="edge"><title>_ihm_model_list:__protocol_id:w&#45;&gt;_ihm_modeling_protocol:__protocol_id:w</title>
<path fill="none" stroke="black" d="M92.7416,-660C2.67217,-660 135.42,-519.431 228.713,-509.547"/>
<polygon fill="black" stroke="black" points="228.947,-513.039 238.742,-509 228.566,-506.05 228.947,-513.039"/>
</g>
<!-- _ihm_struct_assembly -->
<g id="node7" class="node"><title>_ihm_struct_assembly</title>
<a xlink:href="/dictionaries/ihm-extension-6.dic/Categories/ihm_struct_assembly.html" xlink:title="&lt;TABLE&gt;" target="_top">
<polygon fill="#99c49b" stroke="#99c49b" points="94.7416,-206 94.7416,-227 230.742,-227 230.742,-206 94.7416,-206"/>
<polygon fill="none" stroke="black" points="94.7416,-206 94.7416,-227 230.742,-227 230.742,-206 94.7416,-206"/>
<text text-anchor="start" x="100.242" y="-214.167" font-family="Helvetica,sans-Serif" font-size="10.00">IHM_STRUCT_ASSEMBLY</text>
</a>
<a xlink:href="/dictionaries/ihm-extension-6.dic/Items/_ihm_struct_assembly.ordinal_id.html" xlink:title="&lt;TABLE&gt;" target="_top">
<polygon fill="#ffff99" stroke="#ffff99" points="94.7416,-187 94.7416,-206 230.742,-206 230.742,-187 94.7416,-187"/>
<polygon fill="none" stroke="black" points="94.7416,-187 94.7416,-206 230.742,-206 230.742,-187 94.7416,-187"/>
<text text-anchor="start" x="99.7416" y="-194.4" font-family="Helvetica,sans-Serif" font-size="9.00">ordinal_id</text>
</a>
<a xlink:href="/dictionaries/ihm-extension-6.dic/Items/_ihm_struct_assembly.assembly_id.html" xlink:title="&lt;TABLE&gt;" target="_top">
<polygon fill="none" stroke="black" points="94.7416,-168 94.7416,-187 230.742,-187 230.742,-168 94.7416,-168"/>
<text text-anchor="start" x="99.7416" y="-175.4" font-family="Helvetica,sans-Serif" font-size="9.00">assembly_id</text>
</a>
<a xlink:href="/dictionaries/ihm-extension-6.dic/Items/_ihm_struct_assembly.asym_id.html" xlink:title="&lt;TABLE&gt;" target="_top">
<polygon fill="none" stroke="black" points="94.7416,-149 94.7416,-168 230.742,-168 230.742,-149 94.7416,-149"/>
<text text-anchor="start" x="99.7416" y="-156.4" font-family="Helvetica,sans-Serif" font-size="9.00">asym_id</text>
</a>
<a xlink:href="/dictionaries/ihm-extension-6.dic/Items/_ihm_struct_assembly.entity_description.html" xlink:title="&lt;TABLE&gt;" target="_top">
<polygon fill="none" stroke="black" points="94.7416,-130 94.7416,-149 230.742,-149 230.742,-130 94.7416,-130"/>
<text text-anchor="start" x="99.7416" y="-137.4" font-family="Helvetica,sans-Serif" font-size="9.00">entity_description</text>
</a>
<a xlink:href="/dictionaries/ihm-extension-6.dic/Items/_ihm_struct_assembly.entity_id.html" xlink:title="&lt;TABLE&gt;" target="_top">
<polygon fill="none" stroke="black" points="94.7416,-111 94.7416,-130 230.742,-130 230.742,-111 94.7416,-111"/>
<text text-anchor="start" x="99.7416" y="-118.4" font-family="Helvetica,sans-Serif" font-size="9.00">entity_id</text>
</a>
<a xlink:href="/dictionaries/ihm-extension-6.dic/Items/_ihm_struct_assembly.seq_id_begin.html" xlink:title="&lt;TABLE&gt;" target="_top">
<polygon fill="none" stroke="black" points="94.7416,-92 94.7416,-111 230.742,-111 230.742,-92 94.7416,-92"/>
<text text-anchor="start" x="99.7416" y="-99.4" font-family="Helvetica,sans-Serif" font-size="9.00">seq_id_begin</text>
</a>
<a xlink:href="/dictionaries/ihm-extension-6.dic/Items/_ihm_struct_assembly.seq_id_end.html" xlink:title="&lt;TABLE&gt;" target="_top">
<polygon fill="none" stroke="black" points="94.7416,-73 94.7416,-92 230.742,-92 230.742,-73 94.7416,-73"/>
<text text-anchor="start" x="99.7416" y="-80.4" font-family="Helvetica,sans-Serif" font-size="9.00">seq_id_end</text>
</a>
</g>
<!-- _ihm_model_list&#45;&gt;_ihm_struct_assembly -->
<g id="edge8" class="edge"><title>_ihm_model_list:__assembly_id:w&#45;&gt;_ihm_struct_assembly:__assembly_id:w</title>
<path fill="none" stroke="black" d="M92.7416,-718C-23.7436,-718 -25.2717,-209.177 84.4986,-179.363"/>
<polygon fill="black" stroke="black" points="85.2908,-182.789 94.7416,-178 84.3672,-175.85 85.2908,-182.789"/>
</g>
<!-- _ihm_modeling_post_process&#45;&gt;_ihm_modeling_protocol -->
<g id="edge18" class="edge"><title>_ihm_modeling_post_process:__protocol_id:w&#45;&gt;_ihm_modeling_protocol:__protocol_id:w</title>
<path fill="none" stroke="black" d="M249.742,-650C221.873,-650 210.067,-539.136 229.662,-514.018"/>
<polygon fill="black" stroke="black" points="231.683,-516.901 238.742,-509 228.296,-510.774 231.683,-516.901"/>
</g>
<!-- _ihm_modeling_protocol&#45;&gt;_ihm_dataset_list -->
<g id="edge2" class="edge"><title>_ihm_modeling_protocol:__dataset_group_id:w&#45;&gt;_ihm_dataset_list:__group_id:w</title>
<path fill="none" stroke="black" d="M236.742,-490C121.527,-490 225.206,-343.99 247.742,-231 251.898,-210.16 243.207,-144.321 255.946,-125.234"/>
<polygon fill="black" stroke="black" points="257.937,-128.121 264.742,-120 254.358,-122.105 257.937,-128.121"/>
</g>
<!-- _ihm_modeling_protocol&#45;&gt;_ihm_struct_assembly -->
<g id="edge20" class="edge"><title>_ihm_modeling_protocol:__struct_assembly_id:w&#45;&gt;_ihm_struct_assembly:__assembly_id:w</title>
<path fill="none" stroke="black" d="M236.742,-299C166.767,-299 132.035,-290.208 94.7416,-231 84.5413,-214.806 75.3662,-189.939 84.9187,-181.183"/>
<polygon fill="black" stroke="black" points="86.3076,-184.412 94.7416,-178 84.1496,-177.753 86.3076,-184.412"/>
</g>
<!-- _ihm_multi_state_modeling -->
<g id="node6" class="node"><title>_ihm_multi_state_modeling</title>
<a xlink:href="/dictionaries/ihm-extension-6.dic/Categories/ihm_multi_state_modeling.html" xlink:title="&lt;TABLE&gt;" target="_top">
<polygon fill="#99c49b" stroke="#99c49b" points="94.7416,-982 94.7416,-1003 256.742,-1003 256.742,-982 94.7416,-982"/>
<polygon fill="none" stroke="black" points="94.7416,-982 94.7416,-1003 256.742,-1003 256.742,-982 94.7416,-982"/>
<text text-anchor="start" x="100.242" y="-990.167" font-family="Helvetica,sans-Serif" font-size="10.00">IHM_MULTI_STATE_MODELING</text>
</a>
<a xlink:href="/dictionaries/ihm-extension-6.dic/Items/_ihm_multi_state_modeling.ordinal_id.html" xlink:title="&lt;TABLE&gt;" target="_top">
<polygon fill="#ffff99" stroke="#ffff99" points="94.7416,-963 94.7416,-982 256.742,-982 256.742,-963 94.7416,-963"/>
<polygon fill="none" stroke="black" points="94.7416,-963 94.7416,-982 256.742,-982 256.742,-963 94.7416,-963"/>
<text text-anchor="start" x="99.7416" y="-970.4" font-family="Helvetica,sans-Serif" font-size="9.00">ordinal_id</text>
</a>
<a xlink:href="/dictionaries/ihm-extension-6.dic/Items/_ihm_multi_state_modeling.model_group_id.html" xlink:title="&lt;TABLE&gt;" target="_top">
<polygon fill="none" stroke="black" points="94.7416,-944 94.7416,-963 256.742,-963 256.742,-944 94.7416,-944"/>
<text text-anchor="start" x="99.7416" y="-951.4" font-family="Helvetica,sans-Serif" font-size="9.00">model_group_id</text>
</a>
<a xlink:href="/dictionaries/ihm-extension-6.dic/Items/_ihm_multi_state_modeling.details.html" xlink:title="&lt;TABLE&gt;" target="_top">
<polygon fill="none" stroke="black" points="94.7416,-925 94.7416,-944 256.742,-944 256.742,-925 94.7416,-925"/>
<text text-anchor="start" x="99.7416" y="-932.4" font-family="Helvetica,sans-Serif" font-size="9.00">details</text>
</a>
<a xlink:href="/dictionaries/ihm-extension-6.dic/Items/_ihm_multi_state_modeling.population_fraction.html" xlink:title="&lt;TABLE&gt;" target="_top">
<polygon fill="none" stroke="black" points="94.7416,-906 94.7416,-925 256.742,-925 256.742,-906 94.7416,-906"/>
<text text-anchor="start" x="99.7416" y="-913.4" font-family="Helvetica,sans-Serif" font-size="9.00">population_fraction</text>
</a>
<a xlink:href="/dictionaries/ihm-extension-6.dic/Items/_ihm_multi_state_modeling.state_group_id.html" xlink:title="&lt;TABLE&gt;" target="_top">
<polygon fill="none" stroke="black" points="94.7416,-887 94.7416,-906 256.742,-906 256.742,-887 94.7416,-887"/>
<text text-anchor="start" x="99.7416" y="-894.4" font-family="Helvetica,sans-Serif" font-size="9.00">state_group_id</text>
</a>
<a xlink:href="/dictionaries/ihm-extension-6.dic/Items/_ihm_multi_state_modeling.state_id.html" xlink:title="&lt;TABLE&gt;" target="_top">
<polygon fill="none" stroke="black" points="94.7416,-868 94.7416,-887 256.742,-887 256.742,-868 94.7416,-868"/>
<text text-anchor="start" x="99.7416" y="-875.4" font-family="Helvetica,sans-Serif" font-size="9.00">state_id</text>
</a>
<a xlink:href="/dictionaries/ihm-extension-6.dic/Items/_ihm_multi_state_modeling.state_name.html" xlink:title="&lt;TABLE&gt;" target="_top">
<polygon fill="none" stroke="black" points="94.7416,-849 94.7416,-868 256.742,-868 256.742,-849 94.7416,-849"/>
<text text-anchor="start" x="99.7416" y="-856.4" font-family="Helvetica,sans-Serif" font-size="9.00">state_name</text>
</a>
<a xlink:href="/dictionaries/ihm-extension-6.dic/Items/_ihm_multi_state_modeling.state_type.html" xlink:title="&lt;TABLE&gt;" target="_top">
<polygon fill="none" stroke="black" points="94.7416,-830 94.7416,-849 256.742,-849 256.742,-830 94.7416,-830"/>
<text text-anchor="start" x="99.7416" y="-837.4" font-family="Helvetica,sans-Serif" font-size="9.00">state_type</text>
</a>
</g>
<!-- _ihm_multi_state_modeling&#45;&gt;_ihm_model_list -->
<g id="edge10" class="edge"><title>_ihm_multi_state_modeling:__model_group_id:w&#45;&gt;_ihm_model_list:__model_group_id:w</title>
<path fill="none" stroke="black" d="M92.7416,-954C80.1794,-954 80.3288,-753.501 90.4012,-708.076"/>
<polygon fill="black" stroke="black" points="93.5846,-709.531 94.7416,-699 87.2696,-706.511 93.5846,-709.531"/>
</g>
<!-- _ihm_time_ordered_ensemble -->
<g id="node8" class="node"><title>_ihm_time_ordered_ensemble</title>
<a xlink:href="/dictionaries/ihm-extension-6.dic/Categories/ihm_time_ordered_ensemble.html" xlink:title="&lt;TABLE&gt;" target="_top">
<polygon fill="#99c49b" stroke="#99c49b" points="76.7416,-1228 76.7416,-1249 252.742,-1249 252.742,-1228 76.7416,-1228"/>
<polygon fill="none" stroke="black" points="76.7416,-1228 76.7416,-1249 252.742,-1249 252.742,-1228 76.7416,-1228"/>
<text text-anchor="start" x="82.2416" y="-1236.17" font-family="Helvetica,sans-Serif" font-size="10.00">IHM_TIME_ORDERED_ENSEMBLE</text>
</a>
<a xlink:href="/dictionaries/ihm-extension-6.dic/Items/_ihm_time_ordered_ensemble.ordinal_id.html" xlink:title="&lt;TABLE&gt;" target="_top">
<polygon fill="#ffff99" stroke="#ffff99" points="76.7416,-1209 76.7416,-1228 252.742,-1228 252.742,-1209 76.7416,-1209"/>
<polygon fill="none" stroke="black" points="76.7416,-1209 76.7416,-1228 252.742,-1228 252.742,-1209 76.7416,-1209"/>
<text text-anchor="start" x="81.7416" y="-1216.4" font-family="Helvetica,sans-Serif" font-size="9.00">ordinal_id</text>
</a>
<a xlink:href="/dictionaries/ihm-extension-6.dic/Items/_ihm_time_ordered_ensemble.model_group_id_begin.html" xlink:title="&lt;TABLE&gt;" target="_top">
<polygon fill="none" stroke="black" points="76.7416,-1190 76.7416,-1209 252.742,-1209 252.742,-1190 76.7416,-1190"/>
<text text-anchor="start" x="81.7416" y="-1197.4" font-family="Helvetica,sans-Serif" font-size="9.00">model_group_id_begin</text>
</a>
<a xlink:href="/dictionaries/ihm-extension-6.dic/Items/_ihm_time_ordered_ensemble.model_group_id_end.html" xlink:title="&lt;TABLE&gt;" target="_top">
<polygon fill="none" stroke="black" points="76.7416,-1171 76.7416,-1190 252.742,-1190 252.742,-1171 76.7416,-1171"/>
<text text-anchor="start" x="81.7416" y="-1178.4" font-family="Helvetica,sans-Serif" font-size="9.00">model_group_id_end</text>
</a>
<a xlink:href="/dictionaries/ihm-extension-6.dic/Items/_ihm_time_ordered_ensemble.state_group_id_begin.html" xlink:title="&lt;TABLE&gt;" target="_top">
<polygon fill="none" stroke="black" points="76.7416,-1152 76.7416,-1171 252.742,-1171 252.742,-1152 76.7416,-1152"/>
<text text-anchor="start" x="81.7416" y="-1159.4" font-family="Helvetica,sans-Serif" font-size="9.00">state_group_id_begin</text>
</a>
<a xlink:href="/dictionaries/ihm-extension-6.dic/Items/_ihm_time_ordered_ensemble.state_group_id_end.html" xlink:title="&lt;TABLE&gt;" target="_top">
<polygon fill="none" stroke="black" points="76.7416,-1133 76.7416,-1152 252.742,-1152 252.742,-1133 76.7416,-1133"/>
<text text-anchor="start" x="81.7416" y="-1140.4" font-family="Helvetica,sans-Serif" font-size="9.00">state_group_id_end</text>
</a>
<a xlink:href="/dictionaries/ihm-extension-6.dic/Items/_ihm_time_ordered_ensemble.time_begin.html" xlink:title="&lt;TABLE&gt;" target="_top">
<polygon fill="none" stroke="black" points="76.7416,-1114 76.7416,-1133 252.742,-1133 252.742,-1114 76.7416,-1114"/>
<text text-anchor="start" x="81.7416" y="-1121.4" font-family="Helvetica,sans-Serif" font-size="9.00">time_begin</text>
</a>
<a xlink:href="/dictionaries/ihm-extension-6.dic/Items/_ihm_time_ordered_ensemble.time_end.html" xlink:title="&lt;TABLE&gt;" target="_top">
<polygon fill="none" stroke="black" points="76.7416,-1095 76.7416,-1114 252.742,-1114 252.742,-1095 76.7416,-1095"/>
<text text-anchor="start" x="81.7416" y="-1102.4" font-family="Helvetica,sans-Serif" font-size="9.00">time_end</text>
</a>
<a xlink:href="/dictionaries/ihm-extension-6.dic/Items/_ihm_time_ordered_ensemble.time_step_id.html" xlink:title="&lt;TABLE&gt;" target="_top">
<polygon fill="none" stroke="black" points="76.7416,-1076 76.7416,-1095 252.742,-1095 252.742,-1076 76.7416,-1076"/>
<text text-anchor="start" x="81.7416" y="-1083.4" font-family="Helvetica,sans-Serif" font-size="9.00">time_step_id</text>
</a>
<a xlink:href="/dictionaries/ihm-extension-6.dic/Items/_ihm_time_ordered_ensemble.time_unit.html" xlink:title="&lt;TABLE&gt;" target="_top">
<polygon fill="none" stroke="black" points="76.7416,-1057 76.7416,-1076 252.742,-1076 252.742,-1057 76.7416,-1057"/>
<text text-anchor="start" x="81.7416" y="-1064.4" font-family="Helvetica,sans-Serif" font-size="9.00">time_unit</text>
</a>
</g>
<!-- _ihm_time_ordered_ensemble&#45;&gt;_ihm_model_list -->
<g id="edge12" class="edge"><title>_ihm_time_ordered_ensemble:__model_group_id_begin:w&#45;&gt;_ihm_model_list:__model_group_id:w</title>
<path fill="none" stroke="black" d="M74.7416,-1200C-33.1985,-1200 -17.8021,-729.823 84.5649,-700.437"/>
<polygon fill="black" stroke="black" points="85.3293,-703.864 94.7416,-699 84.3504,-696.933 85.3293,-703.864"/>
</g>
<!-- _ihm_time_ordered_ensemble&#45;&gt;_ihm_model_list -->
<g id="edge14" class="edge"><title>_ihm_time_ordered_ensemble:__model_group_id_end:w&#45;&gt;_ihm_model_list:__model_group_id:w</title>
<path fill="none" stroke="black" d="M74.7416,-1181C24.2807,-1181 39.0489,-753.83 85.6736,-703.771"/>
<polygon fill="black" stroke="black" points="87.5211,-706.753 94.7416,-699 84.262,-700.558 87.5211,-706.753"/>
</g>
<!-- _ihm_time_ordered_ensemble&#45;&gt;_ihm_multi_state_modeling -->
<g id="edge22" class="edge"><title>_ihm_time_ordered_ensemble:__state_group_id_begin:w&#45;&gt;_ihm_multi_state_modeling:__state_group_id:w</title>
<path fill="none" stroke="black" d="M74.7416,-1162C61.543,-1162 75.9637,-951.005 89.7454,-904.85"/>
<polygon fill="black" stroke="black" points="92.8734,-906.429 94.7416,-896 86.7777,-902.988 92.8734,-906.429"/>
</g>
<!-- _ihm_time_ordered_ensemble&#45;&gt;_ihm_multi_state_modeling -->
<g id="edge24" class="edge"><title>_ihm_time_ordered_ensemble:__state_group_id_end:w&#45;&gt;_ihm_multi_state_modeling:__state_group_id:w</title>
<path fill="none" stroke="black" d="M74.7416,-1142C62.5831,-1142 76.9312,-948.578 89.8978,-904.755"/>
<polygon fill="black" stroke="black" points="92.9632,-906.445 94.7416,-896 86.838,-903.056 92.9632,-906.445"/>
</g>
</g>
</svg>
