<?xml version="1.0" encoding="UTF-8" standalone="no"?>
<!DOCTYPE svg PUBLIC "-//W3C//DTD SVG 1.1//EN"
 "http://www.w3.org/Graphics/SVG/1.1/DTD/svg11.dtd">
<!-- Generated by graphviz version 2.26.0 (20091210.2329)
 -->
<!-- Title: ihm_ensemble_info Pages: 1 -->
<svg width="618pt" height="941pt"
 viewBox="0.00 0.00 617.69 941.00" xmlns="http://www.w3.org/2000/svg" xmlns:xlink="http://www.w3.org/1999/xlink">
<g id="graph1" class="graph" transform="scale(1 1) rotate(0) translate(4 937)">
<title>ihm_ensemble_info</title>
<polygon fill="white" stroke="white" points="-4,5 -4,-937 614.693,-937 614.693,5 -4,5"/>
<text text-anchor="start" x="301.847" y="-51.8" font-family="Helvetica,sans-Serif" font-size="18.00"> </text>
<text text-anchor="start" x="75.8467" y="-30.2" font-family="Helvetica,sans-Serif" font-size="18.00">Selected Relationships for Category &#160;</text>
<text text-anchor="start" x="370.847" y="-30.2" font-family="Helvetica,sans-Serif" font-size="18.00"> ihm_ensemble_info</text>
<text text-anchor="start" x="529.847" y="-29.8" font-family="Helvetica,sans-Serif" font-size="14.00"> </text>
<text text-anchor="start" x="220.347" y="-11.5333" font-family="Helvetica,sans-Serif" font-size="14.00"> &#160;in dictionary ihm&#45;extension</text>
<!-- _ihm_cross_link_result -->
<g id="node1" class="node"><title>_ihm_cross_link_result</title>
<a xlink:href="/dictionaries/ihm-extension-6.dic/Categories/ihm_cross_link_result.html" xlink:title="&lt;TABLE&gt;" target="_top">
<polygon fill="#99c49b" stroke="#99c49b" points="27.6934,-794 27.6934,-815 171.693,-815 171.693,-794 27.6934,-794"/>
<polygon fill="none" stroke="black" points="27.6934,-794 27.6934,-815 171.693,-815 171.693,-794 27.6934,-794"/>
<text text-anchor="start" x="33.1934" y="-802.167" font-family="Helvetica,sans-Serif" font-size="10.00">IHM_CROSS_LINK_RESULT</text>
</a>
<a xlink:href="/dictionaries/ihm-extension-6.dic/Items/_ihm_cross_link_result.ordinal_id.html" xlink:title="&lt;TABLE&gt;" target="_top">
<polygon fill="#ffff99" stroke="#ffff99" points="27.6934,-775 27.6934,-794 171.693,-794 171.693,-775 27.6934,-775"/>
<polygon fill="none" stroke="black" points="27.6934,-775 27.6934,-794 171.693,-794 171.693,-775 27.6934,-775"/>
<text text-anchor="start" x="32.6934" y="-782.4" font-family="Helvetica,sans-Serif" font-size="9.00">ordinal_id</text>
</a>
<a xlink:href="/dictionaries/ihm-extension-6.dic/Items/_ihm_cross_link_result.ensemble_id.html" xlink:title="&lt;TABLE&gt;" target="_top">
<polygon fill="none" stroke="black" points="27.6934,-756 27.6934,-775 171.693,-775 171.693,-756 27.6934,-756"/>
<text text-anchor="start" x="32.6934" y="-763.4" font-family="Helvetica,sans-Serif" font-size="9.00">ensemble_id</text>
</a>
<a xlink:href="/dictionaries/ihm-extension-6.dic/Items/_ihm_cross_link_result.details.html" xlink:title="&lt;TABLE&gt;" target="_top">
<polygon fill="none" stroke="black" points="27.6934,-737 27.6934,-756 171.693,-756 171.693,-737 27.6934,-737"/>
<text text-anchor="start" x="32.6934" y="-744.4" font-family="Helvetica,sans-Serif" font-size="9.00">details</text>
</a>
<a xlink:href="/dictionaries/ihm-extension-6.dic/Items/_ihm_cross_link_result.distance_threshold.html" xlink:title="&lt;TABLE&gt;" target="_top">
<polygon fill="none" stroke="black" points="27.6934,-718 27.6934,-737 171.693,-737 171.693,-718 27.6934,-718"/>
<text text-anchor="start" x="32.6934" y="-725.4" font-family="Helvetica,sans-Serif" font-size="9.00">distance_threshold</text>
</a>
<a xlink:href="/dictionaries/ihm-extension-6.dic/Items/_ihm_cross_link_result.median_distance.html" xlink:title="&lt;TABLE&gt;" target="_top">
<polygon fill="none" stroke="black" points="27.6934,-699 27.6934,-718 171.693,-718 171.693,-699 27.6934,-699"/>
<text text-anchor="start" x="32.6934" y="-706.4" font-family="Helvetica,sans-Serif" font-size="9.00">median_distance</text>
</a>
<a xlink:href="/dictionaries/ihm-extension-6.dic/Items/_ihm_cross_link_result.num_models.html" xlink:title="&lt;TABLE&gt;" target="_top">
<polygon fill="none" stroke="black" points="27.6934,-680 27.6934,-699 171.693,-699 171.693,-680 27.6934,-680"/>
<text text-anchor="start" x="32.6934" y="-687.4" font-family="Helvetica,sans-Serif" font-size="9.00">num_models</text>
</a>
<a xlink:href="/dictionaries/ihm-extension-6.dic/Items/_ihm_cross_link_result.restraint_id.html" xlink:title="&lt;TABLE&gt;" target="_top">
<polygon fill="none" stroke="black" points="27.6934,-661 27.6934,-680 171.693,-680 171.693,-661 27.6934,-661"/>
<text text-anchor="start" x="32.6934" y="-668.4" font-family="Helvetica,sans-Serif" font-size="9.00">restraint_id</text>
</a>
</g>
<!-- _ihm_ensemble_info -->
<g id="node2" class="node"><title>_ihm_ensemble_info</title>
<a xlink:href="/dictionaries/ihm-extension-6.dic/Categories/ihm_ensemble_info.html" xlink:title="&lt;TABLE&gt;" target="_top">
<polygon fill="#f0027f" stroke="#f0027f" points="204.693,-481 204.693,-502 360.693,-502 360.693,-481 204.693,-481"/>
<polygon fill="none" stroke="black" points="204.693,-481 204.693,-502 360.693,-502 360.693,-481 204.693,-481"/>
<text text-anchor="start" x="228.193" y="-489.167" font-family="Helvetica,sans-Serif" font-size="10.00">IHM_ENSEMBLE_INFO</text>
</a>
<a xlink:href="/dictionaries/ihm-extension-6.dic/Items/_ihm_ensemble_info.ensemble_id.html" xlink:title="&lt;TABLE&gt;" target="_top">
<polygon fill="#ffff99" stroke="#ffff99" points="204.693,-462 204.693,-481 360.693,-481 360.693,-462 204.693,-462"/>
<polygon fill="none" stroke="black" points="204.693,-462 204.693,-481 360.693,-481 360.693,-462 204.693,-462"/>
<text text-anchor="start" x="209.693" y="-469.4" font-family="Helvetica,sans-Serif" font-size="9.00">ensemble_id</text>
</a>
<a xlink:href="/dictionaries/ihm-extension-6.dic/Items/_ihm_ensemble_info.ensemble_file_id.html" xlink:title="&lt;TABLE&gt;" target="_top">
<polygon fill="none" stroke="black" points="204.693,-443 204.693,-462 360.693,-462 360.693,-443 204.693,-443"/>
<text text-anchor="start" x="209.693" y="-450.4" font-family="Helvetica,sans-Serif" font-size="9.00">ensemble_file_id</text>
</a>
<a xlink:href="/dictionaries/ihm-extension-6.dic/Items/_ihm_ensemble_info.model_group_id.html" xlink:title="&lt;TABLE&gt;" target="_top">
<polygon fill="none" stroke="black" points="204.693,-424 204.693,-443 360.693,-443 360.693,-424 204.693,-424"/>
<text text-anchor="start" x="209.693" y="-431.4" font-family="Helvetica,sans-Serif" font-size="9.00">model_group_id</text>
</a>
<a xlink:href="/dictionaries/ihm-extension-6.dic/Items/_ihm_ensemble_info.post_process_id.html" xlink:title="&lt;TABLE&gt;" target="_top">
<polygon fill="none" stroke="black" points="204.693,-405 204.693,-424 360.693,-424 360.693,-405 204.693,-405"/>
<text text-anchor="start" x="209.693" y="-412.4" font-family="Helvetica,sans-Serif" font-size="9.00">post_process_id</text>
</a>
<a xlink:href="/dictionaries/ihm-extension-6.dic/Items/_ihm_ensemble_info.ensemble_clustering_feature.html" xlink:title="&lt;TABLE&gt;" target="_top">
<polygon fill="none" stroke="black" points="204.693,-386 204.693,-405 360.693,-405 360.693,-386 204.693,-386"/>
<text text-anchor="start" x="209.693" y="-393.4" font-family="Helvetica,sans-Serif" font-size="9.00">ensemble_clustering_feature</text>
</a>
<a xlink:href="/dictionaries/ihm-extension-6.dic/Items/_ihm_ensemble_info.ensemble_clustering_method.html" xlink:title="&lt;TABLE&gt;" target="_top">
<polygon fill="none" stroke="black" points="204.693,-367 204.693,-386 360.693,-386 360.693,-367 204.693,-367"/>
<text text-anchor="start" x="209.693" y="-374.4" font-family="Helvetica,sans-Serif" font-size="9.00">ensemble_clustering_method</text>
</a>
<a xlink:href="/dictionaries/ihm-extension-6.dic/Items/_ihm_ensemble_info.ensemble_name.html" xlink:title="&lt;TABLE&gt;" target="_top">
<polygon fill="none" stroke="black" points="204.693,-348 204.693,-367 360.693,-367 360.693,-348 204.693,-348"/>
<text text-anchor="start" x="209.693" y="-355.4" font-family="Helvetica,sans-Serif" font-size="9.00">ensemble_name</text>
</a>
<a xlink:href="/dictionaries/ihm-extension-6.dic/Items/_ihm_ensemble_info.ensemble_precision_value.html" xlink:title="&lt;TABLE&gt;" target="_top">
<polygon fill="none" stroke="black" points="204.693,-329 204.693,-348 360.693,-348 360.693,-329 204.693,-329"/>
<text text-anchor="start" x="209.693" y="-336.4" font-family="Helvetica,sans-Serif" font-size="9.00">ensemble_precision_value</text>
</a>
<a xlink:href="/dictionaries/ihm-extension-6.dic/Items/_ihm_ensemble_info.num_ensemble_models.html" xlink:title="&lt;TABLE&gt;" target="_top">
<polygon fill="none" stroke="black" points="204.693,-310 204.693,-329 360.693,-329 360.693,-310 204.693,-310"/>
<text text-anchor="start" x="209.693" y="-317.4" font-family="Helvetica,sans-Serif" font-size="9.00">num_ensemble_models</text>
</a>
<a xlink:href="/dictionaries/ihm-extension-6.dic/Items/_ihm_ensemble_info.num_ensemble_models_deposited.html" xlink:title="&lt;TABLE&gt;" target="_top">
<polygon fill="none" stroke="black" points="204.693,-291 204.693,-310 360.693,-310 360.693,-291 204.693,-291"/>
<text text-anchor="start" x="209.693" y="-298.4" font-family="Helvetica,sans-Serif" font-size="9.00">num_ensemble_models_deposited</text>
</a>
</g>
<!-- _ihm_cross_link_result&#45;&gt;_ihm_ensemble_info -->
<g id="edge2" class="edge"><title>_ihm_cross_link_result:__ensemble_id:w&#45;&gt;_ihm_ensemble_info:__ensemble_id:w</title>
<path fill="none" stroke="black" d="M25.6934,-766C-22.7592,-766 9.23536,-701.799 27.6934,-657 69.7308,-554.972 89.6762,-476.854 194.614,-472.218"/>
<polygon fill="black" stroke="black" points="194.771,-475.715 204.693,-472 194.62,-468.717 194.771,-475.715"/>
</g>
<!-- _ihm_external_files -->
<g id="node3" class="node"><title>_ihm_external_files</title>
<a xlink:href="/dictionaries/ihm-extension-6.dic/Categories/ihm_external_files.html" xlink:title="&lt;TABLE&gt;" target="_top">
<polygon fill="#99c49b" stroke="#99c49b" points="414.693,-216 414.693,-237 536.693,-237 536.693,-216 414.693,-216"/>
<polygon fill="none" stroke="black" points="414.693,-216 414.693,-237 536.693,-237 536.693,-216 414.693,-216"/>
<text text-anchor="start" x="420.193" y="-224.167" font-family="Helvetica,sans-Serif" font-size="10.00">IHM_EXTERNAL_FILES</text>
</a>
<a xlink:href="/dictionaries/ihm-extension-6.dic/Items/_ihm_external_files.id.html" xlink:title="&lt;TABLE&gt;" target="_top">
<polygon fill="#ffff99" stroke="#ffff99" points="414.693,-197 414.693,-216 536.693,-216 536.693,-197 414.693,-197"/>
<polygon fill="none" stroke="black" points="414.693,-197 414.693,-216 536.693,-216 536.693,-197 414.693,-197"/>
<text text-anchor="start" x="419.693" y="-204.4" font-family="Helvetica,sans-Serif" font-size="9.00">id</text>
</a>
<a xlink:href="/dictionaries/ihm-extension-6.dic/Items/_ihm_external_files.content_type.html" xlink:title="&lt;TABLE&gt;" target="_top">
<polygon fill="none" stroke="black" points="414.693,-178 414.693,-197 536.693,-197 536.693,-178 414.693,-178"/>
<text text-anchor="start" x="419.693" y="-185.4" font-family="Helvetica,sans-Serif" font-size="9.00">content_type</text>
</a>
<a xlink:href="/dictionaries/ihm-extension-6.dic/Items/_ihm_external_files.details.html" xlink:title="&lt;TABLE&gt;" target="_top">
<polygon fill="none" stroke="black" points="414.693,-159 414.693,-178 536.693,-178 536.693,-159 414.693,-159"/>
<text text-anchor="start" x="419.693" y="-166.4" font-family="Helvetica,sans-Serif" font-size="9.00">details</text>
</a>
<a xlink:href="/dictionaries/ihm-extension-6.dic/Items/_ihm_external_files.file_format.html" xlink:title="&lt;TABLE&gt;" target="_top">
<polygon fill="none" stroke="black" points="414.693,-140 414.693,-159 536.693,-159 536.693,-140 414.693,-140"/>
<text text-anchor="start" x="419.693" y="-147.4" font-family="Helvetica,sans-Serif" font-size="9.00">file_format</text>
</a>
<a xlink:href="/dictionaries/ihm-extension-6.dic/Items/_ihm_external_files.file_path.html" xlink:title="&lt;TABLE&gt;" target="_top">
<polygon fill="none" stroke="black" points="414.693,-121 414.693,-140 536.693,-140 536.693,-121 414.693,-121"/>
<text text-anchor="start" x="419.693" y="-128.4" font-family="Helvetica,sans-Serif" font-size="9.00">file_path</text>
</a>
<a xlink:href="/dictionaries/ihm-extension-6.dic/Items/_ihm_external_files.file_size_kb.html" xlink:title="&lt;TABLE&gt;" target="_top">
<polygon fill="none" stroke="black" points="414.693,-102 414.693,-121 536.693,-121 536.693,-102 414.693,-102"/>
<text text-anchor="start" x="419.693" y="-109.4" font-family="Helvetica,sans-Serif" font-size="9.00">file_size_kb</text>
</a>
<a xlink:href="/dictionaries/ihm-extension-6.dic/Items/_ihm_external_files.reference_id.html" xlink:title="&lt;TABLE&gt;" target="_top">
<polygon fill="none" stroke="black" points="414.693,-83 414.693,-102 536.693,-102 536.693,-83 414.693,-83"/>
<text text-anchor="start" x="419.693" y="-90.4" font-family="Helvetica,sans-Serif" font-size="9.00">reference_id</text>
</a>
</g>
<!-- _ihm_ensemble_info&#45;&gt;_ihm_external_files -->
<g id="edge4" class="edge"><title>_ihm_ensemble_info:__ensemble_file_id:w&#45;&gt;_ihm_external_files:__id:w</title>
<path fill="none" stroke="black" d="M202.693,-453C129.132,-453 157.418,-343.858 204.693,-287.5 260.798,-220.617 330.616,-306.871 397.693,-251 410.026,-240.727 401.151,-220.393 405.721,-211.425"/>
<polygon fill="black" stroke="black" points="407.273,-214.562 414.693,-207 404.177,-208.284 407.273,-214.562"/>
</g>
<!-- _ihm_model_list -->
<g id="node6" class="node"><title>_ihm_model_list</title>
<a xlink:href="/dictionaries/ihm-extension-6.dic/Categories/ihm_model_list.html" xlink:title="&lt;TABLE&gt;" target="_top">
<polygon fill="#99c49b" stroke="#99c49b" points="74.6934,-216 74.6934,-237 171.693,-237 171.693,-216 74.6934,-216"/>
<polygon fill="none" stroke="black" points="74.6934,-216 74.6934,-237 171.693,-237 171.693,-216 74.6934,-216"/>
<text text-anchor="start" x="80.1934" y="-224.167" font-family="Helvetica,sans-Serif" font-size="10.00">IHM_MODEL_LIST</text>
</a>
<a xlink:href="/dictionaries/ihm-extension-6.dic/Items/_ihm_model_list.ordinal_id.html" xlink:title="&lt;TABLE&gt;" target="_top">
<polygon fill="#ffff99" stroke="#ffff99" points="74.6934,-197 74.6934,-216 171.693,-216 171.693,-197 74.6934,-197"/>
<polygon fill="none" stroke="black" points="74.6934,-197 74.6934,-216 171.693,-216 171.693,-197 74.6934,-197"/>
<text text-anchor="start" x="79.6934" y="-204.4" font-family="Helvetica,sans-Serif" font-size="9.00">ordinal_id</text>
</a>
<a xlink:href="/dictionaries/ihm-extension-6.dic/Items/_ihm_model_list.model_group_id.html" xlink:title="&lt;TABLE&gt;" target="_top">
<polygon fill="none" stroke="black" points="74.6934,-178 74.6934,-197 171.693,-197 171.693,-178 74.6934,-178"/>
<text text-anchor="start" x="79.6934" y="-185.4" font-family="Helvetica,sans-Serif" font-size="9.00">model_group_id</text>
</a>
<a xlink:href="/dictionaries/ihm-extension-6.dic/Items/_ihm_model_list.assembly_id.html" xlink:title="&lt;TABLE&gt;" target="_top">
<polygon fill="none" stroke="black" points="74.6934,-159 74.6934,-178 171.693,-178 171.693,-159 74.6934,-159"/>
<text text-anchor="start" x="79.6934" y="-166.4" font-family="Helvetica,sans-Serif" font-size="9.00">assembly_id</text>
</a>
<a xlink:href="/dictionaries/ihm-extension-6.dic/Items/_ihm_model_list.model_group_name.html" xlink:title="&lt;TABLE&gt;" target="_top">
<polygon fill="none" stroke="black" points="74.6934,-140 74.6934,-159 171.693,-159 171.693,-140 74.6934,-140"/>
<text text-anchor="start" x="79.6934" y="-147.4" font-family="Helvetica,sans-Serif" font-size="9.00">model_group_name</text>
</a>
<a xlink:href="/dictionaries/ihm-extension-6.dic/Items/_ihm_model_list.model_id.html" xlink:title="&lt;TABLE&gt;" target="_top">
<polygon fill="none" stroke="black" points="74.6934,-121 74.6934,-140 171.693,-140 171.693,-121 74.6934,-121"/>
<text text-anchor="start" x="79.6934" y="-128.4" font-family="Helvetica,sans-Serif" font-size="9.00">model_id</text>
</a>
<a xlink:href="/dictionaries/ihm-extension-6.dic/Items/_ihm_model_list.model_name.html" xlink:title="&lt;TABLE&gt;" target="_top">
<polygon fill="none" stroke="black" points="74.6934,-102 74.6934,-121 171.693,-121 171.693,-102 74.6934,-102"/>
<text text-anchor="start" x="79.6934" y="-109.4" font-family="Helvetica,sans-Serif" font-size="9.00">model_name</text>
</a>
<a xlink:href="/dictionaries/ihm-extension-6.dic/Items/_ihm_model_list.protocol_id.html" xlink:title="&lt;TABLE&gt;" target="_top">
<polygon fill="none" stroke="black" points="74.6934,-83 74.6934,-102 171.693,-102 171.693,-83 74.6934,-83"/>
<text text-anchor="start" x="79.6934" y="-90.4" font-family="Helvetica,sans-Serif" font-size="9.00">protocol_id</text>
</a>
</g>
<!-- _ihm_ensemble_info&#45;&gt;_ihm_model_list -->
<g id="edge10" class="edge"><title>_ihm_ensemble_info:__model_group_id:w&#45;&gt;_ihm_model_list:__model_group_id:w</title>
<path fill="none" stroke="black" d="M202.693,-434C83.056,-434 -41.0589,-202.203 64.5016,-188.621"/>
<polygon fill="black" stroke="black" points="64.9248,-192.102 74.6934,-188 64.499,-185.115 64.9248,-192.102"/>
</g>
<!-- _ihm_modeling_post_process -->
<g id="node7" class="node"><title>_ihm_modeling_post_process</title>
<a xlink:href="/dictionaries/ihm-extension-6.dic/Categories/ihm_modeling_post_process.html" xlink:title="&lt;TABLE&gt;" target="_top">
<polygon fill="#99c49b" stroke="#99c49b" points="204.693,-225 204.693,-246 380.693,-246 380.693,-225 204.693,-225"/>
<polygon fill="none" stroke="black" points="204.693,-225 204.693,-246 380.693,-246 380.693,-225 204.693,-225"/>
<text text-anchor="start" x="210.193" y="-233.167" font-family="Helvetica,sans-Serif" font-size="10.00">IHM_MODELING_POST_PROCESS</text>
</a>
<a xlink:href="/dictionaries/ihm-extension-6.dic/Items/_ihm_modeling_post_process.id.html" xlink:title="&lt;TABLE&gt;" target="_top">
<polygon fill="#ffff99" stroke="#ffff99" points="204.693,-206 204.693,-225 380.693,-225 380.693,-206 204.693,-206"/>
<polygon fill="none" stroke="black" points="204.693,-206 204.693,-225 380.693,-225 380.693,-206 204.693,-206"/>
<text text-anchor="start" x="209.693" y="-213.4" font-family="Helvetica,sans-Serif" font-size="9.00">id</text>
</a>
<a xlink:href="/dictionaries/ihm-extension-6.dic/Items/_ihm_modeling_post_process.analysis_id.html" xlink:title="&lt;TABLE&gt;" target="_top">
<polygon fill="none" stroke="black" points="204.693,-187 204.693,-206 380.693,-206 380.693,-187 204.693,-187"/>
<text text-anchor="start" x="209.693" y="-194.4" font-family="Helvetica,sans-Serif" font-size="9.00">analysis_id</text>
</a>
<a xlink:href="/dictionaries/ihm-extension-6.dic/Items/_ihm_modeling_post_process.feature.html" xlink:title="&lt;TABLE&gt;" target="_top">
<polygon fill="none" stroke="black" points="204.693,-168 204.693,-187 380.693,-187 380.693,-168 204.693,-168"/>
<text text-anchor="start" x="209.693" y="-175.4" font-family="Helvetica,sans-Serif" font-size="9.00">feature</text>
</a>
<a xlink:href="/dictionaries/ihm-extension-6.dic/Items/_ihm_modeling_post_process.num_models_begin.html" xlink:title="&lt;TABLE&gt;" target="_top">
<polygon fill="none" stroke="black" points="204.693,-149 204.693,-168 380.693,-168 380.693,-149 204.693,-149"/>
<text text-anchor="start" x="209.693" y="-156.4" font-family="Helvetica,sans-Serif" font-size="9.00">num_models_begin</text>
</a>
<a xlink:href="/dictionaries/ihm-extension-6.dic/Items/_ihm_modeling_post_process.num_models_end.html" xlink:title="&lt;TABLE&gt;" target="_top">
<polygon fill="none" stroke="black" points="204.693,-130 204.693,-149 380.693,-149 380.693,-130 204.693,-130"/>
<text text-anchor="start" x="209.693" y="-137.4" font-family="Helvetica,sans-Serif" font-size="9.00">num_models_end</text>
</a>
<a xlink:href="/dictionaries/ihm-extension-6.dic/Items/_ihm_modeling_post_process.protocol_id.html" xlink:title="&lt;TABLE&gt;" target="_top">
<polygon fill="none" stroke="black" points="204.693,-111 204.693,-130 380.693,-130 380.693,-111 204.693,-111"/>
<text text-anchor="start" x="209.693" y="-118.4" font-family="Helvetica,sans-Serif" font-size="9.00">protocol_id</text>
</a>
<a xlink:href="/dictionaries/ihm-extension-6.dic/Items/_ihm_modeling_post_process.step_id.html" xlink:title="&lt;TABLE&gt;" target="_top">
<polygon fill="none" stroke="black" points="204.693,-92 204.693,-111 380.693,-111 380.693,-92 204.693,-92"/>
<text text-anchor="start" x="209.693" y="-99.4" font-family="Helvetica,sans-Serif" font-size="9.00">step_id</text>
</a>
<a xlink:href="/dictionaries/ihm-extension-6.dic/Items/_ihm_modeling_post_process.type.html" xlink:title="&lt;TABLE&gt;" target="_top">
<polygon fill="none" stroke="black" points="204.693,-73 204.693,-92 380.693,-92 380.693,-73 204.693,-73"/>
<text text-anchor="start" x="209.693" y="-80.4" font-family="Helvetica,sans-Serif" font-size="9.00">type</text>
</a>
</g>
<!-- _ihm_ensemble_info&#45;&gt;_ihm_modeling_post_process -->
<g id="edge12" class="edge"><title>_ihm_ensemble_info:__post_process_id:w&#45;&gt;_ihm_modeling_post_process:__id:w</title>
<path fill="none" stroke="black" d="M202.693,-415C183.172,-415 182.444,-259.908 197.755,-223.558"/>
<polygon fill="black" stroke="black" points="200.509,-225.733 204.693,-216 195.352,-220.999 200.509,-225.733"/>
</g>
<!-- _ihm_gaussian_obj_ensemble -->
<g id="node4" class="node"><title>_ihm_gaussian_obj_ensemble</title>
<a xlink:href="/dictionaries/ihm-extension-6.dic/Categories/ihm_gaussian_obj_ensemble.html" xlink:title="&lt;TABLE&gt;" target="_top">
<polygon fill="#99c49b" stroke="#99c49b" points="205.693,-908 205.693,-929 378.693,-929 378.693,-908 205.693,-908"/>
<polygon fill="none" stroke="black" points="205.693,-908 205.693,-929 378.693,-929 378.693,-908 205.693,-908"/>
<text text-anchor="start" x="211.193" y="-916.167" font-family="Helvetica,sans-Serif" font-size="10.00">IHM_GAUSSIAN_OBJ_ENSEMBLE</text>
</a>
<a xlink:href="/dictionaries/ihm-extension-6.dic/Items/_ihm_gaussian_obj_ensemble.ordinal_id.html" xlink:title="&lt;TABLE&gt;" target="_top">
<polygon fill="#ffff99" stroke="#ffff99" points="205.693,-889 205.693,-908 378.693,-908 378.693,-889 205.693,-889"/>
<polygon fill="none" stroke="black" points="205.693,-889 205.693,-908 378.693,-908 378.693,-889 205.693,-889"/>
<text text-anchor="start" x="210.693" y="-896.4" font-family="Helvetica,sans-Serif" font-size="9.00">ordinal_id</text>
</a>
<a xlink:href="/dictionaries/ihm-extension-6.dic/Items/_ihm_gaussian_obj_ensemble.ensemble_id.html" xlink:title="&lt;TABLE&gt;" target="_top">
<polygon fill="none" stroke="black" points="205.693,-870 205.693,-889 378.693,-889 378.693,-870 205.693,-870"/>
<text text-anchor="start" x="210.693" y="-877.4" font-family="Helvetica,sans-Serif" font-size="9.00">ensemble_id</text>
</a>
<a xlink:href="/dictionaries/ihm-extension-6.dic/Items/_ihm_gaussian_obj_ensemble.asym_id.html" xlink:title="&lt;TABLE&gt;" target="_top">
<polygon fill="none" stroke="black" points="205.693,-851 205.693,-870 378.693,-870 378.693,-851 205.693,-851"/>
<text text-anchor="start" x="210.693" y="-858.4" font-family="Helvetica,sans-Serif" font-size="9.00">asym_id</text>
</a>
<a xlink:href="/dictionaries/ihm-extension-6.dic/Items/_ihm_gaussian_obj_ensemble.covariance_matrix[1][1].html" xlink:title="&lt;TABLE&gt;" target="_top">
<polygon fill="none" stroke="black" points="205.693,-832 205.693,-851 378.693,-851 378.693,-832 205.693,-832"/>
<text text-anchor="start" x="210.693" y="-839.4" font-family="Helvetica,sans-Serif" font-size="9.00">covariance_matrix[1][1]</text>
</a>
<a xlink:href="/dictionaries/ihm-extension-6.dic/Items/_ihm_gaussian_obj_ensemble.covariance_matrix[1][2].html" xlink:title="&lt;TABLE&gt;" target="_top">
<polygon fill="none" stroke="black" points="205.693,-813 205.693,-832 378.693,-832 378.693,-813 205.693,-813"/>
<text text-anchor="start" x="210.693" y="-820.4" font-family="Helvetica,sans-Serif" font-size="9.00">covariance_matrix[1][2]</text>
</a>
<a xlink:href="/dictionaries/ihm-extension-6.dic/Items/_ihm_gaussian_obj_ensemble.covariance_matrix[1][3].html" xlink:title="&lt;TABLE&gt;" target="_top">
<polygon fill="none" stroke="black" points="205.693,-794 205.693,-813 378.693,-813 378.693,-794 205.693,-794"/>
<text text-anchor="start" x="210.693" y="-801.4" font-family="Helvetica,sans-Serif" font-size="9.00">covariance_matrix[1][3]</text>
</a>
<a xlink:href="/dictionaries/ihm-extension-6.dic/Items/_ihm_gaussian_obj_ensemble.covariance_matrix[2][1].html" xlink:title="&lt;TABLE&gt;" target="_top">
<polygon fill="none" stroke="black" points="205.693,-775 205.693,-794 378.693,-794 378.693,-775 205.693,-775"/>
<text text-anchor="start" x="210.693" y="-782.4" font-family="Helvetica,sans-Serif" font-size="9.00">covariance_matrix[2][1]</text>
</a>
<a xlink:href="/dictionaries/ihm-extension-6.dic/Items/_ihm_gaussian_obj_ensemble.covariance_matrix[2][2].html" xlink:title="&lt;TABLE&gt;" target="_top">
<polygon fill="none" stroke="black" points="205.693,-756 205.693,-775 378.693,-775 378.693,-756 205.693,-756"/>
<text text-anchor="start" x="210.693" y="-763.4" font-family="Helvetica,sans-Serif" font-size="9.00">covariance_matrix[2][2]</text>
</a>
<a xlink:href="/dictionaries/ihm-extension-6.dic/Items/_ihm_gaussian_obj_ensemble.covariance_matrix[2][3].html" xlink:title="&lt;TABLE&gt;" target="_top">
<polygon fill="none" stroke="black" points="205.693,-737 205.693,-756 378.693,-756 378.693,-737 205.693,-737"/>
<text text-anchor="start" x="210.693" y="-744.4" font-family="Helvetica,sans-Serif" font-size="9.00">covariance_matrix[2][3]</text>
</a>
<a xlink:href="/dictionaries/ihm-extension-6.dic/Items/_ihm_gaussian_obj_ensemble.covariance_matrix[3][1].html" xlink:title="&lt;TABLE&gt;" target="_top">
<polygon fill="none" stroke="black" points="205.693,-718 205.693,-737 378.693,-737 378.693,-718 205.693,-718"/>
<text text-anchor="start" x="210.693" y="-725.4" font-family="Helvetica,sans-Serif" font-size="9.00">covariance_matrix[3][1]</text>
</a>
<a xlink:href="/dictionaries/ihm-extension-6.dic/Items/_ihm_gaussian_obj_ensemble.covariance_matrix[3][2].html" xlink:title="&lt;TABLE&gt;" target="_top">
<polygon fill="none" stroke="black" points="205.693,-699 205.693,-718 378.693,-718 378.693,-699 205.693,-699"/>
<text text-anchor="start" x="210.693" y="-706.4" font-family="Helvetica,sans-Serif" font-size="9.00">covariance_matrix[3][2]</text>
</a>
<a xlink:href="/dictionaries/ihm-extension-6.dic/Items/_ihm_gaussian_obj_ensemble.covariance_matrix[3][3].html" xlink:title="&lt;TABLE&gt;" target="_top">
<polygon fill="none" stroke="black" points="205.693,-680 205.693,-699 378.693,-699 378.693,-680 205.693,-680"/>
<text text-anchor="start" x="210.693" y="-687.4" font-family="Helvetica,sans-Serif" font-size="9.00">covariance_matrix[3][3]</text>
</a>
<a xlink:href="/dictionaries/ihm-extension-6.dic/Items/_ihm_gaussian_obj_ensemble.entity_id.html" xlink:title="&lt;TABLE&gt;" target="_top">
<polygon fill="none" stroke="black" points="205.693,-661 205.693,-680 378.693,-680 378.693,-661 205.693,-661"/>
<text text-anchor="start" x="210.693" y="-668.4" font-family="Helvetica,sans-Serif" font-size="9.00">entity_id</text>
</a>
<a xlink:href="/dictionaries/ihm-extension-6.dic/Items/_ihm_gaussian_obj_ensemble.mean_Cartn_x.html" xlink:title="&lt;TABLE&gt;" target="_top">
<polygon fill="none" stroke="black" points="205.693,-642 205.693,-661 378.693,-661 378.693,-642 205.693,-642"/>
<text text-anchor="start" x="210.693" y="-649.4" font-family="Helvetica,sans-Serif" font-size="9.00">mean_Cartn_x</text>
</a>
<a xlink:href="/dictionaries/ihm-extension-6.dic/Items/_ihm_gaussian_obj_ensemble.mean_Cartn_y.html" xlink:title="&lt;TABLE&gt;" target="_top">
<polygon fill="none" stroke="black" points="205.693,-623 205.693,-642 378.693,-642 378.693,-623 205.693,-623"/>
<text text-anchor="start" x="210.693" y="-630.4" font-family="Helvetica,sans-Serif" font-size="9.00">mean_Cartn_y</text>
</a>
<a xlink:href="/dictionaries/ihm-extension-6.dic/Items/_ihm_gaussian_obj_ensemble.mean_Cartn_z.html" xlink:title="&lt;TABLE&gt;" target="_top">
<polygon fill="none" stroke="black" points="205.693,-604 205.693,-623 378.693,-623 378.693,-604 205.693,-604"/>
<text text-anchor="start" x="210.693" y="-611.4" font-family="Helvetica,sans-Serif" font-size="9.00">mean_Cartn_z</text>
</a>
<a xlink:href="/dictionaries/ihm-extension-6.dic/Items/_ihm_gaussian_obj_ensemble.seq_id_begin.html" xlink:title="&lt;TABLE&gt;" target="_top">
<polygon fill="none" stroke="black" points="205.693,-585 205.693,-604 378.693,-604 378.693,-585 205.693,-585"/>
<text text-anchor="start" x="210.693" y="-592.4" font-family="Helvetica,sans-Serif" font-size="9.00">seq_id_begin</text>
</a>
<a xlink:href="/dictionaries/ihm-extension-6.dic/Items/_ihm_gaussian_obj_ensemble.seq_id_end.html" xlink:title="&lt;TABLE&gt;" target="_top">
<polygon fill="none" stroke="black" points="205.693,-566 205.693,-585 378.693,-585 378.693,-566 205.693,-566"/>
<text text-anchor="start" x="210.693" y="-573.4" font-family="Helvetica,sans-Serif" font-size="9.00">seq_id_end</text>
</a>
<a xlink:href="/dictionaries/ihm-extension-6.dic/Items/_ihm_gaussian_obj_ensemble.weight.html" xlink:title="&lt;TABLE&gt;" target="_top">
<polygon fill="none" stroke="black" points="205.693,-547 205.693,-566 378.693,-566 378.693,-547 205.693,-547"/>
<text text-anchor="start" x="210.693" y="-554.4" font-family="Helvetica,sans-Serif" font-size="9.00">weight</text>
</a>
</g>
<!-- _ihm_gaussian_obj_ensemble&#45;&gt;_ihm_ensemble_info -->
<g id="edge8" class="edge"><title>_ihm_gaussian_obj_ensemble:__ensemble_id:w&#45;&gt;_ihm_ensemble_info:__ensemble_id:w</title>
<path fill="none" stroke="black" d="M203.693,-880C193.4,-880 193.28,-543.468 201.835,-481.683"/>
<polygon fill="black" stroke="black" points="205.219,-482.582 204.693,-472 198.505,-480.6 205.219,-482.582"/>
</g>
<!-- _ihm_localization_density_files -->
<g id="node5" class="node"><title>_ihm_localization_density_files</title>
<a xlink:href="/dictionaries/ihm-extension-6.dic/Categories/ihm_localization_density_files.html" xlink:title="&lt;TABLE&gt;" target="_top">
<polygon fill="#99c49b" stroke="#99c49b" points="411.693,-794 411.693,-815 601.693,-815 601.693,-794 411.693,-794"/>
<polygon fill="none" stroke="black" points="411.693,-794 411.693,-815 601.693,-815 601.693,-794 411.693,-794"/>
<text text-anchor="start" x="417.193" y="-802.167" font-family="Helvetica,sans-Serif" font-size="10.00">IHM_LOCALIZATION_DENSITY_FILES</text>
</a>
<a xlink:href="/dictionaries/ihm-extension-6.dic/Items/_ihm_localization_density_files.id.html" xlink:title="&lt;TABLE&gt;" target="_top">
<polygon fill="#ffff99" stroke="#ffff99" points="411.693,-775 411.693,-794 601.693,-794 601.693,-775 411.693,-775"/>
<polygon fill="none" stroke="black" points="411.693,-775 411.693,-794 601.693,-794 601.693,-775 411.693,-775"/>
<text text-anchor="start" x="416.693" y="-782.4" font-family="Helvetica,sans-Serif" font-size="9.00">id</text>
</a>
<a xlink:href="/dictionaries/ihm-extension-6.dic/Items/_ihm_localization_density_files.ensemble_id.html" xlink:title="&lt;TABLE&gt;" target="_top">
<polygon fill="none" stroke="black" points="411.693,-756 411.693,-775 601.693,-775 601.693,-756 411.693,-756"/>
<text text-anchor="start" x="416.693" y="-763.4" font-family="Helvetica,sans-Serif" font-size="9.00">ensemble_id</text>
</a>
<a xlink:href="/dictionaries/ihm-extension-6.dic/Items/_ihm_localization_density_files.asym_id.html" xlink:title="&lt;TABLE&gt;" target="_top">
<polygon fill="none" stroke="black" points="411.693,-737 411.693,-756 601.693,-756 601.693,-737 411.693,-737"/>
<text text-anchor="start" x="416.693" y="-744.4" font-family="Helvetica,sans-Serif" font-size="9.00">asym_id</text>
</a>
<a xlink:href="/dictionaries/ihm-extension-6.dic/Items/_ihm_localization_density_files.entity_id.html" xlink:title="&lt;TABLE&gt;" target="_top">
<polygon fill="none" stroke="black" points="411.693,-718 411.693,-737 601.693,-737 601.693,-718 411.693,-718"/>
<text text-anchor="start" x="416.693" y="-725.4" font-family="Helvetica,sans-Serif" font-size="9.00">entity_id</text>
</a>
<a xlink:href="/dictionaries/ihm-extension-6.dic/Items/_ihm_localization_density_files.file_id.html" xlink:title="&lt;TABLE&gt;" target="_top">
<polygon fill="none" stroke="black" points="411.693,-699 411.693,-718 601.693,-718 601.693,-699 411.693,-699"/>
<text text-anchor="start" x="416.693" y="-706.4" font-family="Helvetica,sans-Serif" font-size="9.00">file_id</text>
</a>
<a xlink:href="/dictionaries/ihm-extension-6.dic/Items/_ihm_localization_density_files.seq_id_begin.html" xlink:title="&lt;TABLE&gt;" target="_top">
<polygon fill="none" stroke="black" points="411.693,-680 411.693,-699 601.693,-699 601.693,-680 411.693,-680"/>
<text text-anchor="start" x="416.693" y="-687.4" font-family="Helvetica,sans-Serif" font-size="9.00">seq_id_begin</text>
</a>
<a xlink:href="/dictionaries/ihm-extension-6.dic/Items/_ihm_localization_density_files.seq_id_end.html" xlink:title="&lt;TABLE&gt;" target="_top">
<polygon fill="none" stroke="black" points="411.693,-661 411.693,-680 601.693,-680 601.693,-661 411.693,-661"/>
<text text-anchor="start" x="416.693" y="-668.4" font-family="Helvetica,sans-Serif" font-size="9.00">seq_id_end</text>
</a>
</g>
<!-- _ihm_localization_density_files&#45;&gt;_ihm_ensemble_info -->
<g id="edge6" class="edge"><title>_ihm_localization_density_files:__ensemble_id:w&#45;&gt;_ihm_ensemble_info:__ensemble_id:w</title>
<path fill="none" stroke="black" d="M409.693,-766C384.86,-766 411.145,-561.603 394.693,-543 337.73,-478.585 259.462,-572.791 204.693,-506.5 197.979,-498.373 193.25,-485.114 195.932,-477.621"/>
<polygon fill="black" stroke="black" points="198.166,-480.346 204.693,-472 194.387,-474.454 198.166,-480.346"/>
</g>
<!-- _ihm_localization_density_files&#45;&gt;_ihm_external_files -->
<g id="edge14" class="edge"><title>_ihm_localization_density_files:__file_id:w&#45;&gt;_ihm_external_files:__id:w</title>
<path fill="none" stroke="black" d="M409.693,-708C396.918,-708 400.083,-285.824 411.454,-216.561"/>
<polygon fill="black" stroke="black" points="414.799,-217.594 414.693,-207 408.169,-215.348 414.799,-217.594"/>
</g>
</g>
</svg>
