<?xml version="1.0" encoding="UTF-8" standalone="no"?>
<!DOCTYPE svg PUBLIC "-//W3C//DTD SVG 1.1//EN"
 "http://www.w3.org/Graphics/SVG/1.1/DTD/svg11.dtd">
<!-- Generated by graphviz version 2.26.0 (20091210.2329)
 -->
<!-- Title: ihm_ensemble_info Pages: 1 -->
<svg width="472pt" height="921pt"
 viewBox="0.00 0.00 472.00 921.00" xmlns="http://www.w3.org/2000/svg" xmlns:xlink="http://www.w3.org/1999/xlink">
<g id="graph1" class="graph" transform="scale(1 1) rotate(0) translate(4 917)">
<title>ihm_ensemble_info</title>
<polygon fill="white" stroke="white" points="-4,5 -4,-917 469,-917 469,5 -4,5"/>
<text text-anchor="start" x="229" y="-51.8" font-family="Helvetica,sans-Serif" font-size="18.00"> </text>
<text text-anchor="start" x="8.5" y="-30.2" font-family="Helvetica,sans-Serif" font-size="18.00">Selected Relationships for Category </text>
<text text-anchor="start" x="297.5" y="-30.2" font-family="Helvetica,sans-Serif" font-size="18.00">ihm_ensemble_info</text>
<text text-anchor="start" x="451.5" y="-29.8" font-family="Helvetica,sans-Serif" font-size="14.00"> </text>
<text text-anchor="start" x="147.5" y="-11.5333" font-family="Helvetica,sans-Serif" font-size="14.00"> &#160;in dictionary ihm&#45;extension</text>
<!-- _ihm_cross_link_result -->
<g id="node1" class="node"><title>_ihm_cross_link_result</title>
<a xlink:href="/dictionaries/ihm-extension-5.dic/Categories/ihm_cross_link_result.html" xlink:title="&lt;TABLE&gt;" target="_top">
<polygon fill="#99c49b" stroke="#99c49b" points="72.3072,-774 72.3072,-795 216.307,-795 216.307,-774 72.3072,-774"/>
<polygon fill="none" stroke="black" points="72.3072,-774 72.3072,-795 216.307,-795 216.307,-774 72.3072,-774"/>
<text text-anchor="start" x="77.8072" y="-782.167" font-family="Helvetica,sans-Serif" font-size="10.00">IHM_CROSS_LINK_RESULT</text>
</a>
<a xlink:href="/dictionaries/ihm-extension-5.dic/Items/_ihm_cross_link_result.ordinal_id.html" xlink:title="&lt;TABLE&gt;" target="_top">
<polygon fill="#ffff99" stroke="#ffff99" points="72.3072,-755 72.3072,-774 216.307,-774 216.307,-755 72.3072,-755"/>
<polygon fill="none" stroke="black" points="72.3072,-755 72.3072,-774 216.307,-774 216.307,-755 72.3072,-755"/>
<text text-anchor="start" x="77.3072" y="-762.4" font-family="Helvetica,sans-Serif" font-size="9.00">ordinal_id</text>
</a>
<a xlink:href="/dictionaries/ihm-extension-5.dic/Items/_ihm_cross_link_result.ensemble_id.html" xlink:title="&lt;TABLE&gt;" target="_top">
<polygon fill="none" stroke="black" points="72.3072,-736 72.3072,-755 216.307,-755 216.307,-736 72.3072,-736"/>
<text text-anchor="start" x="77.3072" y="-743.4" font-family="Helvetica,sans-Serif" font-size="9.00">ensemble_id</text>
</a>
<a xlink:href="/dictionaries/ihm-extension-5.dic/Items/_ihm_cross_link_result.details.html" xlink:title="&lt;TABLE&gt;" target="_top">
<polygon fill="none" stroke="black" points="72.3072,-717 72.3072,-736 216.307,-736 216.307,-717 72.3072,-717"/>
<text text-anchor="start" x="77.3072" y="-724.4" font-family="Helvetica,sans-Serif" font-size="9.00">details</text>
</a>
<a xlink:href="/dictionaries/ihm-extension-5.dic/Items/_ihm_cross_link_result.distance_threshold.html" xlink:title="&lt;TABLE&gt;" target="_top">
<polygon fill="none" stroke="black" points="72.3072,-698 72.3072,-717 216.307,-717 216.307,-698 72.3072,-698"/>
<text text-anchor="start" x="77.3072" y="-705.4" font-family="Helvetica,sans-Serif" font-size="9.00">distance_threshold</text>
</a>
<a xlink:href="/dictionaries/ihm-extension-5.dic/Items/_ihm_cross_link_result.median_distance.html" xlink:title="&lt;TABLE&gt;" target="_top">
<polygon fill="none" stroke="black" points="72.3072,-679 72.3072,-698 216.307,-698 216.307,-679 72.3072,-679"/>
<text text-anchor="start" x="77.3072" y="-686.4" font-family="Helvetica,sans-Serif" font-size="9.00">median_distance</text>
</a>
<a xlink:href="/dictionaries/ihm-extension-5.dic/Items/_ihm_cross_link_result.num_models.html" xlink:title="&lt;TABLE&gt;" target="_top">
<polygon fill="none" stroke="black" points="72.3072,-660 72.3072,-679 216.307,-679 216.307,-660 72.3072,-660"/>
<text text-anchor="start" x="77.3072" y="-667.4" font-family="Helvetica,sans-Serif" font-size="9.00">num_models</text>
</a>
<a xlink:href="/dictionaries/ihm-extension-5.dic/Items/_ihm_cross_link_result.restraint_id.html" xlink:title="&lt;TABLE&gt;" target="_top">
<polygon fill="none" stroke="black" points="72.3072,-641 72.3072,-660 216.307,-660 216.307,-641 72.3072,-641"/>
<text text-anchor="start" x="77.3072" y="-648.4" font-family="Helvetica,sans-Serif" font-size="9.00">restraint_id</text>
</a>
</g>
<!-- _ihm_ensemble_info -->
<g id="node2" class="node"><title>_ihm_ensemble_info</title>
<a xlink:href="/dictionaries/ihm-extension-5.dic/Categories/ihm_ensemble_info.html" xlink:title="&lt;TABLE&gt;" target="_top">
<polygon fill="#f0027f" stroke="#f0027f" points="161.307,-462 161.307,-483 317.307,-483 317.307,-462 161.307,-462"/>
<polygon fill="none" stroke="black" points="161.307,-462 161.307,-483 317.307,-483 317.307,-462 161.307,-462"/>
<text text-anchor="start" x="184.807" y="-470.167" font-family="Helvetica,sans-Serif" font-size="10.00">IHM_ENSEMBLE_INFO</text>
</a>
<a xlink:href="/dictionaries/ihm-extension-5.dic/Items/_ihm_ensemble_info.ensemble_id.html" xlink:title="&lt;TABLE&gt;" target="_top">
<polygon fill="#ffff99" stroke="#ffff99" points="161.307,-443 161.307,-462 317.307,-462 317.307,-443 161.307,-443"/>
<polygon fill="none" stroke="black" points="161.307,-443 161.307,-462 317.307,-462 317.307,-443 161.307,-443"/>
<text text-anchor="start" x="166.307" y="-450.4" font-family="Helvetica,sans-Serif" font-size="9.00">ensemble_id</text>
</a>
<a xlink:href="/dictionaries/ihm-extension-5.dic/Items/_ihm_ensemble_info.model_group_id.html" xlink:title="&lt;TABLE&gt;" target="_top">
<polygon fill="none" stroke="black" points="161.307,-424 161.307,-443 317.307,-443 317.307,-424 161.307,-424"/>
<text text-anchor="start" x="166.307" y="-431.4" font-family="Helvetica,sans-Serif" font-size="9.00">model_group_id</text>
</a>
<a xlink:href="/dictionaries/ihm-extension-5.dic/Items/_ihm_ensemble_info.post_process_id.html" xlink:title="&lt;TABLE&gt;" target="_top">
<polygon fill="none" stroke="black" points="161.307,-405 161.307,-424 317.307,-424 317.307,-405 161.307,-405"/>
<text text-anchor="start" x="166.307" y="-412.4" font-family="Helvetica,sans-Serif" font-size="9.00">post_process_id</text>
</a>
<a xlink:href="/dictionaries/ihm-extension-5.dic/Items/_ihm_ensemble_info.ensemble_clustering_feature.html" xlink:title="&lt;TABLE&gt;" target="_top">
<polygon fill="none" stroke="black" points="161.307,-386 161.307,-405 317.307,-405 317.307,-386 161.307,-386"/>
<text text-anchor="start" x="166.307" y="-393.4" font-family="Helvetica,sans-Serif" font-size="9.00">ensemble_clustering_feature</text>
</a>
<a xlink:href="/dictionaries/ihm-extension-5.dic/Items/_ihm_ensemble_info.ensemble_clustering_method.html" xlink:title="&lt;TABLE&gt;" target="_top">
<polygon fill="none" stroke="black" points="161.307,-367 161.307,-386 317.307,-386 317.307,-367 161.307,-367"/>
<text text-anchor="start" x="166.307" y="-374.4" font-family="Helvetica,sans-Serif" font-size="9.00">ensemble_clustering_method</text>
</a>
<a xlink:href="/dictionaries/ihm-extension-5.dic/Items/_ihm_ensemble_info.ensemble_name.html" xlink:title="&lt;TABLE&gt;" target="_top">
<polygon fill="none" stroke="black" points="161.307,-348 161.307,-367 317.307,-367 317.307,-348 161.307,-348"/>
<text text-anchor="start" x="166.307" y="-355.4" font-family="Helvetica,sans-Serif" font-size="9.00">ensemble_name</text>
</a>
<a xlink:href="/dictionaries/ihm-extension-5.dic/Items/_ihm_ensemble_info.ensemble_precision_value.html" xlink:title="&lt;TABLE&gt;" target="_top">
<polygon fill="none" stroke="black" points="161.307,-329 161.307,-348 317.307,-348 317.307,-329 161.307,-329"/>
<text text-anchor="start" x="166.307" y="-336.4" font-family="Helvetica,sans-Serif" font-size="9.00">ensemble_precision_value</text>
</a>
<a xlink:href="/dictionaries/ihm-extension-5.dic/Items/_ihm_ensemble_info.num_ensemble_models.html" xlink:title="&lt;TABLE&gt;" target="_top">
<polygon fill="none" stroke="black" points="161.307,-310 161.307,-329 317.307,-329 317.307,-310 161.307,-310"/>
<text text-anchor="start" x="166.307" y="-317.4" font-family="Helvetica,sans-Serif" font-size="9.00">num_ensemble_models</text>
</a>
<a xlink:href="/dictionaries/ihm-extension-5.dic/Items/_ihm_ensemble_info.num_ensemble_models_deposited.html" xlink:title="&lt;TABLE&gt;" target="_top">
<polygon fill="none" stroke="black" points="161.307,-291 161.307,-310 317.307,-310 317.307,-291 161.307,-291"/>
<text text-anchor="start" x="166.307" y="-298.4" font-family="Helvetica,sans-Serif" font-size="9.00">num_ensemble_models_deposited</text>
</a>
</g>
<!-- _ihm_cross_link_result&#45;&gt;_ihm_ensemble_info -->
<g id="edge2" class="edge"><title>_ihm_cross_link_result:__ensemble_id:w&#45;&gt;_ihm_ensemble_info:__ensemble_id:w</title>
<path fill="none" stroke="black" d="M70.3072,-746C5.45713,-746 84.6209,-480.915 151.178,-455.027"/>
<polygon fill="black" stroke="black" points="152.189,-458.395 161.307,-453 150.815,-451.531 152.189,-458.395"/>
</g>
<!-- _ihm_model_list -->
<g id="node4" class="node"><title>_ihm_model_list</title>
<a xlink:href="/dictionaries/ihm-extension-5.dic/Categories/ihm_model_list.html" xlink:title="&lt;TABLE&gt;" target="_top">
<polygon fill="#99c49b" stroke="#99c49b" points="96.3072,-206 96.3072,-227 193.307,-227 193.307,-206 96.3072,-206"/>
<polygon fill="none" stroke="black" points="96.3072,-206 96.3072,-227 193.307,-227 193.307,-206 96.3072,-206"/>
<text text-anchor="start" x="101.807" y="-214.167" font-family="Helvetica,sans-Serif" font-size="10.00">IHM_MODEL_LIST</text>
</a>
<a xlink:href="/dictionaries/ihm-extension-5.dic/Items/_ihm_model_list.ordinal_id.html" xlink:title="&lt;TABLE&gt;" target="_top">
<polygon fill="#ffff99" stroke="#ffff99" points="96.3072,-187 96.3072,-206 193.307,-206 193.307,-187 96.3072,-187"/>
<polygon fill="none" stroke="black" points="96.3072,-187 96.3072,-206 193.307,-206 193.307,-187 96.3072,-187"/>
<text text-anchor="start" x="101.307" y="-194.4" font-family="Helvetica,sans-Serif" font-size="9.00">ordinal_id</text>
</a>
<a xlink:href="/dictionaries/ihm-extension-5.dic/Items/_ihm_model_list.model_group_id.html" xlink:title="&lt;TABLE&gt;" target="_top">
<polygon fill="none" stroke="black" points="96.3072,-168 96.3072,-187 193.307,-187 193.307,-168 96.3072,-168"/>
<text text-anchor="start" x="101.307" y="-175.4" font-family="Helvetica,sans-Serif" font-size="9.00">model_group_id</text>
</a>
<a xlink:href="/dictionaries/ihm-extension-5.dic/Items/_ihm_model_list.assembly_id.html" xlink:title="&lt;TABLE&gt;" target="_top">
<polygon fill="none" stroke="black" points="96.3072,-149 96.3072,-168 193.307,-168 193.307,-149 96.3072,-149"/>
<text text-anchor="start" x="101.307" y="-156.4" font-family="Helvetica,sans-Serif" font-size="9.00">assembly_id</text>
</a>
<a xlink:href="/dictionaries/ihm-extension-5.dic/Items/_ihm_model_list.model_group_name.html" xlink:title="&lt;TABLE&gt;" target="_top">
<polygon fill="none" stroke="black" points="96.3072,-130 96.3072,-149 193.307,-149 193.307,-130 96.3072,-130"/>
<text text-anchor="start" x="101.307" y="-137.4" font-family="Helvetica,sans-Serif" font-size="9.00">model_group_name</text>
</a>
<a xlink:href="/dictionaries/ihm-extension-5.dic/Items/_ihm_model_list.model_id.html" xlink:title="&lt;TABLE&gt;" target="_top">
<polygon fill="none" stroke="black" points="96.3072,-111 96.3072,-130 193.307,-130 193.307,-111 96.3072,-111"/>
<text text-anchor="start" x="101.307" y="-118.4" font-family="Helvetica,sans-Serif" font-size="9.00">model_id</text>
</a>
<a xlink:href="/dictionaries/ihm-extension-5.dic/Items/_ihm_model_list.protocol_id.html" xlink:title="&lt;TABLE&gt;" target="_top">
<polygon fill="none" stroke="black" points="96.3072,-92 96.3072,-111 193.307,-111 193.307,-92 96.3072,-92"/>
<text text-anchor="start" x="101.307" y="-99.4" font-family="Helvetica,sans-Serif" font-size="9.00">protocol_id</text>
</a>
</g>
<!-- _ihm_ensemble_info&#45;&gt;_ihm_model_list -->
<g id="edge6" class="edge"><title>_ihm_ensemble_info:__model_group_id:w&#45;&gt;_ihm_model_list:__model_group_id:w</title>
<path fill="none" stroke="black" d="M159.307,-434C45.682,-434 -17.0011,-193.265 86.1574,-178.69"/>
<polygon fill="black" stroke="black" points="86.5675,-182.17 96.3072,-178 86.0929,-175.186 86.5675,-182.17"/>
</g>
<!-- _ihm_modeling_post_process -->
<g id="node5" class="node"><title>_ihm_modeling_post_process</title>
<a xlink:href="/dictionaries/ihm-extension-5.dic/Categories/ihm_modeling_post_process.html" xlink:title="&lt;TABLE&gt;" target="_top">
<polygon fill="#99c49b" stroke="#99c49b" points="226.307,-225 226.307,-246 402.307,-246 402.307,-225 226.307,-225"/>
<polygon fill="none" stroke="black" points="226.307,-225 226.307,-246 402.307,-246 402.307,-225 226.307,-225"/>
<text text-anchor="start" x="231.807" y="-233.167" font-family="Helvetica,sans-Serif" font-size="10.00">IHM_MODELING_POST_PROCESS</text>
</a>
<a xlink:href="/dictionaries/ihm-extension-5.dic/Items/_ihm_modeling_post_process.id.html" xlink:title="&lt;TABLE&gt;" target="_top">
<polygon fill="#ffff99" stroke="#ffff99" points="226.307,-206 226.307,-225 402.307,-225 402.307,-206 226.307,-206"/>
<polygon fill="none" stroke="black" points="226.307,-206 226.307,-225 402.307,-225 402.307,-206 226.307,-206"/>
<text text-anchor="start" x="231.307" y="-213.4" font-family="Helvetica,sans-Serif" font-size="9.00">id</text>
</a>
<a xlink:href="/dictionaries/ihm-extension-5.dic/Items/_ihm_modeling_post_process.analysis_id.html" xlink:title="&lt;TABLE&gt;" target="_top">
<polygon fill="none" stroke="black" points="226.307,-187 226.307,-206 402.307,-206 402.307,-187 226.307,-187"/>
<text text-anchor="start" x="231.307" y="-194.4" font-family="Helvetica,sans-Serif" font-size="9.00">analysis_id</text>
</a>
<a xlink:href="/dictionaries/ihm-extension-5.dic/Items/_ihm_modeling_post_process.feature.html" xlink:title="&lt;TABLE&gt;" target="_top">
<polygon fill="none" stroke="black" points="226.307,-168 226.307,-187 402.307,-187 402.307,-168 226.307,-168"/>
<text text-anchor="start" x="231.307" y="-175.4" font-family="Helvetica,sans-Serif" font-size="9.00">feature</text>
</a>
<a xlink:href="/dictionaries/ihm-extension-5.dic/Items/_ihm_modeling_post_process.num_models_begin.html" xlink:title="&lt;TABLE&gt;" target="_top">
<polygon fill="none" stroke="black" points="226.307,-149 226.307,-168 402.307,-168 402.307,-149 226.307,-149"/>
<text text-anchor="start" x="231.307" y="-156.4" font-family="Helvetica,sans-Serif" font-size="9.00">num_models_begin</text>
</a>
<a xlink:href="/dictionaries/ihm-extension-5.dic/Items/_ihm_modeling_post_process.num_models_end.html" xlink:title="&lt;TABLE&gt;" target="_top">
<polygon fill="none" stroke="black" points="226.307,-130 226.307,-149 402.307,-149 402.307,-130 226.307,-130"/>
<text text-anchor="start" x="231.307" y="-137.4" font-family="Helvetica,sans-Serif" font-size="9.00">num_models_end</text>
</a>
<a xlink:href="/dictionaries/ihm-extension-5.dic/Items/_ihm_modeling_post_process.protocol_id.html" xlink:title="&lt;TABLE&gt;" target="_top">
<polygon fill="none" stroke="black" points="226.307,-111 226.307,-130 402.307,-130 402.307,-111 226.307,-111"/>
<text text-anchor="start" x="231.307" y="-118.4" font-family="Helvetica,sans-Serif" font-size="9.00">protocol_id</text>
</a>
<a xlink:href="/dictionaries/ihm-extension-5.dic/Items/_ihm_modeling_post_process.step_id.html" xlink:title="&lt;TABLE&gt;" target="_top">
<polygon fill="none" stroke="black" points="226.307,-92 226.307,-111 402.307,-111 402.307,-92 226.307,-92"/>
<text text-anchor="start" x="231.307" y="-99.4" font-family="Helvetica,sans-Serif" font-size="9.00">step_id</text>
</a>
<a xlink:href="/dictionaries/ihm-extension-5.dic/Items/_ihm_modeling_post_process.type.html" xlink:title="&lt;TABLE&gt;" target="_top">
<polygon fill="none" stroke="black" points="226.307,-73 226.307,-92 402.307,-92 402.307,-73 226.307,-73"/>
<text text-anchor="start" x="231.307" y="-80.4" font-family="Helvetica,sans-Serif" font-size="9.00">type</text>
</a>
</g>
<!-- _ihm_ensemble_info&#45;&gt;_ihm_modeling_post_process -->
<g id="edge8" class="edge"><title>_ihm_ensemble_info:__post_process_id:w&#45;&gt;_ihm_modeling_post_process:__id:w</title>
<path fill="none" stroke="black" d="M159.307,-415C102.411,-415 135.466,-337.689 161.307,-287 173.419,-263.242 192.339,-271.571 209.307,-251 217.045,-241.62 213.756,-228.127 217.133,-220.942"/>
<polygon fill="black" stroke="black" points="219.164,-223.824 226.307,-216 215.843,-217.662 219.164,-223.824"/>
</g>
<!-- _ihm_gaussian_obj_ensemble -->
<g id="node3" class="node"><title>_ihm_gaussian_obj_ensemble</title>
<a xlink:href="/dictionaries/ihm-extension-5.dic/Categories/ihm_gaussian_obj_ensemble.html" xlink:title="&lt;TABLE&gt;" target="_top">
<polygon fill="#99c49b" stroke="#99c49b" points="250.307,-888 250.307,-909 423.307,-909 423.307,-888 250.307,-888"/>
<polygon fill="none" stroke="black" points="250.307,-888 250.307,-909 423.307,-909 423.307,-888 250.307,-888"/>
<text text-anchor="start" x="255.807" y="-896.167" font-family="Helvetica,sans-Serif" font-size="10.00">IHM_GAUSSIAN_OBJ_ENSEMBLE</text>
</a>
<a xlink:href="/dictionaries/ihm-extension-5.dic/Items/_ihm_gaussian_obj_ensemble.ordinal_id.html" xlink:title="&lt;TABLE&gt;" target="_top">
<polygon fill="#ffff99" stroke="#ffff99" points="250.307,-869 250.307,-888 423.307,-888 423.307,-869 250.307,-869"/>
<polygon fill="none" stroke="black" points="250.307,-869 250.307,-888 423.307,-888 423.307,-869 250.307,-869"/>
<text text-anchor="start" x="255.307" y="-876.4" font-family="Helvetica,sans-Serif" font-size="9.00">ordinal_id</text>
</a>
<a xlink:href="/dictionaries/ihm-extension-5.dic/Items/_ihm_gaussian_obj_ensemble.ensemble_id.html" xlink:title="&lt;TABLE&gt;" target="_top">
<polygon fill="none" stroke="black" points="250.307,-850 250.307,-869 423.307,-869 423.307,-850 250.307,-850"/>
<text text-anchor="start" x="255.307" y="-857.4" font-family="Helvetica,sans-Serif" font-size="9.00">ensemble_id</text>
</a>
<a xlink:href="/dictionaries/ihm-extension-5.dic/Items/_ihm_gaussian_obj_ensemble.asym_id.html" xlink:title="&lt;TABLE&gt;" target="_top">
<polygon fill="none" stroke="black" points="250.307,-831 250.307,-850 423.307,-850 423.307,-831 250.307,-831"/>
<text text-anchor="start" x="255.307" y="-838.4" font-family="Helvetica,sans-Serif" font-size="9.00">asym_id</text>
</a>
<a xlink:href="/dictionaries/ihm-extension-5.dic/Items/_ihm_gaussian_obj_ensemble.covariance_matrix[1][1].html" xlink:title="&lt;TABLE&gt;" target="_top">
<polygon fill="none" stroke="black" points="250.307,-812 250.307,-831 423.307,-831 423.307,-812 250.307,-812"/>
<text text-anchor="start" x="255.307" y="-819.4" font-family="Helvetica,sans-Serif" font-size="9.00">covariance_matrix[1][1]</text>
</a>
<a xlink:href="/dictionaries/ihm-extension-5.dic/Items/_ihm_gaussian_obj_ensemble.covariance_matrix[1][2].html" xlink:title="&lt;TABLE&gt;" target="_top">
<polygon fill="none" stroke="black" points="250.307,-793 250.307,-812 423.307,-812 423.307,-793 250.307,-793"/>
<text text-anchor="start" x="255.307" y="-800.4" font-family="Helvetica,sans-Serif" font-size="9.00">covariance_matrix[1][2]</text>
</a>
<a xlink:href="/dictionaries/ihm-extension-5.dic/Items/_ihm_gaussian_obj_ensemble.covariance_matrix[1][3].html" xlink:title="&lt;TABLE&gt;" target="_top">
<polygon fill="none" stroke="black" points="250.307,-774 250.307,-793 423.307,-793 423.307,-774 250.307,-774"/>
<text text-anchor="start" x="255.307" y="-781.4" font-family="Helvetica,sans-Serif" font-size="9.00">covariance_matrix[1][3]</text>
</a>
<a xlink:href="/dictionaries/ihm-extension-5.dic/Items/_ihm_gaussian_obj_ensemble.covariance_matrix[2][1].html" xlink:title="&lt;TABLE&gt;" target="_top">
<polygon fill="none" stroke="black" points="250.307,-755 250.307,-774 423.307,-774 423.307,-755 250.307,-755"/>
<text text-anchor="start" x="255.307" y="-762.4" font-family="Helvetica,sans-Serif" font-size="9.00">covariance_matrix[2][1]</text>
</a>
<a xlink:href="/dictionaries/ihm-extension-5.dic/Items/_ihm_gaussian_obj_ensemble.covariance_matrix[2][2].html" xlink:title="&lt;TABLE&gt;" target="_top">
<polygon fill="none" stroke="black" points="250.307,-736 250.307,-755 423.307,-755 423.307,-736 250.307,-736"/>
<text text-anchor="start" x="255.307" y="-743.4" font-family="Helvetica,sans-Serif" font-size="9.00">covariance_matrix[2][2]</text>
</a>
<a xlink:href="/dictionaries/ihm-extension-5.dic/Items/_ihm_gaussian_obj_ensemble.covariance_matrix[2][3].html" xlink:title="&lt;TABLE&gt;" target="_top">
<polygon fill="none" stroke="black" points="250.307,-717 250.307,-736 423.307,-736 423.307,-717 250.307,-717"/>
<text text-anchor="start" x="255.307" y="-724.4" font-family="Helvetica,sans-Serif" font-size="9.00">covariance_matrix[2][3]</text>
</a>
<a xlink:href="/dictionaries/ihm-extension-5.dic/Items/_ihm_gaussian_obj_ensemble.covariance_matrix[3][1].html" xlink:title="&lt;TABLE&gt;" target="_top">
<polygon fill="none" stroke="black" points="250.307,-698 250.307,-717 423.307,-717 423.307,-698 250.307,-698"/>
<text text-anchor="start" x="255.307" y="-705.4" font-family="Helvetica,sans-Serif" font-size="9.00">covariance_matrix[3][1]</text>
</a>
<a xlink:href="/dictionaries/ihm-extension-5.dic/Items/_ihm_gaussian_obj_ensemble.covariance_matrix[3][2].html" xlink:title="&lt;TABLE&gt;" target="_top">
<polygon fill="none" stroke="black" points="250.307,-679 250.307,-698 423.307,-698 423.307,-679 250.307,-679"/>
<text text-anchor="start" x="255.307" y="-686.4" font-family="Helvetica,sans-Serif" font-size="9.00">covariance_matrix[3][2]</text>
</a>
<a xlink:href="/dictionaries/ihm-extension-5.dic/Items/_ihm_gaussian_obj_ensemble.covariance_matrix[3][3].html" xlink:title="&lt;TABLE&gt;" target="_top">
<polygon fill="none" stroke="black" points="250.307,-660 250.307,-679 423.307,-679 423.307,-660 250.307,-660"/>
<text text-anchor="start" x="255.307" y="-667.4" font-family="Helvetica,sans-Serif" font-size="9.00">covariance_matrix[3][3]</text>
</a>
<a xlink:href="/dictionaries/ihm-extension-5.dic/Items/_ihm_gaussian_obj_ensemble.entity_id.html" xlink:title="&lt;TABLE&gt;" target="_top">
<polygon fill="none" stroke="black" points="250.307,-641 250.307,-660 423.307,-660 423.307,-641 250.307,-641"/>
<text text-anchor="start" x="255.307" y="-648.4" font-family="Helvetica,sans-Serif" font-size="9.00">entity_id</text>
</a>
<a xlink:href="/dictionaries/ihm-extension-5.dic/Items/_ihm_gaussian_obj_ensemble.mean_Cartn_x.html" xlink:title="&lt;TABLE&gt;" target="_top">
<polygon fill="none" stroke="black" points="250.307,-622 250.307,-641 423.307,-641 423.307,-622 250.307,-622"/>
<text text-anchor="start" x="255.307" y="-629.4" font-family="Helvetica,sans-Serif" font-size="9.00">mean_Cartn_x</text>
</a>
<a xlink:href="/dictionaries/ihm-extension-5.dic/Items/_ihm_gaussian_obj_ensemble.mean_Cartn_y.html" xlink:title="&lt;TABLE&gt;" target="_top">
<polygon fill="none" stroke="black" points="250.307,-603 250.307,-622 423.307,-622 423.307,-603 250.307,-603"/>
<text text-anchor="start" x="255.307" y="-610.4" font-family="Helvetica,sans-Serif" font-size="9.00">mean_Cartn_y</text>
</a>
<a xlink:href="/dictionaries/ihm-extension-5.dic/Items/_ihm_gaussian_obj_ensemble.mean_Cartn_z.html" xlink:title="&lt;TABLE&gt;" target="_top">
<polygon fill="none" stroke="black" points="250.307,-584 250.307,-603 423.307,-603 423.307,-584 250.307,-584"/>
<text text-anchor="start" x="255.307" y="-591.4" font-family="Helvetica,sans-Serif" font-size="9.00">mean_Cartn_z</text>
</a>
<a xlink:href="/dictionaries/ihm-extension-5.dic/Items/_ihm_gaussian_obj_ensemble.seq_id_begin.html" xlink:title="&lt;TABLE&gt;" target="_top">
<polygon fill="none" stroke="black" points="250.307,-565 250.307,-584 423.307,-584 423.307,-565 250.307,-565"/>
<text text-anchor="start" x="255.307" y="-572.4" font-family="Helvetica,sans-Serif" font-size="9.00">seq_id_begin</text>
</a>
<a xlink:href="/dictionaries/ihm-extension-5.dic/Items/_ihm_gaussian_obj_ensemble.seq_id_end.html" xlink:title="&lt;TABLE&gt;" target="_top">
<polygon fill="none" stroke="black" points="250.307,-546 250.307,-565 423.307,-565 423.307,-546 250.307,-546"/>
<text text-anchor="start" x="255.307" y="-553.4" font-family="Helvetica,sans-Serif" font-size="9.00">seq_id_end</text>
</a>
<a xlink:href="/dictionaries/ihm-extension-5.dic/Items/_ihm_gaussian_obj_ensemble.weight.html" xlink:title="&lt;TABLE&gt;" target="_top">
<polygon fill="none" stroke="black" points="250.307,-527 250.307,-546 423.307,-546 423.307,-527 250.307,-527"/>
<text text-anchor="start" x="255.307" y="-534.4" font-family="Helvetica,sans-Serif" font-size="9.00">weight</text>
</a>
</g>
<!-- _ihm_gaussian_obj_ensemble&#45;&gt;_ihm_ensemble_info -->
<g id="edge4" class="edge"><title>_ihm_gaussian_obj_ensemble:__ensemble_id:w&#45;&gt;_ihm_ensemble_info:__ensemble_id:w</title>
<path fill="none" stroke="black" d="M248.307,-860C229.566,-860 243.512,-538.719 233.307,-523 213.826,-492.992 180.116,-517.434 161.307,-487 155.908,-478.263 150.867,-465.696 152.937,-458.541"/>
<polygon fill="black" stroke="black" points="154.901,-461.439 161.307,-453 151.037,-455.602 154.901,-461.439"/>
</g>
</g>
</svg>
